<svg width="26" height="26" viewBox="0 0 26 26" fill="none" xmlns="http://www.w3.org/2000/svg">
<path fill-rule="evenodd" clip-rule="evenodd" d="M21.6928 0.458797C21.3102 0.234877 20.8209 0.367767 20.6 0.755597L18.1533 5.05237C16.4864 4.27213 14.7609 3.87319 13.0142 3.87319C8.32104 3.87319 3.781 6.75506 0.11993 12.1727L0.10541 12.194L0.0927099 12.2124C-0.0292381 12.387 -0.0323511 12.5923 0.0920999 12.7649C2.79364 16.7777 5.97705 19.4058 9.3484 20.5104L7.39935 23.9308C7.1784 24.3187 7.30951 24.8146 7.69214 25.0385L8.03857 25.2412C8.4212 25.4651 8.91046 25.3323 9.1314 24.9444L22.332 1.7692C22.553 1.38137 22.4219 0.885457 22.0392 0.661527L21.6928 0.458797ZM17.092 6.91567C15.7353 6.31836 14.3654 6.02722 13.0142 6.02722C9.6042 6.02722 6.07416 7.88173 2.93908 11.8325C2.63812 12.2118 2.63812 12.7647 2.93908 13.144C5.28912 16.1056 7.86102 17.8897 10.438 18.5976L11.7855 16.2318C10.2462 15.7408 8.97333 14.3713 8.97333 12.4904C8.97333 10.1112 10.7969 8.1823 13.046 8.1823C14.0842 8.1823 15.0317 8.5933 15.7511 9.26982L17.092 6.91567ZM14.639 11.2223C14.2926 10.6853 13.7231 10.3363 13.046 10.3363C11.9205 10.3363 11 11.2992 11 12.4888C11 13.275 11.8432 14.1937 12.9024 14.271L14.639 11.2223Z" fill="#888888"/>
<path d="M13.6875 21.0856C18.1313 20.8243 22.4058 17.9782 25.8866 12.8405C25.9595 12.7329 26.0002 12.6216 26.0002 12.4892C26.0002 12.363 25.9652 12.2576 25.8958 12.155C24.5581 10.1772 23.1027 8.53833 21.5654 7.25505L20.5062 9.11468C21.3889 9.87478 22.2533 10.7795 23.0896 11.8334C23.3906 12.2127 23.3906 12.7656 23.0896 13.1449C20.5678 16.323 17.7905 18.1452 15.0256 18.7365L13.6875 21.0856Z" fill="#888888"/>
</svg>
