<svg width="280" height="210" viewBox="0 0 280 210" fill="none" xmlns="http://www.w3.org/2000/svg">
<path d="M227.15 189.397L43.1898 189.047C43.1272 189.042 43.0689 189.014 43.0265 188.967C42.984 188.921 42.9604 188.86 42.9604 188.797C42.9604 188.736 42.984 188.675 43.0265 188.629C43.0689 188.582 43.1272 188.554 43.1898 188.549L227.152 188.899C227.213 188.906 227.269 188.935 227.311 188.981C227.351 189.028 227.374 189.088 227.374 189.149C227.374 189.21 227.351 189.27 227.311 189.317C227.269 189.362 227.213 189.392 227.152 189.399L227.15 189.397Z" fill="#B2B6BB"/>
<path d="M194.465 93.1646C193.235 93.763 191.9 94.1131 190.535 94.1952C189.168 94.2771 187.801 94.0895 186.508 93.6427C185.215 93.196 184.023 92.4991 182.999 91.5916C181.975 90.684 181.142 89.584 180.544 88.3539C179.336 85.8696 179.165 83.0073 180.066 80.3967C180.969 77.786 182.871 75.6407 185.356 74.4327C187.84 73.2248 190.703 73.0532 193.314 73.9553C195.923 74.8574 198.068 76.7596 199.278 79.2434C200.485 81.7277 200.657 84.59 199.754 87.2007C198.851 89.8113 196.948 91.9566 194.465 93.1646Z" fill="#5292B8"/>
<path d="M187.84 86.4624C187.878 86.4638 187.917 86.456 187.954 86.4395C187.989 86.4229 188.018 86.3982 188.043 86.3674C188.066 86.3364 188.081 86.3004 188.088 86.2622C188.095 86.2239 188.094 86.1845 188.081 86.1474C188.057 86.0214 187.989 85.7047 187.962 85.5717C187.927 85.3967 187.884 85.3424 187.698 85.2602C187.236 85.05 186.869 84.6759 186.667 84.2102C185.882 82.5949 186.387 80.5614 188.325 79.6199C190.04 78.7852 191.494 79.3749 192.175 80.7749C193.071 82.6177 193.011 84.5689 191.8 85.1499C191.132 85.4754 190.363 85.1657 190.194 84.4114C189.992 83.5067 189.938 82.4532 189.655 81.8687C189.401 81.3437 188.907 81.0462 188.326 81.3279C187.642 81.6604 187.437 82.6352 187.898 83.5819C188.064 83.9318 188.304 84.2424 188.598 84.4937C188.598 84.4937 189.34 87.7959 189.473 88.3752C189.73 89.5267 190.554 90.6939 190.635 90.8129C190.645 90.8299 190.661 90.8432 190.678 90.8511C190.696 90.8591 190.717 90.8611 190.736 90.857C190.755 90.853 190.773 90.843 190.785 90.8285C190.799 90.814 190.808 90.7958 190.81 90.7762C190.832 90.6624 191.16 89.2624 190.946 88.1232C190.885 87.8012 190.542 86.1492 190.542 86.1492C190.969 86.4642 191.798 86.5219 192.489 86.1859C194.544 85.1867 195.025 82.6369 193.807 80.1309C192.885 78.2357 190.423 77.2504 187.982 78.4369C184.945 79.9139 184.482 82.8347 185.357 84.6494C185.878 85.7502 186.771 86.5324 187.84 86.4624Z" fill="white"/>
<path d="M109.919 64.1516C106.882 64.1516 103.968 62.9448 101.82 60.7969C99.6723 58.6489 98.4655 55.7355 98.4655 52.6979C98.4655 49.6602 99.6723 46.7468 101.82 44.5989C103.968 42.4509 106.882 41.2441 109.919 41.2441C111.423 41.2441 112.913 41.5404 114.302 42.116C115.692 42.6916 116.955 43.5352 118.018 44.5989C119.082 45.6624 119.926 46.9252 120.501 48.3147C121.077 49.7043 121.373 51.1938 121.373 52.6979C121.373 54.202 121.077 55.6914 120.501 57.0811C119.926 58.4706 119.082 59.7332 118.018 60.7969C116.955 61.8605 115.692 62.7042 114.302 63.2798C112.913 63.8554 111.423 64.1516 109.919 64.1516Z" fill="#868A91"/>
<path d="M107.096 50.1445H104.725V57.8025H107.096V50.1445Z" fill="white"/>
<path d="M105.9 49.1416C106.18 49.1444 106.455 49.0638 106.689 48.9101C106.923 48.7565 107.107 48.5367 107.216 48.2785C107.325 48.0204 107.355 47.7357 107.302 47.4604C107.249 47.1853 107.116 46.9319 106.919 46.7328C106.721 46.5336 106.469 46.3976 106.195 46.342C105.92 46.2862 105.635 46.3135 105.376 46.42C105.117 46.5266 104.895 46.7077 104.739 46.9407C104.583 47.1734 104.5 47.4475 104.5 47.7276C104.498 47.9126 104.533 48.0962 104.602 48.2677C104.672 48.4392 104.775 48.5951 104.905 48.7267C105.035 48.8581 105.19 48.9624 105.361 49.0337C105.531 49.1051 105.715 49.1416 105.9 49.1416Z" fill="white"/>
<path d="M110.885 53.7829C110.885 52.7067 111.381 52.0644 112.329 52.0644C113.204 52.0644 113.621 52.6804 113.621 53.7829V57.8079H115.981V52.9534C115.981 50.9024 114.819 49.9119 113.195 49.9102C112.734 49.9039 112.279 50.0171 111.875 50.2388C111.47 50.4605 111.13 50.7832 110.887 51.1754V50.1447H108.612V57.8027H110.887L110.885 53.7829Z" fill="white"/>
<path d="M122.5 56.1907H174.918C176.806 56.1907 178.616 56.9406 179.951 58.2753C181.286 59.61 182.035 61.4204 182.035 63.3079V181.592C182.035 183.48 181.286 185.29 179.951 186.625C178.616 187.96 176.806 188.709 174.918 188.709H121.413C120.434 188.709 119.495 188.321 118.802 187.628C118.11 186.935 117.721 185.997 117.721 185.017V60.9647C117.721 60.3373 117.845 59.7162 118.085 59.1368C118.326 58.5574 118.678 58.031 119.122 57.5877C119.565 57.1443 120.092 56.7927 120.672 56.5531C121.252 56.3134 121.873 56.1902 122.5 56.1907Z" fill="#3F4249"/>
<path opacity="0.3" d="M122.5 56.1907H174.918C176.806 56.1907 178.616 56.9406 179.951 58.2753C181.286 59.61 182.035 61.4204 182.035 63.3079V181.592C182.035 183.48 181.286 185.29 179.951 186.625C178.616 187.96 176.806 188.709 174.918 188.709H122.285C121.075 188.709 119.914 188.228 119.058 187.372C118.202 186.517 117.721 185.356 117.721 184.145V60.9647C117.721 60.3373 117.845 59.7162 118.085 59.1368C118.326 58.5574 118.678 58.031 119.122 57.5877C119.565 57.1443 120.092 56.7927 120.672 56.5531C121.252 56.3134 121.873 56.1902 122.5 56.1907Z" fill="black"/>
<path d="M176.922 58.0264H116.568V185.44H176.922V58.0264Z" fill="white"/>
<path d="M175.768 58.5305H117.318V73.4055H175.768V58.5305Z" fill="#5292B8"/>
<path d="M171.365 167.662V144.037C171.365 143.84 171.287 143.651 171.148 143.511C171.008 143.372 170.819 143.293 170.621 143.293H122.234C122.037 143.293 121.848 143.372 121.708 143.511C121.569 143.651 121.49 143.84 121.49 144.037V152.348L171.365 152.336V167.662ZM125.969 150.292C125.511 150.293 125.063 150.159 124.681 149.905C124.3 149.652 124.002 149.291 123.826 148.868C123.65 148.445 123.603 147.98 123.692 147.531C123.78 147.081 124 146.668 124.324 146.344C124.647 146.02 125.06 145.799 125.509 145.71C125.958 145.62 126.423 145.666 126.846 145.841C127.27 146.016 127.631 146.313 127.886 146.694C128.14 147.074 128.275 147.522 128.275 147.98C128.275 148.592 128.032 149.179 127.599 149.612C127.167 150.045 126.581 150.29 125.969 150.292Z" fill="#DADDDF"/>
<path d="M171.362 152.337L121.487 152.35V184.667H123.965L139.008 164.552L149.8 179.107L157.108 171.325L168.712 184.672H171.369V167.664L171.362 152.337ZM149.781 164.617C149.144 164.611 148.522 164.417 147.995 164.059C147.468 163.7 147.059 163.194 146.819 162.604C146.579 162.013 146.52 161.365 146.648 160.741C146.775 160.116 147.085 159.544 147.538 159.095C147.991 158.647 148.566 158.342 149.192 158.22C149.817 158.098 150.465 158.163 151.053 158.408C151.641 158.654 152.144 159.067 152.497 159.598C152.851 160.128 153.039 160.751 153.039 161.388C153.037 161.814 152.952 162.236 152.787 162.629C152.622 163.022 152.382 163.378 152.079 163.678C151.776 163.978 151.418 164.215 151.023 164.376C150.629 164.537 150.207 164.619 149.781 164.617Z" fill="#B2B6BB"/>
<path d="M149.795 179.107L139.01 164.552L123.968 184.667L168.712 184.671L157.106 171.323L149.795 179.107Z" fill="white"/>
<path d="M149.779 158.161C149.142 158.168 148.52 158.362 147.994 158.721C147.467 159.079 147.058 159.586 146.818 160.177C146.579 160.767 146.519 161.416 146.648 162.04C146.776 162.664 147.086 163.236 147.539 163.685C147.992 164.133 148.567 164.437 149.193 164.559C149.819 164.681 150.466 164.615 151.054 164.37C151.642 164.124 152.145 163.71 152.498 163.179C152.851 162.649 153.039 162.026 153.039 161.388C153.037 160.962 152.951 160.541 152.786 160.148C152.621 159.755 152.38 159.399 152.078 159.099C151.775 158.8 151.416 158.563 151.021 158.402C150.627 158.241 150.205 158.159 149.779 158.161Z" fill="white"/>
<path d="M125.97 150.292C127.247 150.292 128.282 149.257 128.282 147.98C128.282 146.703 127.247 145.668 125.97 145.668C124.694 145.668 123.659 146.703 123.659 147.98C123.659 149.257 124.694 150.292 125.97 150.292Z" fill="#B2B6BB"/>
<path d="M130.072 147.226L150.111 147.228" stroke="#263238" stroke-width="0.88" stroke-miterlimit="10" stroke-linecap="round"/>
<path d="M130.149 148.229H139.785" stroke="#263238" stroke-width="0.88" stroke-miterlimit="10" stroke-linecap="round"/>
<path d="M175.763 175.956H117.313V186.281H175.763V175.956Z" fill="#5292B8"/>
<path d="M171.24 184.895H121.846C119.357 184.895 117.341 182.969 117.341 180.602V63.9835C117.341 61.614 119.359 59.6908 121.848 59.6908H130.739C131.259 59.6832 131.768 59.8397 132.193 60.1379C132.619 60.4359 132.94 60.8606 133.111 61.3515L133.518 62.5905C133.689 63.0816 134.01 63.5065 134.435 63.8048C134.861 64.1032 135.37 64.26 135.89 64.253H157.205C157.724 64.2605 158.233 64.1041 158.659 63.8059C159.084 63.5079 159.405 63.0831 159.576 62.5923L159.984 61.3533C160.154 60.8624 160.475 60.4377 160.901 60.1396C161.326 59.8414 161.835 59.685 162.355 59.6925H171.247C173.735 59.6925 175.753 61.6175 175.751 63.9853V180.603C175.746 182.973 173.728 184.895 171.24 184.895ZM114.393 62.1968V182.549C114.393 184.163 115.033 185.71 116.174 186.851C117.315 187.992 118.862 188.632 120.476 188.632H172.626C174.239 188.632 175.786 187.992 176.927 186.851C178.068 185.71 178.71 184.163 178.71 182.549V62.1968C178.71 60.5834 178.07 59.0363 176.929 57.8954C175.788 56.7546 174.241 56.1138 172.627 56.1138H120.477C119.678 56.1136 118.887 56.2707 118.149 56.5763C117.411 56.8818 116.74 57.3298 116.175 57.8947C115.61 58.4596 115.162 59.1304 114.856 59.8686C114.55 60.6065 114.393 61.3977 114.393 62.1968Z" fill="#3F4249"/>
<path d="M170.431 68.7052H166.425C166.399 68.7052 166.375 68.6951 166.357 68.677C166.339 68.659 166.329 68.6345 166.329 68.609C166.328 68.5962 166.331 68.5836 166.335 68.5719C166.34 68.5601 166.347 68.5495 166.356 68.5404C166.365 68.5314 166.376 68.5243 166.388 68.5195C166.4 68.5148 166.412 68.5125 166.425 68.5127H170.438C170.45 68.5127 170.463 68.5152 170.475 68.5201C170.486 68.525 170.497 68.532 170.506 68.5409C170.515 68.5498 170.522 68.5605 170.526 68.5722C170.531 68.5838 170.534 68.5964 170.534 68.609C170.534 68.6223 170.531 68.6354 170.526 68.6475C170.521 68.6597 170.513 68.6706 170.503 68.6797C170.494 68.6886 170.482 68.6956 170.47 68.7C170.457 68.7043 170.444 68.7063 170.431 68.7052Z" fill="white"/>
<path d="M170.431 70.0227H166.425C166.412 70.0229 166.4 70.0206 166.388 70.0159C166.376 70.0112 166.365 70.004 166.356 69.9951C166.348 69.9861 166.34 69.9753 166.336 69.9636C166.331 69.9518 166.329 69.9392 166.329 69.9265C166.328 69.9133 166.33 69.9004 166.335 69.888C166.339 69.8757 166.346 69.8645 166.355 69.8551C166.364 69.8454 166.375 69.8379 166.387 69.8328C166.399 69.8276 166.412 69.825 166.425 69.825H170.438C170.463 69.825 170.488 69.8351 170.506 69.8531C170.524 69.8712 170.534 69.8957 170.534 69.9212C170.535 69.9349 170.533 69.9485 170.528 69.9615C170.523 69.9742 170.515 69.9858 170.505 69.9954C170.496 70.005 170.484 70.0124 170.471 70.0171C170.458 70.0218 170.444 70.0238 170.431 70.0227Z" fill="white"/>
<path d="M170.431 71.3424H166.425C166.399 71.3424 166.375 71.3323 166.357 71.3142C166.339 71.2962 166.329 71.2717 166.329 71.2462C166.328 71.2334 166.331 71.2208 166.335 71.2091C166.34 71.1972 166.347 71.1865 166.356 71.1776C166.365 71.1686 166.376 71.1615 166.388 71.1567C166.4 71.152 166.412 71.1497 166.425 71.1499H170.438C170.463 71.1499 170.488 71.1601 170.506 71.1781C170.524 71.1961 170.534 71.2206 170.534 71.2462C170.534 71.2595 170.531 71.2726 170.526 71.2847C170.521 71.2969 170.513 71.3078 170.503 71.3169C170.494 71.3258 170.482 71.3328 170.47 71.3372C170.457 71.3415 170.444 71.3433 170.431 71.3424Z" fill="white"/>
<path d="M124.084 68.0104L122.567 69.3334C122.542 69.3553 122.522 69.3824 122.509 69.4125C122.497 69.4428 122.49 69.4755 122.491 69.5084V71.7502C122.492 71.789 122.507 71.8261 122.535 71.8536C122.562 71.8811 122.599 71.8967 122.638 71.8972H123.55C123.589 71.8972 123.627 71.8818 123.654 71.8543C123.682 71.8267 123.698 71.7894 123.699 71.7502V70.5742C123.699 70.535 123.714 70.4975 123.742 70.4695C123.769 70.4417 123.807 70.426 123.846 70.4254H124.621C124.66 70.426 124.697 70.4417 124.725 70.4695C124.753 70.4975 124.768 70.535 124.768 70.5742V71.7502C124.768 71.7894 124.784 71.8267 124.812 71.8543C124.84 71.8818 124.878 71.8972 124.917 71.8972H125.825C125.864 71.8967 125.901 71.8811 125.928 71.8536C125.956 71.8261 125.971 71.789 125.972 71.7502V69.5014C125.972 69.4699 125.965 69.439 125.952 69.4103C125.939 69.3816 125.92 69.356 125.897 69.3352L124.38 68.0104C124.338 67.9749 124.286 67.9553 124.232 67.9553C124.177 67.9553 124.125 67.9749 124.084 68.0104Z" stroke="white" stroke-width="1.84" stroke-miterlimit="10"/>
<path d="M171.046 78.1558L122.187 78.0535C121.888 78.0529 121.644 78.2953 121.644 78.5949L121.523 136.231C121.522 136.531 121.765 136.774 122.064 136.775L170.923 136.877C171.222 136.878 171.466 136.635 171.466 136.336L171.587 78.6996C171.588 78.4 171.345 78.1565 171.046 78.1558Z" fill="#DADDDF"/>
<path d="M171.567 87.1641H121.525V122.647H171.567V87.1641Z" fill="#B2B6BB"/>
<path d="M121.79 122.645L139.171 99.3738L149.945 113.927L157.248 106.143L171.57 122.633L121.79 122.645Z" fill="white"/>
<path d="M153.192 96.208C153.198 96.8538 153.012 97.4869 152.658 98.0268C152.303 98.5668 151.797 98.9895 151.202 99.2408C150.607 99.4922 149.951 99.5614 149.317 99.4392C148.683 99.3171 148.099 99.0092 147.64 98.5547C147.181 98.1003 146.868 97.5198 146.74 96.8868C146.611 96.254 146.674 95.5972 146.92 95C147.165 94.4027 147.583 93.8919 148.119 93.5324C148.656 93.173 149.287 92.981 149.933 92.981C150.359 92.9789 150.781 93.0608 151.175 93.2218C151.569 93.3828 151.928 93.6199 152.231 93.9197C152.533 94.2193 152.774 94.5756 152.939 94.9683C153.104 95.3608 153.189 95.7822 153.192 96.208Z" fill="white"/>
<path d="M126.122 85.1113C127.399 85.1113 128.434 84.0763 128.434 82.7995C128.434 81.5227 127.399 80.4878 126.122 80.4878C124.846 80.4878 123.81 81.5227 123.81 82.7995C123.81 84.0763 124.846 85.1113 126.122 85.1113Z" fill="#B2B6BB"/>
<path d="M169.277 133.733L168.271 132.724L167.312 133.679V130.944H169.276L169.277 133.733Z" stroke="#263238" stroke-miterlimit="10"/>
<path d="M130.774 133.578L130.303 133.368C130.034 133.493 129.729 133.513 129.445 133.425C129.162 133.336 128.922 133.145 128.772 132.889C128.622 132.633 128.573 132.33 128.635 132.04C128.696 131.75 128.864 131.493 129.104 131.32C129.345 131.146 129.642 131.069 129.937 131.103C130.231 131.137 130.503 131.279 130.698 131.503C130.893 131.726 130.998 132.014 130.992 132.311C130.986 132.608 130.87 132.891 130.666 133.107L130.774 133.578ZM129.675 131.03C129.504 131.011 129.33 131.03 129.166 131.083C129.002 131.137 128.851 131.224 128.724 131.34C128.596 131.456 128.494 131.598 128.424 131.756C128.355 131.914 128.32 132.085 128.322 132.257C128.323 132.43 128.361 132.6 128.432 132.757C128.504 132.914 128.608 133.054 128.738 133.168C128.868 133.282 129.02 133.367 129.185 133.418C129.349 133.469 129.523 133.485 129.694 133.464C129.902 133.452 130.104 133.388 130.281 133.278L130.3 133.268L130.65 133.424L130.571 133.082L130.587 133.065C130.747 132.89 130.853 132.672 130.891 132.438C130.929 132.204 130.897 131.964 130.8 131.747C130.703 131.531 130.545 131.348 130.345 131.22C130.145 131.093 129.912 131.026 129.675 131.03Z" stroke="#263238" stroke-width="0.5" stroke-miterlimit="10"/>
<path d="M132.247 131.138L133.413 132.06L133.798 133.376L135.163 130.965L132.247 131.138ZM134.916 131.063L133.436 131.973L132.475 131.227L134.916 131.063ZM133.798 133.138L133.499 132.039L134.991 131.122L133.798 133.138Z" stroke="#263238" stroke-width="0.5" stroke-miterlimit="10"/>
<path d="M126.453 131.413C126.417 131.237 126.32 131.08 126.179 130.97C126.038 130.859 125.863 130.801 125.684 130.807C125.505 130.813 125.333 130.883 125.2 131.003C125.067 131.123 124.981 131.286 124.957 131.463C124.931 131.285 124.843 131.121 124.708 131.002C124.573 130.883 124.4 130.816 124.22 130.812C124.04 130.809 123.864 130.87 123.725 130.985C123.586 131.099 123.492 131.26 123.461 131.437C123.426 131.698 123.493 131.963 123.648 132.176C123.802 132.385 123.982 132.575 124.183 132.739L124.983 133.439C125.253 133.194 125.482 132.963 125.75 132.716C125.948 132.55 126.125 132.358 126.275 132.146C126.425 131.933 126.489 131.671 126.453 131.413Z" fill="#5292B8"/>
<path d="M123.345 124.959L165.581 124.96" stroke="#263238" stroke-width="0.88" stroke-miterlimit="10" stroke-linecap="round"/>
<path d="M123.345 126.191L165.581 126.194" stroke="#263238" stroke-width="0.88" stroke-miterlimit="10" stroke-linecap="round"/>
<path d="M123.345 127.424L146.468 127.426" stroke="#263238" stroke-width="0.88" stroke-miterlimit="10" stroke-linecap="round"/>
<path d="M129.976 81.8352L150.015 81.837" stroke="#263238" stroke-width="0.88" stroke-miterlimit="10" stroke-linecap="round"/>
<path d="M130.053 82.8379H139.687" stroke="#263238" stroke-width="0.88" stroke-miterlimit="10" stroke-linecap="round"/>
<path d="M128.665 179.375H125.011C124.986 179.368 124.965 179.354 124.949 179.333C124.934 179.312 124.925 179.287 124.925 179.261C124.925 179.237 124.934 179.212 124.949 179.191C124.965 179.17 124.986 179.156 125.011 179.149H128.665C128.69 179.156 128.711 179.17 128.727 179.191C128.742 179.212 128.75 179.237 128.75 179.261C128.75 179.287 128.742 179.312 128.727 179.333C128.711 179.354 128.69 179.368 128.665 179.375Z" fill="white" stroke="white" stroke-width="0.45" stroke-miterlimit="10"/>
<path d="M128.665 180.6H125.011C124.986 180.593 124.965 180.579 124.949 180.558C124.934 180.537 124.925 180.513 124.925 180.486C124.925 180.462 124.934 180.437 124.949 180.416C124.965 180.395 124.986 180.381 125.011 180.374H128.665C128.69 180.381 128.711 180.395 128.727 180.416C128.742 180.437 128.75 180.462 128.75 180.486C128.75 180.513 128.742 180.537 128.727 180.558C128.711 180.579 128.69 180.593 128.665 180.6Z" fill="white" stroke="white" stroke-width="0.45" stroke-miterlimit="10"/>
<path d="M128.665 181.825H125.011C124.986 181.818 124.964 181.804 124.948 181.783C124.931 181.762 124.923 181.737 124.923 181.711C124.923 181.685 124.931 181.66 124.948 181.639C124.964 181.618 124.986 181.604 125.011 181.597H128.665C128.69 181.604 128.712 181.618 128.727 181.639C128.743 181.66 128.751 181.685 128.751 181.709C128.751 181.736 128.743 181.76 128.727 181.781C128.712 181.802 128.69 181.816 128.665 181.823V181.825Z" fill="white" stroke="white" stroke-width="0.45" stroke-miterlimit="10"/>
<path d="M166.183 178.992L168.15 180.33L166.182 181.984" stroke="white" stroke-width="1.8" stroke-miterlimit="10" stroke-linecap="round"/>
<path d="M147.956 179.856L147.954 182.219H144.806V179.856" stroke="white" stroke-width="1.8" stroke-miterlimit="10" stroke-linecap="round"/>
<path d="M144.333 180.171L146.381 178.756L148.427 180.171" stroke="white" stroke-width="1.8" stroke-miterlimit="10" stroke-linecap="round"/>
<path d="M164.945 62.1566C164.906 62.1968 164.866 62.2353 164.826 62.2756L164.757 62.3438C164.606 62.1916 164.425 62.0707 164.227 61.9882C164.028 61.9056 163.815 61.8633 163.6 61.8633C163.385 61.8633 163.172 61.9056 162.973 61.9882C162.775 62.0707 162.594 62.1916 162.442 62.3438L162.377 62.2756C162.337 62.2353 162.297 62.1968 162.258 62.1566H162.267C162.318 62.1128 162.367 62.0656 162.419 62.0218C162.528 61.9347 162.645 61.8596 162.769 61.7978C162.917 61.7254 163.074 61.6731 163.235 61.6421C163.312 61.6281 163.391 61.6211 163.468 61.6106H163.672L163.83 61.6228C163.976 61.6396 164.119 61.6743 164.257 61.7261C164.357 61.7618 164.454 61.8068 164.546 61.8608C164.644 61.9161 164.736 61.9805 164.822 62.0533C164.866 62.0901 164.906 62.1303 164.948 62.1671L164.945 62.1566Z" fill="white"/>
<path d="M162.822 62.7216L162.633 62.5326C162.84 62.3215 163.112 62.1855 163.405 62.1458C163.615 62.114 163.83 62.1323 164.032 62.1992C164.234 62.266 164.417 62.3798 164.567 62.5308L164.376 62.7198C164.17 62.5142 163.89 62.3989 163.599 62.3989C163.308 62.3989 163.028 62.5142 162.822 62.7198V62.7216Z" fill="white"/>
<path d="M164.187 62.9109L163.998 63.0999C163.946 63.0472 163.883 63.0055 163.815 62.9774C163.746 62.9492 163.673 62.9348 163.599 62.9354C163.525 62.9348 163.451 62.9494 163.383 62.9779C163.315 63.0066 163.253 63.0486 163.202 63.1016L163.013 62.9126C163.089 62.8349 163.181 62.7731 163.281 62.731C163.382 62.6888 163.49 62.6669 163.599 62.6667C163.708 62.6666 163.817 62.6881 163.917 62.7299C164.018 62.7719 164.11 62.8333 164.187 62.9109Z" fill="white"/>
<path d="M163.771 63.2712C163.771 63.3176 163.752 63.3622 163.719 63.3949C163.687 63.4278 163.642 63.4462 163.596 63.4462C163.549 63.4462 163.505 63.4278 163.472 63.3949C163.439 63.3622 163.421 63.3176 163.421 63.2712C163.421 63.2248 163.439 63.1802 163.472 63.1475C163.505 63.1146 163.549 63.0962 163.596 63.0962C163.642 63.0962 163.687 63.1146 163.719 63.1475C163.752 63.1802 163.771 63.2248 163.771 63.2712Z" fill="white"/>
<path d="M121.732 62.517C121.732 62.419 121.761 62.3233 121.815 62.2419C121.869 62.1604 121.947 62.097 122.037 62.0594C122.128 62.022 122.228 62.0121 122.324 62.0312C122.419 62.0503 122.508 62.0976 122.577 62.1669C122.646 62.2362 122.694 62.3243 122.713 62.4204C122.732 62.5165 122.722 62.6161 122.684 62.7066C122.647 62.797 122.583 62.8744 122.502 62.9288C122.421 62.9832 122.325 63.0123 122.227 63.0123C122.096 63.0123 121.97 62.9601 121.877 62.8672C121.784 62.7743 121.732 62.6483 121.732 62.517Z" fill="white"/>
<path d="M123.291 62.517C123.291 62.419 123.32 62.3231 123.374 62.2417C123.429 62.1602 123.506 62.0967 123.597 62.0592C123.688 62.0218 123.787 62.0121 123.883 62.0314C123.98 62.0506 124.068 62.0981 124.137 62.1674C124.206 62.2368 124.253 62.3252 124.272 62.4215C124.291 62.5177 124.281 62.6173 124.243 62.7078C124.205 62.7982 124.142 62.8754 124.06 62.9297C123.978 62.9839 123.883 63.0126 123.785 63.0123C123.719 63.0123 123.655 62.9995 123.595 62.9745C123.535 62.9496 123.481 62.913 123.435 62.867C123.389 62.821 123.353 62.7664 123.328 62.7064C123.303 62.6463 123.291 62.5819 123.291 62.517Z" fill="white"/>
<path d="M124.849 62.517C124.849 62.419 124.878 62.3233 124.932 62.2419C124.987 62.1604 125.064 62.097 125.155 62.0594C125.245 62.022 125.345 62.0121 125.441 62.0312C125.537 62.0503 125.625 62.0976 125.694 62.1669C125.764 62.2362 125.811 62.3243 125.83 62.4204C125.849 62.5165 125.839 62.6161 125.802 62.7066C125.764 62.797 125.701 62.8744 125.619 62.9288C125.538 62.9832 125.442 63.0123 125.344 63.0123C125.213 63.0123 125.087 62.9601 124.994 62.8672C124.901 62.7743 124.849 62.6483 124.849 62.517Z" fill="white"/>
<path d="M126.406 62.517C126.406 62.419 126.435 62.3233 126.489 62.2419C126.544 62.1604 126.621 62.097 126.712 62.0594C126.802 62.022 126.902 62.0121 126.998 62.0312C127.094 62.0503 127.182 62.0976 127.251 62.1669C127.321 62.2362 127.368 62.3243 127.387 62.4204C127.406 62.5165 127.396 62.6161 127.359 62.7066C127.321 62.797 127.258 62.8744 127.177 62.9288C127.095 62.9832 126.999 63.0123 126.901 63.0123C126.77 63.0123 126.644 62.9601 126.551 62.8672C126.458 62.7743 126.406 62.6483 126.406 62.517Z" fill="white"/>
<path d="M172.606 63.4236H169.456V61.9658H172.606V63.4236ZM169.615 63.2661H172.447V62.1251H169.615V63.2661Z" fill="white"/>
<path d="M171.75 62.2124H169.719V63.1766H171.75V62.2124Z" fill="white"/>
<path d="M172.89 62.3052H172.609V63.0857H172.89V62.3052Z" fill="white"/>
<path d="M157.066 69.2493H136.021C135.647 69.2493 135.343 69.5525 135.343 69.9265V69.9283C135.343 70.3022 135.647 70.6055 136.021 70.6055H157.066C157.44 70.6055 157.743 70.3022 157.743 69.9283V69.9265C157.743 69.5525 157.44 69.2493 157.066 69.2493Z" fill="white"/>
<path d="M111.171 125.732L111.521 128.842C111.558 129.168 111.711 129.469 111.953 129.691L114.723 132.221C114.743 132.239 114.766 132.252 114.791 132.258C114.817 132.265 114.843 132.265 114.869 132.259C114.894 132.253 114.918 132.241 114.938 132.224C114.958 132.206 114.973 132.184 114.982 132.16C115.068 131.963 115.079 131.741 115.014 131.537C114.863 131.159 115.768 132.027 115.768 132.027V133.787C115.767 133.84 115.778 133.892 115.8 133.94C115.821 133.987 115.853 134.03 115.894 134.063C115.934 134.097 115.982 134.121 116.033 134.134C116.083 134.147 116.137 134.148 116.188 134.137C116.265 134.12 116.337 134.084 116.396 134.03C116.455 133.977 116.499 133.91 116.524 133.835C116.662 133.485 116.76 132.435 116.802 131.896C116.81 131.796 116.792 131.697 116.75 131.607C116.708 131.517 116.644 131.439 116.563 131.381C116.669 131.273 116.748 131.141 116.794 130.997C116.839 130.853 116.851 130.699 116.827 130.55C117.02 130.071 117.084 129.551 117.014 129.04C116.969 128.584 116.854 128.139 116.675 127.718L113.967 124.694L111.171 125.732Z" fill="#FC9D9D"/>
<g opacity="0.15">
<path opacity="0.15" d="M112.831 129.211C112.802 129.232 113.204 129.808 113.806 130.426C114.408 131.044 114.972 131.464 114.994 131.436C115.017 131.408 114.501 130.942 113.906 130.33C113.311 129.717 112.863 129.187 112.831 129.211Z" fill="black"/>
</g>
<g opacity="0.15">
<path opacity="0.15" d="M115.15 129.873C115.122 129.899 115.476 130.305 115.936 130.779C116.396 131.254 116.795 131.616 116.823 131.59C116.851 131.563 116.499 131.157 116.036 130.681C115.572 130.205 115.18 129.85 115.15 129.873Z" fill="black"/>
</g>
<g opacity="0.15">
<path opacity="0.15" d="M115.6 129.043C115.574 129.075 115.89 129.374 116.225 129.787C116.559 130.2 116.793 130.569 116.83 130.548C116.867 130.527 116.681 130.123 116.333 129.699C115.985 129.276 115.623 129.015 115.6 129.043Z" fill="black"/>
</g>
<g opacity="0.15">
<path opacity="0.15" d="M115.981 128.189C115.955 128.219 116.196 128.468 116.471 128.788C116.746 129.108 116.961 129.381 116.996 129.36C117.031 129.339 116.863 129.026 116.58 128.697C116.296 128.368 116.006 128.161 115.981 128.189Z" fill="black"/>
</g>
<path d="M82.3375 84.35C82.0278 84.3378 81.2788 84.784 80.6768 85.6135L80.6453 85.6502C80.2165 86.2067 79.8158 84.616 79.7423 84.0245C79.7276 83.933 79.6927 83.8458 79.6401 83.7695C79.5874 83.6932 79.5184 83.6297 79.4381 83.5837C79.3576 83.5375 79.268 83.5098 79.1756 83.503C79.0832 83.496 78.9903 83.5097 78.904 83.5433L76.916 84.4742L76.335 84.4935C76.1961 84.5423 76.0804 84.6409 76.0102 84.7704C75.94 84.8997 75.9204 85.0505 75.9553 85.1935L76.9073 88.333L77.1155 89.1905L80.5963 89.3375L80.7853 87.6365C80.8448 87.388 81.109 87.0415 81.2158 86.7072C81.3115 86.405 81.4597 86.1219 81.6533 85.8707C81.8638 85.5846 82.1037 85.3213 82.369 85.085C82.39 85.071 82.4145 85.0518 82.4338 85.0413C82.4779 85.0168 82.5167 84.9833 82.5475 84.9433C82.5935 84.8965 82.6254 84.8377 82.6397 84.7737C82.6539 84.7096 82.6499 84.6428 82.628 84.581C82.606 84.5191 82.5671 84.4646 82.5158 84.4239C82.4646 84.3829 82.4026 84.3574 82.3375 84.35Z" fill="#FC9D9D"/>
<path d="M81.4833 76.9843C81.4833 76.9843 79.4568 76.5958 76.5465 73.9515C73.6363 71.3073 72.2013 67.725 71.8548 67.753C71.5083 67.781 69.9753 67.1213 67.2715 73.4685C64.5678 79.8158 65.7455 81.2385 66.3178 81.2105C66.89 81.1825 70.7505 79.9855 73.19 80.1938C75.6295 80.402 78.79 81.5798 78.79 81.5798L81.4833 76.9843Z" fill="#5292B8"/>
<path d="M85.8571 80.2777L85.2078 81.6042L84.9156 82.1975C84.7233 82.5895 84.388 82.8929 83.9786 83.045C83.5693 83.1969 83.1173 83.1862 82.7158 83.0147L78.3583 81.634L80.7086 75.824L85.0836 78.001C85.4873 78.2012 85.7951 78.5531 85.9402 78.9798C86.0851 79.4064 86.0552 79.8731 85.8571 80.2777Z" fill="#3F4249"/>
<path d="M83.4278 82.4389L82.1293 85.1742L81.4293 84.9992L77.0403 88.7792L75.7155 86.3572C75.7155 86.3572 78.3405 85.1322 78.8025 84.1784C79.2645 83.2247 78.6923 83.0199 78.6923 83.0199L79.9015 81.5657L83.4278 82.4389Z" fill="#3F4249"/>
<path d="M67.5084 73.5753C66.0716 77.0123 65.5186 80.0503 66.2746 80.3705C67.0306 80.6908 68.8069 78.1568 70.2436 74.718C71.6804 71.2793 72.2334 68.243 71.4774 67.9228C70.7214 67.6025 68.9504 70.1383 67.5084 73.5753Z" fill="#3F4249"/>
<path d="M86.0911 82.1556L85.1006 81.8213L85.7848 80.4231L86.6791 80.9446L86.0911 82.1556Z" fill="#61656D"/>
<g opacity="0.3">
<path opacity="0.5" d="M79.4937 82.0681L82.6945 83.9826L83.0655 83.2039L79.4937 82.0681Z" fill="black"/>
</g>
<path d="M84.9888 80.7643C84.973 80.8028 84.3833 80.5893 83.671 80.2935C82.9588 79.9978 82.3935 79.723 82.411 79.6863C82.4285 79.6495 83.0165 79.8613 83.7288 80.1553C84.441 80.4493 85.0045 80.7258 84.9888 80.7643Z" fill="#61656D"/>
<path d="M84.5603 81.6375C84.4336 81.6384 84.3082 81.6139 84.1911 81.5658C84.0791 81.536 83.9461 81.4958 83.7991 81.4503C83.6521 81.4048 83.5016 81.3295 83.3406 81.2613C82.6914 80.983 82.1944 80.7065 82.2101 80.6715C82.2259 80.6365 82.7561 80.8465 83.3984 81.123C83.5594 81.1913 83.7099 81.2665 83.8499 81.3208C83.9899 81.375 84.1176 81.4223 84.2244 81.466C84.4361 81.55 84.5656 81.6165 84.5603 81.6375Z" fill="#61656D"/>
<path d="M70.8015 72.9208C70.8015 72.9208 69.02 71.8866 68.1292 74.2771C67.2385 76.6676 69.0918 77.0053 69.0918 77.0053C69.8506 75.7308 70.4261 74.3558 70.8015 72.9208Z" fill="white"/>
<path opacity="0.3" d="M72.3937 69.8618C72.387 70.0141 72.3683 70.1656 72.3377 70.3151C72.2904 70.6056 72.2239 71.0273 72.1259 71.5401L71.9072 72.3748C71.8687 72.5253 71.8267 72.6793 71.7847 72.8386C71.7637 72.9191 71.7427 72.9996 71.7199 73.0818C71.6972 73.1641 71.6639 73.2446 71.6359 73.3268C71.5204 73.6558 71.3962 74.0006 71.2702 74.3576C71.2387 74.4468 71.2054 74.5326 71.1739 74.6288C71.1424 74.7251 71.0969 74.8038 71.0584 74.8966L70.8134 75.4391L70.5667 75.9833C70.5247 76.0726 70.4897 76.1583 70.4424 76.2476L70.3042 76.4996L69.7792 77.4568C69.7372 77.5321 69.6969 77.6091 69.6514 77.6808L69.5132 77.8908L69.2454 78.2898L68.7624 79.0073C68.4404 79.4221 68.1692 79.7493 67.9819 79.9768C67.8907 80.1016 67.7894 80.2185 67.6792 80.3268C67.7532 80.1933 67.8393 80.0668 67.9364 79.9488L68.6784 78.9496L69.1422 78.2268C69.2262 78.0991 69.3172 77.9643 69.4012 77.8261L69.5359 77.6178C69.5797 77.5461 69.6182 77.4691 69.6602 77.3938L70.1852 76.4383L70.3217 76.1881C70.3689 76.1041 70.4039 76.0131 70.4442 75.9256C70.5247 75.7506 70.6069 75.5668 70.6874 75.3848L70.9324 74.8458C70.9709 74.7566 71.0164 74.6708 71.0479 74.5798C71.0794 74.4888 71.1127 74.4048 71.1442 74.3121L71.5169 73.2901C71.5467 73.2078 71.5782 73.1291 71.6027 73.0486L71.6709 72.8088C71.7147 72.6496 71.7584 72.4973 71.8004 72.3486L72.0349 71.5226C72.1417 71.0151 72.2292 70.6021 72.2922 70.3081C72.313 70.1567 72.3469 70.0072 72.3937 69.8618Z" fill="black"/>
<path d="M78.2092 82.9361C78.1049 82.9837 78.0225 83.0689 77.9784 83.1748C77.9343 83.2805 77.9317 83.399 77.9712 83.5066C78.1235 83.9389 78.3703 84.6179 78.5558 85.0291C78.6076 85.1649 78.6847 85.2897 78.7832 85.3966C78.8315 85.4484 78.8931 85.4859 78.9614 85.5046C79.0298 85.5235 79.1019 85.523 79.17 85.5034C79.2384 85.4696 79.2962 85.4174 79.3369 85.353C79.3777 85.2885 79.3998 85.2139 79.401 85.1376C79.4024 84.9827 79.3746 84.8289 79.3187 84.6844C79.1875 84.2801 78.9687 83.6746 78.771 83.1811C78.751 83.1274 78.7206 83.0784 78.6812 83.0367C78.642 82.9953 78.5946 82.962 78.5423 82.9391C78.4898 82.9162 78.4332 82.9041 78.376 82.9036C78.3188 82.9032 78.2621 82.9142 78.2092 82.9361Z" fill="#FC9D9D"/>
<path d="M77.6055 83.7338C77.5015 83.7818 77.4193 83.867 77.3748 83.9725C77.3306 84.078 77.3272 84.1965 77.3657 84.3043C77.5197 84.7365 77.7665 85.4155 77.952 85.8268C78.0033 85.9626 78.0799 86.0872 78.1777 86.1943C78.2259 86.2464 78.2875 86.2841 78.3559 86.303C78.4241 86.3219 78.4964 86.3212 78.5645 86.301C78.6331 86.2676 78.6912 86.2156 78.732 86.1511C78.7727 86.0865 78.7948 86.0118 78.7955 85.9353C78.7978 85.7802 78.7698 85.6264 78.7132 85.482C78.5837 85.0778 78.3632 84.4723 78.1655 83.9788C78.1457 83.9253 78.1154 83.8763 78.0764 83.8346C78.0372 83.793 77.99 83.7599 77.9378 83.737C77.8855 83.714 77.829 83.702 77.7719 83.7014C77.7149 83.7009 77.6582 83.7119 77.6055 83.7338Z" fill="#FC9D9D"/>
<path d="M77.0227 84.2416C76.9298 84.2797 76.8553 84.3525 76.8148 84.4446C76.7742 84.5366 76.7711 84.6407 76.8057 84.7351C76.944 85.1096 77.168 85.6975 77.3307 86.0545C77.3778 86.1725 77.4473 86.2799 77.5355 86.3713C77.5789 86.4219 77.6368 86.4576 77.7014 86.4735C77.7661 86.4892 77.834 86.4845 77.8958 86.4598C77.9576 86.4352 78.0101 86.3918 78.046 86.3356C78.0817 86.2796 78.0992 86.2138 78.0955 86.1473C78.0958 86.0131 78.0703 85.8799 78.0202 85.7553C77.9012 85.4053 77.6982 84.8803 77.525 84.4533C77.5057 84.4061 77.4772 84.363 77.4412 84.3268C77.4051 84.2906 77.3624 84.2619 77.3152 84.2423C77.2681 84.2225 77.2175 84.2123 77.1664 84.2122C77.1153 84.2122 77.0647 84.2221 77.0175 84.2416H77.0227Z" fill="#FC9D9D"/>
<path d="M76.2545 84.4113C76.1614 84.4498 76.0868 84.523 76.0464 84.6152C76.006 84.7076 76.0028 84.8119 76.0375 84.9066C76.1775 85.2828 76.4015 85.8744 76.5625 86.2331C76.6097 86.3518 76.6799 86.4601 76.769 86.5516C76.8127 86.602 76.871 86.6374 76.9358 86.6531C77.0005 86.6687 77.0686 86.6638 77.1304 86.6389C77.1921 86.6141 77.2446 86.5705 77.2807 86.5145C77.3166 86.4583 77.3341 86.3924 77.3307 86.3259C77.3328 86.1909 77.3071 86.0569 77.2555 85.9321C77.1365 85.5821 76.9335 85.0571 76.7585 84.6248C76.7391 84.5772 76.7105 84.5338 76.6743 84.4973C76.6381 84.4607 76.595 84.4316 76.5474 84.4117C76.5 84.3919 76.4491 84.3816 76.3975 84.3816C76.346 84.3816 76.2951 84.3916 76.2475 84.4113H76.2545Z" fill="#FC9D9D"/>
<path opacity="0.15" d="M78.7498 85.414C78.7078 85.4315 78.5276 85.092 78.3456 84.6545C78.1636 84.217 78.0481 83.8512 78.0901 83.8355C78.1321 83.8197 78.3106 84.1575 78.4926 84.5932C78.6746 85.029 78.7831 85.4 78.7498 85.414Z" fill="black"/>
<path opacity="0.15" d="M78.0813 86.0755C78.0411 86.093 77.8469 85.701 77.6491 85.2005C77.4514 84.7 77.3236 84.2817 77.3656 84.2642C77.4076 84.2467 77.6001 84.6387 77.7978 85.1392C77.9956 85.6397 78.1233 86.0597 78.0813 86.0755Z" fill="black"/>
<path opacity="0.15" d="M77.3934 86.1647C77.3549 86.184 77.1414 85.8567 76.9577 85.4122C76.7739 84.9677 76.6882 84.5845 76.7302 84.5705C76.7722 84.5565 76.9227 84.9205 77.1047 85.3492C77.2867 85.778 77.4337 86.1437 77.3934 86.1647Z" fill="black"/>
<path d="M88.1634 84.0631C88.0826 84.492 88.1202 84.9349 88.2719 85.3441C88.4628 85.8925 88.8629 86.3433 89.3847 86.5981C89.9066 86.8529 90.5081 86.8909 91.0579 86.7038C91.3122 86.6254 91.5842 86.6247 91.8388 86.7017C92.0936 86.7787 92.3195 86.9299 92.4877 87.1361C92.8132 87.5296 93.24 87.8266 93.7221 87.9951C94.2043 88.1635 94.7233 88.1969 95.2229 88.0916C96.8767 87.7416 97.8987 85.9793 97.3614 84.2731C97.1749 83.6672 96.793 83.1401 96.2754 82.7742C95.7579 82.4083 95.1337 82.224 94.5002 82.2501C94.0747 82.2742 93.6603 82.3944 93.2879 82.6013C92.9155 82.8083 92.5948 83.0969 92.3494 83.4453C92.1711 83.0915 91.9041 82.7899 91.5742 82.5703C91.913 82.2198 92.1615 81.7921 92.298 81.324C92.4346 80.856 92.4553 80.3618 92.3582 79.8841C92.2896 79.4999 92.1429 79.134 91.9273 78.8087C91.7119 78.4834 91.4321 78.2055 91.1052 77.9925C90.7783 77.7793 90.4111 77.6353 90.0266 77.5693C89.642 77.5035 89.2479 77.517 88.8687 77.6091C87.4442 77.9731 86.4992 79.4466 86.7319 80.9341C86.8348 81.6201 87.1755 82.2481 87.6944 82.7086C87.8841 82.8738 88.0271 83.0857 88.1095 83.3233C88.1918 83.561 88.2103 83.816 88.1634 84.0631Z" fill="#21252B"/>
<path d="M102.335 89.1538C102.907 88.7338 101.644 88.3785 101.518 87.6855L101.094 82.5003L100.693 80.5H95.55L94.7783 88.2C94.7468 88.9473 94.6418 89.6245 93.9033 89.761C93.9015 89.761 98.2643 92.1375 102.335 89.1538Z" fill="#FC9D9D"/>
<path opacity="0.15" d="M94.9095 86.0823C95.3031 86.1647 95.7043 86.2058 96.1065 86.2048C96.9573 86.1938 97.7807 85.9029 98.4497 85.3771C99.1728 85.3018 99.8705 85.0689 100.494 84.6946C100.523 84.6753 100.544 84.6449 100.552 84.61C100.56 84.5754 100.553 84.539 100.534 84.5091C100.516 84.4804 100.488 84.4599 100.455 84.452C100.422 84.4441 100.388 84.4496 100.359 84.4671C99.8791 84.7567 99.3489 84.9532 98.7962 85.0463C98.7577 85.0463 98.7175 85.0691 98.6772 85.0691C98.5582 85.0883 98.4567 85.0883 98.357 85.1093H98.3167C98.2514 85.1282 98.1834 85.1359 98.1155 85.1321H97.5765C96.754 85.0883 95.7775 84.9028 95.0967 84.4898L94.9095 86.0823Z" fill="black"/>
<path d="M92.0323 84.2294L95.9821 82.1924L95.4571 72.6006L92.0638 73.0363L90.4608 74.3856C90.4608 74.3856 90.5518 74.9246 90.5746 75.2431C90.6621 76.4576 89.6593 77.0911 88.5131 77.7281L92.0323 84.2294Z" fill="#21252B"/>
<path d="M92.8478 80.3495L93.0473 74.2945C93.0517 74.0344 93.1073 73.7779 93.2109 73.5393C93.3145 73.3008 93.4642 73.0852 93.6512 72.9046C93.8383 72.724 94.0592 72.5821 94.3012 72.4869C94.5432 72.3919 94.8017 72.3453 95.0615 72.3502L100.975 72.576C101.175 72.5856 101.372 72.6348 101.554 72.7203C101.735 72.8061 101.898 72.9268 102.033 73.0754C102.168 73.2242 102.272 73.3981 102.34 73.5871C102.408 73.7761 102.437 73.9767 102.427 74.1772L102.212 80.6942C102.128 83.2509 100.051 85.2564 97.5553 85.1724L97.2053 85.1549C94.7273 85.0692 92.7848 82.9062 92.8478 80.3495Z" fill="#FC9D9D"/>
<path d="M98.5005 78.8095C98.4974 78.7136 98.4662 78.6208 98.4106 78.5426C98.3551 78.4644 98.2779 78.4043 98.1885 78.3697C98.0989 78.3352 98.0014 78.3277 97.9076 78.3483C97.814 78.369 97.7286 78.4166 97.6617 78.4855C97.5951 78.5543 97.5501 78.6413 97.5326 78.7356C97.5149 78.8298 97.5254 78.9272 97.5629 79.0154C97.6001 79.1038 97.6628 79.1791 97.7428 79.2321C97.8226 79.2851 97.9164 79.3135 98.0123 79.3135C98.1437 79.3112 98.269 79.2568 98.3605 79.1623C98.452 79.0679 98.5023 78.9409 98.5005 78.8095Z" fill="#21252B"/>
<path d="M97.9144 78.8984C97.914 78.8782 97.9077 78.8585 97.8962 78.8419C97.8847 78.8252 97.8686 78.8123 97.8499 78.8046C97.8312 78.7972 97.8105 78.7954 97.7909 78.7995C97.7711 78.8038 97.7529 78.8137 97.7388 78.828C97.7247 78.8426 97.7151 78.8608 97.7112 78.8808C97.7075 78.9007 97.7097 78.9212 97.7174 78.9398C97.7252 78.9586 97.7383 78.9746 97.7552 78.9857C97.772 78.9969 97.7916 79.0029 97.8119 79.0029C97.8391 79.0024 97.8653 78.9912 97.8844 78.9717C97.9036 78.9521 97.9144 78.9258 97.9144 78.8984Z" fill="white"/>
<path d="M129.83 168.207L126.455 171.913L129.668 174.838L133.043 171.133L129.83 168.207Z" fill="#FC9D9D"/>
<path opacity="0.15" d="M128.872 169.262L132.032 172.196L132.598 170.728L129.763 168.224L128.872 169.262Z" fill="black"/>
<path d="M132.54 170.053L135.354 172.615C135.462 172.713 135.55 172.832 135.613 172.964C135.675 173.097 135.711 173.24 135.718 173.387C135.725 173.533 135.703 173.68 135.653 173.817C135.603 173.955 135.526 174.082 135.427 174.19L126.717 183.75C126.634 183.841 126.517 183.895 126.394 183.9C126.27 183.907 126.15 183.864 126.058 183.781C125.732 183.482 125.507 183.088 125.416 182.654C125.325 182.222 125.372 181.772 125.55 181.366L126.803 178.566L127.171 173.896C127.189 173.661 127.288 173.439 127.451 173.268C127.614 173.098 127.831 172.989 128.065 172.959L130.2 172.686C130.354 172.666 130.502 172.608 130.628 172.516C130.754 172.424 130.855 172.302 130.921 172.161L131.84 170.191C131.87 170.129 131.914 170.074 131.969 170.032C132.023 169.989 132.087 169.96 132.155 169.947C132.223 169.933 132.293 169.936 132.36 169.954C132.427 169.973 132.488 170.006 132.54 170.053Z" fill="#61656D"/>
<path d="M135.427 174.188L126.718 183.75C126.634 183.841 126.517 183.895 126.394 183.901C126.271 183.908 126.15 183.864 126.058 183.782C125.94 183.68 125.837 183.563 125.753 183.432L135.478 172.757C135.638 172.963 135.721 173.22 135.712 173.481C135.703 173.743 135.602 173.993 135.427 174.188Z" fill="#3F4249"/>
<path d="M128.345 174.86C128.364 174.839 128.374 174.812 128.373 174.785C128.373 174.769 128.369 174.754 128.363 174.74C128.356 174.726 128.347 174.713 128.336 174.703C128.324 174.692 128.311 174.684 128.296 174.679C128.282 174.674 128.266 174.672 128.251 174.673L127.103 174.685C127.087 174.685 127.072 174.689 127.058 174.695C127.044 174.701 127.032 174.711 127.021 174.722C127.011 174.733 127.003 174.746 126.997 174.761C126.992 174.775 126.99 174.79 126.991 174.806C126.991 174.821 126.995 174.836 127.002 174.85C127.008 174.864 127.017 174.877 127.029 174.887C127.04 174.897 127.053 174.905 127.068 174.911C127.082 174.916 127.098 174.918 127.113 174.918L128.263 174.907C128.294 174.898 128.322 174.882 128.345 174.86Z" fill="white"/>
<path d="M128.285 175.641C128.304 175.62 128.314 175.593 128.313 175.565C128.313 175.55 128.309 175.536 128.303 175.522C128.297 175.508 128.288 175.495 128.277 175.485C128.265 175.474 128.252 175.466 128.238 175.46C128.223 175.455 128.208 175.453 128.193 175.453L127.043 175.464C127.027 175.464 127.012 175.467 126.998 175.474C126.984 175.481 126.971 175.49 126.961 175.501C126.95 175.513 126.942 175.525 126.936 175.541C126.93 175.555 126.928 175.571 126.928 175.585C126.929 175.6 126.932 175.616 126.939 175.63C126.945 175.644 126.954 175.658 126.965 175.669C126.977 175.679 126.99 175.686 127.005 175.693C127.019 175.698 127.034 175.7 127.05 175.7L128.2 175.69C128.232 175.681 128.262 175.663 128.285 175.641Z" fill="white"/>
<path d="M128.226 176.421C128.241 176.404 128.251 176.384 128.255 176.362C128.258 176.339 128.254 176.316 128.244 176.295C128.234 176.276 128.218 176.258 128.198 176.248C128.179 176.237 128.156 176.232 128.133 176.234L126.984 176.244C126.953 176.246 126.924 176.26 126.903 176.283C126.882 176.305 126.871 176.335 126.872 176.367C126.874 176.398 126.888 176.426 126.911 176.447C126.933 176.468 126.963 176.479 126.994 176.479L128.144 176.467C128.16 176.465 128.176 176.46 128.19 176.453C128.204 176.444 128.216 176.433 128.226 176.421Z" fill="white"/>
<path d="M94.5157 78.8095C94.5128 78.7136 94.4814 78.6208 94.426 78.5426C94.3705 78.4644 94.2931 78.4043 94.2037 78.3697C94.1143 78.3352 94.0166 78.3277 93.923 78.3483C93.8294 78.369 93.7438 78.4166 93.6771 78.4855C93.6105 78.5543 93.5655 78.6413 93.5478 78.7356C93.5303 78.8298 93.5408 78.9272 93.5781 79.0154C93.6155 79.1038 93.678 79.1791 93.758 79.2321C93.838 79.2851 93.9316 79.3135 94.0275 79.3135C94.1591 79.3112 94.2842 79.2568 94.3757 79.1623C94.4672 79.0679 94.5177 78.9409 94.5157 78.8095Z" fill="#21252B"/>
<path d="M93.9277 78.8754C93.9274 78.8552 93.921 78.8355 93.9095 78.8189C93.8981 78.8022 93.882 78.7893 93.8632 78.7816C93.8443 78.7742 93.8239 78.7724 93.8041 78.7767C93.7845 78.7808 93.7663 78.7907 93.7521 78.8052C93.738 78.8196 93.7285 78.8378 93.7246 78.8579C93.7207 78.8777 93.723 78.8983 93.7308 78.9169C93.7385 78.9357 93.7516 78.9516 93.7684 78.9628C93.7853 78.9739 93.8049 78.98 93.8253 78.98C93.8389 78.98 93.8523 78.9773 93.8648 78.972C93.8774 78.9667 93.8887 78.9591 93.8982 78.9493C93.9078 78.9396 93.9154 78.928 93.9203 78.9153C93.9254 78.9027 93.9279 78.889 93.9277 78.8754Z" fill="white"/>
<g opacity="0.15">
<path opacity="0.15" d="M95.5391 80.3093C95.5512 80.1544 95.6233 80.0102 95.74 79.9076C95.8566 79.8051 96.0087 79.7521 96.1639 79.7598C96.2012 79.771 96.2335 79.7942 96.2559 79.8259C96.2785 79.8576 96.2897 79.8959 96.2881 79.9348C96.2782 79.9703 96.2573 80.0018 96.2285 80.0247C96.1994 80.0476 96.1641 80.0609 96.1271 80.0625C96.0463 80.0643 95.9688 80.0954 95.9091 80.15C95.8494 80.2048 95.812 80.2795 95.8034 80.36C95.799 80.3992 95.8025 80.4391 95.8134 80.4771C95.8244 80.5151 95.8428 80.5504 95.8674 80.5814C95.8923 80.6122 95.9227 80.6379 95.9574 80.657C95.992 80.6761 96.03 80.6881 96.0694 80.6925L96.7186 80.7503C96.7543 80.7611 96.7857 80.783 96.8081 80.8129C96.8305 80.8428 96.8427 80.8792 96.8429 80.9165C96.8329 80.952 96.8121 80.9835 96.7832 81.0065C96.7542 81.0294 96.7188 81.0427 96.6819 81.0443L96.0326 80.9865C95.9521 80.983 95.8736 80.9615 95.8025 80.9235C95.7316 80.8855 95.67 80.832 95.6226 80.7669C95.5752 80.7018 95.543 80.6269 95.5286 80.5476C95.5141 80.4683 95.5178 80.387 95.5391 80.3093Z" fill="black"/>
</g>
<path d="M97.4647 82.145C97.5469 82.145 97.5662 82.2063 97.5469 82.2693C97.4405 82.5134 97.2657 82.7217 97.0434 82.8685C96.8214 83.0155 96.5615 83.0949 96.2951 83.0974C96.0288 83.0998 95.7675 83.0249 95.5426 82.8821C95.3179 82.7392 95.1394 82.5342 95.0287 82.292C95.0229 82.2784 95.0206 82.2637 95.0218 82.2491C95.0232 82.2344 95.028 82.2203 95.0358 82.208C95.0437 82.1956 95.0546 82.1853 95.0673 82.1779C95.0801 82.1707 95.0945 82.1665 95.1092 82.166L97.4647 82.145Z" fill="white"/>
<path d="M91.3812 74.2577C91.5765 74.659 91.8894 74.9913 92.2784 75.2102C92.6674 75.429 93.1138 75.5242 93.5582 75.4827C94.303 75.4244 95.0009 75.0965 95.5211 74.5604C96.0414 74.0242 96.3484 73.3169 96.3844 72.5707H96.4124C96.7087 72.9636 97.0974 73.2772 97.5441 73.4837C97.9908 73.69 98.4814 73.7827 98.9727 73.7537C99.2581 73.7371 99.5393 73.6781 99.8074 73.5787C100.157 76.8494 102.177 77.1049 102.177 77.1049C102.196 77.4182 102.231 78.0464 102.275 78.7919C102.306 79.2977 101.708 79.5427 101.997 79.9084L101.839 79.9189C101.925 80.0414 101.699 80.1972 101.76 80.3372C101.86 80.5692 101.919 80.8167 101.935 81.0687C101.949 81.2766 101.932 81.4852 101.885 81.6882C101.764 82.184 101.467 82.6192 101.05 82.9132C100.448 83.3524 99.7864 83.9457 99.6937 84.7157C99.5782 85.6694 100.282 87.4194 102.656 87.3722C103.341 87.3599 108.822 87.2129 108.164 82.3252C108.118 81.9839 107.845 81.4589 107.689 81.1807C107.557 80.9317 107.479 80.6573 107.462 80.3757C107.42 79.7037 107.835 79.2242 108.267 78.7902C108.511 78.5697 108.702 78.2967 108.826 77.9918C108.95 77.687 109.004 77.3582 108.983 77.0297C108.96 76.5794 108.795 76.148 108.512 75.797C108.229 75.4458 107.843 75.1932 107.408 75.0749C107.287 75.0419 107.178 74.9747 107.095 74.8817C107.011 74.7886 106.955 74.6735 106.935 74.5499C106.748 73.4807 105.509 70.7472 101.685 71.1794C101.753 70.0542 100.625 68.4057 98.9552 68.3602C97.5272 68.3199 96.3599 69.4399 95.6127 70.3937C95.4 70.6665 95.1232 70.8826 94.807 71.0228C94.4907 71.163 94.1446 71.2227 93.7997 71.1969C93.4917 71.1707 93.0437 71.0219 92.6114 71.0447C90.9454 71.1357 90.1999 72.5882 90.4694 74.4134L91.3812 74.2577Z" fill="#21252B"/>
<path d="M101.596 81.1283L101.81 78.6993C102.107 76.4698 104.76 76.783 104.379 79.0003C103.997 81.2175 101.838 81.1003 101.838 81.1003L101.596 81.1283Z" fill="#FC9D9D"/>
<path d="M92.4259 137.737L98.8641 150.306C99.4352 151.42 100.173 152.44 101.052 153.331L126.199 172.375L130.252 168.206L129.573 167.475C128.163 165.94 126.442 164.374 125.17 162.724C123.555 160.624 121.602 158.426 120.095 156.546C116.973 152.647 113.113 149.138 108.72 147.238L105.145 128.203C104.566 125.021 103.101 122.067 100.919 119.681L92.4259 137.737Z" fill="#21252B"/>
<path d="M87.2709 180.46H82.2589V184.805H87.2709V180.46Z" fill="#FC9D9D"/>
<path opacity="0.15" d="M85.9988 180.46L86.0758 185.029L87.2099 184.84V180.49L85.9988 180.46Z" fill="black"/>
<path d="M87.7327 183.706V187.512C87.7329 187.659 87.7042 187.803 87.6482 187.939C87.5924 188.074 87.5101 188.197 87.4065 188.3C87.3031 188.403 87.1801 188.485 87.0446 188.541C86.9094 188.597 86.7643 188.625 86.618 188.625H73.675C73.5516 188.625 73.4335 188.576 73.3463 188.489C73.2592 188.401 73.2098 188.282 73.2095 188.16C73.2109 187.717 73.351 187.287 73.61 186.928C73.8689 186.569 74.2337 186.3 74.6532 186.16L77.5722 185.197L81.2735 182.324C81.4592 182.178 81.6895 182.101 81.9254 182.107C82.1613 182.112 82.3879 182.199 82.5667 182.353L84.2065 183.753C84.3257 183.853 84.4685 183.923 84.6214 183.953C84.7745 183.984 84.9327 183.976 85.0815 183.928L87.157 183.281C87.2235 183.26 87.2938 183.256 87.3623 183.269C87.4309 183.279 87.4956 183.307 87.5516 183.349C87.6074 183.389 87.6529 183.444 87.6844 183.507C87.7159 183.568 87.7324 183.636 87.7327 183.706Z" fill="#61656D"/>
<path d="M86.6252 188.625H73.6752C73.552 188.625 73.4338 188.576 73.3465 188.489C73.2594 188.401 73.2102 188.282 73.2097 188.16C73.2069 188.002 73.227 187.845 73.2692 187.693H87.7119C87.6689 187.952 87.5366 188.186 87.3378 188.356C87.1392 188.527 86.887 188.622 86.6252 188.625Z" fill="#3F4249"/>
<path d="M81.3543 183.841C81.382 183.839 81.4086 183.829 81.4296 183.811C81.4513 183.788 81.4634 183.759 81.4634 183.727C81.4634 183.697 81.4513 183.668 81.4296 183.645L80.6473 182.803C80.6251 182.782 80.5952 182.77 80.5642 182.77C80.5331 182.77 80.5033 182.782 80.4811 182.803C80.4702 182.814 80.4615 182.826 80.4555 182.842C80.4498 182.856 80.4466 182.87 80.4466 182.886C80.4466 182.901 80.4498 182.915 80.4555 182.929C80.4615 182.945 80.4702 182.957 80.4811 182.968L81.2633 183.811C81.2912 183.827 81.3223 183.837 81.3543 183.841Z" fill="white"/>
<path d="M80.7363 184.322C80.7643 184.322 80.7909 184.312 80.8115 184.293C80.8332 184.27 80.8455 184.24 80.8455 184.209C80.8455 184.179 80.8332 184.149 80.8115 184.126L80.0293 183.285C80.0186 183.274 80.0056 183.265 79.9916 183.26C79.9775 183.253 79.9624 183.251 79.947 183.251C79.9318 183.251 79.9167 183.253 79.9026 183.26C79.8884 183.265 79.8756 183.274 79.8648 183.285C79.8541 183.295 79.8455 183.309 79.8396 183.323C79.8338 183.337 79.8308 183.351 79.8308 183.367C79.8308 183.383 79.8338 183.397 79.8396 183.411C79.8455 183.425 79.8541 183.439 79.8648 183.449L80.647 184.293C80.6745 184.308 80.7048 184.319 80.7363 184.322Z" fill="white"/>
<path d="M80.1201 184.8C80.1479 184.8 80.1749 184.79 80.1953 184.77C80.217 184.748 80.2293 184.718 80.2293 184.686C80.2293 184.657 80.217 184.627 80.1953 184.604L79.4131 183.762C79.4015 183.75 79.3881 183.741 79.373 183.736C79.358 183.729 79.3419 183.726 79.3256 183.726C79.3093 183.726 79.2932 183.729 79.2783 183.736C79.2633 183.741 79.2496 183.75 79.2381 183.762C79.2265 183.775 79.2174 183.787 79.2113 183.803C79.205 183.818 79.2019 183.834 79.2019 183.85C79.2019 183.866 79.205 183.881 79.2113 183.897C79.2174 183.913 79.2265 183.925 79.2381 183.937L80.0203 184.779C80.0347 184.79 80.0508 184.797 80.0679 184.8C80.0853 184.804 80.1029 184.804 80.1201 184.8Z" fill="white"/>
<path opacity="0.3" d="M104.042 139.183L106.492 149.242C106.492 149.242 114.028 151.155 122.417 162.106L129.048 169.456L130.256 168.214L129.573 167.475C128.163 165.94 126.442 164.374 125.17 162.724C123.555 160.624 121.602 158.426 120.095 156.546C116.973 152.647 113.113 149.139 108.72 147.238L104.756 125.666L102.532 131.534L104.042 139.183Z" fill="black"/>
<path d="M106.4 125.039C106.456 123.239 105.551 120.803 104.668 119.032L103.67 114.482L90.0533 115.994L90.1758 120.369L82.3008 145.394C81.921 146.593 81.7269 147.843 81.725 149.1V180.686H87.6838L88.1685 177.121C88.6165 173.826 89.1818 170.546 89.8835 167.295C90.79 163.095 92.3335 154.859 91.4585 150.145L103.222 134.083C105.037 131.394 106.293 128.275 106.4 125.039Z" fill="#21252B"/>
<path opacity="0.15" d="M103.757 78.0501C103.735 78.0803 103.703 78.1017 103.667 78.1099C103.631 78.1183 103.592 78.1132 103.56 78.0956C103.497 78.0476 103.426 78.0128 103.35 77.993C103.274 77.9731 103.195 77.9687 103.117 77.9801C102.969 78.0366 102.85 78.1491 102.784 78.2933C102.675 78.5161 102.619 78.7611 102.62 79.009L102.608 79.2645C102.608 79.4763 102.319 79.4255 102.321 79.2645V79.0335C102.307 78.7283 102.378 78.4252 102.527 78.1585C102.574 78.053 102.644 77.9589 102.731 77.8828C102.818 77.8066 102.92 77.7503 103.031 77.7176C103.144 77.6962 103.261 77.699 103.373 77.7256C103.485 77.752 103.59 77.8017 103.682 77.8716C103.712 77.8896 103.735 77.9165 103.749 77.9486C103.762 77.9806 103.765 78.0161 103.757 78.0501Z" fill="black"/>
<path d="M102.826 80.2988C102.824 80.2144 102.797 80.1327 102.748 80.0637C102.699 79.995 102.632 79.9419 102.553 79.9113C102.474 79.8809 102.388 79.8742 102.306 79.8922C102.224 79.9103 102.148 79.9521 102.09 80.0128C102.031 80.0734 101.992 80.1498 101.976 80.2328C101.961 80.3157 101.97 80.4013 102.003 80.479C102.036 80.5565 102.091 80.6227 102.162 80.6691C102.232 80.7154 102.315 80.7401 102.399 80.7398C102.514 80.7375 102.624 80.6899 102.704 80.6073C102.784 80.5247 102.828 80.4137 102.826 80.2988Z" fill="#5292B8"/>
<path opacity="0.15" d="M102.158 80.6838C102.23 80.741 102.321 80.7681 102.412 80.759C102.47 80.7585 102.527 80.7461 102.579 80.7228C102.632 80.6993 102.679 80.6656 102.718 80.6234C102.758 80.581 102.788 80.5313 102.807 80.4769C102.826 80.4227 102.834 80.3649 102.83 80.3075C102.823 80.238 102.801 80.171 102.766 80.1108C102.731 80.0504 102.684 79.9981 102.627 79.9575C102.675 80.0305 102.705 80.1138 102.715 80.2008C102.718 80.2632 102.709 80.3259 102.688 80.3849C102.667 80.444 102.635 80.4983 102.593 80.5445C102.55 80.5908 102.499 80.6281 102.443 80.6545C102.386 80.6808 102.324 80.6955 102.262 80.6978C102.241 80.675 102.2 80.675 102.158 80.6838Z" fill="black"/>
<path d="M102.972 93.8962C103 93.8962 103 93.5462 103.094 92.9792C103.221 92.25 103.473 91.5484 103.84 90.9055C104.258 90.146 104.834 89.5824 105.352 89.3654C105.87 89.1484 106.239 89.2604 106.241 89.2237C106.166 89.1813 106.082 89.1584 105.996 89.1572C105.762 89.135 105.526 89.1673 105.306 89.2517C104.743 89.4512 104.118 90.0427 103.689 90.8267C103.311 91.4861 103.067 92.2143 102.973 92.9687C102.9 93.5392 102.952 93.8979 102.972 93.8962Z" fill="#263238"/>
<path d="M94.1656 89.635L81.3048 100.063L80.7378 89.0942H76.9561L75.6366 104.2C75.5783 104.724 75.6613 105.253 75.8767 105.734C76.0921 106.214 76.4321 106.629 76.8616 106.934C77.2436 107.207 77.6855 107.385 78.1503 107.453C78.6149 107.521 79.0893 107.478 79.5338 107.326L89.2498 103.845L94.1656 89.635Z" fill="#5292B8"/>
<g opacity="0.2">
<path opacity="0.2" d="M93.0314 91.364C88.4919 95.5238 84.5071 101.112 83.2104 105.928C85.2194 105.27 87.1216 104.631 88.3764 104.108C88.3764 104.108 88.0001 102.123 88.2276 100.958C88.5076 99.5295 89.1604 98.5075 91.7067 93.8263" fill="black"/>
</g>
<path d="M94.57 89.4251L103.32 88.2614C104.691 88.0785 106.08 88.4194 107.21 89.2162C108.341 90.013 109.129 91.207 109.417 92.5594L112.611 107.541L114.886 125.319L111.055 125.844L107.509 110.38L105.43 106.031L103.917 111.326L104.442 113.829C104.47 113.946 104.473 114.068 104.453 114.186C104.432 114.305 104.387 114.418 104.321 114.518C104.252 114.617 104.164 114.701 104.062 114.765C103.96 114.829 103.847 114.872 103.728 114.891L89.9885 117.024C89.8646 117.044 89.7379 117.036 89.6173 117.002C89.4967 116.967 89.3851 116.907 89.2904 116.825C89.1957 116.742 89.1201 116.64 89.069 116.526C89.0179 116.411 88.9924 116.287 88.9945 116.162L89.733 107.165C89.733 107.165 86.156 101.78 89.733 96.5301L93.9522 89.8259C94.0199 89.7183 94.1102 89.6266 94.217 89.5574C94.3236 89.4881 94.4441 89.443 94.57 89.4251Z" fill="#5292B8"/>
<g opacity="0.2">
<path opacity="0.2" d="M103.858 111.272L105.37 105.976C104.433 102.709 103.996 99.9057 103.166 96.6507C103.093 96.3585 102.577 96.012 102.403 95.7757C102.294 95.6117 102.126 95.4964 101.934 95.4537C101.443 95.368 101.199 95.774 101.049 96.1537C100.27 98.0787 100.487 100.24 100.716 102.301C101.085 105.609 101.454 108.917 101.822 112.226L101.731 115.201L103.667 114.875C103.667 114.875 104.614 114.686 104.425 113.741L103.858 111.272Z" fill="black"/>
</g>
<g opacity="0.2">
<path opacity="0.2" d="M81.3453 99.9952C81.382 100.035 80.948 100.441 80.6453 101.087C80.3425 101.733 80.2953 102.324 80.234 102.312C80.1728 102.3 80.1553 101.687 80.486 101.005C80.8168 100.322 81.3225 99.9585 81.3453 99.9952Z" fill="black"/>
</g>
<path d="M103.523 98.175C103.599 98.2448 103.684 98.3038 103.777 98.35C104.018 98.5034 104.271 98.6391 104.533 98.756C104.926 98.9408 105.358 99.0277 105.793 99.0097C106.293 98.9835 106.795 98.7385 107.254 98.434C107.667 98.1316 108.1 97.8591 108.552 97.6185C108.916 97.4295 109.33 97.3614 109.735 97.4242C110.008 97.468 110.26 97.5952 110.458 97.7882C110.593 97.9282 110.633 98.0332 110.652 98.0262C110.631 97.9202 110.581 97.822 110.507 97.7427C110.315 97.5166 110.051 97.3624 109.76 97.3052C109.327 97.2191 108.879 97.2807 108.486 97.4802C108.022 97.7159 107.579 97.9886 107.159 98.2957C106.708 98.595 106.239 98.8207 105.78 98.8575C105.369 98.8809 104.959 98.8097 104.58 98.6492C103.92 98.3745 103.537 98.1365 103.523 98.175Z" fill="#FAFAFA"/>
<path d="M89.0033 97.8093C89.0033 97.8093 89.0208 97.8565 89.0698 97.9353C89.1422 98.0504 89.2274 98.1574 89.3235 98.2538C89.6826 98.6108 90.1311 98.8647 90.622 98.9888C91.346 99.1776 92.1051 99.1878 92.834 99.0185C93.6565 98.8435 94.507 98.4935 95.4065 98.1908C96.935 97.629 98.5926 97.5179 100.182 97.8705C101.407 98.1435 102.081 98.5443 102.097 98.5075C102.061 98.476 102.021 98.4501 101.978 98.4305C101.861 98.3626 101.74 98.3007 101.617 98.245C101.168 98.0343 100.699 97.869 100.217 97.7515C99.4982 97.5727 98.7581 97.4925 98.0175 97.5135C97.1093 97.5428 96.2115 97.7158 95.3575 98.0263C94.451 98.3413 93.6075 98.6878 92.8078 98.8628C92.0997 99.038 91.36 99.0422 90.65 98.875C90.1731 98.766 89.732 98.5378 89.3673 98.2118C89.1188 97.9685 89.019 97.7988 89.0033 97.8093Z" fill="#FAFAFA"/>
<path d="M86.2752 96.3323C86.2167 96.561 86.2048 96.799 86.2402 97.0323C86.289 97.5986 86.4507 98.1493 86.7158 98.6523C86.9809 99.155 87.3439 99.5997 87.7837 99.96C87.9557 100.12 88.158 100.245 88.3787 100.326C88.3944 100.301 88.1722 100.151 87.8537 99.869C87.046 99.1151 86.5169 98.1106 86.3522 97.0183C86.2909 96.6 86.2962 96.3323 86.2752 96.3323Z" fill="#FAFAFA"/>
<path opacity="0.3" d="M88.1688 177.114C88.6168 173.819 89.1821 170.539 89.8838 167.288C90.7903 163.088 92.3338 154.852 91.4588 150.138L103.222 134.076C105.028 131.395 106.285 128.27 106.388 125.041C106.444 123.24 105.539 120.804 104.656 119.033L103.718 114.754L101.579 115.244L101.768 119.406C101.768 119.406 103.406 122.096 103.126 126.129C102.911 129.232 101.787 132.013 99.9761 134.54L88.9038 149.665C88.9038 149.665 90.4473 156.49 88.6308 164.89C87.577 169.686 86.8271 174.544 86.3856 179.434L86.2771 180.672L87.6771 180.638L88.1688 177.114Z" fill="black"/>
<g opacity="0.3">
<path opacity="0.3" d="M104.328 131.792C103.788 133.126 103.141 134.414 102.391 135.642C102.025 136.262 101.619 136.857 101.208 137.446C101.001 137.744 100.781 138.027 100.56 138.321L99.918 139.179L98.616 140.875L97.9545 141.716C97.7375 142 97.5205 142.283 97.2983 142.565C96.4233 143.694 95.5273 144.81 94.5875 145.89C95.3365 144.665 96.131 143.475 96.9413 142.297C97.7515 141.12 98.616 139.973 99.4718 138.824L100.125 137.973L100.45 137.55L100.772 137.126C101.203 136.564 101.612 135.983 102.016 135.399C102.821 134.223 103.592 133.021 104.328 131.792Z" fill="black"/>
</g>
<path d="M99.1585 77.2661C97.7707 76.7708 97.1792 77.3011 97.1792 77.3011L97.1565 77.4516C97.1565 77.4516 98.3605 77.1471 99.05 77.3693L99.1585 77.2661Z" fill="#21252B"/>
<path d="M93.1 77.2433C94.4755 76.7183 95.0793 77.2258 95.0793 77.2258L95.1055 77.3763C95.1055 77.3763 93.8945 77.1033 93.212 77.3431L93.1 77.2433Z" fill="#21252B"/>
<path d="M210.641 182.784H185.742V185.944H210.641V182.784Z" fill="#5292B8"/>
<path opacity="0.2" d="M210.641 182.784H185.742V185.944H210.641V182.784Z" fill="white"/>
<path opacity="0.2" d="M190.426 182.784H185.691V185.944H190.426V182.784Z" fill="black"/>
<path opacity="0.2" d="M207.676 182.784H204.204V185.944H207.676V182.784Z" fill="white"/>
<path d="M210.641 176.465H185.742V179.625H210.641V176.465Z" fill="#5292B8"/>
<path opacity="0.2" d="M210.641 176.465H185.742V179.625H210.641V176.465Z" fill="white"/>
<path opacity="0.2" d="M190.426 176.463H185.691V179.624H190.426V176.463Z" fill="black"/>
<path opacity="0.2" d="M207.676 176.465H204.204V179.625H207.676V176.465Z" fill="white"/>
<path d="M210.641 166.983H185.742V170.144H210.641V166.983Z" fill="#5292B8"/>
<path opacity="0.2" d="M210.641 166.983H185.742V170.144H210.641V166.983Z" fill="white"/>
<path opacity="0.2" d="M190.428 166.983H185.693V170.144H190.428V166.983Z" fill="black"/>
<path opacity="0.2" d="M207.676 166.983H204.204V170.144H207.676V166.983Z" fill="white"/>
<path d="M213.603 185.945H188.704V189.105H213.603V185.945Z" fill="#5292B8"/>
<path opacity="0.2" d="M213.603 185.945H188.704V189.105H213.603V185.945Z" fill="white"/>
<path opacity="0.2" d="M193.566 185.77H188.83V188.93H193.566V185.77Z" fill="black"/>
<path opacity="0.2" d="M210.639 185.945H207.167V189.105H210.639V185.945Z" fill="white"/>
<path d="M213.605 173.304H188.706V176.465H213.605V173.304Z" fill="#5292B8"/>
<path opacity="0.2" d="M213.605 173.304H188.706V176.465H213.605V173.304Z" fill="white"/>
<path opacity="0.2" d="M193.566 173.302H188.83V176.463H193.566V173.302Z" fill="black"/>
<path opacity="0.2" d="M210.641 173.304H207.169V176.465H210.641V173.304Z" fill="white"/>
<path d="M213.605 170.144H188.706V173.304H213.605V170.144Z" fill="#5292B8"/>
<path opacity="0.2" d="M213.605 170.144H188.706V173.304H213.605V170.144Z" fill="white"/>
<path opacity="0.2" d="M193.566 170.144H188.83V173.304H193.566V170.144Z" fill="black"/>
<path opacity="0.2" d="M210.641 170.144H207.169V173.304H210.641V170.144Z" fill="white"/>
<path d="M213.603 179.624H188.704V182.784H213.603V179.624Z" fill="#5292B8"/>
<path opacity="0.2" d="M213.603 179.624H188.704V182.784H213.603V179.624Z" fill="white"/>
<path opacity="0.2" d="M193.566 179.624H188.83V182.784H193.566V179.624Z" fill="black"/>
<path opacity="0.2" d="M210.639 179.625H207.167V182.786H210.639V179.625Z" fill="white"/>
<g opacity="0.3">
<path opacity="0.3" d="M210.639 185.845H188.704V186.044H210.639V185.845Z" fill="black"/>
</g>
<g opacity="0.3">
<path opacity="0.3" d="M210.639 182.684H188.704V182.884H210.639V182.684Z" fill="black"/>
</g>
<g opacity="0.3">
<path opacity="0.3" d="M210.639 179.524H188.704V179.723H210.639V179.524Z" fill="black"/>
</g>
<g opacity="0.3">
<path opacity="0.3" d="M210.639 176.363H188.704V176.563H210.639V176.363Z" fill="black"/>
</g>
<g opacity="0.3">
<path opacity="0.3" d="M213.605 173.204H188.706V173.404H213.605V173.204Z" fill="black"/>
</g>
<g opacity="0.3">
<path opacity="0.3" d="M213.605 170.044H188.706V170.243H213.605V170.044Z" fill="black"/>
</g>
<path d="M223.653 189.093C229.414 188.223 233.378 182.849 232.508 177.088C231.639 171.326 226.263 167.362 220.502 168.232C214.742 169.102 210.777 174.478 211.647 180.238C212.518 185.999 217.892 189.964 223.653 189.093Z" fill="#5292B8"/>
<path opacity="0.1" d="M223.653 189.093C229.414 188.223 233.378 182.849 232.508 177.088C231.639 171.326 226.263 167.362 220.502 168.232C214.742 169.102 210.777 174.478 211.647 180.238C212.518 185.999 217.892 189.964 223.653 189.093Z" fill="black"/>
<path d="M231.077 179.363C231.695 173.569 227.498 168.373 221.706 167.756C215.912 167.138 210.716 171.335 210.098 177.128C209.48 182.92 213.677 188.118 219.471 188.736C225.264 189.352 230.461 185.155 231.077 179.363Z" fill="#5292B8"/>
<path opacity="0.4" d="M231.077 179.363C231.695 173.569 227.498 168.373 221.706 167.756C215.912 167.138 210.716 171.335 210.098 177.128C209.48 182.92 213.677 188.118 219.471 188.736C225.264 189.352 230.461 185.155 231.077 179.363Z" fill="white"/>
<path d="M223.485 186.212C227.876 184.613 230.137 179.756 228.538 175.366C226.938 170.975 222.082 168.712 217.691 170.312C213.3 171.912 211.038 176.767 212.639 181.158C214.238 185.549 219.095 187.812 223.485 186.212Z" fill="#5292B8"/>
<path opacity="0.2" d="M223.485 186.212C227.876 184.613 230.137 179.756 228.538 175.366C226.938 170.975 222.082 168.712 217.691 170.312C213.3 171.912 211.038 176.767 212.639 181.158C214.238 185.549 219.095 187.812 223.485 186.212Z" fill="white"/>
<path opacity="0.2" d="M212.912 176.657C213.315 175.177 214.111 173.832 215.217 172.77C216.325 171.707 217.698 170.965 219.195 170.623C220.691 170.282 222.252 170.353 223.71 170.83C225.169 171.308 226.469 172.172 227.474 173.332C226.832 172.417 226.014 171.638 225.069 171.04C224.126 170.442 223.071 170.038 221.968 169.85C220.868 169.662 219.739 169.695 218.649 169.946C217.56 170.197 216.531 170.661 215.621 171.312C214.713 171.964 213.941 172.788 213.353 173.739C212.765 174.69 212.371 175.749 212.195 176.852C212.018 177.956 212.062 179.085 212.324 180.171C212.587 181.258 213.061 182.282 213.721 183.185C212.625 181.193 212.335 178.857 212.912 176.659V176.657Z" fill="black"/>
<path d="M218.565 183.771L218.881 182.599C217.574 182.179 217.035 181.549 217.467 179.954C217.557 179.611 217.674 179.275 217.817 178.952L219.487 179.403C219.426 179.552 219.373 179.706 219.331 179.862C219.144 180.562 219.083 180.957 219.76 181.141C220.437 181.325 220.561 181.101 220.81 180.212C220.927 179.776 220.969 179.625 220.785 179.351C220.414 178.749 219.266 178.099 218.794 177.518C218.365 177.014 218.384 176.468 218.762 175.068C219.2 173.458 219.828 173.047 221.387 173.388L221.639 172.457L222.588 172.713L222.336 173.644C223.736 174.088 224.086 174.718 223.708 176.148C223.626 176.456 223.522 176.757 223.398 177.049L221.744 176.601C221.804 176.435 221.855 176.265 221.897 176.094C222.072 175.462 222.072 175.121 221.433 174.951C220.89 174.804 220.691 174.951 220.488 175.695C220.276 176.477 220.301 176.57 220.75 176.93C221.239 177.336 221.734 177.648 222.15 178.005C222.737 178.519 223.148 178.792 222.728 180.341C222.136 182.523 221.526 183.164 219.839 182.837L219.517 184.023L218.565 183.771Z" fill="#F4F4F4"/>
<path d="M191.625 156.872C190.801 156.557 190.048 156.084 189.408 155.478C188.767 154.872 188.253 154.146 187.892 153.341C187.534 152.537 187.336 151.669 187.311 150.788C187.287 149.906 187.436 149.029 187.751 148.206C188.386 146.543 189.656 145.201 191.282 144.475C192.906 143.749 194.754 143.698 196.417 144.333C197.241 144.647 197.993 145.121 198.634 145.727C199.274 146.333 199.789 147.059 200.149 147.863C200.508 148.668 200.706 149.536 200.73 150.417C200.755 151.298 200.606 152.176 200.291 152.999C199.656 154.661 198.385 156.003 196.76 156.73C195.136 157.456 193.288 157.507 191.625 156.872Z" fill="#5292B8"/>
<path fill-rule="evenodd" clip-rule="evenodd" d="M197.517 151.742C197.82 150.861 197.771 149.897 197.381 149.052C196.99 148.206 196.287 147.543 195.421 147.203C194.554 146.862 193.588 146.869 192.726 147.223C191.865 147.576 191.172 148.249 190.794 149.1C190.773 149.147 190.752 149.196 190.734 149.245C190.501 149.856 190.44 150.519 190.559 151.161L189.264 152.726L191.364 152.847C191.77 153.322 192.292 153.685 192.88 153.899C193.466 154.113 194.099 154.171 194.715 154.069C195.331 153.966 195.911 153.706 196.397 153.313C196.884 152.92 197.26 152.408 197.489 151.826C197.498 151.798 197.508 151.77 197.517 151.742ZM193.034 153.354C192.479 153.143 191.998 152.774 191.649 152.292L190.424 152.222L191.179 151.31C191.011 150.696 191.046 150.044 191.275 149.45C191.31 149.359 191.35 149.275 191.394 149.182C191.735 148.506 192.318 147.982 193.025 147.712C193.732 147.442 194.516 147.446 195.219 147.724C195.925 148.001 196.5 148.531 196.835 149.211C197.169 149.89 197.239 150.67 197.027 151.398C197.006 151.473 196.982 151.547 196.952 151.62C196.808 151.991 196.593 152.33 196.32 152.619C196.045 152.907 195.716 153.138 195.352 153.299C194.988 153.46 194.596 153.548 194.199 153.557C193.8 153.567 193.405 153.498 193.034 153.354Z" fill="white"/>
<path fill-rule="evenodd" clip-rule="evenodd" d="M195.4 151.806C195.332 151.732 195.001 151.379 194.936 151.323C194.871 151.267 194.821 151.232 194.733 151.291C194.646 151.351 194.416 151.477 194.348 151.513C194.28 151.55 194.229 151.538 194.161 151.464C193.954 151.275 193.781 151.051 193.65 150.803C193.532 150.568 193.452 150.317 193.408 150.059C193.391 149.958 193.45 149.931 193.508 149.905C193.566 149.879 193.627 149.84 193.683 149.809L193.727 149.781C193.758 149.757 193.79 149.73 193.818 149.702C193.837 149.684 193.853 149.661 193.86 149.636C193.869 149.61 193.87 149.583 193.865 149.557C193.865 149.508 193.849 149.032 193.842 148.848C193.835 148.664 193.757 148.661 193.708 148.642C193.659 148.622 193.608 148.594 193.554 148.573C193.512 148.558 193.466 148.552 193.422 148.555C193.377 148.558 193.333 148.57 193.293 148.591C193.167 148.643 193.051 148.722 192.957 148.821C192.862 148.92 192.789 149.038 192.742 149.167C192.707 149.262 192.684 149.361 192.677 149.462C192.665 149.693 192.691 149.924 192.755 150.145C192.776 150.215 192.979 151.274 193.694 151.926C194.408 152.579 194.453 152.465 194.611 152.509C194.768 152.553 195.176 152.499 195.311 152.334C195.414 152.234 195.482 152.104 195.508 151.963C195.514 151.919 195.475 151.877 195.4 151.806Z" fill="white"/>
<path d="M51.6019 118.039C50.0834 118.039 48.6269 117.436 47.5531 116.362C46.4793 115.288 45.8759 113.832 45.8759 112.313C45.8759 110.794 46.4795 109.337 47.5536 108.263C48.6278 107.189 50.0846 106.585 51.6036 106.585C53.1225 106.586 54.579 107.19 55.6528 108.264C56.7264 109.338 57.3296 110.794 57.3296 112.313C57.3296 113.065 57.1816 113.81 56.8937 114.505C56.6058 115.2 56.1839 115.831 55.6519 116.363C55.1201 116.894 54.4887 117.316 53.7938 117.604C53.0988 117.891 52.354 118.039 51.6019 118.039Z" fill="#5292B8"/>
<path d="M48.5522 114.229C49.1262 114.599 49.7947 114.795 50.4772 114.793C52.8029 114.793 54.1154 112.829 54.0367 111.069C54.282 110.892 54.4938 110.672 54.6614 110.42C54.433 110.522 54.1907 110.588 53.9422 110.617C54.2054 110.459 54.4014 110.21 54.4934 109.917C54.2472 110.063 53.978 110.166 53.6972 110.222C53.5085 110.021 53.259 109.889 52.9872 109.844C52.7154 109.8 52.4366 109.846 52.1937 109.976C51.951 110.106 51.7576 110.312 51.6439 110.563C51.53 110.813 51.502 111.095 51.5639 111.363C51.0664 111.338 50.5795 111.209 50.135 110.984C49.6907 110.759 49.2987 110.442 48.9844 110.056C48.8239 110.331 48.7746 110.657 48.8463 110.968C48.9183 111.279 49.106 111.55 49.3712 111.727C49.1724 111.72 48.9779 111.667 48.8042 111.569C48.8005 111.861 48.8988 112.146 49.0822 112.373C49.2656 112.6 49.5225 112.756 49.8087 112.814C49.6244 112.864 49.431 112.871 49.2434 112.835C49.3227 113.084 49.4779 113.303 49.6876 113.46C49.8972 113.617 50.1506 113.704 50.4124 113.71C50.152 113.915 49.8535 114.066 49.5343 114.155C49.2151 114.244 48.8813 114.27 48.5522 114.229Z" fill="white"/>
<path d="M66.2513 171.726C64.1798 172.219 61.9972 171.869 60.1837 170.753C58.3702 169.638 57.0741 167.847 56.5808 165.776C56.0875 163.704 56.4371 161.522 57.5529 159.708C58.6689 157.895 60.4593 156.599 62.5308 156.105C64.6021 155.612 66.7847 155.962 68.5982 157.077C70.4117 158.193 71.7078 159.984 72.2013 162.055C72.6944 164.127 72.3448 166.309 71.229 168.123C70.1132 169.936 68.3226 171.232 66.2513 171.726Z" fill="#868A91"/>
<path d="M63.5548 160.405C64.6993 160.132 64.8358 160.104 65.2908 160.018C65.5634 159.957 65.8445 159.942 66.122 159.976C66.3236 160.003 66.5175 160.073 66.6908 160.179C66.864 160.286 67.0131 160.428 67.1283 160.596C67.2835 160.827 67.3972 161.084 67.4643 161.355C67.592 161.801 67.6288 161.936 67.9018 163.079C68.1748 164.222 68.2028 164.36 68.2885 164.817C68.3499 165.089 68.3643 165.369 68.3305 165.646C68.3032 165.848 68.2341 166.042 68.1273 166.215C68.0208 166.388 67.8788 166.537 67.711 166.652C67.479 166.808 67.2221 166.922 66.9515 166.99C66.5053 167.118 66.3705 167.155 65.2278 167.426C64.085 167.697 63.9468 167.727 63.4918 167.814C63.2189 167.875 62.9379 167.888 62.6605 167.855C62.4579 167.831 62.2634 167.762 62.0918 167.652C61.9169 167.547 61.7677 167.406 61.6543 167.237C61.4994 167.004 61.3858 166.747 61.3183 166.476C61.1888 166.029 61.152 165.895 60.8808 164.752C60.6095 163.609 60.5798 163.473 60.494 163.016C60.4324 162.743 60.4182 162.462 60.452 162.185C60.4755 161.982 60.5449 161.788 60.655 161.616C60.7602 161.439 60.9037 161.289 61.075 161.175C61.3076 161.02 61.565 160.906 61.8363 160.839C62.2825 160.711 62.4173 160.674 63.56 160.401L63.5548 160.405ZM63.3763 159.63C62.2143 159.906 62.069 159.946 61.6175 160.076C61.264 160.168 60.9285 160.319 60.6253 160.522C60.3673 160.7 60.1493 160.93 59.9851 161.197C59.821 161.464 59.714 161.762 59.6715 162.073C59.6251 162.435 59.6411 162.804 59.7188 163.161C59.808 163.621 59.8378 163.768 60.1143 164.932C60.3908 166.096 60.431 166.239 60.5605 166.682C60.6524 167.036 60.8032 167.371 61.0068 167.674C61.1847 167.932 61.4147 168.15 61.6816 168.314C61.9484 168.479 62.2468 168.585 62.5573 168.628C62.9195 168.674 63.287 168.658 63.644 168.581C64.106 168.492 64.253 168.462 65.4168 168.185C66.5805 167.909 66.724 167.869 67.1755 167.739C67.5267 167.649 67.8603 167.5 68.1625 167.3C68.4203 167.122 68.6383 166.892 68.8025 166.625C68.9668 166.358 69.0736 166.06 69.1163 165.749C69.1625 165.387 69.1465 165.02 69.069 164.663C68.9798 164.201 68.95 164.054 68.6735 162.89C68.397 161.726 68.3568 161.583 68.2273 161.131C68.1354 160.778 67.9844 160.442 67.781 160.139C67.6029 159.881 67.3731 159.663 67.106 159.499C66.8392 159.335 66.541 159.228 66.2305 159.185C65.8681 159.139 65.5004 159.155 65.1438 159.234C64.6818 159.322 64.5348 159.351 63.371 159.628" fill="white"/>
<path d="M63.8748 161.717C63.4396 161.821 63.0448 162.051 62.7403 162.379C62.436 162.706 62.2356 163.117 62.1645 163.559C62.0937 164 62.1553 164.453 62.3416 164.86C62.528 165.266 62.8309 165.608 63.2119 165.843C63.5929 166.077 64.0348 166.194 64.4817 166.177C64.9288 166.16 65.3607 166.011 65.723 165.749C66.0854 165.486 66.3617 165.122 66.5171 164.703C66.6725 164.283 66.7 163.827 66.5961 163.392C66.5275 163.103 66.4025 162.831 66.2286 162.591C66.0546 162.35 65.835 162.147 65.5823 161.991C65.3296 161.836 65.0489 161.731 64.7558 161.685C64.4628 161.637 64.1636 161.649 63.8748 161.717ZM64.7376 165.343C64.4551 165.411 64.1588 165.393 63.8867 165.292C63.6144 165.191 63.3782 165.011 63.2079 164.776C63.0378 164.54 62.941 164.26 62.9303 163.97C62.9195 163.679 62.9951 163.393 63.1473 163.145C63.2996 162.898 63.5218 162.701 63.7859 162.58C64.05 162.459 64.344 162.419 64.6306 162.465C64.9175 162.512 65.184 162.642 65.3968 162.839C65.6096 163.037 65.759 163.293 65.8261 163.576C65.916 163.955 65.8518 164.354 65.6477 164.685C65.4437 165.017 65.1163 165.253 64.7376 165.343Z" fill="white"/>
<path d="M66.6472 160.963C66.6704 161.064 66.6634 161.169 66.6269 161.266C66.5903 161.363 66.5259 161.447 66.4419 161.507C66.3577 161.568 66.2578 161.602 66.1544 161.606C66.0509 161.609 65.9486 161.582 65.8605 161.528C65.7723 161.474 65.7022 161.395 65.6589 161.301C65.6155 161.207 65.601 161.102 65.6169 161C65.6329 160.897 65.6789 160.802 65.7487 160.726C65.8187 160.65 65.9097 160.596 66.0102 160.571C66.0779 160.554 66.1481 160.551 66.2168 160.562C66.2856 160.573 66.3516 160.597 66.4107 160.634C66.4701 160.67 66.5215 160.718 66.5621 160.775C66.6027 160.831 66.6316 160.895 66.6472 160.963Z" fill="white"/>
<path d="M216.729 95.1195L217.536 94.9585L218.811 92.1585L218.491 90.5468C218.491 90.5468 219.716 90.223 219.996 92.3615C220.276 94.5 220.32 93.9365 220.32 93.9365C220.32 93.9365 222.357 93.2365 223.235 93.6075C224.182 93.9995 224.023 96.3603 224.334 97.7813C224.49 98.497 224.182 99.253 223.549 99.5558C223.459 99.598 223.367 99.6296 223.27 99.6503C222.609 99.7815 219.126 99.9128 219.126 99.9128L217.726 100.189L216.729 95.1195Z" fill="#DADDDF"/>
<path d="M214.833 95.4695L215.922 100.558L217.303 100.284L216.232 95.2087L214.833 95.4695Z" fill="#DADDDF"/>
<path d="M217.901 128.574C216.277 128.574 214.718 127.929 213.57 126.78C212.422 125.632 211.776 124.074 211.776 122.449C211.776 120.825 212.422 119.267 213.57 118.118C214.718 116.969 216.277 116.324 217.901 116.324C219.525 116.324 221.083 116.969 222.232 118.118C223.38 119.267 224.026 120.825 224.026 122.449C224.026 124.074 223.38 125.632 222.232 126.78C221.083 127.929 219.525 128.574 217.901 128.574Z" fill="#868A91"/>
<path d="M216.967 126.149H218.459V122.412H219.509L219.62 121.161H218.468V120.449C218.468 120.153 218.528 120.036 218.818 120.036H219.625V118.737H218.575C217.464 118.737 216.963 119.227 216.963 120.164V121.161H216.188V122.428H216.963L216.967 126.149Z" fill="white"/>
<path d="M164.204 40.1624L164.61 40.9026L165.35 41.3086L164.61 41.7129L164.204 42.4531L163.8 41.7129L163.06 41.3086L163.8 40.9026L164.204 40.1624Z" fill="#5292B8"/>
<path d="M206.034 76.7969L206.439 77.5371L207.179 77.9431L206.439 78.3474L206.034 79.0894L205.629 78.3474L204.888 77.9431L205.629 77.5371L206.034 76.7969Z" fill="#5292B8"/>
<path d="M200.165 106.974L200.569 107.714L201.31 108.12L200.569 108.525L200.165 109.265L199.759 108.525L199.019 108.12L199.759 107.714L200.165 106.974Z" fill="#5292B8"/>
<path d="M168.313 49.9712L168.719 50.7114L169.46 51.1175L168.719 51.5217L168.313 52.262L167.909 51.5217L167.169 51.1175L167.909 50.7114L168.313 49.9712Z" fill="#5292B8"/>
<path d="M79.3009 45.458L79.8207 46.41L80.7727 46.9298L79.8207 47.4495L79.3009 48.4015L78.7794 47.4495L77.8292 46.9298L78.7794 46.41L79.3009 45.458Z" fill="#DADDDF"/>
<path d="M70.2959 125.769L70.7002 126.511L71.4422 126.915L70.7002 127.32L70.2959 128.062L69.8917 127.32L69.1497 126.915L69.8917 126.511L70.2959 125.769Z" fill="#5292B8"/>
<path d="M100.471 165.002L100.875 165.742L101.616 166.147L100.875 166.553L100.471 167.293L100.065 166.553L99.3248 166.147L100.065 165.742L100.471 165.002Z" fill="#5292B8"/>
<path d="M156.781 43.7202L157.717 45.43L159.427 46.3645L157.717 47.3007L156.781 49.0104L155.846 47.3007L154.137 46.3645L155.846 45.43L156.781 43.7202Z" fill="#5292B8"/>
<path d="M72.3258 38.6853L73.57 40.9621L75.8485 42.2081L73.57 43.4541L72.3258 45.7308L71.0798 43.4541L68.803 42.2081L71.0798 40.9621L72.3258 38.6853Z" fill="#DADDDF"/>
<path d="M193.996 112.626L194.931 114.336L196.642 115.271L194.931 116.207L193.996 117.917L193.06 116.207L191.35 115.271L193.062 114.336L193.996 112.626Z" fill="#5292B8"/>
<path d="M77.8869 114.133L78.8196 115.84L80.5259 116.772L78.8196 117.705L77.8869 119.411L76.9541 117.705L75.2479 116.772L76.9541 115.84L77.8869 114.133Z" fill="#5292B8"/>
<path d="M214.872 148.647L215.805 150.353L217.511 151.286L215.805 152.22L214.872 153.926L213.939 152.218L212.233 151.286L213.939 150.353L214.872 148.647Z" fill="#5292B8"/>
</svg>
