<svg width="132" height="58" viewBox="0 0 132 58" fill="none" xmlns="http://www.w3.org/2000/svg">
<g clip-path="url(#clip0)">
<path d="M29.2011 23.4754H21.4326L19.3623 34.8968H17.4891L23.9366 0.118652H24.9619H25.6915H26.7759L33.2234 34.8968H31.2517L29.2011 23.4754ZM28.9645 21.9933L25.376 2.03541L21.7283 21.9933H28.9645Z" fill="#999999"/>
<path d="M51.7377 1.64023H45.2902V34.9561H43.3185V1.64023H36.8316V0.158203H43.3185H45.2902H51.7377V1.64023Z" fill="#999999"/>
<path d="M79.0066 19.5231V30.4703C79.0066 32.6834 77.3898 34.5014 75.2603 34.8966V34.9361H67.7481H67.7086H65.7369V16.559V15.077V0.138184H67.2552H67.7481H73.5449C76.0096 0.177704 77.9615 2.15373 77.9615 4.62377V12.0734C77.9615 13.4962 77.2715 14.7411 76.2856 15.571C77.7249 16.3219 79.0066 17.8039 79.0066 19.5231ZM67.7481 1.63997V15.0967H73.5055C74.9843 15.0967 75.9701 13.5752 75.9701 12.0932V4.64354C75.9701 3.16151 74.9843 1.63997 73.5055 1.63997H67.7481ZM76.9954 30.4703V19.5231C76.9954 18.041 75.7138 16.559 74.235 16.559H73.5055H67.7481V33.4541H74.5308C76.0096 33.4739 76.9954 31.9523 76.9954 30.4703Z" fill="#999999"/>
<path d="M98.4081 33.4739V34.9559H87.7805H87.2876H85.7694V0.177734H98.2109V1.65976H87.7805V15.6106H96.18V17.0926H87.7805V33.4937H98.4081V33.4739Z" fill="#999999"/>
<path d="M114.931 33.4739V34.9559H105.546H103.535V33.4739V0.177734H105.546V33.4937H114.931V33.4739Z" fill="#999999"/>
<path d="M132.006 33.4739V34.9559H122.621H120.609V33.4739V0.177734H122.621V33.4937H132.006V33.4739Z" fill="#999999"/>
<path d="M4.47579 0.0197615C2.01115 0.0197615 0 2.1934 0 4.64368V30.4704C0 32.9405 2.01115 35.0943 4.47579 35.0943H11.5542V33.4147H4.47579C2.997 33.4147 2.01115 31.9327 2.01115 30.4507V4.64368C2.01115 3.16165 2.997 1.48202 4.47579 1.48202H11.9486V0H4.47579V0.0197615Z" fill="#999999"/>
<path d="M-0.985291 58.4081V40.3281H2.34271V58.4081H-0.985291Z" fill="#999999"/>
<path d="M1.69846 58.4081V40.3281H5.02646V58.4081H1.69846Z" fill="#999999"/>
<path d="M4.46221 58.4081V40.3281H15.0702V58.4081H4.46221ZM14.1262 53.8961L14.3342 51.4481L12.5902 51.2881L12.3662 52.8401C11.8862 53.1281 11.2249 53.2721 10.3822 53.2721C9.48621 53.2721 8.75021 53.0001 8.17421 52.4561C7.59821 51.9121 7.31021 51.0375 7.31021 49.8321C7.31021 48.6908 7.57154 47.8215 8.09421 47.2241C8.62754 46.6268 9.34221 46.3281 10.2382 46.3281C10.5902 46.3281 10.9635 46.3761 11.3582 46.4721C11.7529 46.5681 12.0889 46.7068 12.3662 46.8881L12.5902 48.2641L14.3342 48.1041L14.0782 45.6881C13.7475 45.3788 13.2622 45.0961 12.6222 44.8401C11.9822 44.5735 11.2195 44.4401 10.3342 44.4401C9.02221 44.4401 7.97688 44.7335 7.19821 45.3201C6.41954 45.9068 5.85954 46.6268 5.51821 47.4801C5.17688 48.3335 5.00621 49.1655 5.00621 49.9761C5.00621 51.5228 5.50754 52.7761 6.51021 53.7361C7.51288 54.6855 8.75554 55.1601 10.2382 55.1601C10.9849 55.1601 11.7315 55.0428 12.4782 54.8081C13.2355 54.5735 13.7849 54.2695 14.1262 53.8961Z" fill="#999999"/>
<path d="M14.5835 40.3281H25.3675V53.1761H24.3755L20.6315 44.6001H17.0635V46.4241H18.5035L15.5275 53.1761H14.5835V40.3281ZM20.0075 47.6561L21.0955 50.5841H18.7435L19.9115 47.6561H20.0075ZM25.3675 58.4081H14.5835V55.0001H18.6795V53.1761H17.7035L18.1355 52.1201H21.6715L22.0555 53.1761H21.2235V55.0001H25.3675V58.4081Z" fill="#999999"/>
<path d="M24.8922 58.4081V40.3281H35.6442V58.4081H24.8922ZM33.2922 48.2801L35.1162 48.1201L34.7962 44.6001H25.7082L25.3882 48.1201L27.2122 48.2801L27.5322 46.4241H29.1802V53.1761H27.5802V55.0001H33.0202V53.1761H31.3242V46.4241H32.9722L33.2922 48.2801Z" fill="#999999"/>
<path d="M35.1697 58.4081V40.3281H45.4417V58.4081H35.1697ZM44.8977 51.9121C44.8977 51.2188 44.7057 50.6321 44.3217 50.1521C43.9484 49.6721 43.3884 49.3788 42.6417 49.2721V49.2081C43.239 49.1121 43.703 48.8615 44.0337 48.4561C44.3644 48.0508 44.5297 47.5761 44.5297 47.0321C44.5297 46.2961 44.2364 45.7095 43.6497 45.2721C43.0737 44.8241 42.311 44.6001 41.3617 44.6001H35.9537V46.4241H37.0737V53.1761H35.9537V55.0001H41.4257C42.6204 55.0001 43.495 54.6961 44.0497 54.0881C44.615 53.4695 44.8977 52.7441 44.8977 51.9121ZM42.2257 47.5921C42.2257 47.9441 42.1137 48.2428 41.8897 48.4881C41.6657 48.7335 41.2497 48.8561 40.6417 48.8561H39.2177V46.4241H40.8017C41.1857 46.4241 41.5164 46.5041 41.7937 46.6641C42.0817 46.8135 42.2257 47.1228 42.2257 47.5921ZM42.5937 51.8321C42.5937 52.7281 42.0177 53.1761 40.8657 53.1761H39.2177V50.5201H41.0097C42.0657 50.5201 42.5937 50.9575 42.5937 51.8321Z" fill="#999999"/>
<path d="M44.9628 58.4081V40.3281H54.7868V58.4081H44.9628ZM45.7468 55.0001H53.7788L54.0988 51.9601L52.2748 51.8001L51.9548 53.1761H49.0108V50.6801H53.3948V48.8721H49.0108V46.4241H51.8588L52.1788 47.8001L54.0028 47.6401L53.6828 44.6001H45.7468V46.4241H46.8668V53.1761H45.7468V55.0001Z" fill="#999999"/>
<path d="M54.3028 58.4081V40.3281H63.5668V58.4081H54.3028ZM55.0868 55.0001H62.8948L63.2148 51.3201L61.3908 51.1601L61.0708 53.1761H58.3508V46.4241H59.8068V44.6001H55.0868V46.4241H56.2068V53.1761H55.0868V55.0001Z" fill="#999999"/>
<path d="M63.0803 58.4081V40.3281H72.3443V58.4081H63.0803ZM63.8643 55.0001H71.6723L71.9923 51.3201L70.1683 51.1601L69.8483 53.1761H67.1283V46.4241H68.5843V44.6001H63.8643V46.4241H64.9843V53.1761H63.8643V55.0001Z" fill="#999999"/>
<path d="M71.7778 58.4081V40.3281H75.1058V58.4081H71.7778Z" fill="#999999"/>
<path d="M74.5416 58.4081V40.3281H86.3656V58.4081H74.5416ZM84.8456 46.4241H85.7736V44.6001H81.6296V46.4241H82.8456V50.6961C82.8456 51.4748 82.6589 52.0988 82.2856 52.5681C81.9229 53.0375 81.3309 53.2721 80.5096 53.2721C79.6776 53.2721 79.0856 53.0428 78.7336 52.5841C78.3923 52.1148 78.2216 51.5228 78.2216 50.8081V46.4241H79.4376V44.6001H75.1496V46.4241H76.0776V50.8721C76.0776 51.9921 76.4029 52.9895 77.0536 53.8641C77.7043 54.7281 78.8189 55.1601 80.3976 55.1601C81.5069 55.1601 82.3869 54.9415 83.0376 54.5041C83.6883 54.0668 84.1523 53.5068 84.4296 52.8241C84.7069 52.1415 84.8456 51.4321 84.8456 50.6961V46.4241Z" fill="#999999"/>
<path d="M85.8816 58.4081V40.3281H98.3616V58.4081H85.8816ZM96.6496 46.4241H97.7696V44.6001H93.1456V46.4241H94.6496V50.7761H94.5856L89.3376 44.6001H86.5056V46.4241H87.8016V53.1761H86.6816V55.0001H91.2416V53.1761H89.8016V48.4081H89.8656L95.4496 55.0161L96.6496 55.0001V46.4241Z" fill="#999999"/>
<path d="M97.8778 58.4081V40.3281H103.846V58.4081H97.8778ZM98.6618 55.0001H103.046V53.1761H101.926V46.4241H103.046V44.6001H98.6618V46.4241H99.7818V53.1761H98.6618V55.0001Z" fill="#999999"/>
<path d="M103.358 58.4081V40.3281H115.07V58.4081H103.358ZM114.526 49.7841C114.526 48.3228 114.057 47.0695 113.118 46.0241C112.19 44.9681 110.894 44.4401 109.23 44.4401C107.598 44.4401 106.302 44.9575 105.342 45.9921C104.382 47.0268 103.902 48.3015 103.902 49.8161C103.902 51.2668 104.356 52.5201 105.262 53.5761C106.169 54.6321 107.47 55.1601 109.166 55.1601C110.852 55.1601 112.164 54.6321 113.102 53.5761C114.052 52.5201 114.526 51.2561 114.526 49.7841ZM112.206 49.8481C112.206 50.8615 111.972 51.6881 111.502 52.3281C111.033 52.9575 110.292 53.2721 109.278 53.2721C108.18 53.2721 107.396 52.9255 106.926 52.2321C106.457 51.5388 106.222 50.7175 106.222 49.7681C106.222 48.7868 106.462 47.9708 106.942 47.3201C107.422 46.6588 108.18 46.3281 109.214 46.3281C110.185 46.3281 110.926 46.6375 111.438 47.2561C111.95 47.8748 112.206 48.7388 112.206 49.8481Z" fill="#999999"/>
<path d="M114.589 58.4081V40.3281H127.069V58.4081H114.589ZM125.357 46.4241H126.477V44.6001H121.853V46.4241H123.357V50.7761H123.293L118.045 44.6001H115.213V46.4241H116.509V53.1761H115.389V55.0001H119.949V53.1761H118.509V48.4081H118.573L124.157 55.0161L125.357 55.0001V46.4241Z" fill="#999999"/>
<path d="M126.505 58.4081V40.3281H129.833V58.4081H126.505Z" fill="#999999"/>
<path d="M129.189 58.4081V40.3281H132.517V58.4081H129.189Z" fill="#999999"/>
</g>
<defs>
<clipPath id="clip0">
<rect width="132" height="58" fill="white"/>
</clipPath>
</defs>
</svg>
