<svg width="102" height="45" viewBox="0 0 102 45" fill="none" xmlns="http://www.w3.org/2000/svg">
<g clip-path="url(#clip0)">
<path d="M22.5645 18.2136H16.5615L14.9617 27.0751H13.5143L18.4965 0.092041H19.2887H19.8525H20.6905L25.6726 27.0751H24.149L22.5645 18.2136ZM22.3816 17.0638L19.6087 1.57918L16.79 17.0638H22.3816Z" fill="#1872B9"/>
<path d="M39.9791 1.27259H34.997V27.1211H33.4734V1.27259H28.4608V0.122742H33.4734H34.997H39.9791V1.27259Z" fill="#1872B9"/>
<path d="M61.0505 15.1473V23.6408C61.0505 25.3579 59.8012 26.7684 58.1557 27.075V27.1057H52.3508H52.3203H50.7967V12.8476V11.6977V0.107269H51.9699H52.3508H56.8302C58.7347 0.137932 60.243 1.67106 60.243 3.58747V9.36736C60.243 10.4712 59.7098 11.4371 58.948 12.081C60.0602 12.6636 61.0505 13.8134 61.0505 15.1473ZM52.3508 1.27245V11.713H56.7997C57.9424 11.713 58.7042 10.5325 58.7042 9.3827V3.6028C58.7042 2.45295 57.9424 1.27245 56.7997 1.27245H52.3508ZM59.4965 23.6408V15.1473C59.4965 13.9974 58.5061 12.8476 57.3634 12.8476H56.7997H52.3508V25.9558H57.592C58.7347 25.9711 59.4965 24.7906 59.4965 23.6408Z" fill="#109194"/>
<path d="M76.0426 25.9713V27.1211H67.8304H67.4495H66.2763V0.138062H75.8902V1.28791H67.8304V12.1118H74.3209V13.2616H67.8304V25.9866H76.0426V25.9713Z" fill="#1872B9"/>
<path d="M88.8104 25.9713V27.1211H81.5581H80.004V25.9713V0.138062H81.5581V25.9866H88.8104V25.9713Z" fill="#1872B9"/>
<path d="M102.005 25.9713V27.1211H94.7522H93.1982V25.9713V0.138062H94.7522V25.9866H102.005V25.9713Z" fill="#1872B9"/>
<path d="M3.45856 0.0153322C1.55407 0.0153322 0 1.70177 0 3.60285V23.6408C0 25.5573 1.55407 27.2284 3.45856 27.2284H8.92827V25.9252H3.45856C2.31587 25.9252 1.55407 24.7754 1.55407 23.6255V3.60285C1.55407 2.45301 2.31587 1.14985 3.45856 1.14985H9.23299V0H3.45856V0.0153322Z" fill="#7757A3"/>
<path d="M-0.76136 45.3166V31.289H1.81028V45.3166H-0.76136Z" fill="#6E9ABC"/>
<path d="M1.31245 45.3166V31.289H3.88408V45.3166H1.31245Z" fill="#6E9ABC"/>
<path d="M3.44807 45.3166V31.289H11.6452V45.3166H3.44807ZM10.9157 41.8159L11.0764 39.9166L9.7288 39.7924L9.55571 40.9966C9.1848 41.22 8.67377 41.3317 8.02262 41.3317C7.33025 41.3317 6.76153 41.1207 6.31644 40.6986C5.87134 40.2766 5.6488 39.5979 5.6488 38.6628C5.6488 37.7772 5.85074 37.1028 6.25462 36.6393C6.66674 36.1759 7.21898 35.9441 7.91134 35.9441C8.18334 35.9441 8.47183 35.9814 8.7768 36.0559C9.08177 36.1304 9.3414 36.2379 9.55571 36.3786L9.7288 37.4462L11.0764 37.3221L10.8786 35.4476C10.6231 35.2076 10.2481 34.9883 9.75353 34.7897C9.25898 34.5828 8.66965 34.4793 7.98553 34.4793C6.97171 34.4793 6.16395 34.7069 5.56225 35.1621C4.96056 35.6172 4.52783 36.1759 4.26407 36.8379C4.00031 37.5 3.86843 38.1455 3.86843 38.7745C3.86843 39.9745 4.25583 40.9469 5.03062 41.6917C5.80541 42.4283 6.76565 42.7966 7.91134 42.7966C8.48831 42.7966 9.06528 42.7055 9.64225 42.5235C10.2275 42.3414 10.652 42.1055 10.9157 41.8159Z" fill="#6E9ABC"/>
<path d="M11.269 31.289H19.6021V41.2572H18.8356L15.9425 34.6035H13.1854V36.0186H14.2981L11.9985 41.2572H11.269V31.289ZM15.4603 36.9745L16.301 39.2462H14.4836L15.3861 36.9745H15.4603ZM19.6021 45.3166H11.269V42.6724H14.4341V41.2572H13.6799L14.0138 40.4379H16.7461L17.0429 41.2572H16.3999V42.6724H19.6021V45.3166Z" fill="#6E9ABC"/>
<path d="M19.2349 45.3166V31.289H27.5433V45.3166H19.2349ZM25.7258 37.4586L27.1353 37.3345L26.888 34.6035H19.8654L19.6182 37.3345L21.0276 37.4586L21.2749 36.0186H22.5483V41.2572H21.312V42.6724H25.5156V41.2572H24.2051V36.0186H25.4785L25.7258 37.4586Z" fill="#6E9ABC"/>
<path d="M27.1766 45.3166V31.289H35.114V45.3166H27.1766ZM34.6937 40.2766C34.6937 39.7386 34.5453 39.2835 34.2486 38.911C33.9601 38.5386 33.5274 38.311 32.9504 38.2283V38.1786C33.412 38.1041 33.7705 37.9097 34.0261 37.5952C34.2816 37.2807 34.4093 36.9124 34.4093 36.4904C34.4093 35.9193 34.1827 35.4641 33.7293 35.1248C33.2842 34.7772 32.6949 34.6035 31.9613 34.6035H27.7824V36.0186H28.6479V41.2572H27.7824V42.6724H32.0108C32.9339 42.6724 33.6098 42.4366 34.0384 41.9648C34.4753 41.4848 34.6937 40.9221 34.6937 40.2766ZM32.629 36.9248C32.629 37.1979 32.5424 37.4297 32.3693 37.62C32.1962 37.8103 31.8748 37.9055 31.405 37.9055H30.3046V36.0186H31.5286C31.8253 36.0186 32.0808 36.0807 32.2951 36.2048C32.5177 36.3207 32.629 36.5607 32.629 36.9248ZM32.9133 40.2145C32.9133 40.9097 32.4682 41.2572 31.578 41.2572H30.3046V39.1966H31.6893C32.5053 39.1966 32.9133 39.5359 32.9133 40.2145Z" fill="#6E9ABC"/>
<path d="M34.744 45.3166V31.289H42.3353V45.3166H34.744ZM35.3498 42.6724H41.5564L41.8036 40.3138L40.3942 40.1897L40.1469 41.2572H37.872V39.3207H41.2596V37.9179H37.872V36.0186H40.0727L40.32 37.0862L41.7295 36.9621L41.4822 34.6035H35.3498V36.0186H36.2153V41.2572H35.3498V42.6724Z" fill="#6E9ABC"/>
<path d="M41.9613 45.3166V31.289H49.1198V45.3166H41.9613ZM42.5671 42.6724H48.6006L48.8478 39.8172L47.4384 39.6931L47.1911 41.2572H45.0893V36.0186H46.2144V34.6035H42.5671V36.0186H43.4326V41.2572H42.5671V42.6724Z" fill="#6E9ABC"/>
<path d="M48.7439 45.3166V31.289H55.9024V45.3166H48.7439ZM49.3497 42.6724H55.3832L55.6304 39.8172L54.221 39.6931L53.9737 41.2572H51.8719V36.0186H52.997V34.6035H49.3497V36.0186H50.2152V41.2572H49.3497V42.6724Z" fill="#6E9ABC"/>
<path d="M55.4647 45.3166V31.289H58.0363V45.3166H55.4647Z" fill="#6E9ABC"/>
<path d="M57.6003 45.3166V31.289H66.737V45.3166H57.6003ZM65.5625 36.0186H66.2796V34.6035H63.0774V36.0186H64.017V39.3331C64.017 39.9372 63.8728 40.4214 63.5843 40.7855C63.3041 41.1497 62.8466 41.3317 62.212 41.3317C61.569 41.3317 61.1116 41.1538 60.8396 40.7979C60.5758 40.4338 60.444 39.9745 60.444 39.42V36.0186H61.3836V34.6035H58.0701V36.0186H58.7872V39.4697C58.7872 40.3386 59.0386 41.1124 59.5414 41.791C60.0442 42.4614 60.9055 42.7966 62.1254 42.7966C62.9826 42.7966 63.6626 42.6269 64.1654 42.2876C64.6682 41.9483 65.0267 41.5138 65.241 40.9841C65.4553 40.4545 65.5625 39.9041 65.5625 39.3331V36.0186Z" fill="#6E9ABC"/>
<path d="M66.363 45.3166V31.289H76.0067V45.3166H66.363ZM74.6838 36.0186H75.5492V34.6035H71.9761V36.0186H73.1383V39.3952H73.0889L69.0336 34.6035H66.8452V36.0186H67.8467V41.2572H66.9812V42.6724H70.5049V41.2572H69.3921V37.5579H69.4416L73.7565 42.6848L74.6838 42.6724V36.0186Z" fill="#6E9ABC"/>
<path d="M75.6329 45.3166V31.289H80.2445V45.3166H75.6329ZM76.2387 42.6724H79.6263V41.2572H78.7609V36.0186H79.6263V34.6035H76.2387V36.0186H77.1041V41.2572H76.2387V42.6724Z" fill="#6E9ABC"/>
<path d="M79.8679 45.3166V31.289H88.9181V45.3166H79.8679ZM88.4977 38.6255C88.4977 37.4917 88.135 36.5193 87.4097 35.7083C86.6926 34.889 85.6912 34.4793 84.4053 34.4793C83.1443 34.4793 82.1428 34.8807 81.401 35.6835C80.6592 36.4862 80.2883 37.4752 80.2883 38.6504C80.2883 39.7759 80.6386 40.7483 81.3392 41.5676C82.0398 42.3869 83.0453 42.7966 84.3559 42.7966C85.6582 42.7966 86.672 42.3869 87.3973 41.5676C88.1309 40.7483 88.4977 39.7676 88.4977 38.6255ZM86.705 38.6752C86.705 39.4614 86.5237 40.1028 86.161 40.5993C85.7983 41.0876 85.2255 41.3317 84.4424 41.3317C83.5935 41.3317 82.9876 41.0628 82.625 40.5248C82.2623 39.9869 82.081 39.3497 82.081 38.6131C82.081 37.8517 82.2664 37.2186 82.6373 36.7138C83.0083 36.2007 83.5935 35.9441 84.393 35.9441C85.143 35.9441 85.7159 36.1841 86.1115 36.6641C86.5072 37.1441 86.705 37.8145 86.705 38.6752Z" fill="#6E9ABC"/>
<path d="M88.5461 45.3166V31.289H98.1898V45.3166H88.5461ZM96.8668 36.0186H97.7323V34.6035H94.1592V36.0186H95.3214V39.3952H95.2719L91.2167 34.6035H89.0283V36.0186H90.0298V41.2572H89.1643V42.6724H92.6879V41.2572H91.5752V37.5579H91.6247L95.9396 42.6848L96.8668 42.6724V36.0186Z" fill="#6E9ABC"/>
<path d="M97.7541 45.3166V31.289H100.326V45.3166H97.7541Z" fill="#6E9ABC"/>
<path d="M99.8279 45.3166V31.289H102.4V45.3166H99.8279Z" fill="#6E9ABC"/>
</g>
<defs>
<clipPath id="clip0">
<rect width="102" height="45" fill="white"/>
</clipPath>
</defs>
</svg>
