<svg width="200" height="150" viewBox="0 0 200 150" fill="none" xmlns="http://www.w3.org/2000/svg">
<path d="M36.7587 132L29.295 64.1325C29.1961 63.2335 29.2756 62.3238 29.5289 61.4554C29.7822 60.5871 30.2044 59.7774 30.7712 59.0725L59.375 23.5C60.1086 22.5878 61.063 21.8779 62.1479 21.4378C63.2326 20.9976 64.4119 20.8418 65.5737 20.985L146.616 30.985C147.864 31.1389 149.045 31.6316 150.031 32.4098C151.019 33.1879 151.774 34.2218 152.214 35.3988L168.852 79.85C169.247 80.9066 169.376 82.0443 169.227 83.1625L162.757 132H36.7587Z" fill="#F4F4F4"/>
<path d="M60.475 78.9551C63.5816 78.9551 66.1 76.4366 66.1 73.3301C66.1 70.2235 63.5816 67.7051 60.475 67.7051C57.3684 67.7051 54.85 70.2235 54.85 73.3301C54.85 76.4366 57.3684 78.9551 60.475 78.9551Z" fill="white"/>
<path d="M57.9213 71.73C57.9213 71.5464 57.9758 71.3668 58.0778 71.214C58.1799 71.0613 58.3249 70.9423 58.4946 70.872C58.6643 70.8016 58.851 70.7833 59.0313 70.8191C59.2114 70.855 59.3769 70.9434 59.5068 71.0733C59.6366 71.2031 59.7251 71.3686 59.7609 71.5489C59.7968 71.729 59.7784 71.9158 59.7081 72.0854C59.6378 72.2551 59.5188 72.4003 59.366 72.5023C59.2133 72.6043 59.0338 72.6588 58.85 72.6588C58.6038 72.6588 58.3675 72.5609 58.1933 72.3868C58.0191 72.2126 57.9213 71.9764 57.9213 71.73Z" fill="#5292B8"/>
<path d="M58.45 75.1764L61.8813 70.8014C61.892 70.7876 61.9054 70.7761 61.9205 70.7676C61.9356 70.759 61.9524 70.7535 61.9698 70.7515C61.987 70.7494 62.0045 70.7508 62.0214 70.7554C62.0381 70.7601 62.0538 70.768 62.0675 70.7789L62.5913 71.1851C62.6188 71.2071 62.6365 71.2393 62.6408 71.2743C62.645 71.3093 62.6353 71.3446 62.6138 71.3726L59.1825 75.7477C59.1608 75.7753 59.1291 75.7932 59.0943 75.7977C59.0594 75.8022 59.0241 75.7927 58.9963 75.7714L58.4738 75.3639C58.4598 75.3532 58.448 75.3399 58.4393 75.3247C58.4304 75.3094 58.4248 75.2925 58.4225 75.275C58.4204 75.2577 58.4216 75.2399 58.4264 75.2229C58.431 75.206 58.4391 75.1902 58.45 75.1764Z" fill="#5292B8"/>
<path d="M62.1 75.9075C61.9162 75.9075 61.7366 75.853 61.5839 75.751C61.4311 75.6489 61.3121 75.5038 61.2419 75.3339C61.1716 75.1641 61.1532 74.9774 61.1892 74.7971C61.2251 74.617 61.3137 74.4515 61.4437 74.3216C61.5737 74.1918 61.7394 74.1035 61.9196 74.0678C62.0999 74.032 62.2866 74.0506 62.4562 74.1211C62.626 74.1916 62.771 74.3109 62.8729 74.4638C62.9747 74.6166 63.029 74.7963 63.0287 74.98C63.0284 75.2261 62.9304 75.462 62.7562 75.636C62.5821 75.8099 62.3461 75.9075 62.1 75.9075Z" fill="#5292B8"/>
<g opacity="0.4">
<path opacity="0.4" d="M57.9213 71.7298C57.9213 71.5462 57.9758 71.3665 58.0778 71.2138C58.1799 71.061 58.3249 70.942 58.4946 70.8718C58.6643 70.8014 58.851 70.783 59.0313 70.8189C59.2114 70.8548 59.3769 70.9432 59.5068 71.073C59.6366 71.2029 59.7251 71.3684 59.7609 71.5486C59.7968 71.7288 59.7784 71.9155 59.7081 72.0851C59.6378 72.2549 59.5188 72.4 59.366 72.502C59.2133 72.604 59.0338 72.6585 58.85 72.6585C58.6038 72.6585 58.3675 72.5606 58.1933 72.3865C58.0191 72.2124 57.9213 71.9762 57.9213 71.7298Z" fill="white"/>
<path opacity="0.4" d="M58.45 75.1764L61.8813 70.8014C61.892 70.7876 61.9054 70.7761 61.9205 70.7676C61.9356 70.759 61.9524 70.7535 61.9698 70.7515C61.987 70.7494 62.0045 70.7508 62.0214 70.7554C62.0381 70.7601 62.0538 70.768 62.0675 70.7789L62.5913 71.1851C62.6188 71.2071 62.6365 71.2393 62.6408 71.2743C62.645 71.3093 62.6353 71.3446 62.6138 71.3726L59.1825 75.7477C59.1608 75.7753 59.1291 75.7932 59.0943 75.7977C59.0594 75.8022 59.0241 75.7927 58.9963 75.7714L58.4738 75.3639C58.4598 75.3532 58.448 75.3399 58.4393 75.3247C58.4304 75.3094 58.4248 75.2925 58.4225 75.275C58.4204 75.2577 58.4216 75.2399 58.4264 75.2229C58.431 75.206 58.4391 75.1902 58.45 75.1764Z" fill="white"/>
<path opacity="0.4" d="M62.1 75.9075C61.9163 75.9075 61.7367 75.853 61.5839 75.751C61.4312 75.6489 61.3122 75.5038 61.2419 75.3339C61.1717 75.1641 61.1533 74.9774 61.1893 74.7971C61.2252 74.617 61.3138 74.4515 61.4438 74.3216C61.5738 74.1918 61.7394 74.1035 61.9197 74.0678C62.0999 74.032 62.2867 74.0506 62.4563 74.1211C62.626 74.1916 62.771 74.3109 62.8729 74.4638C62.9748 74.6166 63.029 74.7963 63.0288 74.98C63.0284 75.2261 62.9304 75.462 62.7563 75.636C62.5822 75.8099 62.3462 75.9075 62.1 75.9075Z" fill="white"/>
</g>
<path d="M55.515 55.96C58.6216 55.96 61.14 53.4416 61.14 50.335C61.14 47.2284 58.6216 44.71 55.515 44.71C52.4084 44.71 49.89 47.2284 49.89 50.335C49.89 53.4416 52.4084 55.96 55.515 55.96Z" fill="white"/>
<path d="M58.535 48.4125C58.5233 48.3972 58.508 48.3849 58.4908 48.3765C58.4734 48.368 58.4543 48.3636 58.435 48.3637H53.6138L53.4813 47.7037C53.4757 47.6749 53.46 47.6489 53.4372 47.6304C53.4143 47.6119 53.3857 47.602 53.3563 47.6025H52.595C52.5619 47.6025 52.53 47.6157 52.5067 47.6391C52.4832 47.6626 52.47 47.6944 52.47 47.7275C52.47 47.7607 52.4832 47.7925 52.5067 47.816C52.53 47.8394 52.5619 47.8525 52.595 47.8525H53.25L53.875 50.9462C53.9158 51.1481 54.0253 51.3296 54.1848 51.4597C54.3444 51.5899 54.5441 51.6606 54.75 51.66H57.6788C57.7119 51.66 57.7436 51.6469 57.7671 51.6235C57.7905 51.6 57.8038 51.5682 57.8038 51.535C57.8038 51.5019 57.7905 51.4701 57.7671 51.4466C57.7436 51.4232 57.7119 51.41 57.6788 51.41H54.75C54.6489 51.41 54.5494 51.3859 54.4595 51.3396C54.3698 51.2932 54.2923 51.2261 54.2338 51.1437L57.95 50.6437C57.9753 50.6406 57.999 50.6299 58.018 50.6129C58.037 50.596 58.0503 50.5736 58.0563 50.5487L58.5638 48.5175C58.5671 48.499 58.5664 48.48 58.5614 48.4617C58.5564 48.4436 58.5474 48.4267 58.535 48.4125Z" fill="#5292B8"/>
<path d="M57.2685 53.176C57.6146 53.1198 57.8498 52.7936 57.7936 52.4475C57.7374 52.1012 57.4112 51.8662 57.065 51.9223C56.7189 51.9786 56.4837 52.3047 56.54 52.651C56.5961 52.9971 56.9224 53.2322 57.2685 53.176Z" fill="#5292B8"/>
<path d="M54.6263 53.1875C54.9769 53.1875 55.2613 52.9032 55.2613 52.5525C55.2613 52.2018 54.9769 51.9175 54.6263 51.9175C54.2755 51.9175 53.9913 52.2018 53.9913 52.5525C53.9913 52.9032 54.2755 53.1875 54.6263 53.1875Z" fill="#5292B8"/>
<g opacity="0.4">
<path opacity="0.4" d="M58.535 48.4125C58.5233 48.3972 58.508 48.3849 58.4908 48.3765C58.4734 48.368 58.4543 48.3636 58.435 48.3637H53.6138L53.4813 47.7037C53.4757 47.6749 53.46 47.6489 53.4372 47.6304C53.4143 47.6119 53.3857 47.602 53.3563 47.6025H52.595C52.5619 47.6025 52.53 47.6157 52.5067 47.6391C52.4832 47.6626 52.47 47.6944 52.47 47.7275C52.47 47.7607 52.4832 47.7925 52.5067 47.816C52.53 47.8394 52.5619 47.8525 52.595 47.8525H53.25L53.875 50.9462C53.9158 51.1481 54.0253 51.3296 54.1848 51.4597C54.3444 51.5899 54.5441 51.6606 54.75 51.66H57.6788C57.7119 51.66 57.7436 51.6469 57.7671 51.6235C57.7905 51.6 57.8038 51.5682 57.8038 51.535C57.8038 51.5019 57.7905 51.4701 57.7671 51.4466C57.7436 51.4232 57.7119 51.41 57.6788 51.41H54.75C54.6489 51.41 54.5494 51.3859 54.4595 51.3396C54.3698 51.2932 54.2923 51.2261 54.2338 51.1437L57.95 50.6437C57.9753 50.6406 57.999 50.6299 58.018 50.6129C58.037 50.596 58.0503 50.5736 58.0563 50.5487L58.5638 48.5175C58.5671 48.499 58.5664 48.48 58.5614 48.4617C58.5564 48.4436 58.5474 48.4267 58.535 48.4125Z" fill="white"/>
<path opacity="0.4" d="M57.2684 53.176C57.6147 53.1198 57.8497 52.7936 57.7936 52.4475C57.7373 52.1012 57.4112 51.8662 57.0649 51.9223C56.7188 51.9786 56.4837 52.3047 56.5399 52.651C56.5961 52.9971 56.9223 53.2322 57.2684 53.176Z" fill="white"/>
<path opacity="0.4" d="M54.6263 53.1875C54.9769 53.1875 55.2613 52.9031 55.2613 52.5525C55.2613 52.2017 54.9769 51.9175 54.6263 51.9175C54.2755 51.9175 53.9913 52.2017 53.9913 52.5525C53.9913 52.9031 54.2755 53.1875 54.6263 53.1875Z" fill="white"/>
</g>
<path d="M165.341 132.25H34.0275C34.0017 132.25 33.9769 132.24 33.9586 132.221C33.9404 132.202 33.93 132.179 33.93 132.152C33.93 132.126 33.9404 132.101 33.9586 132.084C33.9769 132.065 34.0017 132.055 34.0275 132.055H165.341C165.368 132.055 165.393 132.065 165.41 132.084C165.429 132.101 165.439 132.126 165.439 132.152C165.439 132.179 165.429 132.202 165.41 132.221C165.393 132.24 165.368 132.25 165.341 132.25Z" fill="#B2B6BB"/>
<path d="M86.0863 38.8401C89.1929 38.8401 91.7113 36.3217 91.7113 33.2151C91.7113 30.1085 89.1929 27.5901 86.0863 27.5901C82.9798 27.5901 80.4613 30.1085 80.4613 33.2151C80.4613 36.3217 82.9798 38.8401 86.0863 38.8401Z" fill="white"/>
<path d="M84.4913 32.3751H85.0363L86.115 30.7614L86.2038 29.8589C86.2067 29.8264 86.2174 29.7951 86.2348 29.7675C86.2523 29.74 86.276 29.7171 86.3042 29.7006C86.3323 29.6841 86.3639 29.6745 86.3964 29.6726C86.4291 29.6708 86.4615 29.6768 86.4913 29.6901C86.7275 29.8013 86.9675 30.1151 86.9688 31.0026C86.9688 32.0026 86.9776 32.0639 86.9776 32.0639L88.6563 32.0776C88.7549 32.0801 88.8488 32.1204 88.9187 32.1902C88.9884 32.26 89.0288 32.3539 89.0313 32.4526C89.0438 33.0851 89.0701 34.3714 89.0838 35.0776C89.0957 35.31 89.0294 35.5396 88.8956 35.73C88.7616 35.9202 88.5678 36.0602 88.3451 36.1276C88.2822 36.1442 88.2175 36.1531 88.1525 36.1539C87.7063 36.1539 85.4275 35.7914 85.4275 35.7914H84.485L84.4913 32.3751Z" fill="#5292B8"/>
<path d="M82.92 32.3737L83.2675 35.8525H84.2V32.3737H82.92Z" fill="#5292B8"/>
<g opacity="0.4">
<path opacity="0.4" d="M84.4914 32.3751H85.0364L86.1152 30.7614L86.2039 29.8589C86.2068 29.8264 86.2175 29.7951 86.2349 29.7675C86.2524 29.74 86.2762 29.7171 86.3043 29.7006C86.3324 29.6841 86.364 29.6745 86.3965 29.6726C86.4292 29.6708 86.4617 29.6768 86.4914 29.6901C86.7277 29.8013 86.9677 30.1151 86.9689 31.0026C86.9689 32.0026 86.9777 32.0639 86.9777 32.0639L88.6564 32.0776C88.755 32.0801 88.8489 32.1204 88.9188 32.1902C88.9885 32.26 89.0289 32.3539 89.0314 32.4526C89.0439 33.0851 89.0702 34.3714 89.0839 35.0776C89.0958 35.31 89.0295 35.5396 88.8955 35.73C88.7617 35.9202 88.5679 36.0602 88.3452 36.1276C88.2823 36.1442 88.2177 36.1531 88.1527 36.1539C87.7064 36.1539 85.4277 35.7914 85.4277 35.7914H84.4852L84.4914 32.3751Z" fill="white"/>
<path opacity="0.4" d="M82.92 32.3737L83.2675 35.8525H84.2V32.3737H82.92Z" fill="white"/>
</g>
<path d="M103.637 40.7124H111.676C112.305 40.7124 112.927 40.8363 113.508 41.0769C114.089 41.3175 114.616 41.6703 115.061 42.1148C115.505 42.5594 115.857 43.0872 116.098 43.668C116.338 44.2489 116.462 44.8714 116.461 45.4999V127.274C116.461 128.543 115.957 129.76 115.06 130.658C114.162 131.555 112.945 132.059 111.676 132.059H103.637C103.406 132.059 103.177 132.014 102.963 131.925C102.749 131.836 102.555 131.706 102.391 131.543C102.227 131.379 102.097 131.185 102.009 130.971C101.92 130.758 101.875 130.528 101.875 130.296V42.4749C101.875 42.2434 101.92 42.0142 102.009 41.8003C102.097 41.5864 102.227 41.392 102.391 41.2283C102.555 41.0647 102.749 40.9348 102.963 40.8463C103.177 40.7578 103.406 40.7123 103.637 40.7124Z" fill="#21252B"/>
<path d="M108.594 40.7124H70.2225C67.3796 40.7124 65.075 43.017 65.075 45.8599V126.91C65.075 129.753 67.3796 132.058 70.2225 132.058H108.594C111.437 132.058 113.741 129.753 113.741 126.91V45.8599C113.741 43.017 111.437 40.7124 108.594 40.7124Z" fill="#61656D"/>
<path d="M108.531 42.8125H98.5987C98.2708 42.8124 97.9532 42.9265 97.7005 43.1353C97.4477 43.344 97.2756 43.6344 97.2137 43.9563C97.1526 44.2784 96.9808 44.5691 96.7282 44.7781C96.4756 44.9873 96.1578 45.1015 95.83 45.1013H82.9875C82.6595 45.1013 82.3417 44.987 82.089 44.778C81.8361 44.569 81.6641 44.2784 81.6025 43.9563C81.5408 43.6344 81.369 43.3441 81.1163 43.1354C80.8638 42.9266 80.5463 42.8125 80.2187 42.8125H70.285C69.8665 42.8125 69.4521 42.895 69.0655 43.0551C68.679 43.2154 68.3277 43.4503 68.032 43.7463C67.7361 44.0423 67.5016 44.3936 67.3417 44.7804C67.1817 45.1671 67.0996 45.5815 67.1 46V126.76C67.1 127.179 67.1824 127.593 67.3424 127.979C67.5025 128.365 67.7371 128.716 68.0329 129.013C68.3286 129.308 68.6797 129.543 69.0661 129.703C69.4525 129.863 69.8667 129.945 70.285 129.945H108.535C108.953 129.945 109.368 129.863 109.754 129.703C110.141 129.543 110.492 129.309 110.788 129.013C111.084 128.716 111.318 128.366 111.479 127.979C111.639 127.593 111.721 127.179 111.721 126.76V46C111.721 45.5811 111.639 45.1663 111.479 44.7793C111.319 44.3923 111.084 44.0406 110.787 43.7445C110.491 43.4484 110.139 43.2136 109.752 43.0538C109.365 42.8939 108.95 42.8119 108.531 42.8125Z" fill="#5292B8"/>
<path opacity="0.7" d="M108.531 42.8125H98.5987C98.2708 42.8124 97.9532 42.9265 97.7005 43.1353C97.4477 43.344 97.2756 43.6344 97.2137 43.9563C97.1526 44.2784 96.9808 44.5691 96.7282 44.7781C96.4756 44.9873 96.1578 45.1015 95.83 45.1013H82.9875C82.6595 45.1013 82.3417 44.987 82.089 44.778C81.8361 44.569 81.6641 44.2784 81.6025 43.9563C81.5408 43.6344 81.369 43.3441 81.1163 43.1354C80.8638 42.9266 80.5463 42.8125 80.2187 42.8125H70.285C69.8665 42.8125 69.4521 42.895 69.0655 43.0551C68.679 43.2154 68.3277 43.4503 68.032 43.7463C67.7361 44.0423 67.5016 44.3936 67.3417 44.7804C67.1817 45.1671 67.0996 45.5815 67.1 46V126.76C67.1 127.179 67.1824 127.593 67.3424 127.979C67.5025 128.365 67.7371 128.716 68.0329 129.013C68.3286 129.308 68.6797 129.543 69.0661 129.703C69.4525 129.863 69.8667 129.945 70.285 129.945H108.535C108.953 129.945 109.368 129.863 109.754 129.703C110.141 129.543 110.492 129.309 110.788 129.013C111.084 128.716 111.318 128.366 111.479 127.979C111.639 127.593 111.721 127.179 111.721 126.76V46C111.721 45.5811 111.639 45.1663 111.479 44.7793C111.319 44.3923 111.084 44.0406 110.787 43.7445C110.491 43.4484 110.139 43.2136 109.752 43.0538C109.365 42.8939 108.95 42.8119 108.531 42.8125Z" fill="white"/>
<path opacity="0.5" d="M94.5325 42.8125H84.2837C84.0836 42.8125 83.9212 42.9745 83.9212 43.1744C83.9212 43.3742 84.0836 43.5362 84.2837 43.5362H94.5325C94.7327 43.5362 94.895 43.3742 94.895 43.1744C94.895 42.9745 94.7327 42.8125 94.5325 42.8125Z" fill="black"/>
<path d="M108.535 42.8125L104.315 53.3263H96.1788L100.375 42.8125H108.535Z" fill="#5292B8"/>
<path d="M100.4 42.8125L96.1787 53.3263H88.0437L92.24 42.8125H100.4Z" fill="#3F4249"/>
<path d="M92.2637 42.8125L88.0437 53.3263H79.9075L84.1037 42.8125H92.2637Z" fill="#5292B8"/>
<path d="M84.1287 42.8125L79.9075 53.3263H71.7712L75.9675 42.8125H84.1287Z" fill="#3F4249"/>
<path d="M75.9925 42.8125L71.7725 53.3263H63.6113L66.9113 45.1075C67.1833 44.4299 67.6518 43.8493 68.2566 43.4403C68.8614 43.0313 69.5749 42.8126 70.305 42.8125H75.9925Z" fill="#5292B8"/>
<path d="M108.535 42.8125L104.315 53.3263H96.1788L100.375 42.8125H108.535Z" fill="#5292B8"/>
<path d="M92.2637 42.8125L88.0437 53.3263H79.9075L84.1037 42.8125H92.2637Z" fill="#5292B8"/>
<path d="M75.9925 42.8125L71.7725 53.3263H63.6113L66.9113 45.1075C67.1833 44.4299 67.6518 43.8493 68.2566 43.4403C68.8614 43.0313 69.5749 42.8126 70.305 42.8125H75.9925Z" fill="#5292B8"/>
<path d="M104.315 53.3264H111.718V46.0001C111.718 45.1564 111.382 44.3473 110.786 43.7506C110.189 43.154 109.38 42.8189 108.536 42.8189L104.315 53.3264Z" fill="#21252B"/>
<path d="M63.6113 53.3261H71.7725V54.3886C71.7725 54.9246 71.6669 55.4552 71.4618 55.9502C71.2566 56.4453 70.956 56.8952 70.577 57.2741C70.198 57.653 69.7481 57.9535 69.2529 58.1585C68.7578 58.3633 68.2271 58.4688 67.6913 58.4686C66.6091 58.4686 65.5714 58.0388 64.8063 57.2736C64.041 56.5085 63.6113 55.4707 63.6113 54.3886V53.3261Z" fill="#5292B8"/>
<path d="M71.75 53.3261H79.91V54.3886C79.91 55.4707 79.4801 56.5085 78.715 57.2736C77.9499 58.0388 76.9121 58.4686 75.83 58.4686C74.7479 58.4686 73.7101 58.0388 72.945 57.2736C72.1799 56.5085 71.75 55.4707 71.75 54.3886V53.3261Z" fill="#21252B"/>
<path d="M79.8825 53.3261H88.0437V54.3886C88.0437 54.9246 87.9381 55.4552 87.733 55.9502C87.5279 56.4453 87.2273 56.8952 86.8483 57.2741C86.4693 57.653 86.0194 57.9535 85.5241 58.1585C85.029 58.3633 84.4984 58.4688 83.9625 58.4686C82.8804 58.4686 81.8426 58.0388 81.0775 57.2736C80.3123 56.5085 79.8825 55.4707 79.8825 54.3886V53.3261Z" fill="#5292B8"/>
<path d="M88.0188 53.3261H96.1788V54.3886C96.1788 55.4707 95.7491 56.5085 94.9838 57.2736C94.2187 58.0388 93.1809 58.4686 92.0988 58.4686C91.0168 58.4686 89.9791 58.0388 89.2138 57.2736C88.4487 56.5085 88.0188 55.4707 88.0188 54.3886V53.3261Z" fill="#21252B"/>
<path d="M96.1537 53.3261H104.315V54.3886C104.315 55.4707 103.885 56.5085 103.12 57.2736C102.355 58.0388 101.317 58.4686 100.235 58.4686C99.6991 58.4688 99.1685 58.3633 98.6734 58.1585C98.1781 57.9535 97.7283 57.653 97.3493 57.2741C96.9703 56.8952 96.6696 56.4453 96.4645 55.9502C96.2594 55.4552 96.1537 54.9246 96.1537 54.3886V53.3261Z" fill="#5292B8"/>
<path opacity="0.3" d="M63.6113 53.3261H71.7725V54.3886C71.7725 54.9246 71.6669 55.4552 71.4618 55.9502C71.2566 56.4453 70.956 56.8952 70.577 57.2741C70.198 57.653 69.7481 57.9535 69.2529 58.1585C68.7578 58.3633 68.2271 58.4688 67.6913 58.4686C66.6091 58.4686 65.5714 58.0388 64.8063 57.2736C64.041 56.5085 63.6113 55.4707 63.6113 54.3886V53.3261Z" fill="black"/>
<path opacity="0.3" d="M79.8825 53.3261H88.0437V54.3886C88.0437 54.9246 87.9381 55.4552 87.733 55.9502C87.5279 56.4453 87.2273 56.8952 86.8483 57.2741C86.4693 57.653 86.0194 57.9535 85.5241 58.1585C85.029 58.3633 84.4984 58.4688 83.9625 58.4686C82.8804 58.4686 81.8426 58.0388 81.0775 57.2736C80.3123 56.5085 79.8825 55.4707 79.8825 54.3886V53.3261Z" fill="black"/>
<path opacity="0.3" d="M96.1537 53.3261H104.315V54.3886C104.315 55.4707 103.885 56.5085 103.12 57.2736C102.355 58.0388 101.317 58.4686 100.235 58.4686C99.6991 58.4688 99.1685 58.3633 98.6734 58.1585C98.1781 57.9535 97.7283 57.653 97.3493 57.2741C96.9703 56.8952 96.6696 56.4453 96.4645 55.9502C96.2594 55.4552 96.1537 54.9246 96.1537 54.3886V53.3261Z" fill="black"/>
<path d="M99.9887 64.4662H79.8787C78.2565 64.4662 76.9412 65.7815 76.9412 67.4037V87.5138C76.9412 89.1361 78.2565 90.4513 79.8787 90.4513H99.9887C101.611 90.4513 102.926 89.1361 102.926 87.5138V67.4037C102.926 65.7815 101.611 64.4662 99.9887 64.4662Z" fill="#5292B8"/>
<g opacity="0.5">
<path opacity="0.5" d="M99.9887 64.4662H79.8787C78.2565 64.4662 76.9412 65.7815 76.9412 67.4037V87.5138C76.9412 89.1361 78.2565 90.4513 79.8787 90.4513H99.9887C101.611 90.4513 102.926 89.1361 102.926 87.5138V67.4037C102.926 65.7815 101.611 64.4662 99.9887 64.4662Z" fill="white"/>
</g>
<path d="M98.9375 64.4662H78.8275C77.2051 64.4662 75.89 65.7815 75.89 67.4037V87.5138C75.89 89.1361 77.2051 90.4513 78.8275 90.4513H98.9375C100.56 90.4513 101.875 89.1361 101.875 87.5138V67.4037C101.875 65.7815 100.56 64.4662 98.9375 64.4662Z" fill="white"/>
<path d="M105.461 101.747H73.3575C72.8645 101.747 72.465 102.147 72.465 102.64C72.465 103.133 72.8645 103.533 73.3575 103.533H105.461C105.954 103.533 106.354 103.133 106.354 102.64C106.354 102.147 105.954 101.747 105.461 101.747Z" fill="white"/>
<path d="M105.461 96.4488H73.3575C72.8645 96.4488 72.465 96.8483 72.465 97.3413C72.465 97.8341 72.8645 98.2338 73.3575 98.2338H105.461C105.954 98.2338 106.354 97.8341 106.354 97.3413C106.354 96.8483 105.954 96.4488 105.461 96.4488Z" fill="white"/>
<path d="M99.7125 107.046H79.1037C78.6109 107.046 78.2112 107.446 78.2112 107.939C78.2112 108.432 78.6109 108.831 79.1037 108.831H99.7125C100.206 108.831 100.605 108.432 100.605 107.939C100.605 107.446 100.206 107.046 99.7125 107.046Z" fill="white"/>
<path d="M146.299 89.99H131.916V97.84H146.299V89.99Z" fill="#B2B6BB"/>
<path d="M146.299 89.99H143.236V97.84H146.299V89.99Z" fill="#61656D"/>
<path d="M149.77 92.26L148.189 84.4788" stroke="#868A91" stroke-width="0.37" stroke-miterlimit="10"/>
<path d="M150.211 81.8525L149.988 91.9713" stroke="#868A91" stroke-width="0.37" stroke-miterlimit="10"/>
<path d="M152.514 83.7313L150.099 86.7587" stroke="#868A91" stroke-width="0.37" stroke-miterlimit="10"/>
<path d="M150.971 94.2012L150.733 93.84C150.494 93.4776 150.365 93.053 150.365 92.6187V91.7587H149.438V92.625C149.438 93.0591 149.31 93.4837 149.071 93.8462L148.831 94.2075C148.584 94.5825 148.418 95.0049 148.343 95.4479C148.268 95.8907 148.285 96.3445 148.395 96.78L148.665 97.8462H151.139L151.409 96.78C151.52 96.3435 151.539 95.8885 151.463 95.4444C151.388 95.0002 151.22 94.5769 150.971 94.2012Z" fill="#868A91"/>
<path d="M150.971 94.2012L150.733 93.84C150.494 93.4775 150.366 93.0529 150.366 92.6187V91.7587H150.099V92.625C150.105 93.048 150.21 93.4637 150.405 93.8387L150.679 94.3587C151.359 95.89 150.076 97.8462 150.076 97.8462H151.139L151.409 96.78C151.52 96.3435 151.539 95.8885 151.463 95.4444C151.388 95.0002 151.22 94.5769 150.971 94.2012Z" fill="#61656D"/>
<path d="M149.153 89.2189L152.024 86.8401" stroke="#868A91" stroke-width="0.37" stroke-miterlimit="10"/>
<path d="M146.992 88.6875L149.531 91.0825" stroke="#868A91" stroke-width="0.37" stroke-miterlimit="10"/>
<path d="M151.079 85.5361L151.476 83.7861C151.509 83.6433 151.576 83.511 151.674 83.4016C151.771 83.2924 151.895 83.2096 152.034 83.1612C152.171 83.1129 152.32 83.1005 152.464 83.1251C152.609 83.1499 152.745 83.2109 152.859 83.3024C152.974 83.3936 153.062 83.5125 153.119 83.6479C153.175 83.7831 153.195 83.9305 153.179 84.076C153.163 84.2214 153.109 84.3603 153.024 84.4795C152.939 84.5988 152.825 84.6944 152.693 84.7574L151.079 85.5361Z" fill="#5292B8"/>
<path opacity="0.3" d="M151.079 85.5361L151.476 83.7861C151.509 83.6433 151.576 83.511 151.674 83.4016C151.771 83.2924 151.895 83.2096 152.034 83.1612C152.171 83.1129 152.32 83.1005 152.464 83.1251C152.609 83.1499 152.745 83.2109 152.859 83.3024C152.974 83.3936 153.062 83.5125 153.119 83.6479C153.175 83.7831 153.195 83.9305 153.179 84.076C153.163 84.2214 153.109 84.3603 153.024 84.4795C152.939 84.5988 152.825 84.6944 152.693 84.7574L151.079 85.5361Z" fill="white"/>
<path d="M153.184 84C153.182 84.1613 153.135 84.3188 153.049 84.4547C152.962 84.5907 152.839 84.6995 152.694 84.7688L151.079 85.5425L152.859 83.3113C152.962 83.3935 153.045 83.4984 153.101 83.6178C153.157 83.7373 153.186 83.868 153.184 84Z" fill="#5292B8"/>
<path d="M150.162 84.7589L149.021 82.3977C148.927 82.2047 148.885 81.9911 148.897 81.7771C148.909 81.5631 148.975 81.3556 149.089 81.174C149.202 80.9924 149.36 80.8426 149.547 80.7388C149.735 80.6349 149.946 80.5803 150.16 80.5801C150.375 80.58 150.585 80.6343 150.772 80.7379C150.96 80.8415 151.119 80.9911 151.232 81.1726C151.347 81.3541 151.412 81.5616 151.425 81.7757C151.437 81.9897 151.395 82.2033 151.301 82.3964L150.162 84.7589Z" fill="#5292B8"/>
<path opacity="0.3" d="M150.162 84.7589L149.021 82.3977C148.927 82.2047 148.885 81.9911 148.897 81.7771C148.909 81.5631 148.975 81.3556 149.089 81.174C149.202 80.9924 149.36 80.8426 149.547 80.7388C149.735 80.6349 149.946 80.5803 150.16 80.5801C150.375 80.58 150.585 80.6343 150.772 80.7379C150.96 80.8415 151.119 80.9911 151.232 81.1726C151.347 81.3541 151.412 81.5616 151.425 81.7757C151.437 81.9897 151.395 82.2033 151.301 82.3964L150.162 84.7589Z" fill="white"/>
<path opacity="0.3" d="M150.216 80.5837L150.162 84.7587L151.301 82.3962C151.392 82.2076 151.435 81.9994 151.425 81.7901C151.415 81.581 151.354 81.3775 151.246 81.1979C151.139 81.0181 150.989 80.868 150.809 80.7609C150.629 80.6536 150.425 80.5927 150.216 80.5837Z" fill="white"/>
<path d="M148.898 87.9099L147.233 85.9312C147.096 85.7692 147.004 85.5754 146.964 85.3678C146.923 85.1603 146.935 84.9458 147 84.7444C147.065 84.543 147.18 84.3615 147.334 84.2166C147.488 84.0718 147.676 83.9684 147.881 83.9161C148.086 83.8645 148.3 83.8655 148.505 83.9193C148.709 83.9729 148.896 84.0775 149.049 84.2231C149.203 84.3688 149.316 84.5509 149.379 84.7523C149.443 84.9537 149.454 85.1679 149.413 85.3749L148.898 87.9099Z" fill="#5292B8"/>
<path opacity="0.3" d="M149.412 85.375C149.455 85.1678 149.444 84.9535 149.38 84.7518C149.316 84.5503 149.202 84.3681 149.05 84.2222C148.897 84.0765 148.71 83.9717 148.505 83.918C148.301 83.8642 148.086 83.8632 147.881 83.915L148.9 87.8962L149.412 85.375Z" fill="white"/>
<path d="M148.66 90.2638L147.91 88.3713C147.847 88.2168 147.747 88.0804 147.619 87.9749C147.49 87.8695 147.336 87.7985 147.172 87.7685C147.009 87.7385 146.84 87.7506 146.682 87.8035C146.525 87.8565 146.383 87.9487 146.27 88.0713C146.158 88.1943 146.079 88.3438 146.04 88.5058C146.001 88.6678 146.004 88.837 146.048 88.9976C146.092 89.1583 146.176 89.3049 146.292 89.424C146.41 89.5431 146.554 89.6309 146.714 89.6788L148.66 90.2638Z" fill="#5292B8"/>
<path opacity="0.3" d="M148.66 90.2638L147.91 88.3713C147.847 88.2168 147.747 88.0804 147.619 87.9749C147.49 87.8695 147.336 87.7985 147.172 87.7685C147.009 87.7385 146.84 87.7506 146.682 87.8035C146.525 87.8565 146.383 87.9487 146.27 88.0713C146.158 88.1943 146.079 88.3438 146.04 88.5058C146.001 88.6678 146.004 88.837 146.048 88.9976C146.092 89.1583 146.176 89.3049 146.292 89.424C146.41 89.5431 146.554 89.6309 146.714 89.6788L148.66 90.2638Z" fill="white"/>
<path opacity="0.3" d="M146.3 88.0375L148.659 90.2625L147.909 88.37C147.849 88.2188 147.751 88.0849 147.628 87.9803C147.503 87.8756 147.354 87.8035 147.194 87.7706C147.035 87.7376 146.869 87.7448 146.714 87.7914C146.558 87.838 146.415 87.9225 146.3 88.0375Z" fill="white"/>
<path d="M149.923 88.6089L150.746 86.6089C150.814 86.4457 150.921 86.3024 151.059 86.1923C151.198 86.082 151.361 86.0087 151.535 85.9791C151.709 85.9495 151.888 85.9646 152.054 86.0229C152.221 86.0812 152.37 86.1809 152.488 86.3126C152.605 86.4442 152.688 86.6035 152.726 86.7755C152.765 86.9475 152.76 87.1266 152.711 87.2961C152.663 87.4656 152.571 87.62 152.446 87.7446C152.321 87.8693 152.168 87.9601 151.998 88.0089L149.923 88.6089Z" fill="#5292B8"/>
<path opacity="0.3" d="M149.923 88.6089L150.746 86.6089C150.814 86.4457 150.921 86.3024 151.059 86.1923C151.198 86.082 151.361 86.0087 151.535 85.9791C151.709 85.9495 151.888 85.9646 152.054 86.0229C152.221 86.0812 152.37 86.1809 152.488 86.3126C152.605 86.4442 152.688 86.6035 152.726 86.7755C152.765 86.9475 152.76 87.1266 152.711 87.2961C152.663 87.4656 152.571 87.62 152.446 87.7446C152.321 87.8693 152.168 87.9601 151.998 88.0089L149.923 88.6089Z" fill="white"/>
<path d="M150.003 91.0314L153.928 88.8826" stroke="#868A91" stroke-width="0.37" stroke-miterlimit="10"/>
<path d="M150.645 90.6789L152.066 88.7326C152.182 88.5733 152.337 88.4461 152.516 88.3631C152.695 88.28 152.892 88.2436 153.089 88.2575C153.286 88.2714 153.476 88.335 153.641 88.4424C153.806 88.5498 153.942 88.6973 154.035 88.8714C154.127 89.0454 154.175 89.24 154.171 89.437C154.169 89.634 154.115 89.8271 154.017 89.998C153.919 90.169 153.779 90.3124 153.611 90.4145C153.442 90.5168 153.251 90.5746 153.054 90.5826L150.645 90.6789Z" fill="#5292B8"/>
<path opacity="0.3" d="M150.645 90.6789L152.066 88.7326C152.182 88.5733 152.337 88.4461 152.516 88.3631C152.695 88.28 152.892 88.2436 153.089 88.2575C153.286 88.2714 153.476 88.335 153.641 88.4424C153.806 88.5498 153.942 88.6973 154.035 88.8714C154.127 89.0454 154.175 89.24 154.171 89.437C154.169 89.634 154.115 89.8271 154.017 89.998C153.919 90.169 153.779 90.3124 153.611 90.4145C153.442 90.5168 153.251 90.5746 153.054 90.5826L150.645 90.6789Z" fill="white"/>
<path d="M154.07 89.895C153.983 90.0932 153.84 90.2629 153.66 90.3845C153.481 90.506 153.27 90.5746 153.054 90.5825L150.644 90.6787L154.034 88.875C154.118 89.0309 154.165 89.2039 154.171 89.3807C154.178 89.5576 154.143 89.7336 154.07 89.895Z" fill="#5292B8"/>
<path opacity="0.3" d="M150.75 86.6137L149.926 88.6138L152.489 86.32C152.371 86.1889 152.222 86.0896 152.056 86.0314C151.89 85.9732 151.712 85.9581 151.539 85.9875C151.365 86.0167 151.201 86.0896 151.064 86.1991C150.926 86.3086 150.817 86.4512 150.75 86.6137Z" fill="white"/>
<path d="M152.314 98.6861H160.7C160.811 98.6861 160.918 98.6421 160.996 98.5636C161.075 98.4851 161.12 98.3786 161.12 98.2674C161.12 98.2122 161.109 98.1576 161.088 98.1066C161.068 98.0557 161.036 98.0094 160.998 97.9704C160.958 97.9314 160.911 97.9005 160.861 97.8793C160.81 97.8582 160.755 97.8474 160.7 97.8474H152.314V98.6861Z" fill="#B2B6BB"/>
<path d="M159.612 98.27H151.15V124.337H159.612V98.27Z" fill="#B2B6BB"/>
<path d="M151.409 98.27H123.024V124.337H151.409V98.27Z" fill="#DADDDF"/>
<path d="M150.098 122.349H124.235V101.9L150.098 101.924V122.349ZM124.424 122.161H149.91V102.114H124.424V122.161Z" fill="#B2B6BB"/>
<path d="M152.323 97.8474H122.064C121.833 97.8474 121.645 98.0349 121.645 98.2661V98.2674C121.645 98.4986 121.833 98.6861 122.064 98.6861H152.323C152.554 98.6861 152.741 98.4986 152.741 98.2674V98.2661C152.741 98.0349 152.554 97.8474 152.323 97.8474Z" fill="#DADDDF"/>
<path d="M124.236 112.185H150.097V111.996H124.236V112.185Z" fill="#B2B6BB"/>
<path d="M136.161 105.185C136.52 105.185 136.81 104.895 136.81 104.536C136.81 104.178 136.52 103.888 136.161 103.888C135.802 103.888 135.512 104.178 135.512 104.536C135.512 104.895 135.802 105.185 136.161 105.185Z" fill="#B2B6BB"/>
<path opacity="0.15" d="M136.396 104.536C136.396 104.401 136.354 104.269 136.274 104.159C136.195 104.049 136.084 103.966 135.955 103.923C136.021 103.9 136.091 103.889 136.161 103.889C136.249 103.885 136.336 103.899 136.417 103.93C136.5 103.961 136.575 104.008 136.639 104.068C136.701 104.129 136.752 104.202 136.786 104.282C136.821 104.363 136.839 104.449 136.839 104.537C136.839 104.625 136.821 104.711 136.786 104.792C136.752 104.872 136.701 104.945 136.639 105.006C136.575 105.066 136.5 105.113 136.417 105.144C136.336 105.175 136.249 105.189 136.161 105.185C136.091 105.185 136.021 105.174 135.955 105.151C136.084 105.108 136.195 105.025 136.274 104.915C136.354 104.804 136.396 104.672 136.396 104.536Z" fill="black"/>
<path d="M136.161 115.245C136.52 115.245 136.81 114.954 136.81 114.596C136.81 114.238 136.52 113.948 136.161 113.948C135.802 113.948 135.512 114.238 135.512 114.596C135.512 114.954 135.802 115.245 136.161 115.245Z" fill="#B2B6BB"/>
<path opacity="0.15" d="M136.396 114.596C136.396 114.46 136.354 114.328 136.274 114.218C136.195 114.107 136.084 114.025 135.955 113.981C136.021 113.959 136.091 113.948 136.161 113.947C136.249 113.943 136.336 113.957 136.417 113.988C136.5 114.019 136.575 114.066 136.639 114.127C136.701 114.187 136.752 114.26 136.786 114.341C136.821 114.421 136.839 114.508 136.839 114.595C136.839 114.683 136.821 114.77 136.786 114.85C136.752 114.931 136.701 115.004 136.639 115.064C136.575 115.125 136.5 115.172 136.417 115.203C136.336 115.234 136.249 115.247 136.161 115.244C136.091 115.243 136.021 115.232 135.955 115.21C136.084 115.166 136.195 115.084 136.274 114.974C136.354 114.864 136.396 114.732 136.396 114.596Z" fill="black"/>
<path d="M152.741 99.5612L151.409 98.6862H123.024V99.0862L152.741 99.5612Z" fill="#B2B6BB"/>
<path d="M157.949 124.337L158.603 131.55C158.615 131.611 158.614 131.675 158.599 131.736C158.585 131.798 158.556 131.855 158.516 131.904C158.476 131.953 158.426 131.991 158.37 132.019C158.313 132.046 158.25 132.06 158.188 132.06C158.099 132.06 158.014 132.033 157.941 131.981C157.87 131.93 157.816 131.858 157.788 131.774L155.896 124.337H157.949Z" fill="#DADDDF"/>
<path d="M157.706 128.53L156.914 128.339L155.896 124.339H157.949L158.603 131.551C158.623 131.647 158.609 131.747 158.563 131.834C158.518 131.92 158.443 131.989 158.353 132.026L157.706 128.53Z" fill="#B2B6BB"/>
<path d="M150.582 124.337L151.236 131.55C151.249 131.611 151.249 131.675 151.234 131.736C151.219 131.798 151.191 131.855 151.151 131.904C151.111 131.953 151.061 131.991 151.005 132.019C150.947 132.046 150.885 132.06 150.822 132.06C150.734 132.06 150.649 132.033 150.576 131.981C150.505 131.93 150.451 131.858 150.422 131.774L148.53 124.337H150.582Z" fill="#DADDDF"/>
<path d="M149.897 125.135L148.727 124.914L148.53 124.337H150.583L151.236 131.55C151.256 131.646 151.241 131.745 151.196 131.833C151.15 131.919 151.076 131.986 150.986 132.025L149.897 125.135Z" fill="#B2B6BB"/>
<path d="M131.856 124.337L131.203 131.55C131.19 131.611 131.191 131.675 131.206 131.736C131.221 131.798 131.25 131.854 131.289 131.904C131.329 131.953 131.379 131.991 131.436 132.019C131.493 132.045 131.555 132.06 131.618 132.06C131.706 132.06 131.791 132.033 131.864 131.981C131.935 131.93 131.989 131.858 132.018 131.774L133.91 124.337H131.856Z" fill="#DADDDF"/>
<path d="M132.22 128.176L131.524 128.005L131.856 124.337H133.91L132.018 131.774C131.989 131.858 131.935 131.93 131.864 131.981C131.791 132.033 131.706 132.06 131.617 132.06H131.599L132.22 128.176Z" fill="#B2B6BB"/>
<path d="M124.295 124.337L123.643 131.55C123.629 131.611 123.63 131.675 123.645 131.736C123.66 131.798 123.688 131.855 123.728 131.904C123.767 131.953 123.817 131.991 123.874 132.019C123.931 132.046 123.993 132.06 124.056 132.06C124.144 132.06 124.23 132.033 124.302 131.981C124.374 131.93 124.428 131.858 124.456 131.774L126.349 124.337H124.295Z" fill="#DADDDF"/>
<path d="M125.096 124.966L124.2 124.799L124.295 124.337H126.349L124.456 131.774C124.428 131.858 124.374 131.93 124.302 131.981C124.23 132.033 124.144 132.06 124.056 132.06H124.037L125.096 124.966Z" fill="#B2B6BB"/>
<path d="M104.315 53.3261V54.7674C104.315 55.749 104.705 56.6905 105.399 57.3846C106.093 58.0787 107.035 58.4686 108.016 58.4686C108.998 58.4686 109.939 58.0787 110.633 57.3846C111.328 56.6905 111.718 55.749 111.718 54.7674V53.3261H104.315Z" fill="#21252B"/>
<path opacity="0.2" d="M104.315 53.3261V54.7674C104.315 55.749 104.705 56.6905 105.399 57.3846C106.093 58.0787 107.035 58.4686 108.016 58.4686C108.998 58.4686 109.939 58.0787 110.633 57.3846C111.328 56.6905 111.718 55.749 111.718 54.7674V53.3261H104.315Z" fill="black"/>
<path d="M87.1225 119.79H71.675C71.2884 119.79 70.975 120.103 70.975 120.49V124.074C70.975 124.46 71.2884 124.774 71.675 124.774H87.1225C87.5091 124.774 87.8225 124.46 87.8225 124.074V120.49C87.8225 120.103 87.5091 119.79 87.1225 119.79Z" fill="#21252B"/>
<path d="M86.3125 119.79H70.865C70.4783 119.79 70.165 120.103 70.165 120.49V124.074C70.165 124.46 70.4783 124.774 70.865 124.774H86.3125C86.6991 124.774 87.0125 124.46 87.0125 124.074V120.49C87.0125 120.103 86.6991 119.79 86.3125 119.79Z" fill="#3F4249"/>
<path d="M73.425 122.704H72.875L72.7712 122.954H72.5L73.0225 121.781H73.29L73.815 122.954H73.53L73.425 122.704ZM73.34 122.498L73.1537 122.049L72.9675 122.5L73.34 122.498Z" fill="white"/>
<path d="M73.935 121.783H74.4688C74.585 121.78 74.7001 121.805 74.805 121.855C74.8991 121.901 74.9785 121.972 75.0339 122.06C75.087 122.154 75.115 122.26 75.115 122.368C75.115 122.476 75.087 122.582 75.0339 122.676C74.9789 122.765 74.8994 122.836 74.805 122.881C74.7003 122.932 74.5851 122.957 74.4688 122.955H73.935V121.783ZM74.4551 122.731C74.5575 122.737 74.658 122.702 74.735 122.634C74.8025 122.562 74.84 122.467 74.84 122.368C74.84 122.27 74.8025 122.175 74.735 122.103C74.658 122.035 74.5575 122 74.4551 122.005H74.2051V122.731H74.4551Z" fill="white"/>
<path d="M75.3187 121.782H75.8512C75.9678 121.78 76.0833 121.805 76.1887 121.855C76.2825 121.9 76.3613 121.971 76.4162 122.06C76.4695 122.154 76.4975 122.26 76.4975 122.368C76.4975 122.476 76.4695 122.582 76.4162 122.676C76.3617 122.765 76.2827 122.836 76.1887 122.881C76.0835 122.932 75.9678 122.957 75.8512 122.955H75.3187V121.782ZM75.8375 122.731C75.9403 122.736 76.0411 122.701 76.1187 122.634C76.1861 122.562 76.2236 122.467 76.2236 122.368C76.2236 122.269 76.1861 122.174 76.1187 122.102C76.0411 122.035 75.9403 122 75.8375 122.005H75.5875V122.731H75.8375Z" fill="white"/>
<path d="M77.4187 122H77.0437V121.779H78.065V122H77.69V122.951H77.4187V122Z" fill="white"/>
<path d="M78.4325 122.896C78.3376 122.846 78.2583 122.771 78.2037 122.679C78.1505 122.586 78.1232 122.481 78.125 122.375C78.1235 122.266 78.152 122.158 78.2075 122.064C78.2622 121.972 78.3413 121.897 78.4362 121.847C78.5378 121.794 78.6513 121.767 78.7662 121.769C78.8802 121.767 78.993 121.794 79.0937 121.847C79.1886 121.897 79.2681 121.972 79.3237 122.064C79.3795 122.158 79.4085 122.265 79.4075 122.375C79.4088 122.483 79.3802 122.59 79.3248 122.683C79.2695 122.776 79.1895 122.852 79.0937 122.902C78.993 122.956 78.8802 122.983 78.7662 122.981C78.6495 122.982 78.5347 122.952 78.4325 122.896ZM78.95 122.696C79.0026 122.663 79.0457 122.617 79.075 122.562C79.1068 122.505 79.124 122.441 79.125 122.375C79.1258 122.307 79.1095 122.24 79.0775 122.18C79.0481 122.126 79.005 122.08 78.9525 122.047C78.8952 122.015 78.8306 121.999 78.765 122C78.6992 121.998 78.6345 122.015 78.5775 122.047C78.522 122.079 78.4761 122.124 78.445 122.18C78.4128 122.24 78.3965 122.307 78.3975 122.375C78.3965 122.443 78.4128 122.509 78.445 122.569C78.476 122.625 78.5218 122.671 78.5775 122.702C78.6347 122.734 78.6993 122.751 78.765 122.75C78.8302 122.748 78.894 122.73 78.95 122.696Z" fill="white"/>
<path d="M80.3188 122.896C80.2248 122.847 80.146 122.772 80.0913 122.681C80.0365 122.586 80.0076 122.478 80.0076 122.369C80.0076 122.259 80.0365 122.151 80.0913 122.056C80.1455 121.964 80.2244 121.889 80.3188 121.84C80.4115 121.793 80.5131 121.767 80.6169 121.763C80.7205 121.759 80.824 121.777 80.92 121.816C81.0004 121.85 81.0713 121.902 81.1263 121.97L80.9525 122.125C80.9168 122.082 80.8716 122.047 80.8206 122.023C80.7695 122 80.7138 121.988 80.6575 121.989C80.5899 121.987 80.5229 122.003 80.4638 122.036C80.4076 122.067 80.3614 122.113 80.33 122.169C80.298 122.229 80.2816 122.296 80.2825 122.364C80.2816 122.431 80.298 122.498 80.33 122.557C80.3613 122.614 80.4076 122.66 80.4638 122.691C80.5233 122.723 80.59 122.74 80.6575 122.739C80.714 122.739 80.7699 122.727 80.8209 122.703C80.872 122.679 80.917 122.644 80.9525 122.6L81.1263 122.76C81.071 122.828 80.9998 122.882 80.9188 122.916C80.8313 122.953 80.7374 122.971 80.6425 122.97C80.5301 122.973 80.4188 122.948 80.3188 122.896Z" fill="white"/>
<path d="M82.0575 122.704H81.5137L81.41 122.954H81.1312L81.6537 121.781H81.9225L82.4462 122.954H82.1612L82.0575 122.704ZM81.9725 122.498L81.7862 122.049L81.6012 122.5L81.9725 122.498Z" fill="white"/>
<path d="M83.315 122.955L83.09 122.627H82.84V122.955H82.5687V121.782H83.0762C83.1689 121.78 83.2607 121.798 83.3462 121.834C83.4181 121.865 83.4797 121.916 83.5237 121.981C83.5659 122.049 83.5872 122.128 83.585 122.207C83.5902 122.287 83.5696 122.367 83.5261 122.435C83.4827 122.502 83.4187 122.554 83.3437 122.582L83.6075 122.957L83.315 122.955ZM83.2475 122.056C83.1934 122.018 83.1275 121.999 83.0612 122.004H82.84V122.411H83.0612C83.1275 122.416 83.1934 122.397 83.2475 122.359C83.2685 122.34 83.285 122.316 83.2959 122.29C83.3066 122.264 83.3115 122.236 83.31 122.207C83.312 122.179 83.3076 122.151 83.2972 122.125C83.2869 122.099 83.2707 122.075 83.25 122.056H83.2475Z" fill="white"/>
<path d="M84.0262 122H83.6512V121.779H84.6737V122H84.2987V122.951H84.0275L84.0262 122Z" fill="white"/>
<path d="M106.901 119.79H91.4538C91.0672 119.79 90.7538 120.103 90.7538 120.49V124.074C90.7538 124.46 91.0672 124.774 91.4538 124.774H106.901C107.288 124.774 107.601 124.46 107.601 124.074V120.49C107.601 120.103 107.288 119.79 106.901 119.79Z" fill="#5292B8"/>
<path opacity="0.15" d="M106.901 119.79H91.4538C91.0672 119.79 90.7538 120.103 90.7538 120.49V124.074C90.7538 124.46 91.0672 124.774 91.4538 124.774H106.901C107.288 124.774 107.601 124.46 107.601 124.074V120.49C107.601 120.103 107.288 119.79 106.901 119.79Z" fill="black"/>
<path d="M106.09 119.79H90.6425C90.2559 119.79 89.9425 120.103 89.9425 120.49V124.074C89.9425 124.46 90.2559 124.774 90.6425 124.774H106.09C106.477 124.774 106.79 124.46 106.79 124.074V120.49C106.79 120.103 106.477 119.79 106.09 119.79Z" fill="#5292B8"/>
<path d="M95.0775 122.451C95.116 122.505 95.1359 122.569 95.1337 122.635C95.1351 122.682 95.1242 122.728 95.1024 122.77C95.0805 122.811 95.0482 122.846 95.0087 122.871C94.9032 122.934 94.7812 122.963 94.6587 122.955H94.0525V121.783H94.625C94.7407 121.775 94.8559 121.804 94.955 121.864C94.9912 121.889 95.0206 121.922 95.0405 121.961C95.0604 122 95.0701 122.044 95.0687 122.088C95.07 122.141 95.0561 122.194 95.0287 122.24C95.0002 122.284 94.9606 122.321 94.9137 122.345C94.9784 122.362 95.0359 122.399 95.0775 122.451ZM94.3275 121.986V122.263H94.5975C94.6506 122.266 94.7036 122.254 94.75 122.228C94.7662 122.216 94.7794 122.2 94.7884 122.182C94.7972 122.164 94.8017 122.144 94.8012 122.124C94.8024 122.104 94.7982 122.084 94.7892 122.066C94.7802 122.048 94.7667 122.032 94.75 122.021C94.7036 121.995 94.6506 121.983 94.5975 121.986H94.3275ZM94.8062 122.715C94.8237 122.703 94.8377 122.687 94.8472 122.668C94.8566 122.649 94.861 122.627 94.86 122.606C94.86 122.509 94.7875 122.46 94.6437 122.46H94.3275V122.75H94.6437C94.7005 122.754 94.7572 122.742 94.8075 122.715H94.8062Z" fill="white"/>
<path d="M95.47 122.835C95.421 122.782 95.3834 122.719 95.3593 122.651C95.3353 122.583 95.3253 122.511 95.33 122.439V121.783H95.6013V122.429C95.6013 122.639 95.6888 122.744 95.8625 122.744C95.8986 122.746 95.9348 122.74 95.9684 122.727C96.002 122.714 96.0325 122.694 96.0575 122.668C96.107 122.598 96.1304 122.514 96.1238 122.429V121.783H96.3925V122.439C96.397 122.511 96.3869 122.583 96.3629 122.651C96.3388 122.719 96.3013 122.782 96.2525 122.835C96.1423 122.926 96.004 122.975 95.8613 122.975C95.7185 122.975 95.5803 122.926 95.47 122.835Z" fill="white"/>
<path d="M97.2062 122.539V122.955H96.935V122.536L96.4812 121.786H96.7687L97.0825 122.306L97.395 121.786H97.6612L97.2062 122.539Z" fill="white"/>
<path d="M99.3238 121.783V122.955H99.1012L98.5175 122.243V122.955H98.25V121.783H98.475L99.0575 122.494V121.783H99.3238Z" fill="white"/>
<path d="M99.8413 122.896C99.7454 122.846 99.6654 122.77 99.6103 122.677C99.555 122.584 99.5269 122.477 99.5288 122.369C99.5273 122.259 99.5559 122.152 99.6113 122.057C99.6665 121.966 99.7462 121.891 99.8413 121.841C99.9432 121.789 100.056 121.762 100.17 121.762C100.284 121.762 100.397 121.789 100.499 121.841C100.595 121.892 100.674 121.968 100.73 122.061C100.785 122.154 100.813 122.261 100.811 122.369C100.813 122.478 100.784 122.585 100.728 122.679C100.673 122.771 100.593 122.846 100.499 122.896C100.397 122.948 100.284 122.975 100.17 122.975C100.056 122.975 99.9432 122.948 99.8413 122.896ZM100.358 122.696C100.411 122.664 100.454 122.618 100.483 122.562C100.515 122.503 100.532 122.436 100.53 122.369C100.532 122.301 100.515 122.233 100.483 122.174C100.454 122.119 100.411 122.073 100.358 122.041C100.3 122.01 100.236 121.994 100.17 121.994C100.105 121.994 100.04 122.01 99.9825 122.041C99.9272 122.072 99.8817 122.118 99.8513 122.174C99.8187 122.233 99.8023 122.301 99.8038 122.369C99.8023 122.436 99.8187 122.503 99.8513 122.562C99.8815 122.619 99.927 122.665 99.9825 122.696C100.04 122.727 100.105 122.744 100.17 122.744C100.236 122.744 100.3 122.727 100.358 122.696Z" fill="white"/>
<path d="M102.75 121.783L102.366 122.955H102.075L101.818 122.161L101.551 122.955H101.261L100.875 121.783H101.156L101.421 122.606L101.698 121.783H101.948L102.215 122.613L102.489 121.783H102.75Z" fill="white"/>
<path opacity="0.3" d="M111.701 45.6699C111.701 45.7101 111.701 45.7516 111.71 45.7956C111.708 45.7504 111.705 45.7101 111.701 45.6699Z" fill="black"/>
<path opacity="0.3" d="M108.536 42.8125H70.2712C69.6707 42.8204 69.0814 42.9754 68.5546 43.2639C68.0279 43.5525 67.58 43.9658 67.25 44.4675C67.6325 44.2025 68.1725 44.2425 68.8125 44.2413H109.385C110.543 44.2413 111.571 44.5463 111.701 45.67C111.621 44.8865 111.253 44.1606 110.668 43.6328C110.083 43.105 109.324 42.8128 108.536 42.8125Z" fill="black"/>
<path d="M96.7188 75.1599H81.0475C80.3641 75.1599 79.81 75.714 79.81 76.3974V85.5999C79.81 86.2834 80.3641 86.8374 81.0475 86.8374H96.7188C97.4023 86.8374 97.9564 86.2834 97.9564 85.5999V76.3974C97.9564 75.714 97.4023 75.1599 96.7188 75.1599Z" fill="#3F4249"/>
<path fill-rule="evenodd" clip-rule="evenodd" d="M93.1988 78.2877C93.6263 78.2877 93.975 77.7702 93.975 77.1364C93.975 76.5027 93.6263 75.9852 93.1988 75.9852C92.7713 75.9852 92.4225 76.5027 92.4225 77.1364C92.4225 77.7702 92.7713 78.2877 93.1988 78.2877Z" fill="#868A91"/>
<path fill-rule="evenodd" clip-rule="evenodd" d="M84.5675 78.2877C84.995 78.2877 85.3437 77.7702 85.3437 77.1364C85.3437 76.5027 84.995 75.9852 84.5675 75.9852C84.14 75.9852 83.79 76.5027 83.79 77.1364C83.79 77.7702 84.1387 78.2877 84.5675 78.2877Z" fill="#868A91"/>
<path d="M84.9125 77.1401L84.22 77.1326C84.22 76.7576 84.3763 67.8914 88.8963 67.8914C93.4163 67.8914 93.5413 76.7563 93.545 77.1338H92.8525C92.8153 75.6603 92.6285 74.1945 92.295 72.7588C91.6113 69.9876 90.4675 68.5826 88.8963 68.5826C87.325 68.5826 86.175 69.9889 85.4838 72.7601C85.145 74.1968 84.9535 75.6645 84.9125 77.1401Z" fill="#868A91"/>
<path d="M88.5537 75.1599H87.8962V86.8374H88.5537V75.1599Z" fill="#868A91"/>
<path d="M89.87 75.1599H89.2125V86.8374H89.87V75.1599Z" fill="#868A91"/>
<path d="M81.0513 84.7276C81.31 83.7276 81.4538 82.4026 81.4538 80.9989C81.4538 79.5951 81.31 78.2726 81.0513 77.2701C80.8175 76.3701 80.49 75.7939 80.1038 75.6014C79.9713 75.7563 79.8798 75.9419 79.8375 76.1414C79.9113 76.1589 80.1725 76.3026 80.4625 77.4226C80.7125 78.3726 80.845 79.6426 80.845 80.9989C80.845 82.3551 80.7088 83.6239 80.4625 84.5764C80.1725 85.7014 79.9113 85.8401 79.8375 85.8576C79.88 86.0569 79.9715 86.2425 80.1038 86.3976C80.49 86.2051 80.8175 85.6251 81.0513 84.7276Z" fill="#868A91"/>
<path d="M97.9275 85.8576C97.8538 85.8401 97.5925 85.6964 97.3025 84.5764C97.0525 83.6264 96.9275 82.3564 96.9275 80.9989C96.9275 79.6414 97.0625 78.3739 97.3025 77.4226C97.5925 76.2976 97.8538 76.1589 97.9275 76.1414C97.8848 75.9421 97.7933 75.7566 97.6613 75.6014C97.2738 75.7926 96.9464 76.3689 96.7126 77.2701C96.4539 78.2701 96.31 79.5964 96.31 80.9989C96.31 82.4014 96.4539 83.7264 96.7126 84.7276C96.9464 85.6289 97.2738 86.2051 97.6613 86.3976C97.7933 86.2424 97.8848 86.0568 97.9275 85.8576Z" fill="#868A91"/>
<path d="M90.3438 79.0725H87.4212C87.2935 79.0725 87.19 79.176 87.19 79.3038V81.02C87.19 81.1478 87.2935 81.2513 87.4212 81.2513H90.3438C90.4714 81.2513 90.5749 81.1478 90.5749 81.02V79.3038C90.5749 79.176 90.4714 79.0725 90.3438 79.0725Z" fill="#21252B"/>
<path opacity="0.2" d="M70.7937 109.25L65.075 121.001L65.045 107.347L70.7937 109.25Z" fill="black"/>
<path d="M54.7691 93.8158L32.7171 115.868C32.1396 116.445 32.1396 117.382 32.7171 117.959L46.3979 131.64C46.9754 132.217 47.9116 132.217 48.4891 131.64L70.5411 109.588C71.1186 109.01 71.1186 108.074 70.5411 107.497L56.8604 93.8158C56.2829 93.2385 55.3466 93.2385 54.7691 93.8158Z" fill="#21252B"/>
<path d="M55.4892 96.2671L51.0769 100.679C50.8967 100.86 50.8967 101.152 51.0769 101.332L51.852 102.107C52.0321 102.287 52.3242 102.287 52.5044 102.107L56.9167 97.6946C57.0969 97.5145 57.0969 97.2224 56.9167 97.0422L56.1415 96.2671C55.9614 96.087 55.6694 96.087 55.4892 96.2671Z" fill="#5292B8"/>
<path d="M42.5145 115.669L38.7094 119.474L39.5879 120.352L43.393 116.547L42.5145 115.669Z" fill="#5292B8"/>
<path d="M40.2337 115.945L37.9912 118.186C37.9157 118.262 37.8734 118.365 37.8734 118.472C37.8734 118.579 37.9157 118.682 37.9912 118.758L38.585 119.35L41.1112 116.824L40.2337 115.945Z" fill="#5292B8"/>
<path d="M41.225 114.953L40.3575 115.828L41.2325 116.703L42.3875 115.548L41.7937 114.955C41.7184 114.88 41.6164 114.838 41.5099 114.837C41.4035 114.837 41.3011 114.878 41.225 114.953Z" fill="#5292B8"/>
<path d="M40.3038 121.07C40.3796 121.146 40.4823 121.188 40.5894 121.188C40.6964 121.188 40.7991 121.146 40.875 121.07L41.8325 120.111L40.9575 119.236L39.715 120.479L40.3038 121.07Z" fill="#5292B8"/>
<path d="M41.9563 119.987L44.1088 117.835C44.1463 117.798 44.176 117.753 44.1963 117.704C44.2166 117.655 44.227 117.603 44.227 117.55C44.227 117.497 44.2166 117.445 44.1963 117.396C44.176 117.347 44.1463 117.302 44.1088 117.265L43.5163 116.671L41.0775 119.11L41.9563 119.987Z" fill="#5292B8"/>
<path d="M46.6715 118.938L42.5844 123.025C42.4947 123.115 42.4947 123.26 42.5844 123.35L43.4418 124.207C43.5317 124.297 43.6773 124.297 43.767 124.207L47.8542 120.12C47.9439 120.031 47.9439 119.885 47.8542 119.795L46.9968 118.938C46.9069 118.848 46.7613 118.848 46.6715 118.938Z" fill="white"/>
<path d="M51.7564 113.853L47.6694 117.94C47.5795 118.03 47.5795 118.175 47.6694 118.265L48.5268 119.123C48.6165 119.212 48.7621 119.212 48.852 119.123L52.939 115.035C53.0289 114.946 53.0289 114.8 52.939 114.71L52.0818 113.853C51.9919 113.763 51.8463 113.763 51.7564 113.853Z" fill="white"/>
<path d="M56.8424 108.767L52.7553 112.854C52.6656 112.944 52.6656 113.089 52.7553 113.179L53.6127 114.037C53.7026 114.126 53.8482 114.126 53.9379 114.037L58.0251 109.95C58.1149 109.86 58.1149 109.714 58.0251 109.624L57.1677 108.767C57.0778 108.677 56.9322 108.677 56.8424 108.767Z" fill="white"/>
<path d="M61.9274 103.682L57.8402 107.769C57.7504 107.859 57.7504 108.004 57.8402 108.094L58.6976 108.952C58.7875 109.041 58.933 109.041 59.0229 108.952L63.11 104.865C63.1997 104.775 63.1997 104.629 63.11 104.539L62.2526 103.682C62.1627 103.592 62.0171 103.592 61.9274 103.682Z" fill="white"/>
<path d="M53.8421 119.368L46.368 126.843C46.2337 126.976 46.2335 127.194 46.3675 127.328C46.5015 127.463 46.719 127.463 46.8532 127.328L54.3274 119.853C54.4616 119.719 54.4618 119.502 54.3278 119.368C54.1938 119.234 53.9763 119.234 53.8421 119.368Z" fill="white"/>
<path opacity="0.7" d="M55.4892 96.2671L51.0769 100.679C50.8967 100.86 50.8967 101.152 51.0769 101.332L51.852 102.107C52.0321 102.287 52.3242 102.287 52.5044 102.107L56.9167 97.6946C57.0969 97.5145 57.0969 97.2224 56.9167 97.0422L56.1415 96.2671C55.9614 96.087 55.6694 96.087 55.4892 96.2671Z" fill="white"/>
<path opacity="0.7" d="M53.8421 119.368L46.368 126.843C46.2337 126.976 46.2335 127.194 46.3675 127.328C46.5015 127.463 46.719 127.463 46.8532 127.328L54.3274 119.853C54.4616 119.719 54.4618 119.502 54.3278 119.368C54.1938 119.234 53.9763 119.234 53.8421 119.368Z" fill="white"/>
<path d="M66.9656 107.701C66.23 106.966 65.0373 106.966 64.3017 107.701C63.566 108.437 63.566 109.63 64.3017 110.365C65.0373 111.101 66.23 111.101 66.9656 110.365C67.7013 109.63 67.7013 108.437 66.9656 107.701Z" fill="#5292B8"/>
<path d="M65.1756 109.492C64.44 108.756 63.2473 108.756 62.5116 109.492C61.7759 110.227 61.7759 111.42 62.5116 112.156C63.2473 112.891 64.44 112.891 65.1756 112.156C65.9113 111.42 65.9113 110.227 65.1756 109.492Z" fill="white"/>
<path d="M145.783 125.095V129.516H142.311L141.816 125.337L141.786 125.084L145.783 125.095Z" fill="#F59A9C"/>
<path opacity="0.15" d="M145.782 125.095V126.22L144.324 126.36C144.115 126.379 143.917 126.461 143.757 126.595C143.596 126.729 143.48 126.909 143.424 127.11L142.366 129.511H142.311L141.811 125.333C142.339 125.156 145.782 125.095 145.782 125.095Z" fill="#231F20"/>
<path d="M145.41 127.471L145.31 127.371C144.921 126.994 144.4 126.784 143.859 126.79C143.316 126.795 142.799 127.015 142.419 127.4L142.361 127.471C142.169 127.666 142.061 127.927 142.061 128.201V128.631C142.068 128.886 142.028 129.14 141.946 129.381L141.589 130.57C141.499 130.858 141.45 131.156 141.446 131.457V131.6C141.45 131.714 141.499 131.821 141.583 131.899C141.665 131.976 141.775 132.017 141.889 132.015H146.014C146.07 132.017 146.128 132.009 146.18 131.99C146.234 131.97 146.283 131.94 146.324 131.901C146.365 131.862 146.399 131.816 146.421 131.765C146.444 131.712 146.456 131.656 146.458 131.6V131.542C146.456 131.192 146.398 130.844 146.285 130.512L145.87 129.352C145.78 129.085 145.733 128.805 145.728 128.522L145.713 128.194C145.71 127.922 145.601 127.664 145.41 127.471Z" fill="#5292B8"/>
<path d="M146.007 131.83H141.883C141.789 131.832 141.696 131.805 141.619 131.751C141.542 131.696 141.485 131.619 141.455 131.53C141.445 131.615 141.44 131.701 141.44 131.787V131.925C141.446 132.036 141.496 132.141 141.579 132.216C141.661 132.291 141.771 132.33 141.883 132.325H146.007C146.062 132.329 146.119 132.321 146.171 132.303C146.224 132.285 146.272 132.256 146.314 132.219C146.355 132.181 146.389 132.136 146.412 132.086C146.436 132.035 146.449 131.981 146.451 131.925V131.875C146.45 131.767 146.444 131.66 146.43 131.552C146.399 131.637 146.34 131.71 146.264 131.76C146.187 131.81 146.099 131.835 146.007 131.83Z" fill="#61656D"/>
<path opacity="0.4" d="M142.721 128.387C142.806 128.387 142.876 128.319 142.876 128.233C142.876 128.148 142.806 128.078 142.721 128.078C142.635 128.078 142.566 128.148 142.566 128.233C142.566 128.319 142.635 128.387 142.721 128.387Z" fill="#231F20"/>
<path opacity="0.4" d="M142.804 129.006C142.889 129.006 142.959 128.938 142.959 128.851C142.959 128.766 142.889 128.696 142.804 128.696C142.718 128.696 142.649 128.766 142.649 128.851C142.649 128.938 142.718 129.006 142.804 129.006Z" fill="#231F20"/>
<path opacity="0.4" d="M143.01 129.604C143.095 129.604 143.165 129.534 143.165 129.449C143.165 129.363 143.095 129.294 143.01 129.294C142.925 129.294 142.855 129.363 142.855 129.449C142.855 129.534 142.925 129.604 143.01 129.604Z" fill="#231F20"/>
<path opacity="0.4" d="M143.037 130.331C143.122 130.331 143.192 130.261 143.192 130.176C143.192 130.091 143.122 130.021 143.037 130.021C142.951 130.021 142.882 130.091 142.882 130.176C142.882 130.261 142.951 130.331 143.037 130.331Z" fill="#231F20"/>
<path opacity="0.4" d="M143.114 130.96C143.199 130.96 143.269 130.891 143.269 130.805C143.269 130.72 143.199 130.65 143.114 130.65C143.029 130.65 142.959 130.72 142.959 130.805C142.959 130.891 143.029 130.96 143.114 130.96Z" fill="#231F20"/>
<path opacity="0.4" d="M145.066 130.825C145.151 130.825 145.221 130.756 145.221 130.67C145.221 130.585 145.151 130.515 145.066 130.515C144.98 130.515 144.911 130.585 144.911 130.67C144.911 130.756 144.98 130.825 145.066 130.825Z" fill="#231F20"/>
<path opacity="0.4" d="M145.001 130.239C145.086 130.239 145.156 130.169 145.156 130.084C145.156 129.998 145.086 129.929 145.001 129.929C144.915 129.929 144.846 129.998 144.846 130.084C144.846 130.169 144.915 130.239 145.001 130.239Z" fill="#231F20"/>
<path opacity="0.4" d="M144.922 129.464C145.007 129.464 145.077 129.395 145.077 129.309C145.077 129.224 145.007 129.154 144.922 129.154C144.836 129.154 144.767 129.224 144.767 129.309C144.767 129.395 144.836 129.464 144.922 129.464Z" fill="#231F20"/>
<path opacity="0.4" d="M144.716 128.852C144.801 128.852 144.871 128.782 144.871 128.697C144.871 128.612 144.801 128.542 144.716 128.542C144.63 128.542 144.561 128.612 144.561 128.697C144.561 128.782 144.63 128.852 144.716 128.852Z" fill="#231F20"/>
<path opacity="0.4" d="M144.69 128.27C144.775 128.27 144.845 128.2 144.845 128.115C144.845 128.029 144.775 127.96 144.69 127.96C144.604 127.96 144.535 128.029 144.535 128.115C144.535 128.2 144.604 128.27 144.69 128.27Z" fill="#231F20"/>
<path d="M142.779 128.202C142.779 128.202 143.479 127.452 144.69 128.077" stroke="white" stroke-miterlimit="10" stroke-linecap="round"/>
<path d="M142.804 128.812C142.804 128.812 143.504 128.062 144.716 128.687" stroke="white" stroke-miterlimit="10" stroke-linecap="round"/>
<path d="M143.01 129.424C143.167 129.255 144.037 128.843 144.922 129.299" stroke="white" stroke-miterlimit="10" stroke-linecap="round"/>
<path d="M143.089 130.163C143.089 130.163 143.79 129.413 145.001 130.038" stroke="white" stroke-miterlimit="10" stroke-linecap="round"/>
<path d="M143.114 130.774C143.114 130.774 143.815 130.024 145.026 130.649" stroke="white" stroke-miterlimit="10" stroke-linecap="round"/>
<path d="M132.595 125.315L132.569 125.61L132.554 125.775L132.2 129.756L125.595 129.899L127.494 128.561C127.664 128.426 127.809 128.262 127.922 128.077C128.134 127.77 128.27 127.416 128.317 127.046L128.579 125.36L128.587 125.305L132.595 125.315Z" fill="#F59A9C"/>
<path opacity="0.15" d="M132.569 125.61L132.554 125.775L130.086 126.25C129.821 126.301 129.581 126.439 129.404 126.64C129.225 126.843 129.12 127.099 129.103 127.368L129.048 128.243L127.923 128.084C128.134 127.776 128.27 127.423 128.318 127.053L128.579 125.366L132.569 125.61Z" fill="#231F20"/>
<path d="M132.6 131.486L121.694 131.509C121.67 131.462 121.653 131.412 121.642 131.361C121.624 131.482 121.62 131.605 121.63 131.726C121.637 131.821 121.679 131.91 121.749 131.975C121.818 132.04 121.91 132.075 122.005 132.075L132.248 132.055C132.344 132.055 132.436 132.019 132.505 131.952C132.575 131.887 132.618 131.797 132.623 131.701L132.6 131.486Z" fill="#61656D"/>
<path d="M122.289 130.33C124.235 129.517 125.816 128.844 127.266 127.628C127.596 127.35 128.005 127.184 128.435 127.149L132.348 126.834C132.415 126.829 132.483 126.838 132.546 126.86C132.61 126.884 132.669 126.92 132.718 126.968C132.765 127.015 132.804 127.073 132.828 127.135C132.853 127.199 132.863 127.266 132.859 127.334L132.6 131.485L121.694 131.507C121.464 131.061 121.946 130.474 122.289 130.33Z" fill="#5292B8"/>
<path opacity="0.4" d="M124.198 130.516C124.309 130.516 124.399 130.435 124.399 130.334C124.399 130.233 124.309 130.151 124.198 130.151C124.086 130.151 123.996 130.233 123.996 130.334C123.996 130.435 124.086 130.516 124.198 130.516Z" fill="#231F20"/>
<path opacity="0.4" d="M125.392 130.208C125.504 130.208 125.594 130.126 125.594 130.025C125.594 129.924 125.504 129.842 125.392 129.842C125.281 129.842 125.191 129.924 125.191 130.025C125.191 130.126 125.281 130.208 125.392 130.208Z" fill="#231F20"/>
<path opacity="0.4" d="M126.385 129.56C126.496 129.56 126.586 129.479 126.586 129.377C126.586 129.276 126.496 129.195 126.385 129.195C126.274 129.195 126.184 129.276 126.184 129.377C126.184 129.479 126.274 129.56 126.385 129.56Z" fill="#231F20"/>
<path opacity="0.4" d="M127.348 128.904C127.459 128.904 127.549 128.823 127.549 128.721C127.549 128.62 127.459 128.539 127.348 128.539C127.236 128.539 127.146 128.62 127.146 128.721C127.146 128.823 127.236 128.904 127.348 128.904Z" fill="#231F20"/>
<path opacity="0.4" d="M128.2 128.104C128.311 128.104 128.401 128.023 128.401 127.921C128.401 127.82 128.311 127.739 128.2 127.739C128.089 127.739 127.999 127.82 127.999 127.921C127.999 128.023 128.089 128.104 128.2 128.104Z" fill="#231F20"/>
<path d="M123.818 129.901L123.95 130.24C123.971 130.285 124.008 130.321 124.055 130.34C124.101 130.36 124.153 130.36 124.2 130.343C124.224 130.335 124.246 130.323 124.264 130.306C124.283 130.289 124.297 130.268 124.306 130.245C124.315 130.221 124.319 130.196 124.318 130.173C124.316 130.148 124.309 130.123 124.296 130.101L124.105 129.775L123.818 129.901Z" fill="white"/>
<path d="M124.881 129.425L125.131 129.938C125.156 129.984 125.2 130.019 125.25 130.034C125.301 130.049 125.355 130.044 125.402 130.019C125.424 130.009 125.442 129.995 125.459 129.979C125.474 129.961 125.486 129.941 125.492 129.919C125.5 129.898 125.502 129.874 125.501 129.85C125.499 129.828 125.491 129.805 125.48 129.785L125.191 129.285L124.881 129.425Z" fill="white"/>
<path d="M125.773 128.902L126.114 129.341C126.149 129.383 126.198 129.409 126.251 129.414C126.305 129.419 126.359 129.401 126.4 129.368L126.413 129.356C126.429 129.343 126.443 129.326 126.453 129.309C126.463 129.29 126.468 129.27 126.47 129.249C126.473 129.229 126.47 129.208 126.464 129.188C126.459 129.168 126.449 129.149 126.435 129.133L126.106 128.721L125.773 128.902Z" fill="white"/>
<path d="M126.642 128.356L127.081 128.74C127.117 128.771 127.164 128.788 127.211 128.788C127.26 128.788 127.306 128.771 127.342 128.74C127.362 128.724 127.377 128.704 127.389 128.681C127.399 128.657 127.404 128.632 127.402 128.607C127.401 128.582 127.394 128.557 127.381 128.535C127.369 128.514 127.351 128.495 127.33 128.481L126.89 128.17L126.642 128.356Z" fill="white"/>
<path d="M127.5 127.638C127.5 127.638 127.756 127.831 127.924 127.955C127.963 127.983 128.01 127.995 128.058 127.99C128.105 127.985 128.149 127.961 128.18 127.926C128.196 127.908 128.206 127.885 128.213 127.861C128.218 127.838 128.218 127.813 128.211 127.789C128.205 127.765 128.194 127.743 128.178 127.724C128.161 127.705 128.14 127.691 128.118 127.683L127.608 127.453L127.5 127.638Z" fill="white"/>
<path d="M129.5 79.875L128.156 125.486L132.712 125.501L136.637 87.56C136.665 87.28 137.129 87.0675 137.129 87.0675C137.258 87.0739 137.379 87.1279 137.47 87.2189C137.56 87.31 137.614 87.4315 137.62 87.56L141.488 125.466H145.904L145.75 79.875H129.5Z" fill="#414042"/>
<path opacity="0.4" d="M143.394 125.465L139.659 89.3751C139.605 88.8571 139.38 88.3719 139.02 87.9959C138.659 87.6199 138.184 87.3746 137.669 87.2989L137.511 87.2764C137.573 87.3609 137.61 87.4601 137.62 87.5639L141.488 125.47L143.394 125.465Z" fill="#231F20"/>
<path opacity="0.4" d="M131 79.875H129.5L128.156 125.466H129.758L131 79.875Z" fill="#231F20"/>
<path d="M132.796 125.501H128.06L128.131 124.509H132.893L132.796 125.501Z" fill="#3F4249"/>
<path opacity="0.4" d="M129.754 125.501H128.06L128.131 124.509H129.79L129.754 125.501Z" fill="#231F20"/>
<path d="M145.97 125.466H141.315L141.223 124.509H145.97V125.466Z" fill="#3F4249"/>
<path opacity="0.4" d="M143.394 125.465L141.315 125.466L141.223 124.509H143.318L143.394 125.465Z" fill="#231F20"/>
<path d="M147.614 55.1749C147.008 54.9887 145.75 71.7999 145.75 78.2499V79.8749H129.5L128.602 63.0399C128.269 59.4462 129 55.0612 128.159 54.4549C134.041 51.8499 145.51 53.5449 147.614 55.1749Z" fill="#5292B8"/>
<path d="M129.625 79.875H145.75V79.315H129.47L129.511 79.875H129.625Z" fill="#5292B8"/>
<path opacity="0.5" d="M129.625 79.875H145.75V79.315H129.47L129.511 79.875H129.625Z" fill="#231F20"/>
<path d="M129.625 78.875H145.75V78.315H129.47L129.511 78.875H129.625Z" fill="#5292B8"/>
<path opacity="0.5" d="M129.625 78.875H145.75V78.315H129.47L129.511 78.875H129.625Z" fill="#231F20"/>
<path d="M129.625 77.75H145.75V77.19H129.47L129.511 77.75H129.625Z" fill="#5292B8"/>
<path opacity="0.5" d="M129.625 77.75H145.75V77.19H129.47L129.511 77.75H129.625Z" fill="#231F20"/>
<path d="M135.061 55.2364V62.5189" stroke="black" stroke-width="4" stroke-miterlimit="10" stroke-linecap="round"/>
<path d="M135.111 62C135.257 62 135.375 61.8813 135.375 61.735C135.375 61.5886 135.257 61.47 135.111 61.47C134.965 61.47 134.847 61.5886 134.847 61.735C134.847 61.8813 134.965 62 135.111 62Z" fill="white"/>
<path d="M139.824 55.1575V62.4412" stroke="black" stroke-width="4" stroke-miterlimit="10" stroke-linecap="round"/>
<path d="M139.861 61.75C140.007 61.75 140.125 61.6314 140.125 61.485C140.125 61.3387 140.007 61.22 139.861 61.22C139.715 61.22 139.597 61.3387 139.597 61.485C139.597 61.6314 139.715 61.75 139.861 61.75Z" fill="white"/>
<path d="M141.5 64.125L146.48 63.715L152.389 71.4875L146.956 77.6775L148.198 80.4825L157.515 73.0975C157.906 72.7835 158.174 72.3419 158.271 71.8501C158.369 71.3584 158.289 70.848 158.048 70.4087L149.375 56.5175C148.679 55.2475 146.169 54.345 144.758 54.5L140.875 57.125L141.5 64.125Z" fill="#5292B8"/>
<path opacity="0.15" d="M152.375 71.5L146.5 63.75L147 60L153.311 69.1162C153.44 69.302 153.507 69.5227 153.505 69.7485C153.504 69.9741 153.432 70.1939 153.301 70.3775L152.375 71.5Z" fill="#231F20"/>
<path d="M146.947 77.6925L148.192 80.4825L148.48 80.25L147.192 77.4262L146.947 77.6925Z" fill="#5292B8"/>
<path opacity="0.5" d="M146.947 77.6926L148.192 80.4826L148.48 80.2501L147.187 77.4139L146.947 77.6926Z" fill="#231F20"/>
<path d="M147.355 77.2225L148.638 80.1237L148.934 79.8862L147.595 76.9487L147.355 77.2225Z" fill="#5292B8"/>
<path opacity="0.5" d="M147.355 77.2225L148.638 80.1237L148.934 79.8862L147.595 76.9487L147.355 77.2225Z" fill="#231F20"/>
<path d="M147.756 76.7662L149.082 79.7662L149.379 79.5299L147.995 76.4937L147.756 76.7662Z" fill="#5292B8"/>
<path opacity="0.5" d="M147.756 76.7662L149.082 79.7662L149.379 79.5299L147.995 76.4937L147.756 76.7662Z" fill="#231F20"/>
<path opacity="0.4" d="M145.685 84.65L143.272 80.9688C143.75 80.5 144.935 79.6075 145.684 79.8438C145.684 79.8463 145.79 84.9325 145.685 84.65Z" fill="#231F20"/>
<path d="M148.198 80.4825L146.956 77.6775L146.036 78.845C145.969 78.9302 145.889 79.0049 145.799 79.0662C145.49 79.2762 144.764 79.7712 144.766 79.7675L143.711 80.7287L145.534 83.625C147.773 82.175 146.629 81.6912 147.618 80.975C147.75 80.875 148.198 80.4825 148.198 80.4825Z" fill="#FC9D9D"/>
<path opacity="0.2" d="M147.095 77.9913L146.97 77.6688L145.894 79.0163C145.06 79.5054 144.296 80.1064 143.625 80.8025L143.859 81.1775L147.095 77.9913Z" fill="#231F20"/>
<path d="M137.479 56.7287C136.229 55.9362 132.064 53.3612 131.156 53.5112C130.967 52.5199 132.721 53.1924 133.347 52.2999C133.511 52.0568 133.741 51.8655 134.01 51.7487C134.53 51.5324 134.952 51.6037 135.091 51.7312C137.111 53.5774 138.466 52.7949 140.571 51.4212C140.821 51.2587 141.821 51.3424 142.08 52.2087C142.916 53.6837 144.532 52.4874 144.532 53.9449C144.532 54.0562 144.382 54.0474 144.157 53.9974C143.362 53.8244 142.531 53.9462 141.82 54.3399L138.195 56.7224C138.089 56.792 137.965 56.8295 137.837 56.8307C137.711 56.8318 137.586 56.7964 137.479 56.7287Z" fill="black"/>
<path d="M105.549 59.8175L104.205 59.1175L102.355 59.0125C102.321 59.0091 102.287 59.0141 102.255 59.027C102.224 59.0399 102.196 59.0602 102.174 59.0864C102.152 59.1126 102.137 59.1436 102.13 59.1769C102.123 59.2102 102.124 59.2447 102.134 59.2775C102.148 59.3291 102.178 59.3752 102.219 59.4101C102.259 59.445 102.309 59.4671 102.363 59.4737L104.071 59.7363L104.958 60.4325L104.071 59.7363L102.539 59.65C102.511 59.648 102.483 59.6521 102.457 59.662C102.431 59.672 102.408 59.6876 102.389 59.7076C102.37 59.7277 102.355 59.7517 102.346 59.7781C102.337 59.8044 102.334 59.8324 102.338 59.86C102.348 59.91 102.376 59.9549 102.415 59.9875C102.455 60.0201 102.504 60.0386 102.555 60.04L104.055 60.2675L105.34 61.2675L104.055 60.2675L102.91 60.3225C102.891 60.3234 102.872 60.3286 102.856 60.3377C102.839 60.3469 102.825 60.3598 102.814 60.3753C102.803 60.3909 102.796 60.4088 102.792 60.4275C102.789 60.4463 102.791 60.4655 102.796 60.4837C102.81 60.5151 102.831 60.5424 102.858 60.5628C102.885 60.5833 102.917 60.596 102.951 60.6L104.215 60.725L105.465 61.5737L105.549 59.8175Z" fill="#FC9D9D"/>
<path opacity="0.15" d="M105.549 59.8175L104.205 59.1175L102.355 59.0125C102.321 59.0091 102.287 59.0141 102.255 59.027C102.224 59.0399 102.196 59.0602 102.174 59.0864C102.152 59.1126 102.137 59.1436 102.13 59.1769C102.123 59.2102 102.124 59.2447 102.134 59.2775C102.148 59.3291 102.178 59.3752 102.219 59.4101C102.259 59.445 102.309 59.4671 102.363 59.4737L104.071 59.7363L104.958 60.4325L104.071 59.7363L102.539 59.65C102.511 59.648 102.483 59.6521 102.457 59.662C102.431 59.672 102.408 59.6876 102.389 59.7076C102.37 59.7277 102.355 59.7517 102.346 59.7781C102.337 59.8044 102.334 59.8324 102.338 59.86C102.348 59.91 102.376 59.9549 102.415 59.9875C102.455 60.0201 102.504 60.0386 102.555 60.04L104.055 60.2675L105.34 61.2675L104.055 60.2675L102.91 60.3225C102.891 60.3234 102.872 60.3286 102.856 60.3377C102.839 60.3469 102.825 60.3598 102.814 60.3753C102.803 60.3909 102.796 60.4088 102.792 60.4275C102.789 60.4463 102.791 60.4655 102.796 60.4837C102.81 60.5151 102.831 60.5424 102.858 60.5628C102.885 60.5833 102.917 60.596 102.951 60.6L104.215 60.725L105.465 61.5737L105.549 59.8175Z" fill="black"/>
<path d="M105.615 59.3063L107.257 61.2888C107.354 61.3996 107.473 61.4903 107.605 61.555L111.412 63.3175L110.22 65.6363L106.665 63.8038C105.88 63.7375 105.221 63.2513 104.74 62.67H104.726C104.659 62.5891 104.576 62.5218 104.484 62.4713C104.14 62.3063 103.294 61.8888 103.294 61.8888C103.281 61.8836 103.27 61.8759 103.26 61.8663C103.25 61.8565 103.243 61.845 103.237 61.8323C103.232 61.8195 103.23 61.8059 103.23 61.7923C103.23 61.7785 103.233 61.765 103.239 61.7525C103.286 61.6353 103.375 61.5393 103.488 61.4823C103.601 61.4253 103.731 61.4111 103.854 61.4425L104.492 61.58C104.832 61.6438 105.117 61.4013 105.084 61.095L104.849 59.75C104.844 59.7075 104.83 59.6666 104.808 59.6296C104.787 59.5926 104.758 59.5605 104.724 59.535L102.742 58.15C102.722 58.1394 102.704 58.1248 102.689 58.1069C102.674 58.0891 102.663 58.0686 102.656 58.0465C102.65 58.0244 102.647 58.0011 102.65 57.9781C102.652 57.9551 102.659 57.9328 102.67 57.9125C102.684 57.8873 102.703 57.8651 102.726 57.8473C102.749 57.8294 102.775 57.8161 102.803 57.8084C102.83 57.8006 102.86 57.7984 102.888 57.8019C102.917 57.8054 102.945 57.8145 102.97 57.8288C103.497 58.0988 105.115 58.9713 105.482 59.1813C105.532 59.217 105.576 59.259 105.615 59.3063Z" fill="#FC9D9D"/>
<path opacity="0.15" d="M107 63.4463C106.215 63.38 105.423 62.88 104.941 62.2975H104.928C104.857 62.2164 104.772 62.149 104.678 62.0987C104.334 61.9337 103.489 61.5162 103.489 61.5162C103.478 61.5119 103.468 61.5055 103.459 61.4975C103.357 61.5512 103.279 61.6401 103.238 61.7475C103.232 61.7601 103.229 61.7736 103.229 61.7872C103.229 61.801 103.231 61.8146 103.236 61.8272C103.241 61.84 103.249 61.8515 103.259 61.8612C103.268 61.871 103.28 61.8786 103.293 61.8837C103.293 61.8837 104.139 62.3012 104.483 62.4662C104.575 62.5167 104.657 62.5841 104.725 62.665H104.739C105.22 63.2463 105.879 63.7325 106.664 63.7988L110.219 65.6313C110.219 65.6313 109.25 64.36 108.25 63.7025C107.809 63.4187 107.285 63.4313 107 63.4463Z" fill="black"/>
<path d="M120.641 65.875L126.449 55.675C126.764 55.1205 127.229 54.6666 127.791 54.3658C128.354 54.0649 128.989 53.9294 129.625 53.975L132.724 54.1975L130.069 61.7275L124.099 71.2275C123.852 71.6195 123.526 71.9563 123.143 72.2163C122.76 72.4764 122.326 72.6541 121.871 72.7384C121.415 72.8228 120.947 72.8118 120.496 72.7063C120.045 72.6006 119.621 72.4028 119.25 72.125L117.959 71.1563L120.641 65.875Z" fill="#5292B8"/>
<path d="M110.259 65.6374L119.306 72.1374C121.064 73.2624 123.031 72.7874 124.92 69.9099L126.259 67.7849L121.274 64.7599L120.344 66.4549L111.412 63.3174L110.259 65.6374Z" fill="#5292B8"/>
<path d="M111.414 63.3663L110.22 65.6363L110.56 65.8538L111.79 63.5238L111.414 63.3663Z" fill="#5292B8"/>
<path opacity="0.6" d="M111.412 63.3174L110.22 65.6361L110.56 65.8536L111.822 63.4611L111.412 63.3174Z" fill="#231F20"/>
<path d="M111.973 63.5925L110.723 65.9712L111.059 66.195L112.356 63.7362L111.973 63.5925Z" fill="#5292B8"/>
<path opacity="0.6" d="M112.014 63.5287L110.723 65.9713L111.053 66.2075L112.401 63.6637L112.014 63.5287Z" fill="#231F20"/>
<path d="M112.539 63.8049L111.224 66.3074L111.567 66.5174L112.922 63.9499L112.539 63.8049Z" fill="#5292B8"/>
<path opacity="0.6" d="M112.585 63.72L111.215 66.325L111.544 66.5625L112.969 63.8637L112.585 63.72Z" fill="#231F20"/>
<path d="M142.266 44.8225C142.233 45.02 141.964 49.3225 139.746 51.0725V46.0725L142.266 44.8225Z" fill="black"/>
<path d="M140.927 53.9801L140.574 48.7926L140.5 47.7601C140.322 43.7951 135.149 47.0388 135.149 47.0388C135.149 47.0388 135.296 48.4138 135.355 49.9276C135.356 50.24 135.391 50.5513 135.459 50.8563L135.125 53.9363" fill="#FC9D9D"/>
<path d="M140.926 53.98C140.925 54.0747 140.9 54.1675 140.854 54.2502C140.807 54.3327 140.741 54.4023 140.661 54.4525L139.75 55.0713L137.817 56.3825C137.774 56.4078 137.722 56.4185 137.672 56.4134C137.621 56.4083 137.574 56.3874 137.536 56.3538L135.889 54.9363L135.326 54.4525C135.25 54.3914 135.191 54.3118 135.155 54.2214C135.12 54.131 135.107 54.0328 135.12 53.9363L140.926 53.98Z" fill="#FC9D9D"/>
<path d="M140.338 44.125L140.485 47.5738C140.485 47.5738 140.101 52.895 136.683 52.4375C132.746 51.9225 134.574 44.2275 134.574 44.2275L140.338 44.125Z" fill="#FC9D9D"/>
<path opacity="0.15" d="M137.331 52.625C138.036 52.5276 138.685 52.1825 139.159 51.6512C139.173 51.6375 139.18 51.6188 139.18 51.5996C139.18 51.5802 139.173 51.5617 139.159 51.5481C139.145 51.5345 139.126 51.527 139.106 51.5271C139.088 51.5272 139.069 51.535 139.055 51.5487C138.683 51.9576 138.203 52.2538 137.67 52.4037C136.609 52.6387 135.67 52.1537 135.326 51.8137L135.194 53.0512C135.561 53.1241 135.939 53.124 136.305 53.0508C136.671 52.9777 137.02 52.833 137.331 52.625Z" fill="black"/>
<path opacity="0.15" d="M136.329 50.7825C136.327 50.7685 136.329 50.7545 136.334 50.7412C136.338 50.728 136.345 50.716 136.355 50.7061C136.365 50.6961 136.377 50.6885 136.39 50.6837C136.404 50.679 136.417 50.6772 136.431 50.6787C136.582 50.7027 136.735 50.7174 136.889 50.7225C136.916 50.7225 136.942 50.7334 136.962 50.7529C136.981 50.7723 136.992 50.7986 136.992 50.8263C136.992 50.8538 136.981 50.8801 136.962 50.8995C136.942 50.919 136.916 50.93 136.889 50.93C136.727 50.9039 136.565 50.8888 136.402 50.885C136.357 50.8563 136.299 50.7963 136.329 50.7825Z" fill="black"/>
<path opacity="0.15" d="M135.783 50.31C135.77 50.3045 135.76 50.2966 135.75 50.2869C135.741 50.277 135.735 50.2655 135.73 50.253C135.726 50.2404 135.724 50.2271 135.725 50.2139C135.726 50.2005 135.729 50.1875 135.735 50.1756C135.741 50.1637 135.75 50.1532 135.76 50.1446C135.77 50.136 135.781 50.1296 135.794 50.1257C135.808 50.1217 135.82 50.1205 135.834 50.1219C135.848 50.1232 135.86 50.1274 135.871 50.1337C136.904 50.4725 137.331 49.9862 137.464 49.75C137.47 49.7382 137.479 49.7277 137.489 49.7195C137.5 49.7111 137.511 49.7051 137.525 49.7016C137.538 49.6982 137.551 49.6976 137.564 49.6996C137.578 49.7017 137.59 49.7066 137.601 49.7137C137.613 49.721 137.623 49.7305 137.63 49.7416C137.636 49.7528 137.641 49.7654 137.644 49.7785C137.646 49.7916 137.646 49.8051 137.643 49.8181C137.639 49.8311 137.634 49.8432 137.625 49.8537C137.493 50.0887 137.11 50.5462 136.24 50.4137C136.085 50.3914 135.933 50.3566 135.783 50.31Z" fill="black"/>
<path d="M137.184 48.1287C137.355 48.1287 137.494 47.99 137.494 47.8188C137.494 47.6476 137.355 47.5088 137.184 47.5088C137.013 47.5088 136.874 47.6476 136.874 47.8188C136.874 47.99 137.013 48.1287 137.184 48.1287Z" fill="black"/>
<path d="M137.051 47.7915C137.093 47.7915 137.126 47.7581 137.126 47.7171C137.126 47.6759 137.093 47.6426 137.051 47.6426C137.009 47.6426 136.976 47.6759 136.976 47.7171C136.976 47.7581 137.009 47.7915 137.051 47.7915Z" fill="white"/>
<path d="M134.751 48.1287C134.922 48.1287 135.061 47.99 135.061 47.8188C135.061 47.6476 134.922 47.5088 134.751 47.5088C134.58 47.5088 134.441 47.6476 134.441 47.8188C134.441 47.99 134.58 48.1287 134.751 48.1287Z" fill="black"/>
<path d="M134.62 47.7915C134.661 47.7915 134.694 47.7581 134.694 47.7171C134.694 47.6759 134.661 47.6426 134.62 47.6426C134.578 47.6426 134.545 47.6759 134.545 47.7171C134.545 47.7581 134.578 47.7915 134.62 47.7915Z" fill="white"/>
<path opacity="0.15" d="M135.665 49.2338C135.678 49.1353 135.728 49.0454 135.804 48.9824C135.881 48.9194 135.979 48.8881 136.078 48.895C136.123 48.895 136.151 48.94 136.151 48.9988C136.151 49.0575 136.108 49.0725 136.049 49.0725C136.024 49.0705 135.999 49.0735 135.975 49.0813C135.95 49.0891 135.929 49.1015 135.909 49.1179C135.89 49.1343 135.874 49.1543 135.863 49.1766C135.851 49.1991 135.845 49.2236 135.843 49.2488C135.84 49.2739 135.844 49.2991 135.851 49.323C135.859 49.347 135.871 49.3693 135.888 49.3884C135.904 49.4075 135.924 49.4233 135.946 49.4346C135.969 49.4461 135.994 49.453 136.019 49.455L136.431 49.485C136.476 49.485 136.505 49.5288 136.505 49.5875C136.505 49.6463 136.461 49.6613 136.403 49.6613L135.989 49.6325C135.94 49.6299 135.894 49.6173 135.85 49.5953C135.808 49.5733 135.769 49.5425 135.739 49.505C135.708 49.4674 135.686 49.4239 135.673 49.3771C135.66 49.3304 135.658 49.2815 135.665 49.2338Z" fill="black"/>
<path d="M133.573 47.4651V47.8189C133.568 47.9848 133.595 48.15 133.655 48.3049C133.715 48.4598 133.805 48.6009 133.921 48.7201C134.036 48.8394 134.175 48.9341 134.328 48.9989C134.48 49.0636 134.645 49.097 134.81 49.097C134.976 49.097 135.141 49.0636 135.294 48.9989C135.446 48.9341 135.585 48.8394 135.7 48.7201C135.816 48.6009 135.906 48.4598 135.966 48.3049C136.026 48.15 136.054 47.9848 136.049 47.8189V47.4651C136.045 47.363 136.009 47.2646 135.945 47.1851H136.431C136.396 47.2228 136.37 47.2669 136.353 47.3149C136.335 47.363 136.326 47.414 136.329 47.4651V47.8189C136.324 47.9848 136.351 48.15 136.411 48.3049C136.471 48.4598 136.561 48.6009 136.678 48.7201C136.793 48.8394 136.931 48.9341 137.084 48.9989C137.236 49.0636 137.401 49.097 137.566 49.097C137.733 49.097 137.898 49.0636 138.05 48.9989C138.203 48.9341 138.341 48.8394 138.456 48.7201C138.573 48.6009 138.663 48.4598 138.723 48.3049C138.783 48.15 138.81 47.9848 138.805 47.8189V47.4651C138.804 47.3441 138.756 47.2283 138.67 47.1428C138.585 47.0574 138.469 47.0093 138.348 47.0089H134.014C133.954 47.0045 133.893 47.0135 133.836 47.0351C133.78 47.0566 133.729 47.0904 133.686 47.1339C133.645 47.1774 133.613 47.2296 133.593 47.2869C133.573 47.3441 133.566 47.405 133.573 47.4651ZM136.785 47.1714H138.333C138.406 47.1739 138.476 47.2041 138.528 47.2561C138.58 47.3081 138.61 47.3779 138.613 47.4514V47.8051C138.613 48.0869 138.5 48.3571 138.301 48.5564C138.103 48.7558 137.831 48.8676 137.55 48.8676C137.269 48.8676 136.998 48.7558 136.799 48.5564C136.6 48.3571 136.488 48.0869 136.488 47.8051V47.4514C136.5 47.379 136.536 47.3128 136.59 47.2624C136.644 47.212 136.713 47.1801 136.785 47.1714ZM133.705 47.4651C133.708 47.3916 133.738 47.3219 133.79 47.2699C133.841 47.2179 133.911 47.1876 133.985 47.1851H135.548C135.621 47.1876 135.691 47.2179 135.743 47.2699C135.795 47.3219 135.825 47.3916 135.828 47.4651V47.8189C135.828 48.1006 135.715 48.3709 135.516 48.5701C135.318 48.7695 135.046 48.8814 134.765 48.8814C134.484 48.8814 134.213 48.7695 134.014 48.5701C133.815 48.3709 133.703 48.1006 133.703 47.8189L133.705 47.4651Z" fill="black"/>
<path d="M133.625 45.9864C132.01 45.8614 130.215 43.2025 132.588 41.5662C132.588 41.5662 133.905 41.0089 133.905 42.4039C135.001 40.4039 135.614 42.8339 135.614 42.8339C135.614 42.8339 136.821 40.38 139.071 42.1787C140.094 40.9525 140.666 42.3037 140.42 42.7725C141.689 41.9337 142.936 43.99 141.935 45.7887C141.773 46.08 141.699 46.59 141.445 46.5262C140.68 46.3362 140.385 46.7537 140.369 47.43C140.356 47.9012 139.811 47.855 139.816 47.3975C139.816 46.9162 139.856 45.6362 139.541 45.6362C139.153 45.6362 138.928 46.3925 138.519 45.9012C138.11 45.41 139.093 44.8212 138.519 44.4325C137.973 44.0612 135.189 46.1051 133.625 45.9864Z" fill="black"/>
<path d="M140.16 48.0551C140.028 48.6451 139.88 49.0876 140.647 49.0276C142.106 48.9251 142.272 46.9651 141.414 46.5814C140.664 46.2426 140.414 46.9651 140.414 46.9651L140.16 48.0551Z" fill="#FC9D9D"/>
<path opacity="0.15" d="M141.5 47.5C141.47 47.5438 141.426 47.5438 141.366 47.5288C141.329 47.495 141.284 47.4708 141.235 47.4579C141.186 47.445 141.135 47.444 141.086 47.455C141.012 47.455 140.954 47.5288 140.88 47.6325C140.799 47.7661 140.752 47.9185 140.747 48.075L140.719 48.2513C140.719 48.2963 140.674 48.325 140.615 48.325C140.556 48.325 140.541 48.2813 140.541 48.2225L140.571 48.045C140.579 47.8545 140.63 47.6684 140.719 47.5C140.756 47.4379 140.805 47.3839 140.862 47.341C140.921 47.2981 140.987 47.2671 141.057 47.25C141.204 47.231 141.35 47.2681 141.47 47.3538C141.5 47.3613 141.516 47.405 141.5 47.5Z" fill="black"/>
<path opacity="0.15" d="M128.478 60.5L128.875 58.9713C128.914 58.6663 129.45 58.6925 129.466 59.0125L131 79.875H129.5L128.478 60.5Z" fill="#231F20"/>
</svg>
