<svg width="200" height="150" viewBox="0 0 200 150" fill="none" xmlns="http://www.w3.org/2000/svg">
<path d="M119.356 108.07C119.356 103.784 116.119 100.251 111.943 99.7913V99.7363H111.023C106.424 99.7363 102.689 103.471 102.689 108.07C102.689 112.669 106.424 116.404 111.023 116.404H111.943V116.349C116.119 115.889 119.356 112.356 119.356 108.07Z" fill="#B1B5BA"/>
<path d="M111.943 116.404C116.545 116.404 120.276 112.673 120.276 108.07C120.276 103.467 116.545 99.7363 111.943 99.7363C107.34 99.7363 103.609 103.467 103.609 108.07C103.609 112.673 107.34 116.404 111.943 116.404Z" fill="#858990"/>
<path d="M111.942 115.484C116.037 115.484 119.356 112.165 119.356 108.07C119.356 103.976 116.037 100.656 111.942 100.656C107.848 100.656 104.529 103.976 104.529 108.07C104.529 112.165 107.848 115.484 111.942 115.484Z" fill="white"/>
<path d="M111.942 115.484C116.037 115.484 119.356 112.165 119.356 108.07C119.356 103.976 116.037 100.656 111.942 100.656C107.848 100.656 104.529 103.976 104.529 108.07C104.529 112.165 107.848 115.484 111.942 115.484Z" fill="#858990"/>
<path opacity="0.9" d="M111.942 115.484C116.037 115.484 119.356 112.165 119.356 108.07C119.356 103.976 116.037 100.656 111.942 100.656C107.848 100.656 104.529 103.976 104.529 108.07C104.529 112.165 107.848 115.484 111.942 115.484Z" fill="white"/>
<path d="M111.942 100.656C111.814 100.656 111.685 100.656 111.537 100.675C115.437 100.878 118.546 104.115 118.546 108.07C118.546 112.025 115.437 115.263 111.537 115.465C111.666 115.465 111.795 115.484 111.942 115.484C116.045 115.484 119.356 112.173 119.356 108.07C119.356 103.968 116.045 100.656 111.942 100.656Z" fill="#B1B5BA"/>
<path d="M112.016 108.64L109.551 103.746C109.459 103.562 109.533 103.324 109.716 103.231C109.9 103.139 110.139 103.213 110.231 103.396L112.346 107.609L115.161 106.229C115.345 106.136 115.584 106.21 115.676 106.412C115.769 106.596 115.695 106.835 115.493 106.927L112.016 108.64Z" fill="#5292B8"/>
<path opacity="0.5" d="M118.29 111.878C118.971 110.755 119.357 109.449 119.357 108.051C119.357 103.949 116.046 100.638 111.944 100.638C111.741 100.638 111.539 100.656 111.336 100.656L118.29 111.878Z" fill="white"/>
<path opacity="0.5" d="M110.214 100.859C109.846 100.951 109.496 101.061 109.165 101.19L116.836 113.625C117.13 113.368 117.406 113.073 117.664 112.76L110.214 100.859Z" fill="white"/>
<path d="M178.834 129.524L189.104 75.8187C189.342 74.5725 189.237 73.2862 188.801 72.095L178.312 43.4775C177.391 40.965 175.117 39.1962 172.455 38.9237L54.11 26.77C52.3975 26.5937 50.6788 27.0562 49.285 28.0662L15.8425 52.3187C13.7075 53.8675 12.6238 56.485 13.04 59.09L24.3075 129.634L178.834 129.524Z" fill="#F3F3F3"/>
<path d="M44.5625 43.67H152.111C152.775 43.67 153.313 44.2075 153.313 44.8713V128.431C153.313 129.095 152.775 129.633 152.111 129.633H44.5625C43.8988 129.633 43.3613 129.095 43.3613 128.431V44.87C43.3613 44.2075 43.9 43.67 44.5625 43.67Z" fill="#B1B5BA"/>
<path d="M152.122 43.67H44.5525C43.895 43.67 43.3625 44.2025 43.3625 44.86V47.6663H153.314V44.86C153.312 44.2025 152.78 43.67 152.122 43.67Z" fill="#263238"/>
<path d="M42.4275 47.6663H152.379V128.428C152.379 129.088 151.844 129.624 151.182 129.624H43.6225C42.9625 129.624 42.4262 129.089 42.4262 128.428V47.6663H42.4275Z" fill="#5292B8"/>
<path d="M42.4275 47.6663H152.379V128.433C152.379 129.09 151.846 129.623 151.189 129.623H43.6175C42.96 129.623 42.4275 129.09 42.4275 128.433V47.6663Z" fill="#D9DCDE"/>
<path d="M151.182 43.67H43.6225C42.9625 43.67 42.4262 44.205 42.4262 44.8663V47.6663H152.377V44.8663C152.379 44.205 151.842 43.67 151.182 43.67Z" fill="#5292B8"/>
<path d="M151.187 43.67H43.6175C42.96 43.67 42.4275 44.2025 42.4275 44.86V47.6663H152.379V44.86C152.379 44.2025 151.845 43.67 151.187 43.67Z" fill="#61656D"/>
<path d="M181.26 129.777H21.245C21.2013 129.777 21.1713 129.748 21.1713 129.704C21.1713 129.66 21.2013 129.63 21.245 129.63H181.274C181.318 129.63 181.348 129.66 181.348 129.704C181.348 129.749 181.304 129.777 181.26 129.777Z" fill="#B2B6BB"/>
<path d="M48.6475 74.9225L48.6487 118.749L105.997 118.746L105.996 74.92C105.996 73.7912 105.081 72.8762 103.952 72.8762L50.6925 72.8787C49.5625 72.8775 48.6475 73.7937 48.6475 74.9225Z" fill="#B1B5BA"/>
<g opacity="0.3">
<path opacity="0.3" d="M168.431 51.6937L168.799 51.7162C168.844 51.7162 168.876 51.6825 168.888 51.6387C168.888 51.5937 168.854 51.5612 168.81 51.55L168.443 51.5275C168.354 51.5162 168.275 51.4387 168.286 51.3487C168.298 51.26 168.375 51.1812 168.465 51.1925C168.51 51.1925 168.543 51.1587 168.554 51.115C168.565 51.07 168.52 51.0375 168.476 51.0262C168.298 51.015 168.141 51.1487 168.119 51.3275C168.119 51.5262 168.254 51.6825 168.431 51.6937Z" fill="black"/>
</g>
<path opacity="0.15" d="M47.34 77.8825C47.2137 77.9213 47.0887 77.93 46.9587 77.9063L45.595 77.6588L46.9575 78.02C47.0912 78.055 47.2337 78.0362 47.3525 77.9662L47.4487 77.91L47.34 77.8825Z" fill="black"/>
<path opacity="0.15" d="M45.5287 78.1212L47.7937 78.6025C47.7937 78.6025 47.84 78.6762 47.8462 78.7262L45.5287 78.1212Z" fill="black"/>
<path opacity="0.15" d="M46.9975 78.8L46.26 78.3112L46.3362 78.3312L47.02 78.725C47.02 78.725 47.0225 78.7375 46.9975 78.8Z" fill="black"/>
<path opacity="0.4" d="M168.124 60.7888L166.555 58.6475L164.829 60.5625L166.079 56.9725L167.516 55.7988C167.516 55.7988 167.352 55.9325 167.214 56.71C167.12 57.235 167.121 58.1813 167.121 58.1813C167.196 58.6225 167.425 59.2188 167.596 59.6138L168.124 60.7888Z" fill="black"/>
<path opacity="0.4" d="M171.352 60.3563L172.622 59.5475L175.019 61.33L173.755 57.3188L172.725 55.8613L172.734 56.5888C172.749 57.8938 172.332 59.1788 171.501 60.1838C171.451 60.2438 171.402 60.3 171.352 60.3563Z" fill="black"/>
<path d="M172.253 45.4875C173.654 45.4875 174.124 47.0575 174.124 48.955C174.124 50.8513 173.704 51.9625 172.303 51.9625C170.901 51.9625 169.765 50.8513 169.765 48.955C169.765 47.0575 170.851 45.4875 172.253 45.4875Z" fill="#3F4249"/>
<path d="M172.046 81.3538C170.485 67.5338 173.295 59.0888 174.289 56.1775L172.716 55.7538L167.519 55.7988L166.86 56.0325C166.726 58.62 164.875 70.2213 163.09 81.3425H172.047V81.3538H172.046Z" fill="white"/>
<path d="M166.725 127.266L159.084 127.445L161.972 125.381C162.452 125.035 162.754 124.489 162.776 123.898L162.876 121.633L166.691 121.644L166.725 127.266Z" fill="#F79898"/>
<path opacity="0.15" d="M165.52 124.623V124.578C165.542 124.321 165.364 124.098 165.119 124.065L162.81 123.73L162.833 123.273H166.692L166.726 127.151L163.19 126.764L164.227 126.351C164.951 126.061 165.454 125.393 165.52 124.623Z" fill="black"/>
<path d="M175.447 127.133H172.191L171.589 121.622L175.436 121.632L175.447 127.133Z" fill="#F79898"/>
<path opacity="0.15" d="M174.634 126.206L174.556 124.511C174.545 124.289 174.378 124.11 174.155 124.076L171.813 123.719L171.756 123.25L175.426 123.261L175.438 127.165L174.634 126.206Z" fill="black"/>
<path d="M177.779 78.2188L175.659 123.273H171.431L169.87 86.54C169.848 86.295 169.648 86.1163 169.401 86.1163C169.168 86.1163 168.966 86.295 168.944 86.54L165.233 102.89L166.825 123.273H162.598L159.395 102.916L162.329 78.2188H177.779Z" fill="#5292B8"/>
<path opacity="0.2" d="M177.779 78.2188L175.659 123.273H171.431L169.87 86.54C169.848 86.295 169.648 86.1163 169.401 86.1163C169.168 86.1163 168.966 86.295 168.944 86.54L165.233 102.89L166.825 123.273H162.598L159.395 102.916L162.329 78.2188H177.779Z" fill="white"/>
<path d="M175.202 125.191L175.102 125.091C174.344 124.333 173.039 124.344 172.302 125.125L172.246 125.193C172.056 125.394 171.956 125.65 171.956 125.906V126.33C171.956 126.575 171.922 126.821 171.845 127.055L171.499 128.204C171.41 128.483 171.365 128.773 171.365 129.063V129.208C171.365 129.43 171.566 129.609 171.8 129.609H175.805C176.05 129.609 176.24 129.43 176.24 129.208V129.151C176.24 128.816 176.184 128.483 176.072 128.159L175.671 127.033C175.582 126.776 175.526 126.509 175.526 126.229L175.515 125.905C175.504 125.649 175.392 125.393 175.202 125.191Z" fill="#3F4249"/>
<path d="M175.771 123.273H171.265L171.176 122.348H175.76L175.771 123.273Z" fill="#5292B8"/>
<path opacity="0.15" d="M175.771 123.273H173.886L173.841 122.348H175.76L175.771 123.273Z" fill="black"/>
<path opacity="0.5" d="M176.24 129.151V129.207C176.24 129.43 176.039 129.609 175.805 129.609H171.8C171.555 129.609 171.365 129.43 171.365 129.207V129.062C171.365 129.006 171.365 128.951 171.376 128.895H176.24C176.24 128.972 176.24 129.062 176.24 129.151Z" fill="black"/>
<path d="M166.825 125.984V128.806C166.825 129.264 166.458 129.631 166 129.631H156.408C156.218 129.631 156.061 129.475 156.061 129.285C156.061 128.616 156.496 128.014 157.133 127.801L159.296 127.088L162.04 124.958C162.319 124.735 162.72 124.745 162.999 124.98L164.215 126.018C164.394 126.174 164.639 126.219 164.863 126.151L166.401 125.671C166.625 125.615 166.825 125.771 166.825 125.984Z" fill="#3F4249"/>
<path d="M166 129.631H156.408C156.218 129.631 156.061 129.475 156.061 129.285C156.061 129.162 156.073 129.051 156.106 128.939H166.815C166.748 129.33 166.413 129.631 166 129.631Z" fill="black"/>
<path d="M162.096 126.084C162.119 126.084 162.141 126.073 162.153 126.061C162.186 126.028 162.186 125.973 162.153 125.939L161.572 125.314C161.539 125.28 161.484 125.28 161.45 125.314C161.416 125.348 161.416 125.403 161.45 125.436L162.03 126.061C162.051 126.073 162.074 126.084 162.096 126.084Z" fill="white"/>
<path d="M161.639 126.441C161.661 126.441 161.684 126.43 161.695 126.419C161.729 126.385 161.729 126.33 161.695 126.296L161.115 125.671C161.081 125.637 161.026 125.637 160.992 125.671C160.959 125.705 160.959 125.76 160.992 125.794L161.572 126.419C161.594 126.43 161.616 126.441 161.639 126.441Z" fill="white"/>
<path d="M161.181 126.798C161.204 126.798 161.226 126.786 161.237 126.775C161.271 126.741 161.271 126.686 161.237 126.652L160.658 126.028C160.624 125.994 160.569 125.994 160.535 126.028C160.501 126.061 160.501 126.116 160.535 126.15L161.115 126.775C161.125 126.786 161.147 126.798 161.181 126.798Z" fill="white"/>
<path d="M172.971 126.14C172.982 126.14 173.005 126.14 173.016 126.129C173.775 125.75 174.489 126.129 174.489 126.129C174.534 126.151 174.6 126.14 174.622 126.084C174.645 126.039 174.634 125.972 174.577 125.95C174.544 125.927 173.774 125.526 172.915 125.95C172.87 125.972 172.847 126.039 172.87 126.084C172.894 126.117 172.927 126.14 172.971 126.14Z" fill="white"/>
<path d="M172.971 126.652C172.982 126.652 173.005 126.652 173.016 126.641C173.786 126.262 174.489 126.641 174.489 126.641C174.534 126.664 174.6 126.652 174.622 126.596C174.645 126.551 174.634 126.485 174.577 126.462C174.544 126.44 173.774 126.039 172.915 126.462C172.87 126.485 172.847 126.551 172.87 126.596C172.894 126.63 172.927 126.652 172.971 126.652Z" fill="white"/>
<path d="M172.971 127.155C172.982 127.155 173.005 127.155 173.016 127.144C173.775 126.765 174.489 127.144 174.489 127.144C174.534 127.166 174.6 127.155 174.622 127.099C174.645 127.054 174.634 126.987 174.577 126.965C174.544 126.942 173.774 126.541 172.915 126.965C172.87 126.987 172.847 127.054 172.87 127.099C172.894 127.132 172.927 127.155 172.971 127.155Z" fill="white"/>
<path opacity="0.15" d="M164.95 123.084L162.648 103.086L166.68 88.08C166.814 86.965 167.763 86.1275 168.878 86.1275H169.401C169.167 86.1275 168.966 86.3062 168.944 86.5512L165.233 102.89L166.81 123.083L164.95 123.084Z" fill="black"/>
<path d="M166.937 123.273H162.441L162.344 122.348H167.026L166.937 123.273Z" fill="#5292B8"/>
<path opacity="0.15" d="M166.937 123.273H164.956L164.875 122.348H167.026L166.937 123.273Z" fill="black"/>
<path d="M167.606 49.7075C167.606 49.7075 172.158 46.8525 172.336 50.3438L172.404 51.2475L172.716 55.8213C172.716 55.955 167.551 56 167.574 55.8325L167.864 53.1225C167.808 52.8888 167.775 52.62 167.775 52.3188C167.729 50.9463 167.606 49.7075 167.606 49.7075Z" fill="#F79898"/>
<path d="M173.229 55.9575C173.237 56.0088 173.24 56.0563 173.24 56.1088C173.24 57.065 171.854 57.8388 170.144 57.8388C168.434 57.8388 167.047 57.0638 167.047 56.1088C167.047 56.005 167.064 55.9025 167.095 55.8038" fill="#5292B8"/>
<path d="M170.145 57.385C171.57 57.385 172.725 56.7398 172.725 55.9438C172.725 55.1478 171.57 54.5025 170.145 54.5025C168.72 54.5025 167.565 55.1478 167.565 55.9438C167.565 56.7398 168.72 57.385 170.145 57.385Z" fill="#F79898"/>
<path d="M167.205 49.9187C168.055 49.9187 168.744 49.2299 168.744 48.38C168.744 47.5301 168.055 46.8412 167.205 46.8412C166.355 46.8412 165.666 47.5301 165.666 48.38C165.666 49.2299 166.355 49.9187 167.205 49.9187Z" fill="#3F4249"/>
<path d="M167.093 47.2425C167.093 47.2425 165.475 54.025 168.955 54.4812C171.966 54.8825 172.301 50.1862 172.301 50.1862L172.156 47.1412L167.093 47.2425Z" fill="#F79898"/>
<path d="M171.777 49.385C171.812 51.0238 171.165 51.955 171.165 51.955C167.436 51.4513 166.857 52.1363 166.857 52.1363C166.857 52.1363 167.084 53.9963 168.621 54.3988C170.157 54.8013 172.479 53.8513 172.471 51.7488C172.469 51.2288 171.617 48.4213 171.617 48.4213L171.777 49.385Z" fill="#3F4249"/>
<g opacity="0.3">
<path opacity="0.3" d="M168.699 53.21C168.699 53.2212 168.71 53.2212 168.699 53.21C168.989 53.2325 169.122 53.2437 169.122 53.2437C169.179 53.2437 169.211 53.21 169.222 53.155C169.222 53.0987 169.189 53.055 169.134 53.055C169.134 53.055 169 53.0437 168.721 53.0212C168.665 53.0212 168.621 53.055 168.621 53.0987C168.621 53.1662 168.655 53.21 168.699 53.21Z" fill="black"/>
</g>
<path d="M168.554 52.8137C169.313 52.925 169.658 52.5125 169.781 52.3113C169.804 52.2663 169.781 52.1063 169.736 52.0725C169.691 52.05 168.119 52.4513 168.096 52.4963C168.085 52.5412 168.119 52.7012 168.164 52.7237C168.309 52.7687 168.443 52.8025 168.554 52.8137Z" fill="white"/>
<path d="M168.831 48.1763C170.195 48.1763 171.301 47.2993 171.301 46.2175C171.301 45.1358 170.195 44.2588 168.831 44.2588C167.468 44.2588 166.361 45.1358 166.361 46.2175C166.361 47.2993 167.468 48.1763 168.831 48.1763Z" fill="#3F4249"/>
<path d="M172.035 45.52C172.889 45.52 173.583 46.3937 173.583 47.4712C173.583 48.5487 172.89 49.6562 172.035 49.6562C171.18 49.6562 170.488 48.5487 170.488 47.4712C170.488 46.3937 171.181 45.52 172.035 45.52Z" fill="#3F4249"/>
<path opacity="0.15" d="M172.403 51.47C172.403 51.47 172.112 51.4925 171.956 51.37L172.448 52.1287L172.403 51.47Z" fill="black"/>
<path d="M171.975 49.6463C171.975 49.6463 172.459 49.0275 173.128 49.3175C173.886 49.6525 173.73 51.37 172.448 51.47C171.779 51.5262 171.913 51.135 172.024 50.6112C172.035 49.9862 171.975 49.6463 171.975 49.6463Z" fill="#F79898"/>
<path opacity="0.3" d="M173.161 49.7638C173.027 49.675 172.905 49.6413 172.794 49.6638C172.682 49.6863 172.581 49.7638 172.504 49.8975C172.426 50.0313 172.381 50.1875 172.381 50.3663L172.37 50.5113C172.37 50.5563 172.404 50.5888 172.447 50.5888C172.492 50.5888 172.525 50.555 172.525 50.5113L172.536 50.3663C172.536 50.3213 172.559 50.0988 172.636 49.9763C172.692 49.8875 172.759 49.8313 172.826 49.8088C172.894 49.7975 172.982 49.82 173.071 49.8763C173.105 49.8988 173.16 49.8875 173.182 49.8538C173.206 49.8413 173.195 49.7975 173.161 49.7638Z" fill="black"/>
<path d="M167.07 47.79C167.205 47.8913 167.499 48.0263 167.499 48.0263C167.53 48.0375 167.58 48.0325 167.595 47.9913C167.61 47.95 167.601 47.91 167.56 47.895C167.56 47.895 167.155 47.655 167.118 47.6288C167.045 47.5663 166.93 47.4825 166.804 47.3388C166.78 47.3063 166.735 47.3013 166.703 47.325C166.67 47.3488 166.665 47.3938 166.689 47.4263C166.805 47.5875 167.025 47.755 167.07 47.79Z" fill="#F79898"/>
<path opacity="0.15" d="M167.675 54.9763L167.774 53.9363C168.146 54.2938 168.761 54.57 169.72 54.4713C169.72 54.4713 170.37 54.4238 171.064 54.05C171.114 54.0188 171.145 54.015 171.175 54.0413C171.199 54.0738 171.187 54.1038 171.16 54.13C171.024 54.2463 170.505 54.505 169.691 54.6238C168.557 55.3488 167.675 54.9763 167.675 54.9763Z" fill="black"/>
<path d="M169.591 50.6899C169.745 50.6899 169.87 50.5651 169.87 50.4112C169.87 50.2572 169.745 50.1324 169.591 50.1324C169.437 50.1324 169.312 50.2572 169.312 50.4112C169.312 50.5651 169.437 50.6899 169.591 50.6899Z" fill="#21252B"/>
<path d="M169.469 50.3771C169.5 50.3771 169.525 50.3519 169.525 50.3211C169.525 50.29 169.5 50.265 169.469 50.265C169.438 50.265 169.413 50.29 169.413 50.3211C169.413 50.3519 169.438 50.3771 169.469 50.3771Z" fill="white"/>
<path d="M167.384 50.7C167.537 50.7 167.662 50.5751 167.662 50.4213C167.662 50.2673 167.537 50.1425 167.384 50.1425C167.23 50.1425 167.105 50.2673 167.105 50.4213C167.105 50.5751 167.23 50.7 167.384 50.7Z" fill="#21252B"/>
<path d="M167.26 50.3882C167.291 50.3882 167.317 50.3632 167.317 50.3322C167.317 50.3013 167.291 50.2761 167.26 50.2761C167.229 50.2761 167.204 50.3013 167.204 50.3322C167.204 50.3632 167.229 50.3882 167.26 50.3882Z" fill="white"/>
<path d="M166.19 50.0988V50.4113C166.19 51.0138 166.681 51.505 167.284 51.505C167.886 51.505 168.378 51.0138 168.378 50.4113V50.0988C168.378 50.01 168.355 49.92 168.3 49.8538H168.724C168.668 49.9213 168.635 50.01 168.635 50.0988V50.4113C168.635 51.0138 169.126 51.505 169.729 51.505C170.331 51.505 170.823 51.0138 170.823 50.4113V50.0988C170.823 49.8763 170.644 49.6975 170.421 49.6975H169.049H169.038H167.977H167.81H166.594C166.368 49.6963 166.19 49.875 166.19 50.0988ZM169.023 49.8638H169.034H170.406C170.54 49.8638 170.651 49.975 170.651 50.1088V50.4213C170.651 50.9338 170.228 51.3475 169.714 51.3475C169.201 51.3475 168.788 50.9238 168.788 50.41V50.0975C168.789 49.965 168.9 49.8638 169.023 49.8638ZM166.335 50.11C166.335 49.9763 166.446 49.865 166.58 49.865H167.796H167.964C168.098 49.865 168.209 49.9763 168.209 50.11V50.4225C168.209 50.935 167.785 51.3488 167.271 51.3488C166.759 51.3488 166.345 50.925 166.345 50.4113L166.335 50.11Z" fill="#21252B"/>
<g opacity="0.15">
<path opacity="0.15" d="M163.558 79.335H173.028C173.084 79.335 173.116 79.29 173.116 79.2462C173.116 79.2012 173.071 79.1575 173.028 79.1575H163.558C163.501 79.1575 163.469 79.2025 163.469 79.2462C163.468 79.29 163.501 79.335 163.558 79.335Z" fill="black"/>
</g>
<path opacity="0.15" d="M167.205 55.9325C167.205 55.9325 166.804 69.8087 165.744 79.1787H164.383L167.205 55.9325Z" fill="black"/>
<path opacity="0.15" d="M170.295 79.2338L175.906 79.9925C175.906 79.9925 176.051 80.3938 176.23 80.985L177.791 81.6875L175.671 122.324L173.852 122.335L174.321 86.9188C169.514 85.2025 170.295 79.2338 170.295 79.2338Z" fill="black"/>
<path opacity="0.15" d="M162.241 85.425C162.23 85.425 162.219 85.4137 162.208 85.4137L163.021 79.1788H165.731L165.24 83.6963C165.085 85.135 163.569 86.0162 162.241 85.425Z" fill="black"/>
<g opacity="0.15">
<path opacity="0.15" d="M165.051 57.6725H169.367L169.691 57.9512C169.769 58.0187 169.881 58.0287 169.97 57.9625L170.394 57.6725H175.135V58.1637H165.051V57.6725Z" fill="#5292B8"/>
<path opacity="0.15" d="M175.135 59.78H165.051V60.2712H175.135V59.78Z" fill="#5292B8"/>
<path opacity="0.15" d="M175.135 61.9H165.051V62.3912H175.135V61.9Z" fill="black"/>
<path opacity="0.15" d="M175.135 64.0087H165.051V64.5H175.135V64.0087Z" fill="black"/>
<path opacity="0.15" d="M175.135 66.1275H165.051V66.6187H175.135V66.1275Z" fill="black"/>
<path opacity="0.15" d="M175.135 68.2362H165.051V68.7275H175.135V68.2362Z" fill="black"/>
<path opacity="0.15" d="M175.135 70.355H165.051V70.8462H175.135V70.355Z" fill="black"/>
<path opacity="0.15" d="M175.136 72.4637H164.55V72.955H175.136V72.4637Z" fill="black"/>
<path opacity="0.15" d="M175.135 74.5825H164.215V75.0737H175.135V74.5825Z" fill="black"/>
<path opacity="0.15" d="M175.136 76.6912H163.557V77.1825H175.136V76.6912Z" fill="black"/>
</g>
<path d="M178.019 85.39L178.308 85.4188L178.235 68.7262L180.655 61.1537C180.965 60.2937 180.938 59.3325 180.515 58.5212C180.174 57.865 179.86 57.3862 178.99 57.0437L172.725 55.8625C172.725 55.8625 172.833 57.7512 172.16 59.2037C171.804 59.9712 170.535 61.3312 170.478 61.4625C170.278 61.9187 170.129 77.5038 170.403 84.9313L177.278 85.4038C177.491 85.4075 177.69 85.4038 177.69 85.4038C177.724 85.3813 177.779 83.925 177.779 83.925L178.019 85.39Z" fill="#21252B"/>
<path d="M160.758 60.985L161.363 85.0625C161.365 85.09 165.378 85.0462 165.378 85.0462C165.886 83.2812 168.124 60.7887 168.124 60.7887C168.124 60.7887 167.126 58.7225 167.126 58.0762C167.126 56.135 167.516 55.7975 167.516 55.7975L163.233 57.2137C161.94 57.6162 160.679 59.2225 160.758 60.985Z" fill="#21252B"/>
<path d="M163.371 67.3725L162.487 66.8288C162.161 66.63 161.815 66.4588 161.447 66.3325L159.911 65.9275C159.874 65.9138 159.834 65.9163 159.805 65.9513C159.647 66.26 159.792 66.5113 160.071 66.7025C160.251 66.8163 160.56 66.9738 160.747 67.0413C160.904 67.1038 160.801 67.2075 160.711 67.1788L157.617 66.66C157.479 66.6388 157.339 66.7288 157.311 66.8588C157.281 67.005 157.362 67.1513 157.507 67.1813C158.08 67.3225 159.397 67.655 159.397 67.655L157.177 67.535C157.036 67.53 156.909 67.6375 156.889 67.7763C156.87 67.955 156.997 68.1088 157.167 68.1338C157.857 68.2288 159.456 68.4775 159.456 68.4775L157.512 68.415C157.377 68.4188 157.275 68.5213 157.27 68.6638C157.265 68.805 157.365 68.9238 157.505 68.9438C158.097 69.0013 159.299 69.2125 159.299 69.2125L158.071 69.1713C157.967 69.18 157.889 69.2788 157.891 69.3738C157.9 69.4775 157.974 69.56 158.074 69.5825L162.742 70.2988L164.409 70.8413L167.189 68.4425L163.371 67.3725Z" fill="#F79898"/>
<path opacity="0.15" d="M163.456 67.3925L162.497 70.2463L162.745 70.2838L162.926 70.3425L163.456 67.3925Z" fill="black"/>
<path d="M180.759 60.87L176.83 73.0925C176.414 74.3875 174.992 75.0563 173.731 74.5688L162.574 70.2788L163.505 67.38L172.43 69.6513L175.6 58.9888" fill="#21252B"/>
<path opacity="0.4" d="M173.782 73.0275C174.654 73.3425 175.64 72.9337 175.992 71.84L179.526 60.2987C179.841 59.0637 179.78 58.0137 178.99 57.045L179.196 57.17C180.63 57.9937 181.22 59.73 180.644 61.2325L176.834 73.0837C176.418 74.3787 174.992 75.0575 173.727 74.5462L162.574 70.2812L162.789 69.6125L173.782 73.0275Z" fill="black"/>
<path opacity="0.4" d="M166.449 68.14L166.517 67.9625L171.091 69.1163L174.225 63.1388C174.26 63.0675 174.366 63.1025 174.349 63.19L172.415 69.6588L171.007 69.3L166.449 68.14Z" fill="black"/>
<g opacity="0.15">
<path opacity="0.15" d="M161.819 65.7387C161.103 65.3162 161.325 64.5762 161.325 64.5762L161.443 64.6112C161.431 64.635 161.243 65.2687 161.889 65.645L161.819 65.7387Z" fill="black"/>
</g>
<path d="M167.517 55.7988L138.396 56.275V59.6625L153.78 60.62L162.648 62.3913" fill="#21252B"/>
<path d="M29.195 122.741C29.335 123.255 29.3588 123.443 29.3463 123.945L29.3575 127.333C29.3338 127.916 29.17 128.5 28.8788 129.015L28.8088 129.131C28.6338 129.435 28.3188 129.621 27.9675 129.621H26.9975C26.5538 129.621 26.1688 129.318 26.0513 128.885C25.9225 128.383 25.9113 127.858 26.005 127.355L26.8225 123.734C26.8813 123.43 26.9625 123.08 27.115 122.753L29.195 122.741Z" fill="#5292B8"/>
<path d="M42.325 114.786L42.5237 121.106C42.5237 121.703 42.675 122.333 42.9087 122.649L45.735 127.566L45.0812 128.466L42.5225 127.193L40.245 123.081C40.2562 122.38 40.175 121.96 40.0575 121.014L38.925 114.04L42.325 114.786Z" fill="#F89999"/>
<path opacity="0.15" d="M42.5113 123.279C42.2538 122.894 41.915 121.994 41.845 121.574L41.5413 119.319C41.5175 119.144 41.39 119.015 41.2138 118.991L39.66 118.781L39.6363 118.443H42.44L42.5213 121.129C42.5325 121.561 42.615 122.25 42.9063 122.671L45.7325 127.589L45.335 128.255L42.5113 123.279Z" fill="black"/>
<path d="M47.0675 128.395L45.7237 127.578C44.7537 127.741 43.7725 127.368 43.1425 126.608L40.2337 123.08C39.7075 124.201 39.5212 125.451 39.6962 126.69L40.1162 129.61H40.455L40.5487 126.608C40.56 126.385 40.8287 126.293 40.9687 126.468L42.7437 128.64C43.2462 129.259 44.005 129.621 44.8 129.621H47.5687C47.7912 129.621 47.9312 129.399 47.8487 129.201C47.6975 128.839 47.4175 128.548 47.0675 128.395Z" fill="#5292B8"/>
<path d="M29.3237 121.211C29.1837 122.426 29.1137 123.653 29.1362 124.879L29.16 126.339C29.1362 126.981 28.6112 127.495 27.9687 127.495H27.77C27.0463 127.495 26.485 126.853 26.59 126.14L26.9287 124.411C27.1037 123.535 27.1625 122.636 27.1162 121.736L26.7888 115.838L29.8375 115.884L29.3237 121.211Z" fill="#F89999"/>
<path d="M38.9012 73.8213L41.1662 81.2863C41.47 84.7088 41.775 88.34 41.8687 91.775L42.5812 118.431H39.5087L33.7962 81.0863C33.7612 80.8288 33.5387 80.6538 33.2825 80.6538C33.0137 80.6538 32.7925 80.8638 32.7687 81.1325L29.8012 118.43L26.7762 118.406L25.445 90.815C25.2 85.7225 25.6787 80.6175 26.87 75.665L27.325 73.7963L38.9012 73.8213Z" fill="#3F4249"/>
<path opacity="0.15" d="M29.58 118.431C29.58 118.431 29.2175 122.216 29.1825 122.719V122.73C29.1362 123.443 29.1237 124.155 29.1362 124.868L29.16 126.328C29.1362 126.946 28.6462 127.449 28.0275 127.473C28.5887 127.04 28.5412 126.34 28.5537 125.814L28.6475 119.401C28.6475 119.191 28.5075 119.016 28.2975 118.969L26.9425 118.724L26.9312 118.42L29.58 118.431Z" fill="black"/>
<path d="M42.57 118.431H41.3437L39.3925 80.655C38.6912 75.31 36.0162 74.99 36.0162 73.8213L27.3025 73.7975C27.3025 73.7975 27.3025 73.7975 27.3025 73.7863L36.0162 73.81L38.855 73.8213H38.89L40.7937 76.615C40.7937 76.615 41.7625 88.3413 41.8562 91.775L42.57 118.431Z" fill="#32353A"/>
<path d="M33.2838 80.655C33.1438 80.655 33.0263 80.7012 32.9338 80.795C32.84 80.8762 32.7825 80.9937 32.77 81.1337L29.7912 118.444L28.7162 118.432L30.5388 83.2725C30.62 81.7987 31.8225 80.655 33.2838 80.655Z" fill="#32353A"/>
<path d="M25.4213 60.26C25.2263 58.58 25.8388 57.9788 25.8388 57.9788L32.08 63.8225C32.08 63.8225 33.1263 69.5763 33.41 69.5788C33.41 69.5788 30.6388 72.3938 29.645 71.09C27.9713 68.8963 25.6163 61.9413 25.4213 60.26Z" fill="#5292B8"/>
<path opacity="0.15" d="M33.3812 69.5538C33.3812 69.5538 32.9762 68.8388 32.3737 65.375C32.3062 64.9863 32.0825 63.8263 32.0825 63.8263C31.4612 63.3613 30.6525 62.7525 30.1562 62.395C30.0375 62.3125 29.8812 62.4338 29.9462 62.5625L31.84 69.0275C31.9462 69.2913 33.3812 69.5538 33.3812 69.5538Z" fill="black"/>
<path d="M27.195 57.0963L31.0313 56.315L37.2813 56.385L40.02 57.0688C41.4538 57.5238 41.5263 58.7663 41.5038 60.2713L41.2613 62.18L41.8563 64.2325C42.2063 65.5613 41.7513 66.3313 40.83 67.4038C40.5388 67.7425 40.3875 67.8813 40.27 68.5225L40.7963 76.615L26.6725 76.5288C26.935 72.73 25.7788 66.845 25.6125 65.9625C24.95 62.4488 24.9688 60.1875 24.9688 60.1875C24.8975 58.7525 25.83 57.4113 27.195 57.0963Z" fill="#5292B8"/>
<path d="M33.41 69.58L39.2637 72.3262L37.7925 74.8562C37.7925 74.8562 36.4612 74.5387 34.9725 74.09C33.4837 73.6412 31.7 73.0125 30.9162 72.6175C29.4425 71.8762 28.7537 69.6025 28.3025 68.7012" fill="#5292B8"/>
<path opacity="0.6" d="M38.9512 72.165L38.365 71.8L36.7437 74.6025L37.325 74.7913L38.9512 72.165Z" fill="black"/>
<path d="M31.8888 51.18L31.7688 55.4838C31.7563 55.83 31.5175 56.13 31.1825 56.225L30.6925 56.3838L31.8163 57.05C32.9388 57.7475 34.3175 57.8638 35.5263 57.3988C35.7463 57.3138 35.9613 57.21 36.1688 57.0863L37.3888 56.4138L36.8388 56.2013C36.5275 56.1175 36.3013 55.8425 36.265 55.5313L35.7025 50.4138L31.8888 51.18Z" fill="#F89999"/>
<path d="M34.9375 54.6787L34.7337 54.6912C33.2625 54.7512 32.0312 53.615 31.9712 52.1562L31.8162 48.4375C31.7925 47.9475 32.175 47.5412 32.665 47.5162L36.1437 47.3612C36.7775 47.3375 37.315 47.8275 37.34 48.4612L37.4837 51.9162C37.5325 53.375 36.3962 54.6187 34.9375 54.6787Z" fill="#F89999"/>
<path d="M34.6512 50.9C34.81 50.9 34.9387 50.7713 34.9387 50.6125C34.9387 50.4538 34.81 50.325 34.6512 50.325C34.4925 50.325 34.3637 50.4538 34.3637 50.6125C34.3637 50.7713 34.4925 50.9 34.6512 50.9Z" fill="#21252B"/>
<path d="M34.7714 50.6133C34.8046 50.6133 34.8315 50.5866 34.8315 50.5535C34.8315 50.5205 34.8046 50.4938 34.7714 50.4938C34.7382 50.4938 34.7112 50.5205 34.7112 50.5535C34.7112 50.5866 34.7382 50.6133 34.7714 50.6133Z" fill="white"/>
<path d="M36.8875 50.9C37.0463 50.9 37.175 50.7713 37.175 50.6125C37.175 50.4538 37.0463 50.325 36.8875 50.325C36.7288 50.325 36.6 50.4538 36.6 50.6125C36.6 50.7713 36.7288 50.9 36.8875 50.9Z" fill="#21252B"/>
<path d="M37.0064 50.6008C37.0396 50.6008 37.0665 50.574 37.0665 50.541C37.0665 50.508 37.0396 50.4813 37.0064 50.4813C36.9732 50.4813 36.9463 50.508 36.9463 50.541C36.9463 50.574 36.9732 50.6008 37.0064 50.6008Z" fill="white"/>
<g opacity="0.15">
<path opacity="0.15" d="M35.8462 52.2875L35.4637 52.3238C35.4162 52.3238 35.38 52.2875 35.3675 52.2525C35.3675 52.205 35.4037 52.1688 35.4387 52.1563L35.8212 52.12C35.9175 52.1075 35.9887 52.0238 35.9762 51.9288C35.9637 51.8325 35.88 51.7613 35.785 51.7613C35.7375 51.7613 35.7012 51.725 35.6887 51.69C35.6887 51.6425 35.725 51.6063 35.76 51.5938C35.9512 51.5813 36.1187 51.725 36.1312 51.905C36.1812 52.1075 36.0375 52.275 35.8462 52.2875Z" fill="black"/>
</g>
<path opacity="0.15" d="M31.8562 52.3113H32.2625L31.8325 53.1713L31.8562 52.3113Z" fill="black"/>
<path opacity="0.15" d="M36.1438 54.3275C35.7375 54.5662 35.2713 54.6737 34.7813 54.6987C34.6738 54.6987 34.5663 54.6987 34.4588 54.6987C34.4225 54.6987 34.375 54.6987 34.3388 54.6862C34.3263 54.6862 34.3263 54.6862 34.315 54.6862C34.255 54.6737 34.195 54.6737 34.1238 54.6625C34.1 54.6625 34.0763 54.65 34.0525 54.65C33.6338 54.5787 33.3238 54.435 33.12 54.315C33.0838 54.2912 33.0363 54.3025 33.0125 54.3387C32.9888 54.375 33 54.4225 33.0363 54.4463C33.2988 54.6012 33.7063 54.7812 34.2563 54.8412C34.5438 55.0562 35.0338 55.32 35.655 55.32C35.8588 55.32 36.0613 55.2962 36.2525 55.2487L36.1438 54.3275Z" fill="black"/>
<path d="M36.0625 52.7413C36.0987 52.7413 36.1225 52.7775 36.11 52.8125C35.9662 53.0875 35.6913 53.2788 35.3688 53.2788C35.0463 53.2788 34.7712 53.0875 34.6275 52.8125C34.615 52.7763 34.6275 52.7413 34.675 52.7413H36.0625Z" fill="white"/>
<path d="M30.6938 56.385C30.6938 58.4325 34.5388 60.065 34.5388 60.065C34.5388 60.065 37.3888 58.4625 37.3888 56.415L36.755 56.1738L30.6938 56.385Z" fill="#F89999"/>
<path d="M36.9587 49.7638C36.6 49.8 36.2887 49.9913 36.0975 50.2663C35.775 50.1588 35.5 50.23 35.38 50.2788C35.165 49.92 34.7587 49.6925 34.3037 49.7288C33.67 49.7763 33.1912 50.3388 33.24 50.9725C33.2875 51.6062 33.85 52.085 34.4837 52.0362C35.1175 51.9887 35.5962 51.4262 35.5475 50.7925C35.535 50.6613 35.5 50.5413 35.4512 50.4213C35.5587 50.385 35.7862 50.3375 36.025 50.4088C35.9287 50.5875 35.8937 50.8038 35.905 51.0188C35.9525 51.6525 36.515 52.1312 37.1487 52.0825C37.7825 52.035 38.2612 51.4725 38.2125 50.8388C38.1637 50.205 37.6037 49.7288 36.9587 49.7638ZM34.4962 51.88C33.9462 51.9275 33.4675 51.5088 33.42 50.9588C33.3725 50.4088 33.7912 49.93 34.3412 49.8825C34.8912 49.835 35.37 50.2538 35.4175 50.8038C35.4525 51.3537 35.0337 51.845 34.4962 51.88ZM37.1375 51.9287C36.5875 51.9762 36.1087 51.5575 36.0612 51.0075C36.0137 50.4575 36.4325 49.9788 36.9825 49.9313C37.5325 49.8838 38.0112 50.3025 38.0587 50.8525C38.1062 51.4025 37.6875 51.88 37.1375 51.9287Z" fill="white"/>
<path d="M31.585 52.4237C31.585 52.4237 30.3138 52.39 30.1763 51.1225C30.0413 49.8437 31.6112 49.7762 31.6975 51.0575L31.7262 52.45L31.585 52.4237Z" fill="#F89999"/>
<path opacity="0.15" d="M30.6338 50.5038C30.7825 50.4225 30.9075 50.41 31.0225 50.4438C31.1375 50.4775 31.23 50.5688 31.3 50.715C31.37 50.8625 31.4088 51.04 31.3875 51.2188L31.375 51.35C31.3688 51.4463 31.195 51.4625 31.2063 51.3425C31.21 51.1975 31.21 51.1975 31.21 51.1975C31.2188 51.15 31.2138 50.9188 31.1425 50.7838C31.09 50.6763 31.0288 50.6163 30.96 50.5913C30.8913 50.5663 30.8025 50.5863 30.695 50.6388C30.655 50.655 30.6088 50.6463 30.58 50.605C30.5738 50.565 30.5938 50.52 30.6338 50.5038Z" fill="black"/>
<path d="M31.5304 51.9889C31.5561 51.8526 31.4666 51.7211 31.3303 51.6954C31.1939 51.6695 31.0625 51.7591 31.0366 51.8954C31.0108 52.0317 31.1004 52.1632 31.2368 52.189C31.373 52.2149 31.5045 52.1252 31.5304 51.9889Z" fill="#5292B8"/>
<path opacity="0.15" d="M31.3525 52.1725C31.1975 52.155 31.0887 52.025 31.105 51.87C31.1137 51.8225 31.1362 51.7663 31.1675 51.7363C31.1 51.7725 31.0487 51.8475 31.0337 51.93C31.0187 52.0738 31.1187 52.19 31.2612 52.205C31.3087 52.2138 31.3712 52.2013 31.4137 52.1725C31.39 52.1675 31.3662 52.1638 31.3525 52.1725Z" fill="black"/>
<path d="M37.885 48.3625L36.7338 46.7275L35.4175 47.5925C36.2688 47.5925 37.1725 47.7488 37.3413 48.865L37.3888 49.6375L37.885 48.3625Z" fill="#21252B"/>
<path opacity="0.15" d="M40.5687 73.1388L33.385 68.7063L31.0862 62.6163L34.15 68.3325L40.5037 72.13L40.5687 73.1388Z" fill="black"/>
<path opacity="0.15" d="M24.98 60.745L29.0362 70.41C29.5362 71.6437 30.5525 72.5962 31.815 73.0162L40.75 75.9125L40.795 76.6137L31.0025 73.8312C30.1287 73.5512 29.4337 72.8837 29.1175 72.0225L24.98 60.745Z" fill="black"/>
<path d="M45.9062 46.2687C46.2382 46.2687 46.5075 45.9995 46.5075 45.6675C46.5075 45.3354 46.2382 45.0663 45.9062 45.0663C45.5741 45.0663 45.305 45.3354 45.305 45.6675C45.305 45.9995 45.5741 46.2687 45.9062 46.2687Z" fill="#263238"/>
<path d="M49.1713 46.2687C49.5034 46.2687 49.7725 45.9995 49.7725 45.6675C49.7725 45.3354 49.5034 45.0663 49.1713 45.0663C48.8393 45.0663 48.57 45.3354 48.57 45.6675C48.57 45.9995 48.8393 46.2687 49.1713 46.2687Z" fill="#263238"/>
<path d="M52.4363 46.2687C52.7683 46.2687 53.0375 45.9995 53.0375 45.6675C53.0375 45.3354 52.7683 45.0663 52.4363 45.0663C52.1041 45.0663 51.835 45.3354 51.835 45.6675C51.835 45.9995 52.1041 46.2687 52.4363 46.2687Z" fill="#263238"/>
<path d="M130.63 85.0313L112.272 85.0325V73.63C112.272 73.2137 112.61 72.8763 113.026 72.8763L129.875 72.875C130.291 72.875 130.629 73.2125 130.629 73.6288L130.63 85.0313Z" fill="white"/>
<path d="M123.535 78.9537C123.535 80.105 122.602 81.0375 121.451 81.0375C120.3 81.0375 119.367 80.105 119.367 78.9537C119.367 77.8025 120.3 76.87 121.451 76.87C122.601 76.87 123.535 77.8025 123.535 78.9537Z" fill="#5292B8"/>
<path opacity="0.7" d="M123.535 78.9537C123.535 80.105 122.602 81.0375 121.451 81.0375C120.3 81.0375 119.367 80.105 119.367 78.9537C119.367 77.8025 120.3 76.87 121.451 76.87C122.601 76.87 123.535 77.8025 123.535 78.9537Z" fill="white"/>
<path d="M120.571 79.835V78.0725L122.774 78.9538L120.571 79.835Z" fill="white"/>
<path d="M130.634 83.8675H112.267V85.0388H130.634V83.8675Z" fill="#EBEBEB"/>
<path d="M129.425 84.28H113.64V84.6275H129.425V84.28Z" fill="#B1B5BA"/>
<path d="M113.213 84.0837H112.473V84.8238H113.213V84.0837Z" fill="#B1B5BA"/>
<path d="M112.787 84.215H112.646V84.6912H112.787V84.215Z" fill="#61656D"/>
<path d="M113.039 84.215H112.899V84.6912H113.039V84.215Z" fill="#61656D"/>
<path d="M130.46 84.0825H129.72V84.8225H130.46V84.0825Z" fill="#B1B5BA"/>
<path d="M129.977 84.3625H129.831V84.5425H129.977V84.3625Z" fill="#61656D"/>
<path d="M130.139 84.6575L129.92 84.5425V84.3625L130.139 84.2475V84.6575Z" fill="#61656D"/>
<path d="M130.246 84.3163C130.258 84.305 130.269 84.2938 130.279 84.2825C130.317 84.32 130.341 84.365 130.348 84.4188C130.359 84.4975 130.334 84.565 130.28 84.6225C130.269 84.6113 130.258 84.6 130.246 84.5888C130.283 84.5513 130.303 84.505 130.303 84.4525C130.303 84.4 130.283 84.3538 130.246 84.3163Z" fill="#61656D"/>
<path d="M130.213 84.5563C130.201 84.545 130.19 84.5338 130.179 84.5225C130.198 84.5038 130.208 84.48 130.208 84.4525C130.208 84.425 130.198 84.4025 130.179 84.3825C130.19 84.3713 130.201 84.36 130.211 84.3488C130.268 84.4025 130.273 84.4975 130.213 84.5563Z" fill="#61656D"/>
<path d="M117.209 84.4537C117.209 84.5162 117.223 84.575 117.249 84.6275H113.64V84.2787H117.251C117.224 84.3312 117.209 84.3912 117.209 84.4537Z" fill="#61656D"/>
<path d="M118.001 84.4538C118.001 84.5163 117.988 84.575 117.961 84.6275C117.896 84.76 117.76 84.85 117.604 84.85C117.448 84.85 117.311 84.76 117.248 84.6275C117.221 84.5763 117.208 84.5163 117.208 84.4538C117.208 84.3913 117.223 84.33 117.249 84.2788C117.313 84.1463 117.446 84.0563 117.604 84.0563C117.76 84.0563 117.894 84.1463 117.96 84.2788C117.986 84.3313 118.001 84.3913 118.001 84.4538Z" fill="#61656D"/>
<path d="M138.943 75.62H133.268C132.905 75.62 132.611 75.3262 132.611 74.9637C132.611 74.6012 132.905 74.3075 133.268 74.3075H138.943C139.305 74.3075 139.599 74.6012 139.599 74.9637C139.6 75.325 139.306 75.62 138.943 75.62Z" fill="white"/>
<path d="M145.933 79.7087H132.979C132.776 79.7087 132.611 79.5437 132.611 79.3413C132.611 79.1388 132.776 78.9738 132.979 78.9738H145.933C146.135 78.9738 146.3 79.1388 146.3 79.3413C146.3 79.5437 146.136 79.7087 145.933 79.7087Z" fill="white"/>
<path d="M145.933 81.7537H132.979C132.776 81.7537 132.611 81.5887 132.611 81.3862C132.611 81.1837 132.776 81.0187 132.979 81.0187H145.933C146.135 81.0187 146.3 81.1837 146.3 81.3862C146.3 81.5887 146.136 81.7537 145.933 81.7537Z" fill="white"/>
<path d="M145.933 83.7975H132.979C132.776 83.7975 132.611 83.6325 132.611 83.43C132.611 83.2275 132.776 83.0625 132.979 83.0625H145.933C146.135 83.0625 146.3 83.2275 146.3 83.43C146.3 83.6338 146.136 83.7975 145.933 83.7975Z" fill="white"/>
<path d="M130.63 101.896L112.272 101.897V90.495C112.272 90.0787 112.61 89.7412 113.026 89.7412L129.877 89.74C130.294 89.74 130.631 90.0775 130.631 90.4937L130.63 101.896Z" fill="white"/>
<path d="M123.535 95.8187C123.535 96.97 122.602 97.9025 121.451 97.9025C120.3 97.9025 119.367 96.97 119.367 95.8187C119.367 94.6675 120.3 93.735 121.451 93.735C122.601 93.7337 123.535 94.6675 123.535 95.8187Z" fill="#5292B8"/>
<path opacity="0.7" d="M123.535 95.8187C123.535 96.97 122.602 97.9025 121.451 97.9025C120.3 97.9025 119.367 96.97 119.367 95.8187C119.367 94.6675 120.3 93.735 121.451 93.735C122.601 93.7337 123.535 94.6675 123.535 95.8187Z" fill="white"/>
<path d="M120.571 96.7001V94.9376L122.774 95.8188L120.571 96.7001Z" fill="white"/>
<path d="M130.633 100.695H112.266V101.866H130.633V100.695Z" fill="#EBEBEB"/>
<path d="M129.424 101.107H113.639V101.455H129.424V101.107Z" fill="#B1B5BA"/>
<path d="M113.213 100.911H112.473V101.651H113.213V100.911Z" fill="#B1B5BA"/>
<path d="M112.787 101.043H112.646V101.519H112.787V101.043Z" fill="#61656D"/>
<path d="M113.039 101.043H112.899V101.519H113.039V101.043Z" fill="#61656D"/>
<path d="M130.46 100.91H129.72V101.65H130.46V100.91Z" fill="#B1B5BA"/>
<path d="M129.976 101.19H129.83V101.37H129.976V101.19Z" fill="#61656D"/>
<path d="M130.137 101.485L129.919 101.37V101.19L130.137 101.075V101.485Z" fill="#61656D"/>
<path d="M130.245 101.144C130.256 101.132 130.268 101.121 130.278 101.11C130.315 101.147 130.339 101.192 130.347 101.246C130.358 101.325 130.333 101.392 130.279 101.45C130.268 101.439 130.256 101.428 130.245 101.416C130.281 101.379 130.302 101.332 130.302 101.28C130.303 101.226 130.283 101.181 130.245 101.144Z" fill="#61656D"/>
<path d="M130.213 101.382C130.201 101.371 130.19 101.36 130.179 101.349C130.198 101.33 130.208 101.306 130.208 101.279C130.208 101.251 130.198 101.229 130.179 101.209C130.19 101.197 130.201 101.186 130.211 101.175C130.268 101.23 130.272 101.325 130.213 101.382Z" fill="#61656D"/>
<path d="M117.209 101.281C117.209 101.344 117.223 101.403 117.249 101.455H113.64V101.106H117.251C117.224 101.159 117.209 101.219 117.209 101.281Z" fill="#61656D"/>
<path d="M118.001 101.281C118.001 101.344 117.988 101.402 117.961 101.455C117.896 101.587 117.76 101.677 117.604 101.677C117.448 101.677 117.311 101.587 117.248 101.455C117.221 101.404 117.208 101.344 117.208 101.281C117.208 101.219 117.223 101.157 117.249 101.106C117.313 100.974 117.446 100.884 117.604 100.884C117.76 100.884 117.894 100.974 117.96 101.106C117.985 101.157 118.001 101.219 118.001 101.281Z" fill="#61656D"/>
<path d="M138.943 92.4837H133.268C132.905 92.4837 132.611 92.19 132.611 91.8275C132.611 91.465 132.905 91.1713 133.268 91.1713H138.943C139.305 91.1713 139.599 91.465 139.599 91.8275C139.6 92.19 139.306 92.4837 138.943 92.4837Z" fill="white"/>
<path d="M145.933 96.5724H132.979C132.776 96.5724 132.611 96.4074 132.611 96.205C132.611 96.0025 132.776 95.8375 132.979 95.8375H145.933C146.135 95.8375 146.3 96.0025 146.3 96.205C146.3 96.4087 146.136 96.5724 145.933 96.5724Z" fill="white"/>
<path d="M145.933 98.6175H132.979C132.776 98.6175 132.611 98.4525 132.611 98.25C132.611 98.0475 132.776 97.8824 132.979 97.8824H145.933C146.135 97.8824 146.3 98.0475 146.3 98.25C146.3 98.4525 146.136 98.6175 145.933 98.6175Z" fill="white"/>
<path d="M145.933 100.662H132.979C132.776 100.662 132.611 100.497 132.611 100.295C132.611 100.092 132.776 99.9275 132.979 99.9275H145.933C146.135 99.9275 146.3 100.092 146.3 100.295C146.3 100.497 146.136 100.662 145.933 100.662Z" fill="white"/>
<path d="M130.63 118.74L112.272 118.741V107.339C112.272 106.922 112.61 106.585 113.026 106.585L129.877 106.584C130.294 106.584 130.631 106.921 130.631 107.337L130.63 118.74Z" fill="white"/>
<path d="M123.535 112.662C123.535 113.814 122.602 114.746 121.451 114.746C120.3 114.746 119.367 113.814 119.367 112.662C119.367 111.511 120.3 110.579 121.451 110.579C122.601 110.579 123.535 111.511 123.535 112.662Z" fill="#5292B8"/>
<path opacity="0.7" d="M123.535 112.662C123.535 113.814 122.602 114.746 121.451 114.746C120.3 114.746 119.367 113.814 119.367 112.662C119.367 111.511 120.3 110.579 121.451 110.579C122.601 110.579 123.535 111.511 123.535 112.662Z" fill="white"/>
<path d="M120.571 113.544V111.783L122.774 112.663L120.571 113.544Z" fill="white"/>
<path d="M130.637 117.57H112.271V118.741H130.637V117.57Z" fill="#EBEBEB"/>
<path d="M129.429 117.982H113.644V118.33H129.429V117.982Z" fill="#B1B5BA"/>
<path d="M113.218 117.786H112.477V118.526H113.218V117.786Z" fill="#B1B5BA"/>
<path d="M112.792 117.917H112.651V118.394H112.792V117.917Z" fill="#61656D"/>
<path d="M113.044 117.917H112.904V118.394H113.044V117.917Z" fill="#61656D"/>
<path d="M130.465 117.785H129.725V118.525H130.465V117.785Z" fill="#B1B5BA"/>
<path d="M129.981 118.065H129.835V118.245H129.981V118.065Z" fill="#61656D"/>
<path d="M130.142 118.36L129.924 118.245V118.065L130.142 117.95V118.36Z" fill="#61656D"/>
<path d="M130.25 118.019C130.261 118.007 130.273 117.996 130.283 117.985C130.32 118.022 130.344 118.067 130.352 118.121C130.363 118.2 130.338 118.267 130.284 118.325C130.273 118.314 130.261 118.302 130.25 118.291C130.286 118.254 130.307 118.207 130.307 118.155C130.307 118.101 130.288 118.056 130.25 118.019Z" fill="#61656D"/>
<path d="M130.218 118.259C130.206 118.248 130.195 118.236 130.184 118.225C130.203 118.206 130.213 118.183 130.213 118.155C130.213 118.128 130.203 118.105 130.184 118.085C130.195 118.074 130.206 118.063 130.216 118.051C130.273 118.105 130.277 118.2 130.218 118.259Z" fill="#61656D"/>
<path d="M117.214 118.156C117.214 118.219 117.228 118.278 117.254 118.33H113.645V117.981H117.256C117.229 118.034 117.214 118.094 117.214 118.156Z" fill="#61656D"/>
<path d="M118.005 118.156C118.005 118.219 117.991 118.278 117.965 118.33C117.9 118.463 117.764 118.553 117.608 118.553C117.451 118.553 117.315 118.463 117.251 118.33C117.225 118.279 117.211 118.219 117.211 118.156C117.211 118.094 117.226 118.033 117.253 117.981C117.316 117.849 117.45 117.759 117.606 117.759C117.763 117.759 117.896 117.849 117.963 117.981C117.99 118.034 118.005 118.094 118.005 118.156Z" fill="#61656D"/>
<path d="M138.943 109.329H133.268C132.905 109.329 132.611 109.035 132.611 108.672C132.611 108.31 132.905 108.016 133.268 108.016H138.943C139.305 108.016 139.599 108.31 139.599 108.672C139.6 109.035 139.306 109.329 138.943 109.329Z" fill="white"/>
<path d="M145.933 113.417H132.979C132.776 113.417 132.611 113.252 132.611 113.05C132.611 112.847 132.776 112.682 132.979 112.682H145.933C146.135 112.682 146.3 112.847 146.3 113.05C146.3 113.254 146.136 113.417 145.933 113.417Z" fill="white"/>
<path d="M145.933 115.462H132.979C132.776 115.462 132.611 115.297 132.611 115.095C132.611 114.892 132.776 114.727 132.979 114.727H145.933C146.135 114.727 146.3 114.892 146.3 115.095C146.3 115.297 146.136 115.462 145.933 115.462Z" fill="white"/>
<path d="M145.933 117.507H132.979C132.776 117.507 132.611 117.343 132.611 117.14C132.611 116.938 132.776 116.773 132.979 116.773H145.933C146.135 116.773 146.3 116.938 146.3 117.14C146.3 117.343 146.136 117.507 145.933 117.507Z" fill="white"/>
<path d="M52.7437 63.9037H141.691C142.87 63.9037 143.826 62.9475 143.826 61.7687C143.826 60.59 142.87 59.6337 141.691 59.6337H52.7437C51.565 59.6337 50.6087 60.59 50.6087 61.7687C50.6087 62.9487 51.565 63.9037 52.7437 63.9037Z" fill="#B1B5BA"/>
<path d="M57.035 62.4875H147.174C148.397 62.4875 149.39 61.495 149.39 60.2712C149.39 59.0475 148.397 58.055 147.174 58.055H57.035C55.8112 58.055 54.8187 59.0475 54.8187 60.2712C54.8187 61.495 55.8112 62.4875 57.035 62.4875Z" fill="#5292B8"/>
<path opacity="0.7" d="M57.035 62.4875H147.174C148.397 62.4875 149.39 61.495 149.39 60.2712C149.39 59.0475 148.397 58.055 147.174 58.055H57.035C55.8112 58.055 54.8187 59.0475 54.8187 60.2712C54.8187 61.495 55.8112 62.4875 57.035 62.4875Z" fill="white"/>
<path d="M57.3475 60.9125C57.7569 60.9125 58.0888 60.5806 58.0888 60.1712C58.0888 59.7619 57.7569 59.43 57.3475 59.43C56.9381 59.43 56.6063 59.7619 56.6063 60.1712C56.6063 60.5806 56.9381 60.9125 57.3475 60.9125Z" fill="#5292B8"/>
<path d="M100.7 116.57L43.4475 113.262L45.9775 69.4925C46.0425 68.375 47 67.5212 48.1175 67.5862L101.324 70.6612C102.441 70.7262 103.295 71.6837 103.23 72.8012L100.7 116.57Z" fill="#5292B8"/>
<path opacity="0.7" d="M45.9763 69.5088L43.4475 113.263L100.7 116.571L103.229 72.8175C103.294 71.69 102.433 70.7238 101.306 70.6588L48.135 67.5863C47.0075 67.5213 46.0413 68.3825 45.9763 69.5088Z" fill="white"/>
<path d="M78.835 91.0687C78.67 93.9212 76.2237 96.1012 73.37 95.9362C70.5175 95.7712 68.3375 93.325 68.5025 90.4712C68.6675 87.6187 71.1137 85.4388 73.9675 85.6038C76.82 85.7688 79 88.215 78.835 91.0687Z" fill="#5292B8"/>
<path d="M71.3638 92.8275L71.6163 88.46L76.95 90.96L71.3638 92.8275Z" fill="white"/>
<path d="M43.674 109.14L43.436 113.272L100.684 116.569L100.922 112.437L43.674 109.14Z" fill="white"/>
<path d="M48.4363 110.875L48.3657 112.1L96.505 114.873L96.5756 113.648L48.4363 110.875Z" fill="#5292B8"/>
<path opacity="0.7" d="M48.4363 110.875L48.3657 112.1L96.505 114.873L96.5756 113.648L48.4363 110.875Z" fill="white"/>
<path opacity="0.7" d="M44.3605 109.938L44.2095 112.549L46.8212 112.7L46.9722 110.089L44.3605 109.938Z" fill="white"/>
<path d="M45.1037 112.136C44.9675 112.129 44.8625 112.011 44.8712 111.875L44.94 110.689C44.9475 110.553 45.065 110.448 45.2012 110.456C45.3375 110.464 45.4425 110.581 45.4337 110.718L45.365 111.904C45.3575 112.04 45.24 112.144 45.1037 112.136Z" fill="#5292B8"/>
<path d="M45.9962 112.188C45.86 112.18 45.755 112.063 45.7637 111.926L45.8325 110.74C45.84 110.604 45.9575 110.499 46.0937 110.508C46.23 110.515 46.335 110.633 46.3262 110.769L46.2575 111.955C46.25 112.091 46.1325 112.195 45.9962 112.188Z" fill="#5292B8"/>
<g opacity="0.3">
<path opacity="0.3" d="M45.1037 112.136C44.9675 112.129 44.8625 112.011 44.8712 111.875L44.94 110.689C44.9475 110.553 45.065 110.448 45.2012 110.456C45.3375 110.464 45.4425 110.581 45.4337 110.718L45.365 111.904C45.3575 112.04 45.24 112.144 45.1037 112.136Z" fill="black"/>
<path opacity="0.3" d="M45.9962 112.187C45.86 112.18 45.755 112.062 45.7637 111.926L45.8325 110.74C45.84 110.604 45.9575 110.499 46.0937 110.508C46.23 110.515 46.335 110.633 46.3262 110.769L46.2575 111.955C46.25 112.091 46.1325 112.195 45.9962 112.187Z" fill="black"/>
</g>
<path d="M97.661 113.013L97.5101 115.625L100.122 115.776L100.273 113.164L97.661 113.013Z" fill="#5292B8"/>
<path opacity="0.7" d="M97.661 113.013L97.5101 115.625L100.122 115.776L100.273 113.164L97.661 113.013Z" fill="white"/>
<path d="M97.995 114.026L97.9584 114.659L98.4688 114.689L98.5054 114.055L97.995 114.026Z" fill="#5292B8"/>
<path d="M99.03 115.128L98.2812 114.675L98.3187 114.042L99.1137 113.68L99.03 115.128Z" fill="#5292B8"/>
<path d="M99.48 113.944C99.5213 113.906 99.5625 113.87 99.6038 113.832C99.7275 113.974 99.8025 114.137 99.8163 114.325C99.8375 114.606 99.7388 114.84 99.5363 115.031C99.4988 114.989 99.4625 114.947 99.425 114.906C99.5625 114.78 99.6413 114.624 99.6525 114.436C99.6625 114.249 99.6013 114.085 99.48 113.944Z" fill="#5292B8"/>
<path d="M99.3125 114.783C99.2763 114.741 99.24 114.7 99.2025 114.659C99.2725 114.595 99.3138 114.515 99.3188 114.418C99.3238 114.321 99.2925 114.238 99.23 114.165C99.2713 114.127 99.3125 114.091 99.3538 114.055C99.5388 114.253 99.535 114.589 99.3125 114.783Z" fill="#5292B8"/>
<g opacity="0.3">
<g opacity="0.3">
<path opacity="0.3" d="M97.995 114.026L97.9584 114.659L98.4688 114.689L98.5054 114.055L97.995 114.026Z" fill="black"/>
<path opacity="0.3" d="M99.03 115.128L98.2812 114.675L98.3187 114.042L99.1138 113.68L99.03 115.128Z" fill="black"/>
</g>
<g opacity="0.3">
<g opacity="0.3">
<path opacity="0.3" d="M99.48 113.944C99.5213 113.906 99.5625 113.87 99.6038 113.832C99.7275 113.974 99.8025 114.137 99.8162 114.325C99.8375 114.606 99.7387 114.84 99.5363 115.031C99.4988 114.989 99.4625 114.947 99.425 114.906C99.5625 114.78 99.6412 114.624 99.6525 114.436C99.6625 114.249 99.6013 114.085 99.48 113.944Z" fill="black"/>
<path opacity="0.3" d="M99.3125 114.782C99.2763 114.741 99.24 114.7 99.2025 114.659C99.2725 114.595 99.3138 114.515 99.3188 114.417C99.3238 114.321 99.2925 114.237 99.23 114.165C99.2713 114.127 99.3125 114.091 99.3538 114.055C99.5388 114.252 99.535 114.589 99.3125 114.782Z" fill="black"/>
</g>
</g>
</g>
<path d="M61.0075 112.214C60.995 112.434 61.0313 112.646 61.1113 112.834L48.3725 112.098L48.4437 110.869L61.1875 111.605C61.0875 111.783 61.0213 111.994 61.0075 112.214Z" fill="#5292B8"/>
<path d="M63.805 112.375C63.7925 112.595 63.7325 112.801 63.63 112.979C63.3725 113.433 62.8762 113.721 62.3237 113.69C61.7712 113.658 61.3112 113.314 61.1125 112.834C61.0312 112.646 60.995 112.434 61.0087 112.214C61.0212 111.994 61.0875 111.783 61.1887 111.605C61.4412 111.151 61.9325 110.861 62.485 110.894C63.0375 110.926 63.4925 111.27 63.6962 111.75C63.7762 111.938 63.8175 112.155 63.805 112.375Z" fill="#5292B8"/>
<g opacity="0.3">
<path opacity="0.3" d="M61.0075 112.214C60.995 112.434 61.0313 112.646 61.1113 112.834L48.3725 112.098L48.4437 110.869L61.1875 111.605C61.0875 111.783 61.0213 111.994 61.0075 112.214Z" fill="black"/>
<path opacity="0.3" d="M63.805 112.375C63.7925 112.595 63.7325 112.801 63.63 112.979C63.3725 113.433 62.8762 113.721 62.3237 113.69C61.7712 113.658 61.3112 113.314 61.1125 112.834C61.0312 112.646 60.995 112.434 61.0087 112.214C61.0212 111.994 61.0875 111.783 61.1887 111.605C61.4412 111.151 61.9325 110.861 62.485 110.894C63.0375 110.926 63.4925 111.27 63.6963 111.75C63.7763 111.938 63.8175 112.155 63.805 112.375Z" fill="black"/>
</g>
<path d="M53.4437 67.5563C53.4437 67.5563 55.19 68.1213 55.3 68.1938C55.41 68.2663 56.4762 69.7888 56.4762 69.7888C56.4762 69.7888 56.4762 69.7888 56.145 69.875C55.8137 69.9613 54.74 68.7963 54.7125 68.7313C54.685 68.6663 53.415 68.4125 53.2562 68.3838C53.0962 68.355 52.1975 68.5763 52.08 68.8638C51.9612 69.1525 52.8612 69.6788 53.1212 69.7863C53.4437 69.9188 53.27 70.4038 53.27 70.4038C52.9312 70.4275 51.9987 70.0888 51.6062 69.8513C51.2137 69.6138 50.2887 69.0438 49.965 69.01C49.6412 68.975 46.4975 69.2488 46.4975 69.2488L39.0187 69.5813C37.7762 69.6363 36.8837 68.4013 37.3275 67.2388L39.77 60.83L41.4775 59.15L42.6575 66.6113C42.6575 66.6113 53.2037 66.9263 53.3675 66.9463C53.5312 66.9663 56.9187 67.9938 56.9725 68.0825C57.0262 68.1713 56.49 68.6263 55.4337 68.3463L55.3 68.1913L53.4437 67.5563Z" fill="#F89999"/>
<path d="M54.5762 67.2963L56.255 67.1575C56.255 67.1575 56.2475 67.54 55.885 67.7025L54.5762 67.2963Z" fill="#F89999"/>
<path d="M53.7625 67.055C53.7625 67.055 55.1213 66.845 55.2 66.8513C55.3063 66.8613 55.5013 67.095 55.2538 67.24L54.575 67.2963L53.7625 67.055Z" fill="#F89999"/>
<path opacity="0.15" d="M55.43 68.3463C55.3425 68.2488 55.24 68.175 55.1162 68.1288L53.8212 67.635L55.1737 68.03C55.3062 68.0688 55.4187 68.1588 55.485 68.28L55.5387 68.3775L55.43 68.3463Z" fill="black"/>
<path opacity="0.15" d="M54.0025 67.205L56.19 67.965C56.19 67.965 56.2675 67.925 56.2988 67.8863L54.0025 67.205Z" fill="black"/>
<path opacity="0.15" d="M55.6113 67.3838L54.7275 67.42L54.8038 67.4425L55.5925 67.4588C55.5925 67.46 55.6 67.4513 55.6113 67.3838Z" fill="black"/>
<path d="M47.8787 66.7663L42.9362 66.5238L41.4775 59.15L39.77 60.83L37.3275 67.2388C36.885 68.4013 37.7762 69.6363 39.0187 69.5813C39.0187 69.5813 46.465 69.2875 47.3425 69.1788L47.8787 66.7663Z" fill="#5292B8"/>
<path opacity="0.6" d="M47.8788 66.7663L47.3425 69.1788L46.8875 69.2188L47.3825 66.7413L47.8788 66.7663Z" fill="black"/>
<path d="M134.942 56.7613L133.144 57.2425L131.917 57.9925L132.744 57.9913L133.717 57.9925H136.301C136.365 58.0325 136.415 58.0813 136.451 58.1363C136.902 58.8475 135.201 58.905 135.152 59.2838C135.152 59.2875 135.151 59.2913 135.151 59.295C135.127 59.5463 135.346 59.7538 135.597 59.7338C136.152 59.69 137.601 59.6988 138.726 58.0563L138.602 56.27C138.602 56.27 134.975 56.295 134.756 56.3388C134.639 56.3625 133.096 56.9138 133.096 56.9138C133.096 56.9138 131.6 57.975 131.571 57.9913L133.247 57.99" fill="#F79898"/>
<path opacity="0.2" d="M132.235 57.9675L133.431 57.2425L135.197 56.93" stroke="black" stroke-miterlimit="10" stroke-linecap="round" stroke-linejoin="round"/>
<path opacity="0.15" d="M41.495 59.2987C41.495 59.2987 41.6362 59.715 41.2587 62.18L41.855 64.2175C42.1187 65.12 41.9162 66.095 41.315 66.8175L40.5675 67.7162C40.5675 67.7162 40.305 67.9937 40.2675 68.5225C40.23 69.0512 40.3325 69.5287 40.3325 69.5287L41.5075 69.4712L46.8862 69.2187L47.02 68.5525L42.38 68.5937C42.2212 68.075 42.935 66.5237 42.935 66.5237L41.495 59.2987Z" fill="black"/>
<path opacity="0.15" d="M52.7475 70.3C52.0512 69.995 50.6212 68.7587 50.2525 68.68C49.8837 68.6012 47.4813 68.5537 47.4813 68.5537L47.3425 69.1787C47.3425 69.1787 49.7975 68.9662 49.965 69.01C50.1325 69.0537 50.7387 69.3062 51.455 69.76C52.1712 70.2137 52.7475 70.3 52.7475 70.3Z" fill="black"/>
<path d="M37.325 74.7913L42.345 76.4375C42.345 76.4375 44.8138 77.955 45.155 78.0363C45.495 78.1175 48.4375 78.7613 48.5225 78.7238C48.6075 78.6863 48.5075 78.23 48.1863 78.1213C47.9688 78.0475 47.3413 77.8838 47.3413 77.8838L47.1638 77.9225L45.5963 77.66C45.5963 77.66 46.9338 77.9363 47.18 77.9213C47.4263 77.9063 48.9088 77.2613 48.9088 77.2613C48.9088 77.2613 48.8475 76.9988 48.5525 76.9375C48.2575 76.8763 47.2713 77.1913 46.6875 77.1913C46.1038 77.1913 45.1663 76.4375 45.1275 76.0688C45.0888 75.7 46.0638 75.7263 46.0638 75.7263C46.8588 75.7475 47.365 75.4138 46.48 75.1338C45.595 74.8538 44.0925 75.0525 43.7438 74.9575C43.3938 74.8625 43.1 74.6625 43.1 74.6625L38.95 72.1638L37.3425 74.7688" fill="#F89999"/>
<path d="M46.2213 78.2725L47.85 79.195C47.9275 78.7713 47.7938 78.6025 47.7938 78.6025L46.2213 78.2725Z" fill="#F89999"/>
<path d="M47.02 78.7249C46.94 79.1812 46.4325 78.8924 46.3488 78.7749C46.265 78.6575 45.5275 78.1212 45.5275 78.1212H46.6788L47.02 78.7249Z" fill="#F89999"/>
<path d="M34.6525 55.7837C35.3498 55.7837 35.915 55.2185 35.915 54.5212C35.915 53.824 35.3498 53.2587 34.6525 53.2587C33.9553 53.2587 33.39 53.824 33.39 54.5212C33.39 55.2185 33.9553 55.7837 34.6525 55.7837Z" fill="#21252B"/>
<path d="M40.675 53.3011C40.97 53.0486 41.1825 52.6936 41.25 52.2749C41.3887 51.4111 40.825 50.5586 39.975 50.3486C39.0287 50.1149 38.0875 50.7149 37.8925 51.6611C37.7712 52.2461 37.9662 52.8224 38.36 53.2149C38.1662 53.3399 38.0062 53.5136 37.8975 53.7236C37.6087 53.3336 37.1575 53.0624 36.6137 53.0324C35.8525 52.9899 35.1425 53.4774 34.9062 54.2024C34.585 55.1886 35.195 56.2074 36.1825 56.4111C36.8087 56.5399 37.4237 56.3086 37.815 55.8586C38.025 55.6161 38.3625 55.5099 38.6675 55.6086C38.795 55.6499 38.9325 55.6736 39.0775 55.6761C39.6262 55.6836 40.135 55.3361 40.33 54.8224C40.425 54.5724 40.4412 54.3174 40.395 54.0811C40.3375 53.7886 40.4487 53.4949 40.675 53.3011Z" fill="#21252B"/>
<path d="M40.1875 50.4175C39.5038 50.0487 38.905 49.6825 38.9575 48.98C38.9713 48.7962 39.025 48.4837 39.025 48.4837L38.0688 47.7037L36.0438 47.4512L35.7288 52.9987L38.0863 54.1775L40.1875 50.4175Z" fill="#21252B"/>
<path d="M31.9375 51.1449L31.7825 55.5049C31.7675 55.8561 31.5225 56.1574 31.1837 56.2511L30.6862 56.3886L31.82 57.0911C32.9512 57.8061 34.3475 57.9349 35.5762 57.4736C35.8 57.3899 36.0187 57.2849 36.23 57.1611L37.4712 56.4311L36.915 56.2699C36.6013 56.1824 36.3725 55.9024 36.3387 55.5874L35.81 50.3986L31.9375 51.1449Z" fill="#F59696"/>
<path d="M34.9988 54.7125L34.7925 54.7225C33.3025 54.7712 32.0638 53.6112 32.0138 52.1325L31.885 48.3637C31.865 47.8675 32.255 47.4575 32.7525 47.4375L36.2788 47.3075C36.9213 47.2887 37.4625 47.7887 37.4813 48.4312L37.6 51.9337C37.6375 53.4125 36.4775 54.6625 34.9988 54.7125Z" fill="#F59696"/>
<path d="M34.7413 50.8813C34.9021 50.8813 35.0325 50.7508 35.0325 50.59C35.0325 50.4291 34.9021 50.2988 34.7413 50.2988C34.5804 50.2988 34.45 50.4291 34.45 50.59C34.45 50.7508 34.5804 50.8813 34.7413 50.8813Z" fill="#21252B"/>
<path d="M34.8614 50.5908C34.8946 50.5908 34.9215 50.564 34.9215 50.531C34.9215 50.4979 34.8946 50.4713 34.8614 50.4713C34.8282 50.4713 34.8012 50.4979 34.8012 50.531C34.8012 50.564 34.8282 50.5908 34.8614 50.5908Z" fill="white"/>
<path d="M37.0062 50.9C37.1671 50.9 37.2975 50.7695 37.2975 50.6087C37.2975 50.4479 37.1671 50.3175 37.0062 50.3175C36.8454 50.3175 36.715 50.4479 36.715 50.6087C36.715 50.7695 36.8454 50.9 37.0062 50.9Z" fill="#21252B"/>
<path d="M37.1276 50.5969C37.1608 50.5969 37.1878 50.5701 37.1878 50.5371C37.1878 50.5041 37.1608 50.4774 37.1276 50.4774C37.0944 50.4774 37.0675 50.5041 37.0675 50.5371C37.0675 50.5701 37.0944 50.5969 37.1276 50.5969Z" fill="white"/>
<g opacity="0.15">
<path opacity="0.15" d="M35.9388 52.2963L35.5513 52.33C35.5025 52.33 35.4663 52.2925 35.455 52.2563C35.455 52.2075 35.4925 52.1713 35.5288 52.16L35.9163 52.1263C36.0138 52.115 36.0863 52.0313 36.075 51.9338C36.0638 51.8363 35.98 51.7638 35.8825 51.7625C35.8338 51.7625 35.7975 51.725 35.7863 51.6888C35.7863 51.64 35.8238 51.6038 35.86 51.5925C36.0538 51.5825 36.2225 51.7288 36.2325 51.91C36.2788 52.1175 36.1325 52.2863 35.9388 52.2963Z" fill="black"/>
</g>
<path opacity="0.15" d="M36.2225 54.3661C35.8087 54.6049 35.335 54.7111 34.8387 54.7311C34.73 54.7299 34.6212 54.7299 34.5112 54.7286C34.475 54.7286 34.4262 54.7274 34.39 54.7161C34.3775 54.7161 34.3775 54.7161 34.3662 54.7161C34.3062 54.7036 34.245 54.7036 34.1725 54.6899C34.1487 54.6899 34.1237 54.6774 34.1 54.6774C33.6762 54.6011 33.3625 54.4536 33.1575 54.3311C33.1212 54.3061 33.0725 54.3186 33.0487 54.3549C33.0237 54.3911 33.0362 54.4399 33.0725 54.4636C33.3375 54.6236 33.7487 54.8086 34.305 54.8724C34.5937 55.0924 35.0887 55.3636 35.7187 55.3674C35.925 55.3686 36.1312 55.3461 36.325 55.2999L36.2225 54.3661Z" fill="black"/>
<path d="M36.1525 52.7588C36.1887 52.7588 36.2125 52.795 36.2 52.8313C36.0525 53.1088 35.7725 53.3 35.445 53.2975C35.1175 53.295 34.8412 53.0988 34.6975 52.8188C34.6862 52.7825 34.6975 52.7463 34.7462 52.7463L36.1525 52.7588Z" fill="white"/>
<path d="M30.685 56.3888C30.6687 58.4625 34.5 60.1913 34.5 60.1913C34.5 60.1913 37.4537 58.5088 37.47 56.4338L36.8287 56.2413L30.685 56.3888Z" fill="#F59696"/>
<path d="M37.085 49.7487C36.7212 49.7825 36.405 49.9737 36.2087 50.2512C35.8825 50.14 35.6037 50.21 35.4812 50.2575C35.2662 49.8925 34.8562 49.6587 34.395 49.6912C33.7525 49.735 33.2637 50.3 33.3075 50.9425C33.3512 51.585 33.9162 52.0737 34.5587 52.03C35.2012 51.9862 35.69 51.4212 35.6462 50.7787C35.635 50.645 35.6 50.5237 35.5525 50.4025C35.6612 50.3675 35.8925 50.32 36.1337 50.395C36.035 50.5762 35.9975 50.7937 36.0075 51.0112C36.0512 51.6537 36.6162 52.1425 37.2587 52.0987C37.9012 52.055 38.39 51.49 38.3462 50.8475C38.305 50.2075 37.7387 49.7175 37.085 49.7487ZM34.5725 51.8737C34.015 51.9175 33.5337 51.49 33.49 50.9325C33.4462 50.375 33.8737 49.8937 34.4312 49.85C34.9887 49.8062 35.47 50.2337 35.5137 50.7912C35.5462 51.3487 35.1187 51.8425 34.5725 51.8737ZM37.25 51.9437C36.6925 51.9875 36.2112 51.56 36.1675 51.0025C36.1237 50.445 36.5512 49.9637 37.1087 49.92C37.6662 49.8762 38.1475 50.3037 38.1912 50.8612C38.235 51.4175 37.8075 51.8987 37.25 51.9437Z" fill="white"/>
<path d="M31.9413 58.5538L36.675 58.3513C36.675 58.3513 36.4113 58.7388 35.745 59.3088C35.1913 59.7825 34.4988 60.1913 34.4988 60.1913C34.4988 60.1913 33.8238 59.885 33.0813 59.405C32.3613 58.94 31.9413 58.5538 31.9413 58.5538Z" fill="#21252B"/>
<path d="M39.0213 48.5C39.1825 47.445 38.7375 46.605 37.7425 46.5525C37.485 46.5388 37.2175 46.625 37.0338 46.64C36.6163 46.6713 36.215 46.49 35.9512 46.165C35.505 45.6138 34.8087 44.9663 33.9562 44.9888C32.96 45.015 32.2862 45.9688 32.3275 46.62C30.0412 46.37 29.3012 47.95 29.19 48.5688C29.1625 48.7188 29.055 48.8375 28.9075 48.875C28.3975 49.0063 28.0075 49.4525 27.9725 50.0063C27.9475 50.4088 28.1175 50.7775 28.4 51.0238C28.6575 51.275 28.905 51.5525 28.88 51.9413C28.87 52.0975 28.8387 52.215 28.745 52.4063C28.6512 52.5675 28.4887 52.8713 28.4612 53.0688C28.0687 55.895 31.34 55.98 31.7475 55.9875C33.165 56.015 33.585 55.0025 33.5162 54.4513C33.4612 54.0063 33.0662 53.6625 32.7062 53.4088C32.4637 53.2375 32.2775 52.9913 32.2087 52.7025C32.1812 52.5875 32.17 52.4675 32.1787 52.3438C32.1875 52.1938 32.2237 52.0513 32.2812 51.9213C32.3175 51.84 32.1825 51.75 32.2337 51.6788L32.14 51.6725C32.3125 51.4613 31.955 51.32 31.9737 51.0275C32 50.5963 32.0212 50.2325 32.0325 50.0513C32.0325 50.0513 33.2387 49.9038 33.4462 48.0125C33.6037 48.0688 33.77 48.1063 33.945 48.1163C34.5575 48.1538 35.1175 47.8813 35.4725 47.4325V47.4338L35.4887 47.43C35.545 48.3238 36.2588 49.0575 37.1763 49.115C37.7875 49.1525 38.2188 48.8663 38.475 48.41L39.0213 48.5Z" fill="#21252B"/>
<path d="M32.235 52.3675C32.235 52.3675 30.9475 52.4237 30.7188 51.1525C30.4913 49.87 32.0738 49.6887 32.2513 50.9787L32.3788 52.3837L32.235 52.3675Z" fill="#F59696"/>
<path opacity="0.15" d="M31.1375 50.495C31.2825 50.4025 31.4075 50.38 31.5263 50.4062C31.645 50.4325 31.745 50.5175 31.8262 50.6612C31.9075 50.805 31.96 50.9812 31.95 51.1637L31.9463 51.2975C31.9475 51.395 31.7725 51.4237 31.775 51.3012C31.7675 51.1537 31.7675 51.1537 31.7675 51.1537C31.7737 51.1062 31.7512 50.8712 31.67 50.74C31.6088 50.635 31.5425 50.5787 31.4713 50.5587C31.4 50.5387 31.3125 50.565 31.2075 50.625C31.1688 50.645 31.12 50.6387 31.0888 50.5987C31.08 50.5612 31.0975 50.515 31.1375 50.495Z" fill="black"/>
<path d="M31.9 52.1587C32.0409 52.1587 32.155 52.0446 32.155 51.9037C32.155 51.7629 32.0409 51.6487 31.9 51.6487C31.7591 51.6487 31.645 51.7629 31.645 51.9037C31.645 52.0446 31.7591 52.1587 31.9 52.1587Z" fill="#5292B8"/>
<path opacity="0.15" d="M31.9825 52.1312C31.825 52.125 31.705 52.0012 31.7112 51.8437C31.7175 51.795 31.7362 51.7375 31.7637 51.7037C31.6975 51.745 31.6525 51.825 31.6425 51.9087C31.6375 52.055 31.7462 52.165 31.8925 52.17C31.9412 52.1762 32.0037 52.1587 32.0437 52.1262C32.02 52.1225 31.995 52.12 31.9825 52.1312Z" fill="black"/>
</svg>
