<svg width="280" height="210" viewBox="0 0 280 210" fill="none" xmlns="http://www.w3.org/2000/svg">
<path d="M84.665 110.537C89.0143 110.537 92.54 107.011 92.54 102.662C92.54 98.3128 89.0143 94.7871 84.665 94.7871C80.3157 94.7871 76.79 98.3128 76.79 102.662C76.79 107.011 80.3157 110.537 84.665 110.537Z" fill="white"/>
<path d="M81.0898 100.422C81.0898 100.165 81.1661 99.9133 81.3089 99.6994C81.4518 99.4856 81.6548 99.319 81.8925 99.2206C82.13 99.1221 82.3914 99.0964 82.6438 99.1466C82.8959 99.1968 83.1276 99.3206 83.3095 99.5024C83.4913 99.6842 83.6152 99.9159 83.6652 100.168C83.7155 100.42 83.6897 100.682 83.5914 100.919C83.4929 101.157 83.3263 101.36 83.1124 101.503C82.8986 101.646 82.6473 101.722 82.39 101.722C82.0453 101.722 81.7145 101.585 81.4706 101.341C81.2268 101.098 81.0898 100.767 81.0898 100.422Z" fill="#5292B8"/>
<path d="M81.83 105.247L86.6338 99.122C86.6488 99.1027 86.6675 99.0866 86.6887 99.0747C86.7099 99.0626 86.7333 99.0549 86.7577 99.0521C86.7818 99.0492 86.8063 99.0511 86.8299 99.0576C86.8534 99.0642 86.8753 99.0752 86.8945 99.0905L87.6278 99.6592C87.6663 99.69 87.6911 99.735 87.6971 99.784C87.703 99.833 87.6894 99.8825 87.6593 99.9217L82.8555 106.047C82.8251 106.085 82.7808 106.11 82.732 106.117C82.6831 106.123 82.6338 106.11 82.5948 106.08L81.8633 105.509C81.8437 105.494 81.8272 105.476 81.815 105.455C81.8026 105.433 81.7947 105.41 81.7915 105.385C81.7886 105.361 81.7903 105.336 81.797 105.312C81.8034 105.288 81.8148 105.266 81.83 105.247Z" fill="#5292B8"/>
<path d="M86.94 106.27C86.6828 106.27 86.4313 106.194 86.2175 106.051C86.0036 105.908 85.837 105.705 85.7387 105.467C85.6403 105.23 85.6146 104.968 85.665 104.716C85.7152 104.464 85.8393 104.232 86.0213 104.05C86.2033 103.868 86.4352 103.745 86.6875 103.695C86.9399 103.645 87.2013 103.671 87.4388 103.769C87.6764 103.868 87.8794 104.035 88.0221 104.249C88.1647 104.463 88.2406 104.715 88.2403 104.972C88.2398 105.316 88.1026 105.647 87.8588 105.89C87.615 106.134 87.2846 106.27 86.94 106.27Z" fill="#5292B8"/>
<g opacity="0.4">
<path opacity="0.4" d="M81.0898 100.422C81.0898 100.165 81.1661 99.9133 81.3089 99.6994C81.4518 99.4856 81.6548 99.319 81.8925 99.2206C82.13 99.1221 82.3914 99.0964 82.6438 99.1466C82.8959 99.1968 83.1276 99.3206 83.3095 99.5024C83.4913 99.6842 83.6152 99.9159 83.6652 100.168C83.7155 100.42 83.6897 100.682 83.5914 100.919C83.4929 101.157 83.3263 101.36 83.1124 101.503C82.8986 101.646 82.6473 101.722 82.39 101.722C82.0453 101.722 81.7145 101.585 81.4706 101.341C81.2268 101.098 81.0898 100.767 81.0898 100.422Z" fill="white"/>
<path opacity="0.4" d="M81.83 105.247L86.6338 99.122C86.6488 99.1027 86.6675 99.0866 86.6887 99.0747C86.7099 99.0626 86.7333 99.0549 86.7577 99.0521C86.7818 99.0492 86.8063 99.0511 86.8299 99.0576C86.8534 99.0642 86.8753 99.0752 86.8945 99.0905L87.6278 99.6592C87.6663 99.69 87.6911 99.735 87.6971 99.784C87.703 99.833 87.6894 99.8825 87.6593 99.9217L82.8555 106.047C82.8251 106.085 82.7808 106.11 82.732 106.117C82.6831 106.123 82.6338 106.11 82.5948 106.08L81.8633 105.509C81.8437 105.494 81.8272 105.476 81.815 105.455C81.8026 105.433 81.7947 105.41 81.7915 105.385C81.7886 105.361 81.7903 105.336 81.797 105.312C81.8034 105.288 81.8148 105.266 81.83 105.247Z" fill="white"/>
<path opacity="0.4" d="M86.94 106.27C86.6828 106.27 86.4313 106.194 86.2175 106.051C86.0036 105.908 85.837 105.705 85.7387 105.467C85.6403 105.23 85.6146 104.968 85.665 104.716C85.7152 104.464 85.8393 104.232 86.0213 104.05C86.2033 103.868 86.4352 103.745 86.6875 103.695C86.9399 103.645 87.2013 103.671 87.4388 103.769C87.6764 103.868 87.8794 104.035 88.0221 104.249C88.1647 104.463 88.2406 104.715 88.2403 104.972C88.2398 105.316 88.1026 105.647 87.8588 105.89C87.615 106.134 87.2846 106.27 86.94 106.27Z" fill="white"/>
</g>
<path d="M77.721 78.3442C82.0703 78.3442 85.596 74.8185 85.596 70.4692C85.596 66.12 82.0703 62.5942 77.721 62.5942C73.3717 62.5942 69.846 66.12 69.846 70.4692C69.846 74.8185 73.3717 78.3442 77.721 78.3442Z" fill="white"/>
<path d="M81.949 67.7776C81.9325 67.7562 81.9112 67.7389 81.887 67.7272C81.8627 67.7153 81.8359 67.7092 81.809 67.7093H75.0593L74.8738 66.7853C74.8659 66.7449 74.844 66.7085 74.812 66.6826C74.78 66.6567 74.7399 66.6429 74.6988 66.6436H73.633C73.5867 66.6436 73.542 66.6621 73.5093 66.6949C73.4764 66.7278 73.458 66.7722 73.458 66.8186C73.458 66.8651 73.4764 66.9096 73.5093 66.9425C73.542 66.9752 73.5867 66.9936 73.633 66.9936H74.55L75.425 71.3248C75.4821 71.6075 75.6354 71.8616 75.8587 72.0437C76.0821 72.2259 76.3618 72.325 76.65 72.3241H80.7503C80.7966 72.3241 80.8411 72.3057 80.874 72.273C80.9067 72.2401 80.9252 72.1956 80.9252 72.1491C80.9252 72.1027 80.9067 72.0583 80.874 72.0254C80.8411 71.9926 80.7966 71.9741 80.7503 71.9741H76.65C76.5084 71.9741 76.3691 71.9403 76.2433 71.8756C76.1177 71.8106 76.0092 71.7167 75.9273 71.6013L81.13 70.9013C81.1654 70.897 81.1986 70.8819 81.2252 70.8581C81.2518 70.8345 81.2704 70.8032 81.2788 70.7683L81.9892 67.9246C81.994 67.8987 81.9929 67.8721 81.9859 67.8465C81.9789 67.8212 81.9663 67.7975 81.949 67.7776Z" fill="#5292B8"/>
<path d="M80.1759 74.4464C80.6605 74.3678 80.9896 73.911 80.9111 73.4265C80.8323 72.9417 80.3757 72.6127 79.891 72.6913C79.4064 72.77 79.0772 73.2266 79.156 73.7114C79.2346 74.1959 79.6913 74.5251 80.1759 74.4464Z" fill="#5292B8"/>
<path d="M76.4768 74.4626C76.9676 74.4626 77.3657 74.0644 77.3657 73.5736C77.3657 73.0825 76.9676 72.6846 76.4768 72.6846C75.9857 72.6846 75.5878 73.0825 75.5878 73.5736C75.5878 74.0644 75.9857 74.4626 76.4768 74.4626Z" fill="#5292B8"/>
<g opacity="0.4">
<path opacity="0.4" d="M81.949 67.7776C81.9325 67.7562 81.9112 67.7389 81.887 67.7272C81.8627 67.7153 81.8359 67.7092 81.809 67.7093H75.0593L74.8738 66.7853C74.8659 66.7449 74.844 66.7085 74.812 66.6826C74.78 66.6567 74.7399 66.6429 74.6988 66.6436H73.633C73.5867 66.6436 73.542 66.6621 73.5093 66.6949C73.4764 66.7278 73.458 66.7722 73.458 66.8186C73.458 66.8651 73.4764 66.9096 73.5093 66.9425C73.542 66.9752 73.5867 66.9936 73.633 66.9936H74.55L75.425 71.3248C75.4821 71.6075 75.6354 71.8616 75.8587 72.0437C76.0821 72.2259 76.3618 72.325 76.65 72.3241H80.7503C80.7966 72.3241 80.8411 72.3057 80.874 72.273C80.9067 72.2401 80.9252 72.1956 80.9252 72.1491C80.9252 72.1027 80.9067 72.0583 80.874 72.0254C80.8411 71.9926 80.7966 71.9741 80.7503 71.9741H76.65C76.5084 71.9741 76.3691 71.9403 76.2433 71.8756C76.1177 71.8106 76.0092 71.7167 75.9273 71.6013L81.13 70.9013C81.1654 70.897 81.1986 70.8819 81.2252 70.8581C81.2518 70.8345 81.2704 70.8032 81.2788 70.7683L81.9892 67.9246C81.994 67.8987 81.9929 67.8721 81.9859 67.8465C81.9789 67.8212 81.9663 67.7975 81.949 67.7776Z" fill="white"/>
<path opacity="0.4" d="M80.1757 74.4464C80.6605 74.3678 80.9895 73.911 80.9109 73.4265C80.8321 72.9417 80.3756 72.6127 79.8908 72.6913C79.4063 72.77 79.0771 73.2266 79.1558 73.7114C79.2344 74.1959 79.6912 74.5251 80.1757 74.4464Z" fill="white"/>
<path opacity="0.4" d="M76.4768 74.4626C76.9676 74.4626 77.3657 74.0644 77.3657 73.5736C77.3657 73.0825 76.9676 72.6846 76.4768 72.6846C75.9857 72.6846 75.5878 73.0825 75.5878 73.5736C75.5878 74.0644 75.9857 74.4626 76.4768 74.4626Z" fill="white"/>
</g>
<path d="M231.478 185.15H47.6385C47.6025 185.15 47.5676 185.136 47.5421 185.11C47.5165 185.083 47.502 185.05 47.502 185.013C47.502 184.977 47.5165 184.942 47.5421 184.917C47.5676 184.891 47.6025 184.877 47.6385 184.877H231.478C231.514 184.877 231.549 184.891 231.574 184.917C231.6 184.942 231.614 184.977 231.614 185.013C231.614 185.05 231.6 185.083 231.574 185.11C231.549 185.136 231.514 185.15 231.478 185.15Z" fill="#B2B6BB"/>
<path d="M120.521 54.376C124.87 54.376 128.396 50.8502 128.396 46.501C128.396 42.1517 124.87 38.626 120.521 38.626C116.172 38.626 112.646 42.1517 112.646 46.501C112.646 50.8502 116.172 54.376 120.521 54.376Z" fill="white"/>
<path d="M118.288 45.3249H119.051L120.561 43.0657L120.685 41.8022C120.689 41.7567 120.704 41.7129 120.729 41.6743C120.753 41.6358 120.786 41.6037 120.826 41.5806C120.865 41.5575 120.909 41.5441 120.955 41.5414C121.001 41.539 121.046 41.5474 121.088 41.5659C121.418 41.7217 121.754 42.1609 121.756 43.4034C121.756 44.8034 121.769 44.8892 121.769 44.8892L124.119 44.9084C124.257 44.9119 124.388 44.9683 124.486 45.0661C124.584 45.1638 124.64 45.2952 124.644 45.4334C124.661 46.3189 124.698 48.1197 124.717 49.1084C124.734 49.4337 124.641 49.7552 124.454 50.0217C124.266 50.2881 123.995 50.4841 123.683 50.5784C123.595 50.6017 123.504 50.6141 123.413 50.6152C122.789 50.6152 119.598 50.1077 119.598 50.1077H118.279L118.288 45.3249Z" fill="#5292B8"/>
<path d="M116.088 45.3232L116.574 50.1935H117.88V45.3232H116.088Z" fill="#5292B8"/>
<g opacity="0.4">
<path opacity="0.4" d="M118.288 45.3249H119.051L120.561 43.0657L120.685 41.8022C120.689 41.7567 120.705 41.7129 120.729 41.6743C120.753 41.6358 120.787 41.6037 120.826 41.5806C120.865 41.5575 120.91 41.5441 120.955 41.5414C121.001 41.539 121.046 41.5474 121.088 41.5659C121.419 41.7217 121.755 42.1609 121.756 43.4034C121.756 44.8034 121.769 44.8892 121.769 44.8892L124.119 44.9084C124.257 44.9119 124.388 44.9683 124.486 45.0661C124.584 45.1638 124.64 45.2952 124.644 45.4334C124.661 46.3189 124.698 48.1197 124.717 49.1084C124.734 49.4337 124.641 49.7552 124.454 50.0217C124.266 50.2881 123.995 50.4841 123.683 50.5784C123.595 50.6017 123.505 50.6141 123.414 50.6152C122.789 50.6152 119.599 50.1077 119.599 50.1077H118.279L118.288 45.3249Z" fill="white"/>
<path opacity="0.4" d="M116.088 45.3232L116.574 50.1935H117.88V45.3232H116.088Z" fill="white"/>
</g>
<path d="M145.093 56.9976H156.347C157.227 56.9976 158.098 57.171 158.911 57.5079C159.724 57.8447 160.463 58.3386 161.085 58.9609C161.707 59.5834 162.2 60.3222 162.537 61.1354C162.873 61.9487 163.046 62.8202 163.046 63.7001V178.183C163.046 179.96 162.34 181.664 161.084 182.921C159.827 184.177 158.123 184.882 156.347 184.882H145.093C144.768 184.882 144.447 184.82 144.148 184.695C143.848 184.571 143.576 184.389 143.347 184.16C143.118 183.93 142.936 183.659 142.812 183.36C142.688 183.061 142.625 182.739 142.625 182.415V59.4651C142.625 59.141 142.688 58.82 142.812 58.5206C142.936 58.2212 143.118 57.949 143.347 57.7198C143.576 57.4907 143.848 57.3089 144.148 57.185C144.447 57.0611 144.768 56.9974 145.093 56.9976Z" fill="#21252B"/>
<path d="M152.031 56.9976H98.3115C94.3315 56.9976 91.105 60.224 91.105 64.2041V177.674C91.105 181.654 94.3315 184.881 98.3115 184.881H152.031C156.011 184.881 159.238 181.654 159.238 177.674V64.2041C159.238 60.224 156.011 56.9976 152.031 56.9976Z" fill="#61656D"/>
<path d="M151.944 59.9375H138.038C137.579 59.9373 137.135 60.0971 136.781 60.3894C136.427 60.6816 136.186 61.0881 136.099 61.5388C136.014 61.9897 135.773 62.3968 135.42 62.6894C135.066 62.9822 134.621 63.1421 134.162 63.1418H116.183C115.723 63.1418 115.278 62.9818 114.925 62.6892C114.571 62.3966 114.33 61.9897 114.244 61.5388C114.157 61.0881 113.917 60.6818 113.563 60.3895C113.209 60.0973 112.765 59.9375 112.306 59.9375H98.399C97.8131 59.9375 97.233 60.053 96.6917 60.2772C96.1506 60.5015 95.6589 60.8304 95.2448 61.2448C94.8306 61.6592 94.5023 62.1511 94.2785 62.6925C94.0545 63.234 93.9395 63.8141 93.94 64.4V177.464C93.94 178.05 94.0553 178.63 94.2793 179.17C94.5035 179.711 94.832 180.203 95.246 180.618C95.6601 181.031 96.1517 181.36 96.6926 181.584C97.2335 181.808 97.8135 181.923 98.399 181.923H151.949C152.535 181.923 153.115 181.808 153.656 181.584C154.197 181.36 154.689 181.032 155.103 180.618C155.517 180.203 155.846 179.713 156.07 179.17C156.294 178.63 156.41 178.05 156.41 177.464V64.4C156.41 63.8136 156.295 63.2328 156.071 62.691C155.846 62.1492 155.517 61.6569 155.103 61.2423C154.688 60.8277 154.195 60.4991 153.653 60.2753C153.111 60.0514 152.53 59.9366 151.944 59.9375Z" fill="#5292B8"/>
<path opacity="0.7" d="M151.944 59.9375H138.038C137.579 59.9373 137.135 60.0971 136.781 60.3894C136.427 60.6816 136.186 61.0881 136.099 61.5388C136.014 61.9897 135.773 62.3968 135.42 62.6894C135.066 62.9822 134.621 63.1421 134.162 63.1418H116.183C115.723 63.1418 115.278 62.9818 114.925 62.6892C114.571 62.3966 114.33 61.9897 114.244 61.5388C114.157 61.0881 113.917 60.6818 113.563 60.3895C113.209 60.0973 112.765 59.9375 112.306 59.9375H98.399C97.8131 59.9375 97.233 60.053 96.6917 60.2772C96.1506 60.5015 95.6589 60.8304 95.2448 61.2448C94.8306 61.6592 94.5023 62.1511 94.2785 62.6925C94.0545 63.234 93.9395 63.8141 93.94 64.4V177.464C93.94 178.05 94.0553 178.63 94.2793 179.17C94.5035 179.711 94.832 180.203 95.246 180.618C95.6601 181.031 96.1517 181.36 96.6926 181.584C97.2335 181.808 97.8135 181.923 98.399 181.923H151.949C152.535 181.923 153.115 181.808 153.656 181.584C154.197 181.36 154.689 181.032 155.103 180.618C155.517 180.203 155.846 179.713 156.07 179.17C156.294 178.63 156.41 178.05 156.41 177.464V64.4C156.41 63.8136 156.295 63.2328 156.071 62.691C155.846 62.1492 155.517 61.6569 155.103 61.2423C154.688 60.8277 154.195 60.4991 153.653 60.2753C153.111 60.0514 152.53 59.9366 151.944 59.9375Z" fill="white"/>
<path opacity="0.5" d="M132.346 59.9375H117.997C117.717 59.9375 117.49 60.1643 117.49 60.4441C117.49 60.7239 117.717 60.9507 117.997 60.9507H132.346C132.626 60.9507 132.853 60.7239 132.853 60.4441C132.853 60.1643 132.626 59.9375 132.346 59.9375Z" fill="black"/>
<path d="M151.949 59.9375L146.041 74.6568H134.65L140.525 59.9375H151.949Z" fill="#5292B8"/>
<path d="M140.56 59.9375L134.65 74.6568H123.261L129.136 59.9375H140.56Z" fill="#3F4249"/>
<path d="M129.169 59.9375L123.261 74.6568H111.87L117.745 59.9375H129.169Z" fill="#5292B8"/>
<path d="M117.78 59.9375L111.871 74.6568H100.48L106.354 59.9375H117.78Z" fill="#3F4249"/>
<path d="M106.39 59.9375L100.482 74.6568H89.0558L93.6758 63.1505C94.0566 62.2018 94.7125 61.389 95.5593 60.8164C96.4059 60.2438 97.4048 59.9377 98.427 59.9375H106.39Z" fill="#5292B8"/>
<path d="M151.949 59.9375L146.041 74.6568H134.65L140.525 59.9375H151.949Z" fill="#5292B8"/>
<path d="M129.169 59.9375L123.261 74.6568H111.87L117.745 59.9375H129.169Z" fill="#5292B8"/>
<path d="M106.39 59.9375L100.482 74.6568H89.0558L93.6758 63.1505C94.0566 62.2018 94.7125 61.389 95.5593 60.8164C96.4059 60.2438 97.4048 59.9377 98.427 59.9375H106.39Z" fill="#5292B8"/>
<path d="M146.041 74.6568H156.404V64.4C156.404 63.2188 155.935 62.086 155.1 61.2507C154.265 60.4155 153.132 59.9463 151.951 59.9463L146.041 74.6568Z" fill="#21252B"/>
<path d="M89.0558 74.6567H100.482V76.1442C100.482 76.8946 100.334 77.6375 100.046 78.3305C99.7593 79.0237 99.3384 79.6535 98.8078 80.1839C98.2772 80.7144 97.6474 81.1351 96.954 81.4221C96.2609 81.7089 95.518 81.8566 94.7678 81.8562C93.2528 81.8562 91.7999 81.2546 90.7288 80.1832C89.6574 79.1121 89.0558 77.6592 89.0558 76.1442V74.6567Z" fill="#5292B8"/>
<path d="M100.45 74.6567H111.874V76.1442C111.874 77.6592 111.272 79.1121 110.201 80.1832C109.13 81.2546 107.677 81.8562 106.162 81.8562C104.647 81.8562 103.194 81.2546 102.123 80.1832C101.052 79.1121 100.45 77.6592 100.45 76.1442V74.6567Z" fill="#21252B"/>
<path d="M111.836 74.6567H123.261V76.1442C123.261 76.8946 123.113 77.6375 122.826 78.3305C122.539 79.0237 122.118 79.6535 121.588 80.1839C121.057 80.7144 120.427 81.1351 119.734 81.4221C119.041 81.7089 118.298 81.8566 117.548 81.8562C116.033 81.8562 114.58 81.2546 113.509 80.1832C112.437 79.1121 111.836 77.6592 111.836 76.1442V74.6567Z" fill="#5292B8"/>
<path d="M123.226 74.6567H134.65V76.1442C134.65 77.6592 134.049 79.1121 132.977 80.1832C131.906 81.2546 130.453 81.8562 128.938 81.8562C127.423 81.8562 125.971 81.2546 124.899 80.1832C123.828 79.1121 123.226 77.6592 123.226 76.1442V74.6567Z" fill="#21252B"/>
<path d="M134.615 74.6567H146.041V76.1442C146.041 77.6592 145.439 79.1121 144.368 80.1832C143.297 81.2546 141.844 81.8562 140.329 81.8562C139.579 81.8566 138.836 81.7089 138.143 81.4221C137.449 81.1351 136.82 80.7144 136.289 80.1839C135.758 79.6535 135.337 79.0237 135.05 78.3305C134.763 77.6375 134.615 76.8946 134.615 76.1442V74.6567Z" fill="#5292B8"/>
<path opacity="0.3" d="M89.0558 74.6567H100.482V76.1442C100.482 76.8946 100.334 77.6375 100.046 78.3305C99.7593 79.0237 99.3384 79.6535 98.8078 80.1839C98.2772 80.7144 97.6474 81.1351 96.954 81.4221C96.2609 81.7089 95.518 81.8566 94.7678 81.8562C93.2528 81.8562 91.7999 81.2546 90.7288 80.1832C89.6574 79.1121 89.0558 77.6592 89.0558 76.1442V74.6567Z" fill="black"/>
<path opacity="0.3" d="M111.836 74.6567H123.261V76.1442C123.261 76.8946 123.113 77.6375 122.826 78.3305C122.539 79.0237 122.118 79.6535 121.588 80.1839C121.057 80.7144 120.427 81.1351 119.734 81.4221C119.041 81.7089 118.298 81.8566 117.548 81.8562C116.033 81.8562 114.58 81.2546 113.509 80.1832C112.437 79.1121 111.836 77.6592 111.836 76.1442V74.6567Z" fill="black"/>
<path opacity="0.3" d="M134.615 74.6567H146.041V76.1442C146.041 77.6592 145.439 79.1121 144.368 80.1832C143.297 81.2546 141.844 81.8562 140.329 81.8562C139.579 81.8566 138.836 81.7089 138.143 81.4221C137.449 81.1351 136.82 80.7144 136.289 80.1839C135.758 79.6535 135.337 79.0237 135.05 78.3305C134.763 77.6375 134.615 76.8946 134.615 76.1442V74.6567Z" fill="black"/>
<path d="M139.984 90.2529H111.83C109.559 90.2529 107.718 92.0943 107.718 94.3654V122.519C107.718 124.791 109.559 126.632 111.83 126.632H139.984C142.256 126.632 144.097 124.791 144.097 122.519V94.3654C144.097 92.0943 142.256 90.2529 139.984 90.2529Z" fill="#5292B8"/>
<g opacity="0.5">
<path opacity="0.5" d="M139.984 90.2529H111.83C109.559 90.2529 107.718 92.0943 107.718 94.3654V122.519C107.718 124.791 109.559 126.632 111.83 126.632H139.984C142.256 126.632 144.097 124.791 144.097 122.519V94.3654C144.097 92.0943 142.256 90.2529 139.984 90.2529Z" fill="white"/>
</g>
<path d="M138.513 90.2529H110.359C108.087 90.2529 106.246 92.0943 106.246 94.3654V122.519C106.246 124.791 108.087 126.632 110.359 126.632H138.513C140.784 126.632 142.625 124.791 142.625 122.519V94.3654C142.625 92.0943 140.784 90.2529 138.513 90.2529Z" fill="white"/>
<path d="M147.646 142.446H102.7C102.01 142.446 101.451 143.006 101.451 143.696C101.451 144.386 102.01 144.945 102.7 144.945H147.646C148.336 144.945 148.895 144.386 148.895 143.696C148.895 143.006 148.336 142.446 147.646 142.446Z" fill="white"/>
<path d="M147.646 135.028H102.7C102.01 135.028 101.451 135.588 101.451 136.278C101.451 136.968 102.01 137.527 102.7 137.527H147.646C148.336 137.527 148.895 136.968 148.895 136.278C148.895 135.588 148.336 135.028 147.646 135.028Z" fill="white"/>
<path d="M139.598 149.864H110.745C110.055 149.864 109.496 150.424 109.496 151.114C109.496 151.804 110.055 152.363 110.745 152.363H139.598C140.288 152.363 140.847 151.804 140.847 151.114C140.847 150.424 140.288 149.864 139.598 149.864Z" fill="white"/>
<path d="M204.818 125.986H184.683V136.976H204.818V125.986Z" fill="#B2B6BB"/>
<path d="M204.818 125.986H200.531V136.976H204.818V125.986Z" fill="#61656D"/>
<path d="M209.678 129.164L207.464 118.27" stroke="#868A91" stroke-width="0.37" stroke-miterlimit="10"/>
<path d="M210.296 114.594L209.983 128.76" stroke="#868A91" stroke-width="0.37" stroke-miterlimit="10"/>
<path d="M213.519 117.224L210.138 121.462" stroke="#868A91" stroke-width="0.37" stroke-miterlimit="10"/>
<path d="M211.36 131.882L211.026 131.376C210.691 130.869 210.511 130.274 210.511 129.666V128.462H209.213V129.675C209.213 130.283 209.034 130.877 208.7 131.385L208.364 131.891C208.017 132.416 207.785 133.007 207.68 133.627C207.575 134.247 207.599 134.882 207.753 135.492L208.131 136.985H211.594L211.972 135.492C212.128 134.881 212.154 134.244 212.047 133.622C211.942 133 211.708 132.408 211.36 131.882Z" fill="#868A91"/>
<path d="M211.36 131.882L211.025 131.376C210.691 130.869 210.513 130.274 210.513 129.666V128.462H210.138V129.675C210.147 130.267 210.294 130.849 210.567 131.374L210.95 132.102C211.902 134.246 210.107 136.985 210.107 136.985H211.594L211.972 135.492C212.128 134.881 212.154 134.244 212.047 133.622C211.942 133 211.708 132.408 211.36 131.882Z" fill="#61656D"/>
<path d="M208.813 124.906L212.833 121.576" stroke="#868A91" stroke-width="0.37" stroke-miterlimit="10"/>
<path d="M205.789 124.163L209.344 127.516" stroke="#868A91" stroke-width="0.37" stroke-miterlimit="10"/>
<path d="M211.51 119.751L212.067 117.301C212.112 117.101 212.207 116.915 212.343 116.762C212.48 116.609 212.653 116.493 212.847 116.426C213.04 116.358 213.248 116.341 213.449 116.375C213.652 116.41 213.843 116.495 214.002 116.623C214.163 116.751 214.288 116.918 214.366 117.107C214.445 117.296 214.473 117.503 214.45 117.706C214.428 117.91 214.352 118.104 214.233 118.271C214.114 118.438 213.955 118.572 213.77 118.66L211.51 119.751Z" fill="#5292B8"/>
<path opacity="0.3" d="M211.51 119.751L212.067 117.301C212.112 117.101 212.207 116.915 212.343 116.762C212.48 116.609 212.653 116.493 212.847 116.426C213.04 116.358 213.248 116.341 213.449 116.375C213.652 116.41 213.843 116.495 214.002 116.623C214.163 116.751 214.288 116.918 214.366 117.107C214.445 117.296 214.473 117.503 214.45 117.706C214.428 117.91 214.352 118.104 214.233 118.271C214.114 118.438 213.955 118.572 213.77 118.66L211.51 119.751Z" fill="white"/>
<path d="M214.457 117.6C214.455 117.826 214.389 118.046 214.268 118.236C214.147 118.427 213.974 118.579 213.771 118.676L211.51 119.76L214.002 116.636C214.147 116.751 214.263 116.898 214.342 117.065C214.42 117.232 214.461 117.415 214.457 117.6Z" fill="#5292B8"/>
<path d="M210.227 118.662L208.63 115.357C208.498 115.086 208.439 114.787 208.456 114.488C208.472 114.188 208.565 113.898 208.724 113.643C208.883 113.389 209.104 113.18 209.366 113.034C209.629 112.889 209.925 112.812 210.224 112.812C210.525 112.812 210.819 112.888 211.081 113.033C211.344 113.178 211.566 113.387 211.725 113.642C211.886 113.896 211.977 114.186 211.995 114.486C212.012 114.785 211.953 115.084 211.822 115.355L210.227 118.662Z" fill="#5292B8"/>
<path opacity="0.3" d="M210.227 118.662L208.63 115.357C208.498 115.086 208.439 114.787 208.456 114.488C208.472 114.188 208.565 113.898 208.724 113.643C208.883 113.389 209.104 113.18 209.366 113.034C209.629 112.889 209.925 112.812 210.224 112.812C210.525 112.812 210.819 112.888 211.081 113.033C211.344 113.178 211.566 113.387 211.725 113.642C211.886 113.896 211.977 114.186 211.995 114.486C212.012 114.785 211.953 115.084 211.822 115.355L210.227 118.662Z" fill="white"/>
<path opacity="0.3" d="M210.303 112.817L210.228 118.662L211.822 115.355C211.95 115.091 212.009 114.799 211.995 114.506C211.981 114.214 211.895 113.929 211.745 113.677C211.594 113.426 211.384 113.215 211.132 113.065C210.88 112.915 210.595 112.83 210.303 112.817Z" fill="white"/>
<path d="M208.456 123.074L206.125 120.303C205.935 120.077 205.805 119.805 205.749 119.515C205.691 119.224 205.709 118.924 205.8 118.642C205.891 118.36 206.052 118.106 206.267 117.903C206.482 117.7 206.747 117.556 207.034 117.482C207.321 117.41 207.62 117.411 207.907 117.487C208.192 117.562 208.455 117.708 208.668 117.912C208.883 118.116 209.043 118.371 209.13 118.653C209.219 118.935 209.235 119.235 209.177 119.525L208.456 123.074Z" fill="#5292B8"/>
<path opacity="0.3" d="M209.177 119.525C209.237 119.235 209.221 118.935 209.132 118.653C209.043 118.371 208.883 118.115 208.67 117.911C208.456 117.707 208.194 117.56 207.907 117.485C207.622 117.41 207.321 117.409 207.034 117.481L208.46 123.055L209.177 119.525Z" fill="white"/>
<path d="M208.124 126.369L207.074 123.719C206.987 123.503 206.847 123.312 206.666 123.164C206.486 123.017 206.271 122.918 206.042 122.876C205.812 122.834 205.576 122.851 205.356 122.925C205.135 122.999 204.936 123.128 204.778 123.299C204.621 123.472 204.51 123.681 204.456 123.908C204.402 124.135 204.405 124.371 204.467 124.596C204.53 124.821 204.647 125.027 204.81 125.193C204.974 125.36 205.175 125.483 205.399 125.55L208.124 126.369Z" fill="#5292B8"/>
<path opacity="0.3" d="M208.124 126.369L207.074 123.719C206.987 123.503 206.847 123.312 206.666 123.164C206.486 123.017 206.271 122.918 206.042 122.876C205.812 122.834 205.576 122.851 205.356 122.925C205.135 122.999 204.936 123.128 204.778 123.299C204.621 123.472 204.51 123.681 204.456 123.908C204.402 124.135 204.405 124.371 204.467 124.596C204.53 124.821 204.647 125.027 204.81 125.193C204.974 125.36 205.175 125.483 205.399 125.55L208.124 126.369Z" fill="white"/>
<path opacity="0.3" d="M204.82 123.252L208.122 126.367L207.072 123.718C206.988 123.506 206.852 123.319 206.678 123.172C206.503 123.026 206.295 122.925 206.071 122.879C205.849 122.832 205.616 122.842 205.399 122.908C205.18 122.973 204.981 123.091 204.82 123.252Z" fill="white"/>
<path d="M209.891 124.052L211.045 121.252C211.139 121.024 211.29 120.823 211.482 120.669C211.676 120.515 211.906 120.412 212.149 120.371C212.392 120.329 212.642 120.35 212.875 120.432C213.11 120.514 213.318 120.653 213.482 120.838C213.647 121.022 213.762 121.245 213.817 121.486C213.871 121.727 213.864 121.977 213.796 122.215C213.727 122.452 213.6 122.668 213.425 122.842C213.25 123.017 213.034 123.144 212.796 123.212L209.891 124.052Z" fill="#5292B8"/>
<path opacity="0.3" d="M209.891 124.052L211.045 121.252C211.139 121.024 211.29 120.823 211.482 120.669C211.676 120.515 211.906 120.412 212.149 120.371C212.392 120.329 212.642 120.35 212.875 120.432C213.11 120.514 213.318 120.653 213.482 120.838C213.647 121.022 213.762 121.245 213.817 121.486C213.871 121.727 213.864 121.977 213.796 122.215C213.727 122.452 213.6 122.668 213.425 122.842C213.25 123.017 213.034 123.144 212.796 123.212L209.891 124.052Z" fill="white"/>
<path d="M210.004 127.444L215.499 124.436" stroke="#868A91" stroke-width="0.37" stroke-miterlimit="10"/>
<path d="M210.903 126.95L212.893 124.225C213.056 124.002 213.273 123.824 213.523 123.708C213.773 123.592 214.05 123.541 214.324 123.56C214.601 123.58 214.867 123.669 215.098 123.819C215.329 123.969 215.52 124.176 215.649 124.42C215.779 124.663 215.845 124.936 215.84 125.212C215.836 125.487 215.761 125.758 215.625 125.997C215.486 126.236 215.29 126.437 215.056 126.58C214.82 126.723 214.552 126.804 214.275 126.815L210.903 126.95Z" fill="#5292B8"/>
<path opacity="0.3" d="M210.903 126.95L212.893 124.225C213.056 124.002 213.273 123.824 213.523 123.708C213.773 123.592 214.05 123.541 214.324 123.56C214.601 123.58 214.867 123.669 215.098 123.819C215.329 123.969 215.52 124.176 215.649 124.42C215.779 124.663 215.845 124.936 215.84 125.212C215.836 125.487 215.761 125.758 215.625 125.997C215.486 126.236 215.29 126.437 215.056 126.58C214.82 126.723 214.552 126.804 214.275 126.815L210.903 126.95Z" fill="white"/>
<path d="M215.698 125.853C215.576 126.13 215.376 126.368 215.124 126.538C214.874 126.708 214.578 126.804 214.275 126.815L210.901 126.95L215.647 124.425C215.765 124.643 215.831 124.885 215.84 125.133C215.849 125.38 215.8 125.627 215.698 125.853Z" fill="#5292B8"/>
<path opacity="0.3" d="M211.05 121.259L209.897 124.06L213.484 120.848C213.32 120.665 213.111 120.526 212.879 120.444C212.646 120.363 212.397 120.342 212.154 120.383C211.911 120.424 211.682 120.526 211.489 120.679C211.297 120.832 211.144 121.032 211.05 121.259Z" fill="white"/>
<path d="M213.239 138.161H224.98C225.136 138.161 225.284 138.099 225.395 137.989C225.505 137.879 225.568 137.73 225.568 137.574C225.568 137.497 225.552 137.421 225.522 137.349C225.494 137.278 225.451 137.213 225.396 137.159C225.34 137.104 225.276 137.061 225.206 137.031C225.134 137.002 225.057 136.986 224.98 136.986H213.239V138.161Z" fill="#B2B6BB"/>
<path d="M223.458 137.578H211.61V174.072H223.458V137.578Z" fill="#B2B6BB"/>
<path d="M211.972 137.578H172.233V174.072H211.972V137.578Z" fill="#DADDDF"/>
<path d="M210.137 171.288H173.929V142.66L210.137 142.693V171.288ZM174.193 171.025H209.874V142.959H174.193V171.025Z" fill="#B2B6BB"/>
<path d="M213.251 136.986H170.889C170.565 136.986 170.303 137.249 170.303 137.573V137.574C170.303 137.898 170.565 138.161 170.889 138.161H213.251C213.575 138.161 213.838 137.898 213.838 137.574V137.573C213.838 137.249 213.575 136.986 213.251 136.986Z" fill="#DADDDF"/>
<path d="M173.931 157.059H210.137V156.795H173.931V157.059Z" fill="#B2B6BB"/>
<path d="M190.626 147.259C191.128 147.259 191.534 146.852 191.534 146.351C191.534 145.849 191.128 145.442 190.626 145.442C190.124 145.442 189.717 145.849 189.717 146.351C189.717 146.852 190.124 147.259 190.626 147.259Z" fill="#B2B6BB"/>
<path opacity="0.15" d="M190.955 146.351C190.955 146.161 190.895 145.976 190.783 145.822C190.673 145.668 190.517 145.552 190.337 145.491C190.43 145.46 190.528 145.445 190.626 145.444C190.748 145.439 190.871 145.458 190.984 145.502C191.1 145.545 191.205 145.611 191.294 145.696C191.382 145.78 191.454 145.882 191.501 145.995C191.55 146.108 191.574 146.229 191.574 146.352C191.574 146.474 191.55 146.596 191.501 146.708C191.454 146.821 191.382 146.923 191.294 147.008C191.205 147.093 191.1 147.158 190.984 147.202C190.871 147.245 190.748 147.264 190.626 147.259C190.528 147.259 190.43 147.243 190.337 147.212C190.517 147.151 190.673 147.035 190.783 146.88C190.895 146.726 190.955 146.541 190.955 146.351Z" fill="black"/>
<path d="M190.626 161.343C191.128 161.343 191.534 160.936 191.534 160.435C191.534 159.933 191.128 159.526 190.626 159.526C190.124 159.526 189.717 159.933 189.717 160.435C189.717 160.936 190.124 161.343 190.626 161.343Z" fill="#B2B6BB"/>
<path opacity="0.15" d="M190.955 160.434C190.955 160.244 190.895 160.059 190.783 159.905C190.673 159.75 190.517 159.635 190.337 159.574C190.43 159.543 190.528 159.527 190.626 159.526C190.748 159.521 190.871 159.54 190.984 159.584C191.1 159.627 191.205 159.693 191.294 159.778C191.382 159.862 191.454 159.964 191.501 160.077C191.55 160.19 191.574 160.311 191.574 160.434C191.574 160.556 191.55 160.678 191.501 160.79C191.454 160.903 191.382 161.005 191.294 161.09C191.205 161.175 191.1 161.241 190.984 161.284C190.871 161.327 190.748 161.346 190.626 161.341C190.528 161.341 190.43 161.325 190.337 161.294C190.517 161.233 190.673 161.118 190.783 160.963C190.895 160.809 190.955 160.624 190.955 160.434Z" fill="black"/>
<path d="M213.838 139.386L211.972 138.161H172.233V138.721L213.838 139.386Z" fill="#B2B6BB"/>
<path d="M221.128 174.072L222.043 184.17C222.061 184.256 222.059 184.345 222.038 184.431C222.019 184.516 221.979 184.597 221.923 184.665C221.867 184.733 221.797 184.788 221.718 184.826C221.637 184.865 221.55 184.884 221.462 184.884C221.338 184.884 221.219 184.845 221.118 184.774C221.018 184.702 220.943 184.6 220.903 184.483L218.255 174.072H221.128Z" fill="#DADDDF"/>
<path d="M220.789 179.942L219.679 179.674L218.255 174.074H221.128L222.043 184.172C222.071 184.306 222.052 184.446 221.987 184.567C221.924 184.688 221.819 184.784 221.693 184.837L220.789 179.942Z" fill="#B2B6BB"/>
<path d="M210.816 174.072L211.731 184.17C211.748 184.256 211.748 184.345 211.727 184.431C211.706 184.516 211.668 184.597 211.612 184.665C211.556 184.733 211.486 184.788 211.407 184.826C211.327 184.865 211.239 184.884 211.152 184.884C211.027 184.884 210.908 184.845 210.807 184.774C210.707 184.702 210.632 184.6 210.592 184.483L207.942 174.072H210.816Z" fill="#DADDDF"/>
<path d="M209.857 175.189L208.219 174.879L207.942 174.072H210.816L211.731 184.17C211.759 184.305 211.738 184.443 211.675 184.565C211.61 184.686 211.507 184.781 211.381 184.835L209.857 175.189Z" fill="#B2B6BB"/>
<path d="M184.599 174.072L183.683 184.17C183.666 184.256 183.668 184.345 183.689 184.431C183.71 184.516 183.75 184.595 183.804 184.665C183.86 184.733 183.93 184.788 184.011 184.826C184.089 184.863 184.177 184.884 184.264 184.884C184.389 184.884 184.508 184.845 184.609 184.774C184.709 184.702 184.784 184.6 184.824 184.483L187.474 174.072H184.599Z" fill="#DADDDF"/>
<path d="M185.108 179.447L184.133 179.207L184.599 174.072H187.474L184.825 184.483C184.784 184.6 184.709 184.702 184.609 184.774C184.508 184.845 184.389 184.884 184.264 184.884H184.238L185.108 179.447Z" fill="#B2B6BB"/>
<path d="M174.013 174.072L173.099 184.17C173.081 184.256 173.082 184.345 173.103 184.431C173.124 184.516 173.163 184.597 173.219 184.665C173.274 184.733 173.344 184.788 173.424 184.826C173.504 184.865 173.591 184.884 173.679 184.884C173.802 184.884 173.923 184.845 174.023 184.774C174.123 184.702 174.199 184.6 174.239 184.483L176.888 174.072H174.013Z" fill="#DADDDF"/>
<path d="M175.135 174.953L173.88 174.718L174.013 174.072H176.888L174.239 184.483C174.199 184.6 174.123 184.702 174.023 184.774C173.923 184.845 173.802 184.884 173.679 184.884H173.652L175.135 174.953Z" fill="#B2B6BB"/>
<path d="M146.041 74.6567V76.6745C146.041 78.0488 146.587 79.3669 147.559 80.3386C148.53 81.3104 149.848 81.8562 151.223 81.8562C152.597 81.8562 153.915 81.3104 154.887 80.3386C155.858 79.3669 156.404 78.0488 156.404 76.6745V74.6567H146.041Z" fill="#21252B"/>
<path opacity="0.2" d="M146.041 74.6567V76.6745C146.041 78.0488 146.587 79.3669 147.559 80.3386C148.53 81.3104 149.848 81.8562 151.223 81.8562C152.597 81.8562 153.915 81.3104 154.887 80.3386C155.858 79.3669 156.404 78.0488 156.404 76.6745V74.6567H146.041Z" fill="black"/>
<path d="M121.972 167.706H100.345C99.8037 167.706 99.365 168.145 99.365 168.686V173.703C99.365 174.245 99.8037 174.683 100.345 174.683H121.972C122.513 174.683 122.952 174.245 122.952 173.703V168.686C122.952 168.145 122.513 167.706 121.972 167.706Z" fill="#21252B"/>
<path d="M120.838 167.706H99.211C98.6697 167.706 98.231 168.145 98.231 168.686V173.703C98.231 174.245 98.6697 174.683 99.211 174.683H120.838C121.379 174.683 121.818 174.245 121.818 173.703V168.686C121.818 168.145 121.379 167.706 120.838 167.706Z" fill="#3F4249"/>
<path d="M102.795 171.785H102.025L101.88 172.135H101.5L102.231 170.494H102.606L103.341 172.135H102.942L102.795 171.785ZM102.676 171.496L102.415 170.868L102.154 171.5L102.676 171.496Z" fill="white"/>
<path d="M103.509 170.496H104.256C104.419 170.493 104.58 170.527 104.727 170.597C104.859 170.661 104.97 170.76 105.047 170.884C105.122 171.016 105.161 171.164 105.161 171.316C105.161 171.467 105.122 171.615 105.047 171.747C104.97 171.871 104.859 171.971 104.727 172.034C104.58 172.104 104.419 172.14 104.256 172.137H103.509V170.496ZM104.237 171.824C104.381 171.831 104.521 171.782 104.629 171.688C104.724 171.587 104.776 171.454 104.776 171.316C104.776 171.178 104.724 171.045 104.629 170.944C104.521 170.849 104.381 170.8 104.237 170.807H103.887V171.824H104.237Z" fill="white"/>
<path d="M105.446 170.495H106.192C106.355 170.492 106.517 170.527 106.664 170.597C106.795 170.66 106.906 170.76 106.983 170.884C107.057 171.015 107.096 171.164 107.096 171.315C107.096 171.466 107.057 171.615 106.983 171.747C106.906 171.871 106.796 171.971 106.664 172.034C106.517 172.104 106.355 172.14 106.192 172.137H105.446V170.495ZM106.172 171.824C106.317 171.831 106.458 171.782 106.566 171.687C106.661 171.586 106.713 171.453 106.713 171.315C106.713 171.177 106.661 171.044 106.566 170.943C106.458 170.848 106.317 170.8 106.172 170.807H105.822V171.824H106.172Z" fill="white"/>
<path d="M108.386 170.8H107.861V170.49H109.291V170.8H108.766V172.132H108.386V170.8Z" fill="white"/>
<path d="M109.805 172.055C109.673 171.985 109.562 171.879 109.485 171.75C109.411 171.621 109.373 171.474 109.375 171.325C109.373 171.172 109.413 171.021 109.49 170.889C109.567 170.761 109.678 170.656 109.811 170.586C109.953 170.512 110.112 170.474 110.273 170.476C110.432 170.474 110.59 170.512 110.731 170.586C110.864 170.656 110.975 170.761 111.053 170.889C111.131 171.021 111.172 171.172 111.171 171.325C111.172 171.477 111.132 171.626 111.055 171.756C110.977 171.887 110.865 171.993 110.731 172.063C110.59 172.138 110.432 172.176 110.273 172.174C110.109 172.174 109.949 172.133 109.805 172.055ZM110.53 171.775C110.604 171.729 110.664 171.664 110.705 171.587C110.75 171.507 110.774 171.417 110.775 171.325C110.776 171.23 110.753 171.136 110.709 171.052C110.667 170.976 110.607 170.912 110.534 170.866C110.453 170.821 110.363 170.798 110.271 170.8C110.179 170.798 110.088 170.821 110.008 170.866C109.931 170.91 109.867 170.974 109.823 171.052C109.778 171.136 109.755 171.23 109.756 171.325C109.755 171.42 109.778 171.513 109.823 171.596C109.866 171.674 109.931 171.739 110.008 171.783C110.089 171.828 110.179 171.851 110.271 171.85C110.362 171.848 110.452 171.822 110.53 171.775Z" fill="white"/>
<path d="M112.446 172.055C112.315 171.985 112.204 171.881 112.128 171.754C112.051 171.621 112.011 171.47 112.011 171.316C112.011 171.163 112.051 171.012 112.128 170.879C112.204 170.75 112.314 170.645 112.446 170.576C112.576 170.511 112.718 170.474 112.864 170.468C113.009 170.462 113.154 170.488 113.288 170.543C113.401 170.589 113.5 170.663 113.577 170.758L113.334 170.975C113.283 170.914 113.22 170.865 113.149 170.832C113.077 170.799 112.999 170.783 112.921 170.784C112.826 170.781 112.732 170.804 112.649 170.851C112.571 170.894 112.506 170.958 112.462 171.036C112.417 171.12 112.394 171.214 112.396 171.309C112.394 171.404 112.417 171.497 112.462 171.58C112.506 171.659 112.571 171.724 112.649 171.768C112.733 171.813 112.826 171.836 112.921 171.834C113 171.835 113.078 171.818 113.149 171.784C113.221 171.751 113.284 171.701 113.334 171.64L113.577 171.864C113.499 171.959 113.4 172.035 113.286 172.083C113.164 172.134 113.032 172.159 112.9 172.158C112.742 172.162 112.586 172.127 112.446 172.055Z" fill="white"/>
<path d="M114.881 171.785H114.119L113.974 172.135H113.584L114.315 170.494H114.692L115.425 172.135H115.026L114.881 171.785ZM114.762 171.496L114.501 170.868L114.242 171.5L114.762 171.496Z" fill="white"/>
<path d="M116.641 172.137L116.326 171.678H115.976V172.137H115.596V170.495H116.307C116.436 170.493 116.565 170.517 116.685 170.567C116.785 170.611 116.872 170.683 116.933 170.774C116.992 170.868 117.022 170.979 117.019 171.09C117.026 171.202 116.997 171.314 116.937 171.408C116.876 171.503 116.786 171.575 116.681 171.615L117.051 172.14L116.641 172.137ZM116.547 170.879C116.471 170.825 116.379 170.799 116.286 170.805H115.976V171.376H116.286C116.379 171.382 116.471 171.356 116.547 171.302C116.576 171.275 116.599 171.243 116.614 171.206C116.629 171.169 116.636 171.13 116.634 171.09C116.637 171.051 116.631 171.012 116.616 170.975C116.602 170.938 116.579 170.905 116.55 170.879H116.547Z" fill="white"/>
<path d="M117.637 170.8H117.112V170.49H118.543V170.8H118.018V172.132H117.639L117.637 170.8Z" fill="white"/>
<path d="M149.662 167.706H128.035C127.494 167.706 127.055 168.145 127.055 168.686V173.703C127.055 174.245 127.494 174.683 128.035 174.683H149.662C150.203 174.683 150.642 174.245 150.642 173.703V168.686C150.642 168.145 150.203 167.706 149.662 167.706Z" fill="#5292B8"/>
<path opacity="0.15" d="M149.662 167.706H128.035C127.494 167.706 127.055 168.145 127.055 168.686V173.703C127.055 174.245 127.494 174.683 128.035 174.683H149.662C150.203 174.683 150.642 174.245 150.642 173.703V168.686C150.642 168.145 150.203 167.706 149.662 167.706Z" fill="black"/>
<path d="M148.526 167.706H126.899C126.358 167.706 125.919 168.145 125.919 168.686V173.703C125.919 174.245 126.358 174.683 126.899 174.683H148.526C149.067 174.683 149.506 174.245 149.506 173.703V168.686C149.506 168.145 149.067 167.706 148.526 167.706Z" fill="#5292B8"/>
<path d="M133.109 171.432C133.162 171.507 133.19 171.597 133.187 171.689C133.189 171.755 133.174 171.82 133.143 171.878C133.113 171.936 133.068 171.985 133.012 172.02C132.865 172.108 132.694 172.149 132.522 172.137H131.673V170.496H132.475C132.637 170.486 132.798 170.525 132.937 170.609C132.988 170.644 133.029 170.691 133.057 170.746C133.085 170.8 133.098 170.861 133.096 170.923C133.098 170.998 133.079 171.072 133.04 171.136C133 171.198 132.945 171.249 132.879 171.283C132.97 171.307 133.05 171.359 133.109 171.432ZM132.059 170.781V171.168H132.437C132.511 171.173 132.585 171.155 132.65 171.119C132.673 171.102 132.691 171.08 132.704 171.055C132.716 171.029 132.722 171.002 132.722 170.973C132.723 170.945 132.718 170.917 132.705 170.892C132.692 170.867 132.673 170.846 132.65 170.83C132.585 170.793 132.511 170.776 132.437 170.781H132.059ZM132.729 171.801C132.753 171.784 132.773 171.762 132.786 171.735C132.799 171.708 132.805 171.679 132.804 171.649C132.804 171.512 132.703 171.444 132.501 171.444H132.059V171.85H132.501C132.581 171.855 132.66 171.839 132.731 171.801H132.729Z" fill="white"/>
<path d="M133.658 171.969C133.589 171.895 133.537 171.807 133.503 171.712C133.469 171.616 133.455 171.515 133.462 171.414V170.496H133.842V171.4C133.842 171.694 133.964 171.841 134.207 171.841C134.258 171.844 134.309 171.836 134.356 171.818C134.403 171.8 134.445 171.771 134.48 171.735C134.55 171.637 134.582 171.519 134.573 171.4V170.496H134.949V171.414C134.956 171.515 134.942 171.616 134.908 171.712C134.874 171.807 134.822 171.895 134.753 171.969C134.599 172.096 134.406 172.165 134.206 172.165C134.006 172.165 133.812 172.096 133.658 171.969Z" fill="white"/>
<path d="M136.089 171.554V172.137H135.709V171.55L135.074 170.5H135.476L135.915 171.228L136.353 170.5H136.726L136.089 171.554Z" fill="white"/>
<path d="M139.053 170.496V172.137H138.742L137.924 171.14V172.137H137.55V170.496H137.865L138.68 171.491V170.496H139.053Z" fill="white"/>
<path d="M139.778 172.054C139.644 171.984 139.532 171.878 139.454 171.747C139.377 171.617 139.338 171.468 139.34 171.316C139.338 171.163 139.378 171.012 139.456 170.88C139.533 170.752 139.645 170.647 139.778 170.578C139.92 170.505 140.078 170.467 140.238 170.467C140.398 170.467 140.556 170.505 140.698 170.578C140.832 170.648 140.944 170.755 141.021 170.885C141.099 171.015 141.138 171.165 141.136 171.316C141.138 171.469 141.098 171.619 141.019 171.75C140.942 171.879 140.831 171.984 140.698 172.054C140.556 172.127 140.398 172.165 140.238 172.165C140.078 172.165 139.92 172.127 139.778 172.054ZM140.501 171.775C140.575 171.729 140.636 171.665 140.676 171.587C140.721 171.504 140.744 171.411 140.742 171.316C140.744 171.221 140.721 171.127 140.676 171.043C140.635 170.966 140.575 170.902 140.501 170.858C140.42 170.814 140.33 170.791 140.238 170.791C140.146 170.791 140.056 170.814 139.976 170.858C139.898 170.901 139.834 170.965 139.792 171.043C139.746 171.127 139.723 171.221 139.725 171.316C139.723 171.411 139.746 171.504 139.792 171.587C139.834 171.666 139.898 171.731 139.976 171.775C140.056 171.818 140.146 171.841 140.238 171.841C140.33 171.841 140.42 171.818 140.501 171.775Z" fill="white"/>
<path d="M143.85 170.496L143.313 172.137H142.905L142.544 171.026L142.172 172.137H141.766L141.225 170.496H141.619L141.99 171.649L142.376 170.496H142.726L143.101 171.658L143.484 170.496H143.85Z" fill="white"/>
<path opacity="0.3" d="M156.382 63.938C156.382 63.994 156.382 64.0517 156.394 64.113C156.39 64.05 156.387 63.994 156.382 63.938Z" fill="black"/>
<path opacity="0.3" d="M151.951 59.9375H98.3797C97.539 59.9485 96.7139 60.1655 95.9765 60.5694C95.239 60.9735 94.612 61.552 94.15 62.2545C94.6855 61.8835 95.4415 61.9395 96.3375 61.9377H153.139C154.759 61.9377 156.2 62.3647 156.382 63.938C156.269 62.8411 155.754 61.8249 154.935 61.0859C154.117 60.347 153.053 59.9379 151.951 59.9375Z" fill="black"/>
<path d="M135.406 105.224H113.467C112.51 105.224 111.734 106 111.734 106.957V119.84C111.734 120.797 112.51 121.573 113.467 121.573H135.406C136.363 121.573 137.139 120.797 137.139 119.84V106.957C137.139 106 136.363 105.224 135.406 105.224Z" fill="#3F4249"/>
<path fill-rule="evenodd" clip-rule="evenodd" d="M130.478 109.603C131.077 109.603 131.565 108.878 131.565 107.991C131.565 107.104 131.077 106.379 130.478 106.379C129.88 106.379 129.391 107.104 129.391 107.991C129.391 108.878 129.88 109.603 130.478 109.603Z" fill="#868A91"/>
<path fill-rule="evenodd" clip-rule="evenodd" d="M118.394 109.603C118.993 109.603 119.481 108.878 119.481 107.991C119.481 107.104 118.993 106.379 118.394 106.379C117.796 106.379 117.306 107.104 117.306 107.991C117.306 108.878 117.794 109.603 118.394 109.603Z" fill="#868A91"/>
<path d="M118.878 107.996L117.908 107.986C117.908 107.461 118.127 95.0479 124.455 95.0479C130.783 95.0479 130.958 107.459 130.963 107.987H129.994C129.941 105.924 129.68 103.872 129.213 101.862C128.256 97.9826 126.655 96.0156 124.455 96.0156C122.255 96.0156 120.645 97.9844 119.677 101.864C119.203 103.876 118.935 105.93 118.878 107.996Z" fill="#868A91"/>
<path d="M123.975 105.224H123.055V121.573H123.975V105.224Z" fill="#868A91"/>
<path d="M125.818 105.224H124.898V121.573H125.818V105.224Z" fill="#868A91"/>
<path d="M113.472 118.619C113.834 117.219 114.035 115.364 114.035 113.398C114.035 111.433 113.834 109.582 113.472 108.178C113.145 106.918 112.686 106.111 112.145 105.842C111.96 106.059 111.832 106.318 111.773 106.598C111.876 106.622 112.242 106.824 112.648 108.392C112.998 109.722 113.183 111.5 113.183 113.398C113.183 115.297 112.992 117.073 112.648 118.407C112.242 119.982 111.876 120.176 111.773 120.201C111.832 120.48 111.96 120.739 112.145 120.957C112.686 120.687 113.145 119.875 113.472 118.619Z" fill="#868A91"/>
<path d="M137.099 120.201C136.995 120.176 136.63 119.975 136.224 118.407C135.873 117.077 135.698 115.299 135.698 113.398C135.698 111.498 135.887 109.723 136.224 108.392C136.63 106.817 136.995 106.622 137.099 106.598C137.039 106.319 136.911 106.059 136.726 105.842C136.183 106.11 135.725 106.916 135.398 108.178C135.035 109.578 134.834 111.435 134.834 113.398C134.834 115.362 135.035 117.217 135.398 118.619C135.725 119.88 136.183 120.687 136.726 120.957C136.911 120.739 137.039 120.479 137.099 120.201Z" fill="#868A91"/>
<path d="M126.481 110.702H122.39C122.211 110.702 122.066 110.847 122.066 111.025V113.428C122.066 113.607 122.211 113.752 122.39 113.752H126.481C126.66 113.752 126.805 113.607 126.805 113.428V111.025C126.805 110.847 126.66 110.702 126.481 110.702Z" fill="#21252B"/>
<path opacity="0.2" d="M99.1113 152.95L91.105 169.402L91.063 150.287L99.1113 152.95Z" fill="black"/>
<path d="M76.6768 131.343L45.804 162.216C44.9955 163.024 44.9955 164.335 45.804 165.143L64.957 184.296C65.7655 185.105 67.0763 185.105 67.8848 184.296L98.7576 153.424C99.5661 152.615 99.5661 151.304 98.7576 150.496L79.6045 131.343C78.796 130.534 77.4853 130.534 76.6768 131.343Z" fill="#21252B"/>
<path d="M77.685 134.774L71.5076 140.951C71.2555 141.204 71.2555 141.612 71.5076 141.865L72.5928 142.95C72.845 143.202 73.254 143.202 73.5061 142.95L79.6835 136.773C79.9356 136.52 79.9356 136.111 79.6835 135.859L78.5981 134.774C78.3459 134.522 77.9371 134.522 77.685 134.774Z" fill="#5292B8"/>
<path d="M59.5203 161.936L54.1931 167.263L55.423 168.493L60.7502 163.166L59.5203 161.936Z" fill="#5292B8"/>
<path d="M56.3273 162.323L53.1878 165.461C53.0821 165.567 53.0227 165.711 53.0227 165.861C53.0227 166.011 53.0821 166.154 53.1878 166.261L54.019 167.09L57.5558 163.553L56.3273 162.323Z" fill="#5292B8"/>
<path d="M57.715 160.933L56.5005 162.159L57.7255 163.384L59.3425 161.767L58.5112 160.937C58.4057 160.832 58.2629 160.773 58.1138 160.772C57.9649 160.771 57.8216 160.829 57.715 160.933Z" fill="#5292B8"/>
<path d="M56.4253 169.498C56.5315 169.604 56.6752 169.663 56.8251 169.663C56.9749 169.663 57.1188 169.604 57.225 169.498L58.5655 168.156L57.3405 166.931L55.601 168.67L56.4253 169.498Z" fill="#5292B8"/>
<path d="M58.7387 167.982L61.7522 164.969C61.8047 164.916 61.8464 164.854 61.8747 164.786C61.9033 164.717 61.9178 164.644 61.9178 164.57C61.9178 164.496 61.9033 164.422 61.8747 164.354C61.8464 164.285 61.8047 164.223 61.7522 164.171L60.9227 163.339L57.5085 166.754L58.7387 167.982Z" fill="#5292B8"/>
<path d="M65.3401 166.513L59.6181 172.235C59.4925 172.36 59.4925 172.564 59.6181 172.69L60.8185 173.89C60.9443 174.016 61.1482 174.016 61.2738 173.89L66.9958 168.168C67.1215 168.043 67.1215 167.839 66.9958 167.713L65.7955 166.513C65.6696 166.387 65.4658 166.387 65.3401 166.513Z" fill="white"/>
<path d="M72.4589 159.394L66.7371 165.116C66.6113 165.242 66.6113 165.446 66.7371 165.571L67.9375 166.772C68.0631 166.897 68.267 166.897 68.3928 166.772L74.1146 161.05C74.2404 160.924 74.2404 160.72 74.1146 160.595L72.9145 159.394C72.7886 159.268 72.5848 159.268 72.4589 159.394Z" fill="white"/>
<path d="M79.5793 152.273L73.8573 157.995C73.7317 158.121 73.7317 158.325 73.8573 158.451L75.0577 159.651C75.1835 159.777 75.3874 159.777 75.513 159.651L81.235 153.929C81.3608 153.803 81.3608 153.6 81.235 153.474L80.0347 152.273C79.9089 152.148 79.705 152.148 79.5793 152.273Z" fill="white"/>
<path d="M86.6983 145.155L80.9763 150.877C80.8505 151.003 80.8505 151.206 80.9763 151.332L82.1767 152.532C82.3025 152.658 82.5062 152.658 82.632 152.532L88.354 146.811C88.4797 146.685 88.4797 146.481 88.354 146.355L87.1537 145.155C87.0279 145.029 86.824 145.029 86.6983 145.155Z" fill="white"/>
<path d="M75.379 167.116L64.9152 177.58C64.7272 177.767 64.7269 178.071 64.9145 178.259C65.1021 178.448 65.4066 178.448 65.5945 178.259L76.0583 167.795C76.2463 167.607 76.2465 167.303 76.0589 167.115C75.8713 166.928 75.5668 166.928 75.379 167.116Z" fill="white"/>
<path opacity="0.7" d="M77.685 134.774L71.5076 140.951C71.2555 141.204 71.2555 141.612 71.5076 141.865L72.5928 142.95C72.845 143.202 73.254 143.202 73.5061 142.95L79.6835 136.773C79.9356 136.52 79.9356 136.111 79.6835 135.859L78.5981 134.774C78.3459 134.522 77.9371 134.522 77.685 134.774Z" fill="white"/>
<path opacity="0.7" d="M75.379 167.116L64.9152 177.58C64.7272 177.767 64.7269 178.071 64.9145 178.259C65.1021 178.448 65.4066 178.448 65.5945 178.259L76.0583 167.795C76.2463 167.607 76.2465 167.303 76.0589 167.115C75.8713 166.928 75.5668 166.928 75.379 167.116Z" fill="white"/>
<path d="M93.7519 150.782C92.722 149.752 91.0522 149.752 90.0223 150.782C88.9924 151.812 88.9924 153.482 90.0223 154.512C91.0522 155.542 92.722 155.542 93.7519 154.512C94.7817 153.482 94.7817 151.812 93.7519 150.782Z" fill="#5292B8"/>
<path d="M91.2459 153.288C90.216 152.258 88.5461 152.258 87.5163 153.288C86.4862 154.318 86.4862 155.988 87.5163 157.018C88.5461 158.047 90.216 158.047 91.2459 157.018C92.2758 155.988 92.2758 154.318 91.2459 153.288Z" fill="white"/>
<path d="M204.095 175.133V181.323H199.236L198.543 175.472L198.501 175.117L204.095 175.133Z" fill="#F59A9C"/>
<path opacity="0.15" d="M204.096 175.133V176.708L202.053 176.904C201.761 176.931 201.485 177.046 201.261 177.233C201.035 177.421 200.872 177.673 200.793 177.954L199.313 181.316H199.236L198.536 175.466C199.274 175.219 204.096 175.133 204.096 175.133Z" fill="#231F20"/>
<path d="M203.574 178.46L203.434 178.32C202.89 177.791 202.16 177.497 201.402 177.506C200.643 177.513 199.918 177.821 199.386 178.36L199.306 178.46C199.036 178.733 198.886 179.099 198.886 179.482V180.084C198.894 180.441 198.838 180.796 198.725 181.134L198.224 182.798C198.098 183.201 198.03 183.619 198.025 184.041V184.24C198.03 184.399 198.098 184.55 198.215 184.658C198.331 184.767 198.485 184.825 198.644 184.821H204.419C204.498 184.825 204.578 184.812 204.652 184.786C204.727 184.758 204.795 184.716 204.853 184.662C204.911 184.608 204.958 184.543 204.99 184.471C205.021 184.398 205.039 184.319 205.04 184.24V184.16C205.039 183.67 204.956 183.181 204.799 182.718L204.218 181.094C204.092 180.719 204.025 180.327 204.018 179.932L203.997 179.471C203.994 179.092 203.842 178.729 203.574 178.46Z" fill="#5292B8"/>
<path d="M204.411 184.562H198.635C198.504 184.565 198.375 184.527 198.266 184.451C198.159 184.374 198.079 184.266 198.037 184.142C198.023 184.261 198.016 184.381 198.016 184.502V184.695C198.025 184.85 198.095 184.997 198.21 185.102C198.326 185.207 198.48 185.262 198.635 185.255H204.411C204.488 185.26 204.566 185.249 204.64 185.223C204.713 185.199 204.782 185.158 204.839 185.106C204.897 185.053 204.944 184.99 204.978 184.92C205.011 184.849 205.028 184.773 205.032 184.695V184.625C205.03 184.474 205.021 184.324 205.002 184.173C204.958 184.292 204.876 184.394 204.769 184.464C204.663 184.534 204.538 184.569 204.411 184.562Z" fill="#61656D"/>
<path opacity="0.4" d="M199.81 179.743C199.929 179.743 200.027 179.646 200.027 179.526C200.027 179.407 199.929 179.309 199.81 179.309C199.689 179.309 199.593 179.407 199.593 179.526C199.593 179.646 199.689 179.743 199.81 179.743Z" fill="#231F20"/>
<path opacity="0.4" d="M199.925 180.609C200.044 180.609 200.142 180.513 200.142 180.392C200.142 180.273 200.044 180.175 199.925 180.175C199.805 180.175 199.708 180.273 199.708 180.392C199.708 180.513 199.805 180.609 199.925 180.609Z" fill="#231F20"/>
<path opacity="0.4" d="M200.214 181.445C200.333 181.445 200.431 181.347 200.431 181.228C200.431 181.107 200.333 181.011 200.214 181.011C200.095 181.011 199.997 181.107 199.997 181.228C199.997 181.347 200.095 181.445 200.214 181.445Z" fill="#231F20"/>
<path opacity="0.4" d="M200.253 182.464C200.372 182.464 200.47 182.366 200.47 182.247C200.47 182.128 200.372 182.03 200.253 182.03C200.132 182.03 200.036 182.128 200.036 182.247C200.036 182.366 200.132 182.464 200.253 182.464Z" fill="#231F20"/>
<path opacity="0.4" d="M200.359 183.344C200.478 183.344 200.576 183.247 200.576 183.127C200.576 183.008 200.478 182.91 200.359 182.91C200.24 182.91 200.142 183.008 200.142 183.127C200.142 183.247 200.24 183.344 200.359 183.344Z" fill="#231F20"/>
<path opacity="0.4" d="M203.093 183.155C203.212 183.155 203.31 183.058 203.31 182.938C203.31 182.819 203.212 182.721 203.093 182.721C202.972 182.721 202.876 182.819 202.876 182.938C202.876 183.058 202.972 183.155 203.093 183.155Z" fill="#231F20"/>
<path opacity="0.4" d="M203.002 182.334C203.121 182.334 203.219 182.236 203.219 182.117C203.219 181.997 203.121 181.9 203.002 181.9C202.881 181.9 202.785 181.997 202.785 182.117C202.785 182.236 202.881 182.334 203.002 182.334Z" fill="#231F20"/>
<path opacity="0.4" d="M202.892 181.249C203.011 181.249 203.109 181.153 203.109 181.032C203.109 180.913 203.011 180.815 202.892 180.815C202.771 180.815 202.674 180.913 202.674 181.032C202.674 181.153 202.771 181.249 202.892 181.249Z" fill="#231F20"/>
<path opacity="0.4" d="M202.603 180.393C202.722 180.393 202.82 180.295 202.82 180.176C202.82 180.057 202.722 179.959 202.603 179.959C202.482 179.959 202.386 180.057 202.386 180.176C202.386 180.295 202.482 180.393 202.603 180.393Z" fill="#231F20"/>
<path opacity="0.4" d="M202.566 179.578C202.685 179.578 202.783 179.48 202.783 179.361C202.783 179.24 202.685 179.144 202.566 179.144C202.445 179.144 202.349 179.24 202.349 179.361C202.349 179.48 202.445 179.578 202.566 179.578Z" fill="#231F20"/>
<path d="M199.89 179.484C199.89 179.484 200.87 178.434 202.566 179.309" stroke="white" stroke-miterlimit="10" stroke-linecap="round"/>
<path d="M199.925 180.338C199.925 180.338 200.905 179.288 202.603 180.163" stroke="white" stroke-miterlimit="10" stroke-linecap="round"/>
<path d="M200.214 181.193C200.434 180.957 201.652 180.379 202.891 181.018" stroke="white" stroke-miterlimit="10" stroke-linecap="round"/>
<path d="M200.324 182.227C200.324 182.227 201.306 181.177 203.002 182.052" stroke="white" stroke-miterlimit="10" stroke-linecap="round"/>
<path d="M200.359 183.083C200.359 183.083 201.341 182.033 203.037 182.908" stroke="white" stroke-miterlimit="10" stroke-linecap="round"/>
<path d="M185.633 175.441L185.596 175.854L185.575 176.085L185.08 181.659L175.833 181.858L178.491 179.986C178.729 179.797 178.932 179.568 179.092 179.309C179.387 178.878 179.578 178.383 179.645 177.865L180.01 175.504L180.023 175.427L185.633 175.441Z" fill="#F59A9C"/>
<path opacity="0.15" d="M185.596 175.854L185.575 176.085L182.121 176.75C181.75 176.822 181.414 177.014 181.165 177.296C180.915 177.579 180.768 177.938 180.743 178.314L180.666 179.539L179.091 179.317C179.387 178.887 179.578 178.391 179.644 177.873L180.01 175.513L185.596 175.854Z" fill="#231F20"/>
<path d="M185.64 184.081L170.371 184.112C170.338 184.048 170.314 183.978 170.3 183.906C170.274 184.076 170.268 184.247 170.282 184.417C170.291 184.55 170.351 184.674 170.448 184.765C170.546 184.856 170.674 184.905 170.807 184.905L185.147 184.877C185.281 184.877 185.411 184.826 185.507 184.734C185.605 184.643 185.665 184.517 185.672 184.382L185.64 184.081Z" fill="#61656D"/>
<path d="M171.204 182.462C173.929 181.325 176.143 180.381 178.173 178.679C178.635 178.29 179.207 178.057 179.809 178.008L185.286 177.567C185.381 177.56 185.475 177.573 185.565 177.604C185.654 177.637 185.736 177.688 185.804 177.755C185.871 177.821 185.925 177.902 185.958 177.989C185.993 178.078 186.007 178.173 186.002 178.267L185.64 184.079L170.371 184.111C170.049 183.486 170.725 182.663 171.204 182.462Z" fill="#5292B8"/>
<path opacity="0.4" d="M173.876 182.723C174.032 182.723 174.158 182.609 174.158 182.467C174.158 182.326 174.032 182.212 173.876 182.212C173.721 182.212 173.595 182.326 173.595 182.467C173.595 182.609 173.721 182.723 173.876 182.723Z" fill="#231F20"/>
<path opacity="0.4" d="M175.549 182.29C175.705 182.29 175.831 182.177 175.831 182.035C175.831 181.893 175.705 181.779 175.549 181.779C175.394 181.779 175.268 181.893 175.268 182.035C175.268 182.177 175.394 182.29 175.549 182.29Z" fill="#231F20"/>
<path opacity="0.4" d="M176.939 181.384C177.095 181.384 177.221 181.27 177.221 181.129C177.221 180.987 177.095 180.873 176.939 180.873C176.783 180.873 176.657 180.987 176.657 181.129C176.657 181.27 176.783 181.384 176.939 181.384Z" fill="#231F20"/>
<path opacity="0.4" d="M178.287 180.465C178.442 180.465 178.568 180.351 178.568 180.21C178.568 180.068 178.442 179.954 178.287 179.954C178.131 179.954 178.005 180.068 178.005 180.21C178.005 180.351 178.131 180.465 178.287 180.465Z" fill="#231F20"/>
<path opacity="0.4" d="M179.48 179.345C179.636 179.345 179.762 179.231 179.762 179.089C179.762 178.948 179.636 178.834 179.48 178.834C179.324 178.834 179.198 178.948 179.198 179.089C179.198 179.231 179.324 179.345 179.48 179.345Z" fill="#231F20"/>
<path d="M173.345 181.862L173.53 182.336C173.559 182.399 173.612 182.45 173.677 182.476C173.742 182.504 173.814 182.504 173.88 182.48C173.913 182.469 173.944 182.452 173.97 182.429C173.996 182.404 174.016 182.375 174.029 182.343C174.041 182.31 174.047 182.275 174.045 182.242C174.042 182.207 174.032 182.172 174.015 182.142L173.747 181.685L173.345 181.862Z" fill="white"/>
<path d="M174.834 181.195L175.184 181.913C175.219 181.977 175.28 182.026 175.35 182.047C175.422 182.068 175.497 182.061 175.563 182.026C175.593 182.012 175.619 181.993 175.642 181.97C175.663 181.946 175.681 181.918 175.689 181.886C175.7 181.857 175.703 181.823 175.702 181.79C175.698 181.759 175.688 181.727 175.672 181.699L175.268 180.999L174.834 181.195Z" fill="white"/>
<path d="M176.081 180.464L176.559 181.078C176.608 181.136 176.676 181.172 176.752 181.179C176.827 181.186 176.902 181.162 176.96 181.115L176.977 181.099C177 181.08 177.019 181.057 177.033 181.032C177.047 181.006 177.054 180.978 177.058 180.948C177.061 180.92 177.058 180.891 177.049 180.863C177.042 180.835 177.028 180.808 177.009 180.786L176.549 180.21L176.081 180.464Z" fill="white"/>
<path d="M177.299 179.699L177.914 180.236C177.965 180.28 178.029 180.302 178.096 180.302C178.164 180.302 178.229 180.28 178.279 180.236C178.307 180.213 178.328 180.185 178.344 180.154C178.358 180.12 178.365 180.085 178.363 180.05C178.362 180.015 178.351 179.98 178.334 179.949C178.316 179.919 178.292 179.893 178.262 179.874L177.646 179.438L177.299 179.699Z" fill="white"/>
<path d="M178.5 178.693C178.5 178.693 178.859 178.964 179.093 179.137C179.148 179.176 179.214 179.193 179.281 179.186C179.347 179.179 179.408 179.146 179.452 179.097C179.475 179.071 179.489 179.039 179.498 179.006C179.505 178.973 179.505 178.938 179.496 178.904C179.487 178.871 179.471 178.84 179.449 178.813C179.426 178.787 179.396 178.768 179.365 178.756L178.651 178.434L178.5 178.693Z" fill="white"/>
<path d="M181.3 111.825L179.419 175.681L185.798 175.702L191.293 122.584C191.331 122.192 191.98 121.895 191.98 121.895C192.161 121.904 192.33 121.979 192.458 122.107C192.584 122.234 192.659 122.404 192.668 122.584L198.083 175.653H204.265L204.05 111.825H181.3Z" fill="#414042"/>
<path opacity="0.4" d="M200.751 175.651L195.522 125.125C195.447 124.4 195.132 123.721 194.628 123.194C194.122 122.668 193.457 122.325 192.736 122.219L192.516 122.187C192.601 122.305 192.654 122.444 192.668 122.59L198.083 175.658L200.751 175.651Z" fill="#231F20"/>
<path opacity="0.4" d="M183.4 111.825H181.3L179.419 175.653H181.661L183.4 111.825Z" fill="#231F20"/>
<path d="M185.915 175.702H179.284L179.384 174.312H186.05L185.915 175.702Z" fill="#3F4249"/>
<path opacity="0.4" d="M181.655 175.702H179.284L179.384 174.312H181.706L181.655 175.702Z" fill="#231F20"/>
<path d="M204.358 175.653H197.841L197.711 174.312H204.358V175.653Z" fill="#3F4249"/>
<path opacity="0.4" d="M200.751 175.651L197.841 175.653L197.711 174.312H200.645L200.751 175.651Z" fill="#231F20"/>
<path d="M206.659 77.245C205.811 76.9843 204.05 100.52 204.05 109.55V111.825H181.3L180.043 88.256C179.576 83.2248 180.6 77.0858 179.422 76.237C187.658 72.59 203.714 74.963 206.659 77.245Z" fill="#5292B8"/>
<path d="M181.475 111.825H204.05V111.041H181.258L181.316 111.825H181.475Z" fill="#5292B8"/>
<path opacity="0.5" d="M181.475 111.825H204.05V111.041H181.258L181.316 111.825H181.475Z" fill="#231F20"/>
<path d="M181.475 110.425H204.05V109.641H181.258L181.316 110.425H181.475Z" fill="#5292B8"/>
<path opacity="0.5" d="M181.475 110.425H204.05V109.641H181.258L181.316 110.425H181.475Z" fill="#231F20"/>
<path d="M181.475 108.85H204.05V108.066H181.258L181.316 108.85H181.475Z" fill="#5292B8"/>
<path opacity="0.5" d="M181.475 108.85H204.05V108.066H181.258L181.316 108.85H181.475Z" fill="#231F20"/>
<path d="M189.086 77.3311V87.5266" stroke="black" stroke-width="4" stroke-miterlimit="10" stroke-linecap="round"/>
<path d="M189.156 86.8001C189.36 86.8001 189.525 86.634 189.525 86.4291C189.525 86.2242 189.36 86.0581 189.156 86.0581C188.951 86.0581 188.786 86.2242 188.786 86.4291C188.786 86.634 188.951 86.8001 189.156 86.8001Z" fill="white"/>
<path d="M195.753 77.2207V87.418" stroke="black" stroke-width="4" stroke-miterlimit="10" stroke-linecap="round"/>
<path d="M195.806 86.45C196.011 86.45 196.175 86.2839 196.175 86.079C196.175 85.8741 196.011 85.708 195.806 85.708C195.601 85.708 195.437 85.8741 195.437 86.079C195.437 86.2839 195.601 86.45 195.806 86.45Z" fill="white"/>
<path d="M198.1 89.7751L205.072 89.2011L213.344 100.083L205.739 108.749L207.476 112.676L220.521 102.337C221.069 101.897 221.443 101.279 221.58 100.59C221.716 99.9018 221.604 99.1873 221.266 98.5724L209.125 79.1246C208.15 77.3466 204.636 76.0831 202.66 76.3001L197.225 79.9751L198.1 89.7751Z" fill="#5292B8"/>
<path opacity="0.15" d="M213.325 100.1L205.1 89.25L205.8 84L214.636 96.7628C214.816 97.0228 214.91 97.3319 214.907 97.6479C214.905 97.9638 214.805 98.2714 214.622 98.5285L213.325 100.1Z" fill="#231F20"/>
<path d="M205.727 108.769L207.47 112.675L207.872 112.35L206.07 108.396L205.727 108.769Z" fill="#5292B8"/>
<path opacity="0.5" d="M205.727 108.77L207.47 112.676L207.872 112.35L206.063 108.379L205.727 108.77Z" fill="#231F20"/>
<path d="M206.297 108.112L208.092 112.174L208.507 111.841L206.633 107.729L206.297 108.112Z" fill="#5292B8"/>
<path opacity="0.5" d="M206.297 108.112L208.092 112.174L208.507 111.841L206.633 107.729L206.297 108.112Z" fill="#231F20"/>
<path d="M206.859 107.472L208.716 111.672L209.13 111.342L207.193 107.091L206.859 107.472Z" fill="#5292B8"/>
<path opacity="0.5" d="M206.859 107.472L208.716 111.672L209.13 111.342L207.193 107.091L206.859 107.472Z" fill="#231F20"/>
<path opacity="0.4" d="M203.959 118.51L200.582 113.356C201.25 112.7 202.909 111.451 203.957 111.781C203.957 111.785 204.106 118.906 203.959 118.51Z" fill="#231F20"/>
<path d="M207.477 112.676L205.739 108.749L204.451 110.383C204.356 110.502 204.244 110.607 204.118 110.693C203.686 110.987 202.669 111.68 202.673 111.675L201.196 113.02L203.747 117.075C206.882 115.045 205.28 114.368 206.664 113.365C206.85 113.225 207.477 112.676 207.477 112.676Z" fill="#FC9D9D"/>
<path opacity="0.2" d="M205.933 109.188L205.758 108.736L204.251 110.623C203.084 111.308 202.015 112.149 201.075 113.124L201.402 113.649L205.933 109.188Z" fill="#231F20"/>
<path d="M192.47 79.4199C190.72 78.3104 184.889 74.7054 183.619 74.9154C183.354 73.5276 185.81 74.4691 186.687 73.2196C186.916 72.8792 187.238 72.6115 187.614 72.4479C188.342 72.1451 188.933 72.2449 189.128 72.4234C191.956 75.0081 193.853 73.9126 196.8 71.9894C197.15 71.7619 198.55 71.8791 198.912 73.0919C200.083 75.1569 202.346 73.4821 202.346 75.5226C202.346 75.6784 202.136 75.6661 201.821 75.5961C200.708 75.3539 199.544 75.5244 198.548 76.0756L193.473 79.4111C193.324 79.5086 193.151 79.5611 192.972 79.5627C192.796 79.5642 192.621 79.5147 192.47 79.4199Z" fill="black"/>
<path d="M147.768 83.7446L145.887 82.7646L143.297 82.6176C143.25 82.6129 143.202 82.6199 143.158 82.6379C143.113 82.656 143.074 82.6845 143.044 82.7211C143.013 82.7578 142.992 82.8012 142.982 82.8478C142.973 82.8945 142.974 82.9428 142.987 82.9886C143.008 83.0609 143.049 83.1255 143.106 83.1743C143.163 83.2231 143.233 83.2541 143.308 83.2634L145.7 83.6309L146.941 84.6057L145.7 83.6309L143.554 83.5101C143.515 83.5073 143.477 83.5131 143.44 83.5269C143.404 83.5409 143.371 83.5628 143.344 83.5908C143.317 83.619 143.297 83.6526 143.285 83.6895C143.272 83.7263 143.268 83.7655 143.273 83.8041C143.288 83.8741 143.326 83.937 143.381 83.9826C143.436 84.0283 143.505 84.0542 143.577 84.0562L145.677 84.3747L147.476 85.7747L145.677 84.3747L144.074 84.4516C144.047 84.4529 144.021 84.4602 143.998 84.473C143.975 84.4858 143.954 84.5038 143.939 84.5255C143.924 84.5474 143.914 84.5724 143.909 84.5987C143.905 84.6249 143.907 84.6519 143.915 84.6774C143.933 84.7213 143.963 84.7595 144.001 84.788C144.039 84.8167 144.084 84.8346 144.132 84.8402L145.901 85.0152L147.651 86.2034L147.768 83.7446Z" fill="#FC9D9D"/>
<path opacity="0.15" d="M147.768 83.7446L145.887 82.7646L143.297 82.6176C143.25 82.6129 143.202 82.6199 143.158 82.6379C143.113 82.656 143.074 82.6845 143.044 82.7211C143.013 82.7578 142.992 82.8012 142.982 82.8478C142.973 82.8945 142.974 82.9428 142.987 82.9886C143.008 83.0609 143.049 83.1255 143.106 83.1743C143.163 83.2231 143.233 83.2541 143.308 83.2634L145.7 83.6309L146.941 84.6057L145.7 83.6309L143.554 83.5101C143.515 83.5073 143.477 83.5131 143.44 83.5269C143.404 83.5409 143.371 83.5628 143.344 83.5908C143.317 83.619 143.297 83.6526 143.285 83.6895C143.272 83.7263 143.268 83.7655 143.273 83.8041C143.288 83.8741 143.326 83.937 143.381 83.9826C143.436 84.0283 143.505 84.0542 143.577 84.0562L145.677 84.3747L147.476 85.7747L145.677 84.3747L144.074 84.4516C144.047 84.4529 144.021 84.4602 143.998 84.473C143.975 84.4858 143.954 84.5038 143.939 84.5255C143.924 84.5474 143.914 84.5724 143.909 84.5987C143.905 84.6249 143.907 84.6519 143.915 84.6774C143.933 84.7213 143.963 84.7595 144.001 84.788C144.039 84.8167 144.084 84.8346 144.132 84.8402L145.901 85.0152L147.651 86.2034L147.768 83.7446Z" fill="black"/>
<path d="M147.861 83.0288L150.161 85.8043C150.296 85.9595 150.462 86.0864 150.647 86.177L155.978 88.6445L154.308 91.8908L149.331 89.3253C148.232 89.2325 147.31 88.5518 146.636 87.738H146.617C146.522 87.6248 146.407 87.5305 146.277 87.4598C145.796 87.2288 144.611 86.6443 144.611 86.6443C144.594 86.6371 144.577 86.6263 144.564 86.6128C144.55 86.5991 144.54 86.583 144.533 86.5652C144.525 86.5473 144.522 86.5283 144.522 86.5092C144.522 86.4899 144.527 86.471 144.534 86.4535C144.601 86.2894 144.725 86.155 144.883 86.0752C145.042 85.9954 145.224 85.9756 145.395 86.0195L146.29 86.212C146.766 86.3013 147.165 85.9618 147.117 85.533L146.788 83.65C146.781 83.5905 146.762 83.5333 146.732 83.4815C146.702 83.4297 146.661 83.3847 146.613 83.349L143.84 81.41C143.811 81.3952 143.785 81.3747 143.765 81.3497C143.744 81.3248 143.728 81.2961 143.719 81.2651C143.709 81.2342 143.706 81.2016 143.71 81.1694C143.713 81.1372 143.723 81.1059 143.738 81.0775C143.758 81.0422 143.785 81.0112 143.816 80.9862C143.848 80.9612 143.885 80.9426 143.924 80.9318C143.963 80.9209 144.003 80.9178 144.044 80.9227C144.084 80.9276 144.123 80.9403 144.158 80.9603C144.897 81.3383 147.161 82.5598 147.676 82.8538C147.745 82.9038 147.807 82.9626 147.861 83.0288Z" fill="#FC9D9D"/>
<path opacity="0.15" d="M149.8 88.8249C148.701 88.7322 147.591 88.0322 146.918 87.2167H146.898C146.8 87.1031 146.681 87.0088 146.548 86.9384C146.067 86.7074 144.884 86.1229 144.884 86.1229C144.869 86.1168 144.855 86.1079 144.842 86.0967C144.7 86.1719 144.59 86.2964 144.532 86.4467C144.525 86.4644 144.521 86.4833 144.52 86.5023C144.52 86.5216 144.524 86.5407 144.531 86.5583C144.538 86.5762 144.549 86.5923 144.562 86.6059C144.576 86.6196 144.592 86.6303 144.609 86.6374C144.609 86.6374 145.794 87.2219 146.275 87.4529C146.405 87.5236 146.52 87.6179 146.615 87.7312H146.634C147.308 88.5449 148.23 89.2257 149.329 89.3184L154.306 91.8839C154.306 91.8839 152.95 90.1042 151.55 89.1837C150.932 88.7864 150.199 88.8039 149.8 88.8249Z" fill="black"/>
<path d="M168.898 92.2249L177.028 77.9448C177.469 77.1685 178.12 76.5331 178.908 76.1119C179.695 75.6907 180.584 75.501 181.475 75.5648L185.813 75.8763L182.096 86.4184L173.738 99.7184C173.393 100.267 172.937 100.739 172.4 101.103C171.864 101.467 171.257 101.716 170.619 101.834C169.982 101.952 169.326 101.936 168.695 101.789C168.063 101.641 167.469 101.364 166.95 100.975L165.142 99.6186L168.898 92.2249Z" fill="#5292B8"/>
<path d="M154.362 91.8925L167.029 100.993C169.489 102.568 172.244 101.903 174.888 97.874L176.762 94.899L169.783 90.664L168.481 93.037L155.978 88.6445L154.362 91.8925Z" fill="#5292B8"/>
<path d="M155.979 88.7124L154.308 91.8904L154.784 92.1949L156.506 88.9329L155.979 88.7124Z" fill="#5292B8"/>
<path opacity="0.6" d="M155.978 88.6445L154.308 91.8908L154.784 92.1953L156.552 88.8458L155.978 88.6445Z" fill="#231F20"/>
<path d="M156.762 89.0293L155.012 92.3596L155.482 92.6728L157.299 89.2306L156.762 89.0293Z" fill="#5292B8"/>
<path opacity="0.6" d="M156.819 88.9404L155.012 92.36L155.474 92.6907L157.362 89.1294L156.819 88.9404Z" fill="#231F20"/>
<path d="M157.554 89.3267L155.713 92.8302L156.195 93.1242L158.092 89.5297L157.554 89.3267Z" fill="#5292B8"/>
<path opacity="0.6" d="M157.619 89.208L155.701 92.855L156.161 93.1875L158.156 89.4093L157.619 89.208Z" fill="#231F20"/>
<path d="M199.173 62.7515C199.126 63.028 198.749 69.0515 195.645 71.5015V64.5015L199.173 62.7515Z" fill="black"/>
<path d="M197.298 75.5721L196.803 68.3096L196.7 66.8641C196.451 61.3131 189.208 65.8544 189.208 65.8544C189.208 65.8544 189.415 67.7794 189.497 69.8986C189.499 70.336 189.548 70.7719 189.642 71.1989L189.175 75.5109" fill="#FC9D9D"/>
<path d="M197.297 75.572C197.295 75.7045 197.26 75.8345 197.195 75.9502C197.13 76.0657 197.038 76.1631 196.926 76.2335L195.65 77.0997L192.944 78.9355C192.883 78.9708 192.811 78.9859 192.741 78.9787C192.67 78.9715 192.603 78.9423 192.551 78.8952L190.244 76.9107L189.457 76.2335C189.35 76.1479 189.268 76.0364 189.217 75.9099C189.168 75.7834 189.15 75.6458 189.168 75.5107L197.297 75.572Z" fill="#FC9D9D"/>
<path d="M196.472 61.7749L196.679 66.6032C196.679 66.6032 196.142 74.0529 191.355 73.4124C185.845 72.6914 188.403 61.9184 188.403 61.9184L196.472 61.7749Z" fill="#FC9D9D"/>
<path opacity="0.15" d="M192.264 73.6752C193.251 73.5389 194.159 73.0557 194.822 72.312C194.841 72.2927 194.852 72.2666 194.852 72.2397C194.852 72.2126 194.841 72.1867 194.822 72.1676C194.803 72.1485 194.777 72.138 194.749 72.1382C194.722 72.1384 194.696 72.1492 194.677 72.1685C194.155 72.7409 193.483 73.1556 192.738 73.3655C191.252 73.6945 189.938 73.0155 189.457 72.5395L189.271 74.272C189.786 74.374 190.314 74.3738 190.827 74.2714C191.34 74.1691 191.828 73.9664 192.264 73.6752Z" fill="black"/>
<path opacity="0.15" d="M190.86 71.0957C190.858 71.0761 190.86 71.0565 190.867 71.0379C190.872 71.0194 190.883 71.0026 190.897 70.9888C190.911 70.9748 190.928 70.9641 190.946 70.9574C190.965 70.9508 190.984 70.9483 191.004 70.9504C191.215 70.984 191.429 71.0045 191.644 71.0117C191.683 71.0117 191.719 71.0269 191.747 71.0542C191.774 71.0813 191.789 71.1183 191.789 71.1569C191.789 71.1954 191.774 71.2324 191.747 71.2595C191.719 71.2868 191.683 71.3022 191.644 71.3022C191.418 71.2656 191.191 71.2445 190.963 71.2392C190.9 71.1989 190.818 71.1149 190.86 71.0957Z" fill="black"/>
<path opacity="0.15" d="M190.096 70.4338C190.078 70.4261 190.064 70.415 190.05 70.4014C190.038 70.3876 190.029 70.3715 190.022 70.354C190.017 70.3363 190.013 70.3177 190.015 70.2992C190.017 70.2805 190.02 70.2623 190.029 70.2456C190.038 70.229 190.05 70.2143 190.064 70.2022C190.078 70.1902 190.094 70.1812 190.111 70.1758C190.131 70.1702 190.148 70.1685 190.167 70.1704C190.187 70.1723 190.204 70.1781 190.22 70.187C191.665 70.6613 192.264 69.9805 192.449 69.6498C192.458 69.6333 192.47 69.6186 192.484 69.6071C192.5 69.5953 192.516 69.5869 192.535 69.582C192.553 69.5773 192.572 69.5764 192.589 69.5792C192.609 69.5822 192.626 69.589 192.642 69.599C192.658 69.6092 192.672 69.6225 192.682 69.638C192.691 69.6536 192.698 69.6713 192.701 69.6897C192.705 69.708 192.705 69.7269 192.7 69.7451C192.694 69.7633 192.687 69.7803 192.675 69.795C192.49 70.124 191.954 70.7645 190.736 70.579C190.519 70.5477 190.306 70.499 190.096 70.4338Z" fill="black"/>
<path d="M192.057 67.3802C192.297 67.3802 192.491 67.186 192.491 66.9462C192.491 66.7066 192.297 66.5122 192.057 66.5122C191.817 66.5122 191.623 66.7066 191.623 66.9462C191.623 67.186 191.817 67.3802 192.057 67.3802Z" fill="black"/>
<path d="M191.87 66.9062C191.928 66.9062 191.973 66.8598 191.973 66.803C191.973 66.7459 191.928 66.6997 191.87 66.6997C191.812 66.6997 191.767 66.7459 191.767 66.803C191.767 66.8598 191.812 66.9062 191.87 66.9062Z" fill="white"/>
<path d="M188.652 67.3802C188.892 67.3802 189.086 67.186 189.086 66.9462C189.086 66.7066 188.892 66.5122 188.652 66.5122C188.412 66.5122 188.218 66.7066 188.218 66.9462C188.218 67.186 188.412 67.3802 188.652 67.3802Z" fill="black"/>
<path d="M188.466 66.9062C188.524 66.9062 188.569 66.8598 188.569 66.803C188.569 66.7459 188.524 66.6997 188.466 66.6997C188.408 66.6997 188.363 66.7459 188.363 66.803C188.363 66.8598 188.408 66.9062 188.466 66.9062Z" fill="white"/>
<path opacity="0.15" d="M189.931 68.9272C189.949 68.7893 190.019 68.6635 190.125 68.5753C190.234 68.4871 190.37 68.4433 190.509 68.453C190.572 68.453 190.612 68.516 190.612 68.5982C190.612 68.6805 190.551 68.7015 190.468 68.7015C190.433 68.6987 190.398 68.7029 190.365 68.7137C190.33 68.7247 190.3 68.7421 190.272 68.765C190.246 68.7879 190.223 68.8159 190.208 68.8472C190.192 68.8787 190.183 68.913 190.18 68.9482C190.176 68.9834 190.181 69.0187 190.192 69.0522C190.202 69.0858 190.22 69.1169 190.243 69.1437C190.265 69.1705 190.293 69.1925 190.325 69.2084C190.356 69.2245 190.391 69.2342 190.426 69.237L191.004 69.279C191.067 69.279 191.107 69.3402 191.107 69.4224C191.107 69.5047 191.046 69.5257 190.964 69.5257L190.384 69.4854C190.316 69.4818 190.251 69.4641 190.19 69.4333C190.131 69.4025 190.076 69.3594 190.034 69.307C189.991 69.2543 189.961 69.1934 189.942 69.1279C189.924 69.0625 189.921 68.9941 189.931 68.9272Z" fill="black"/>
<path d="M187.001 66.4513V66.9465C186.994 67.1788 187.033 67.4101 187.117 67.6269C187.201 67.8438 187.327 68.0413 187.49 68.2083C187.651 68.3752 187.845 68.5079 188.058 68.5985C188.272 68.6892 188.503 68.7359 188.734 68.7359C188.967 68.7359 189.198 68.6892 189.411 68.5985C189.625 68.5079 189.819 68.3752 189.98 68.2083C190.143 68.0413 190.269 67.8438 190.353 67.6269C190.437 67.4101 190.475 67.1788 190.468 66.9465V66.4513C190.463 66.3083 190.412 66.1706 190.323 66.0593H191.004C190.955 66.112 190.918 66.1737 190.893 66.2409C190.869 66.3083 190.857 66.3797 190.86 66.4513V66.9465C190.853 67.1788 190.892 67.4101 190.976 67.6269C191.06 67.8438 191.186 68.0413 191.349 68.2083C191.51 68.3752 191.704 68.5079 191.917 68.5985C192.131 68.6892 192.362 68.7359 192.593 68.7359C192.826 68.7359 193.057 68.6892 193.27 68.5985C193.484 68.5079 193.678 68.3752 193.839 68.2083C194.002 68.0413 194.128 67.8438 194.212 67.6269C194.296 67.4101 194.334 67.1788 194.327 66.9465V66.4513C194.325 66.2819 194.259 66.1197 194.138 66C194.019 65.8804 193.856 65.8131 193.687 65.8125H187.619C187.535 65.8064 187.449 65.819 187.371 65.8493C187.292 65.8794 187.22 65.9266 187.161 65.9875C187.103 66.0484 187.057 66.1216 187.029 66.2017C187.001 66.2819 186.993 66.3671 187.001 66.4513ZM191.499 66.04H193.666C193.769 66.0435 193.867 66.0859 193.939 66.1587C194.012 66.2315 194.054 66.3291 194.058 66.432V66.9273C194.058 67.3217 193.9 67.7001 193.622 67.979C193.344 68.2582 192.964 68.4148 192.57 68.4148C192.176 68.4148 191.797 68.2582 191.518 67.979C191.24 67.7001 191.083 67.3217 191.083 66.9273V66.432C191.1 66.3307 191.151 66.238 191.226 66.1674C191.301 66.0969 191.398 66.0523 191.499 66.04ZM187.187 66.4513C187.19 66.3484 187.232 66.2507 187.306 66.1779C187.378 66.1051 187.476 66.0628 187.579 66.0593H189.766C189.87 66.0628 189.968 66.1051 190.039 66.1779C190.113 66.2507 190.155 66.3484 190.158 66.4513V66.9465C190.158 67.341 190.001 67.7193 189.723 67.9983C189.444 68.2774 189.065 68.434 188.671 68.434C188.277 68.434 187.897 68.2774 187.619 67.9983C187.341 67.7193 187.183 67.341 187.183 66.9465L187.187 66.4513Z" fill="black"/>
<path d="M187.075 64.3807C184.814 64.2057 182.301 60.4833 185.622 58.1925C185.622 58.1925 187.467 57.4122 187.467 59.3652C189.002 56.5652 189.859 59.9672 189.859 59.9672C189.859 59.9672 191.55 56.5318 194.7 59.05C196.131 57.3333 196.933 59.225 196.588 59.8813C198.364 58.707 200.111 61.5858 198.709 64.104C198.481 64.5118 198.378 65.2258 198.023 65.1365C196.952 64.8705 196.539 65.455 196.516 66.4018C196.499 67.0615 195.736 66.9968 195.743 66.3563C195.743 65.6825 195.799 63.8905 195.358 63.8905C194.813 63.8905 194.498 64.9493 193.926 64.2615C193.354 63.5738 194.729 62.7495 193.926 62.2053C193.161 61.6855 189.264 64.5469 187.075 64.3807Z" fill="black"/>
<path d="M196.224 67.2772C196.038 68.1032 195.832 68.7227 196.906 68.6387C198.949 68.4952 199.181 65.7512 197.979 65.2139C196.929 64.7397 196.579 65.7512 196.579 65.7512L196.224 67.2772Z" fill="#FC9D9D"/>
<path opacity="0.15" d="M198.1 66.4999C198.058 66.5611 197.997 66.5611 197.913 66.5401C197.86 66.4929 197.797 66.4589 197.729 66.4409C197.661 66.4229 197.589 66.4215 197.521 66.4369C197.418 66.4369 197.335 66.5401 197.232 66.6854C197.118 66.8724 197.054 67.0858 197.047 67.3049L197.006 67.5516C197.006 67.6146 196.943 67.6549 196.861 67.6549C196.779 67.6549 196.758 67.5936 196.758 67.5114L196.8 67.2629C196.81 66.9962 196.882 66.7356 197.006 66.4999C197.059 66.4129 197.127 66.3373 197.208 66.2773C197.29 66.2172 197.383 66.1738 197.481 66.1499C197.685 66.1233 197.89 66.1752 198.058 66.2951C198.1 66.3056 198.123 66.3669 198.1 66.4999Z" fill="black"/>
<path opacity="0.15" d="M179.868 84.6997L180.425 82.5595C180.479 82.1325 181.23 82.1692 181.253 82.6172L183.4 111.825H181.3L179.868 84.6997Z" fill="#231F20"/>
</svg>
