<svg width="28" height="28" viewBox="0 0 28 28" fill="none" xmlns="http://www.w3.org/2000/svg">
<path fill-rule="evenodd" clip-rule="evenodd" d="M17.7472 15.9149C17.9858 15.3742 18.1191 14.7724 18.1191 14.5016C18.1191 12.1544 16.2955 10.2513 14.0463 10.2513C11.7972 10.2513 9.97363 12.1544 9.97363 14.5016C9.97363 16.8487 12.01 18.3886 14.0463 18.3886C15.3489 18.3886 16.5083 17.7515 17.252 16.7595C17.4469 16.5001 17.614 16.2168 17.7472 15.9149ZM14.0463 16.2635C14.5554 16.2635 15.0208 16.0684 15.3787 15.7457C15.8103 15.3566 16.0003 14.7807 16.0003 14.5016C16.0003 13.328 15.1719 12.3764 14.0463 12.3764C12.9208 12.3764 12.0003 13.3264 12.0003 14.5C12.0003 15.3104 12.9208 16.2635 14.0463 16.2635Z" fill="#888888"/>
<path fill-rule="evenodd" clip-rule="evenodd" d="M1.09212 14.7724C1.10803 14.7931 1.07621 14.7527 1.09212 14.7724C0.96764 14.6021 0.970773 14.3996 1.09268 14.2273C1.10161 14.2147 1.11071 14.2016 1.11993 14.1882C4.781 8.84319 9.32105 6 14.0142 6C18.7025 6 23.2385 8.83554 26.8956 14.1698C26.965 14.271 27 14.375 27 14.4995C27 14.6301 26.9593 14.7399 26.8863 14.8461C23.2302 20.1702 18.6982 23 14.0142 23C9.30912 23 4.75717 20.1433 1.09212 14.7724ZM3.93909 13.8525C3.6381 14.2267 3.6381 14.7722 3.93908 15.1465C7.07417 19.0443 10.6042 20.8749 14.0142 20.8749C17.4243 20.8749 20.9543 19.0443 24.0894 15.1465C24.3904 14.7722 24.3904 14.2267 24.0894 13.8525C20.9543 9.95475 17.4243 8.12513 14.0142 8.12513C10.6042 8.12513 7.07417 9.95475 3.93909 13.8525Z" fill="#888888"/>
</svg>
