<svg width="280" height="210" viewBox="0 0 280 210" fill="none" xmlns="http://www.w3.org/2000/svg">
<path d="M165.417 57.575H150.685V99.6642H165.417V57.575Z" fill="white"/>
<path d="M164.363 58.7773H151.737V66.8938H164.363V58.7773Z" fill="#5292B8"/>
<path d="M164.363 67.9473H151.737V76.0638H164.363V67.9473Z" fill="#5292B8"/>
<path opacity="0.6" d="M164.363 58.7773H151.737V66.8938H164.363V58.7773Z" fill="white"/>
<path opacity="0.4" d="M164.363 67.9473H151.737V76.0638H164.363V67.9473Z" fill="white"/>
<path d="M164.363 77.1157H151.737V85.2322H164.363V77.1157Z" fill="#5292B8"/>
<path d="M164.363 86.2854H151.737V94.4019H164.363V86.2854Z" fill="#5292B8"/>
<path opacity="0.2" d="M164.363 86.2854H151.737V94.4019H164.363V86.2854Z" fill="black"/>
<path d="M198.984 77.1562L189.131 66.2051L157.842 94.3575L167.696 105.308L198.984 77.1562Z" fill="white"/>
<path d="M197.384 77.1779L188.939 67.7917L182.905 73.2206L191.35 82.6067L197.384 77.1779Z" fill="#868A91"/>
<path d="M190.57 83.3112L182.124 73.9253L176.09 79.3541L184.536 88.7403L190.57 83.3112Z" fill="#868A91"/>
<path opacity="0.6" d="M197.384 77.1779L188.939 67.7917L182.905 73.2206L191.35 82.6067L197.384 77.1779Z" fill="white"/>
<path opacity="0.4" d="M190.57 83.3112L182.124 73.9253L176.09 79.3541L184.536 88.7403L190.57 83.3112Z" fill="white"/>
<path d="M183.752 89.4438L175.306 80.0579L169.273 85.4867L177.72 94.8728L183.752 89.4438Z" fill="#868A91"/>
<path d="M176.936 95.5773L168.489 86.1912L162.456 91.6202L170.901 101.006L176.936 95.5773Z" fill="#868A91"/>
<path opacity="0.2" d="M176.936 95.5773L168.489 86.1912L162.456 91.6202L170.901 101.006L176.936 95.5773Z" fill="black"/>
<path d="M228.324 190.899H49.2257C49.1634 190.888 49.1069 190.857 49.066 190.808C49.0252 190.761 49.0028 190.699 49.0028 190.636C49.0028 190.573 49.0252 190.512 49.066 190.465C49.1069 190.416 49.1634 190.384 49.2257 190.374H228.324C228.387 190.384 228.443 190.416 228.483 190.465C228.525 190.512 228.546 190.573 228.546 190.636C228.546 190.699 228.525 190.761 228.483 190.808C228.443 190.857 228.387 190.888 228.324 190.899Z" fill="#B2B6BB"/>
<path d="M209.792 89.7854H70.9713C69.5632 89.7854 68.4215 90.9269 68.4215 92.3352V186.49C68.4215 187.899 69.5632 189.04 70.9713 189.04H209.792C211.201 189.04 212.342 187.899 212.342 186.49V92.3352C212.342 90.9269 211.201 89.7854 209.792 89.7854Z" fill="#21252B"/>
<path d="M62.6042 181.699H218.529V187.269C218.529 188.095 218.2 188.888 217.616 189.472C217.033 190.055 216.24 190.384 215.414 190.384H65.7192C64.893 190.384 64.1008 190.055 63.5166 189.472C62.9325 188.888 62.6042 188.095 62.6042 187.269V181.699Z" fill="#21252B"/>
<path d="M208.276 93.7283H72.4849V177.548H208.276V93.7283Z" fill="#61656D"/>
<path d="M212.342 182.056C212.342 182.103 180.121 182.143 140.385 182.143C100.65 182.143 68.4215 182.103 68.4215 182.056C68.4215 182.009 100.634 181.969 140.385 181.969C180.136 181.969 212.342 182 212.342 182.056Z" fill="#3F4249"/>
<path d="M125.134 181.699H155.999L154.362 184.513H126.838L125.134 181.699Z" fill="#3F4249"/>
<path d="M103.318 159.714L106.078 164.248C106.431 164.798 106.555 165.464 106.425 166.105C106.294 166.745 105.918 167.309 105.378 167.676L94.8499 174.162L93.0036 171.784L99.9249 165.039L98.5249 162.958L103.318 159.714Z" fill="#FC9D9D"/>
<path d="M69.4579 159.714L66.6999 164.248C66.3464 164.798 66.2216 165.464 66.3525 166.105C66.4832 166.745 66.8591 167.309 67.3999 167.676L78.2254 174.162L80.0716 171.784L72.8529 165.039L74.2616 162.958L69.4579 159.714Z" fill="#FC9D9D"/>
<path d="M90.2179 149.163L82.7034 148.902L76.1584 150.215C75.635 150.307 75.1366 150.508 74.6953 150.805C74.2541 151.101 73.8798 151.487 73.5964 151.937L69.1147 159.89L74.1774 163.305L76.6274 159.736V174.797H96.2274V159.736L98.4342 163.131L103.6 159.887L99.2252 151.903C98.9359 151.429 98.5462 151.023 98.0833 150.715C97.6203 150.408 97.0956 150.205 96.5459 150.122L90.2057 149.163" fill="#3F4249"/>
<path d="M82.4441 141.631L82.3723 148.934C82.3711 149.097 82.422 149.256 82.5176 149.389L82.5841 149.502C84.3183 152.19 88.5586 151.329 89.9253 149.943C90.0373 149.85 90.1233 149.729 90.1744 149.592C90.2256 149.455 90.2405 149.307 90.2176 149.163L88.9926 141.095L82.4441 141.631Z" fill="#FC9D9D"/>
<path d="M89.7138 138.313C89.7138 138.313 91.0473 147.129 86.184 147.486C81.4345 147.845 81.284 138.931 81.284 138.931L81.1528 136.377L87.269 135.305L88.8143 136.101L89.7138 138.313Z" fill="#FC9D9D"/>
<path opacity="0.15" d="M89.8273 146.755L89.4773 144.331C89.0381 145.892 88.1263 147.194 86.5321 147.455H86.5496L86.2083 147.504C84.9396 147.6 83.8808 147.016 83.0846 145.754C83.0692 145.731 83.0452 145.714 83.0177 145.708C82.9903 145.702 82.9616 145.706 82.9376 145.721C82.9257 145.728 82.9155 145.738 82.9075 145.749C82.8994 145.761 82.8938 145.774 82.8909 145.788C82.8879 145.801 82.8877 145.815 82.8903 145.829C82.893 145.843 82.8982 145.856 82.9061 145.868C83.7513 147.201 84.8731 147.819 86.2311 147.723C86.513 147.702 86.7916 147.647 87.0606 147.56C88.0521 147.658 89.0433 147.37 89.8273 146.755Z" fill="black"/>
<path d="M88.5589 136.346C88.5589 136.346 90.1042 135.321 90.8339 137.078C91.4534 138.558 90.4122 140.168 90.4122 140.168L89.5179 140.07C89.1434 140.054 88.8827 139.876 88.8512 139.517L88.5589 136.346Z" fill="#21252B"/>
<path d="M89.6649 135.275C89.7962 136.951 88.3647 137.391 87.7784 137.438L82.9799 137.846C82.7918 137.863 82.6175 137.952 82.4934 138.094C82.3692 138.237 82.3048 138.422 82.3132 138.61L82.3954 140.138C82.4028 140.24 82.3705 140.341 82.3054 140.42C82.2402 140.499 82.1471 140.55 82.0454 140.562L81.7532 140.593L81.4276 141.001C79.5411 140.546 78.7606 135.194 82.2257 134.12C82.5981 134 82.9078 133.736 83.0867 133.388C83.5907 132.338 85.6574 132.071 86.6987 133.241C86.8003 133.36 86.9281 133.453 87.0721 133.514C87.2161 133.575 87.3722 133.601 87.5282 133.591C88.7864 133.563 89.6002 134.344 89.6649 135.275Z" fill="#21252B"/>
<path d="M81.7754 141.111C81.7614 140.969 81.7092 140.833 81.6243 140.719C81.5395 140.604 81.4252 140.514 81.2934 140.459C81.1618 140.404 81.0176 140.386 80.8764 140.406C80.7352 140.426 80.602 140.484 80.4909 140.574L80.4751 140.59C79.6456 141.305 80.1829 143.551 82.0046 143.356L81.7754 141.111Z" fill="#FC9D9D"/>
<path d="M90.8358 139.923L90.8201 139.907C90.6976 139.836 90.5581 139.799 90.4163 139.8C90.2746 139.8 90.1358 139.84 90.0143 139.913C89.8929 139.986 89.7935 140.091 89.7265 140.216C89.6595 140.341 89.6274 140.481 89.6336 140.623L89.7298 142.77C91.5691 142.705 91.7476 140.509 90.8358 139.923Z" fill="#FC9D9D"/>
<path d="M82.0048 141.388C82.0081 141.444 81.9896 141.499 81.953 141.541C81.9164 141.584 81.8646 141.61 81.8088 141.615C81.7553 141.623 81.7008 141.611 81.6559 141.581C81.6111 141.55 81.5789 141.505 81.5656 141.453L81.3538 140L81.9558 140.016L82.0048 141.388Z" fill="#21252B"/>
<path d="M90.0058 140.801C90.0099 140.857 89.9917 140.912 89.9553 140.955C89.919 140.997 89.8674 141.024 89.8116 141.029C89.758 141.037 89.7033 141.024 89.6581 140.994C89.6128 140.964 89.5802 140.919 89.5666 140.866L89.3566 139.419L89.9586 139.436L90.0058 140.801Z" fill="#21252B"/>
<path d="M87.8116 137.646C87.7304 137.656 87.648 137.656 87.5666 137.646C87.5518 137.646 87.5371 137.644 87.5232 137.638C87.5096 137.632 87.4972 137.623 87.487 137.612C87.4769 137.601 87.4692 137.589 87.4643 137.574C87.4594 137.56 87.4574 137.545 87.4587 137.531C87.4599 137.516 87.4643 137.501 87.4713 137.488C87.4784 137.475 87.4882 137.464 87.5001 137.455C87.5119 137.446 87.5255 137.439 87.54 137.436C87.5546 137.432 87.5696 137.432 87.5841 137.434C87.5999 137.434 88.5589 137.483 88.9666 136.85C88.974 136.838 88.9836 136.828 88.9948 136.82C89.0062 136.812 89.019 136.806 89.0324 136.803C89.0459 136.8 89.0599 136.799 89.0736 136.802C89.0872 136.804 89.1002 136.809 89.1119 136.817C89.1355 136.832 89.1521 136.856 89.1583 136.883C89.1644 136.911 89.1598 136.939 89.1451 136.964C88.7864 137.501 88.1529 137.63 87.8116 137.646Z" fill="#FC9D9D"/>
<path d="M84.1995 142.8C84.2835 142.8 84.3654 142.776 84.4354 142.73C84.5052 142.683 84.5598 142.617 84.592 142.54C84.6243 142.463 84.6329 142.377 84.6168 142.295C84.6007 142.213 84.5605 142.137 84.5013 142.078C84.4422 142.018 84.3668 141.978 84.2845 141.961C84.2024 141.945 84.117 141.953 84.0397 141.985C83.9622 142.017 83.8958 142.071 83.8493 142.141C83.8027 142.211 83.7777 142.293 83.7777 142.377C83.7777 142.489 83.8222 142.596 83.9013 142.676C83.9802 142.755 84.0875 142.8 84.1995 142.8Z" fill="#21252B"/>
<path d="M84.2208 142.637C84.2337 142.637 84.2465 142.635 84.2585 142.63C84.2704 142.625 84.2811 142.618 84.2905 142.609C84.2996 142.6 84.3068 142.589 84.3117 142.578C84.3169 142.566 84.3193 142.553 84.3193 142.54C84.3193 142.514 84.3089 142.489 84.2905 142.47C84.272 142.452 84.247 142.441 84.2208 142.441C84.1948 142.441 84.1696 142.452 84.1512 142.47C84.1327 142.489 84.1223 142.514 84.1223 142.54C84.1223 142.553 84.125 142.566 84.1299 142.578C84.1348 142.589 84.1422 142.6 84.1513 142.609C84.1605 142.618 84.1714 142.625 84.1833 142.63C84.1953 142.635 84.208 142.637 84.2208 142.637Z" fill="white"/>
<path d="M87.4528 142.552C87.5366 142.552 87.6187 142.527 87.6885 142.481C87.7585 142.435 87.8131 142.369 87.8453 142.291C87.8777 142.214 87.8862 142.129 87.8701 142.047C87.854 141.964 87.8138 141.889 87.7546 141.829C87.6955 141.77 87.6201 141.729 87.5378 141.713C87.4556 141.696 87.3703 141.705 87.293 141.737C87.2155 141.769 87.1491 141.823 87.1026 141.893C87.0559 141.962 87.031 142.044 87.031 142.128C87.031 142.24 87.0755 142.347 87.1546 142.427C87.2335 142.506 87.3408 142.551 87.4528 142.552Z" fill="#21252B"/>
<path d="M87.4741 142.409C87.4936 142.409 87.5128 142.403 87.529 142.392C87.5453 142.381 87.5578 142.366 87.5652 142.348C87.5726 142.33 87.5745 142.31 87.5706 142.291C87.5666 142.272 87.5571 142.254 87.543 142.24C87.5291 142.226 87.5114 142.217 87.4922 142.214C87.473 142.21 87.4531 142.212 87.4352 142.22C87.4173 142.228 87.4019 142.241 87.3914 142.257C87.3807 142.273 87.3752 142.293 87.3756 142.312C87.3761 142.338 87.3866 142.363 87.4051 142.381C87.4234 142.399 87.4482 142.409 87.4741 142.409Z" fill="white"/>
<g opacity="0.3">
<path opacity="0.3" d="M86.0387 143.941L86.3887 143.909C86.4048 143.908 86.4206 143.904 86.4349 143.897C86.4493 143.89 86.4622 143.88 86.4727 143.867C86.4834 143.855 86.4915 143.841 86.4965 143.826C86.5016 143.811 86.5035 143.794 86.5025 143.778C86.5013 143.762 86.4971 143.746 86.4897 143.732C86.4825 143.718 86.4726 143.705 86.4605 143.694C86.4482 143.684 86.4341 143.675 86.4188 143.67C86.4034 143.665 86.3873 143.663 86.3712 143.664L86.03 143.698C85.9603 143.702 85.8919 143.678 85.8398 143.632C85.7876 143.586 85.7559 143.521 85.7517 143.451C85.7475 143.381 85.7712 143.313 85.8175 143.261C85.8637 143.209 85.9288 143.177 85.9985 143.173C86.0155 143.173 86.0324 143.17 86.0484 143.163C86.0641 143.157 86.0783 143.147 86.09 143.135C86.1019 143.122 86.1108 143.108 86.1166 143.092C86.1224 143.076 86.1248 143.059 86.1236 143.041C86.1224 143.024 86.1177 143.008 86.1096 142.993C86.1016 142.978 86.0905 142.964 86.0771 142.954C86.0636 142.943 86.0482 142.936 86.0316 142.932C86.0151 142.927 85.9978 142.927 85.981 142.929C85.9152 142.933 85.8508 142.95 85.7918 142.979C85.7328 143.009 85.6805 143.05 85.6378 143.1C85.5953 143.15 85.5634 143.209 85.5442 143.272C85.5249 143.335 85.5188 143.401 85.526 143.467C85.5258 143.532 85.5391 143.597 85.5654 143.658C85.5916 143.718 85.6299 143.772 85.6782 143.816C85.7264 143.861 85.7834 143.895 85.8454 143.917C85.9075 143.938 85.9733 143.946 86.0387 143.941Z" fill="black"/>
</g>
<path d="M98.1747 184.644L94.3247 183.944L93.8137 187.619L97.5884 188.029L98.1747 184.644Z" fill="#FC9D9D"/>
<path opacity="0.15" d="M94.3913 187.647L95.7248 184.1L95.6723 185.934C95.6886 186.018 95.7313 186.095 95.7943 186.153C95.8571 186.212 95.9371 186.247 96.0223 186.258L97.8546 186.487L97.5885 188.013L94.3948 187.646L94.3913 187.647Z" fill="black"/>
<path d="M100.709 190.472C100.033 190.375 99.4129 190.041 98.9586 189.532L98.4336 188.932C98.1141 188.568 97.7042 188.293 97.2454 188.137C96.8697 188.006 96.5512 187.749 96.3448 187.407C96.1387 187.068 96.0573 186.665 96.1149 186.272L96.1254 186.195C96.1936 185.717 96.4476 185.286 96.8322 184.996C97.2169 184.705 97.7006 184.579 98.1781 184.644L101.463 185.101L100.709 190.472Z" fill="#5292B8"/>
<path d="M97.6504 187.801C97.6224 187.801 97.5716 187.801 97.5629 187.763C97.4307 187.437 97.3868 187.082 97.4355 186.734C97.4839 186.385 97.6232 186.056 97.8393 185.78C97.8453 185.773 97.8525 185.769 97.8605 185.766C97.8684 185.762 97.877 185.761 97.8857 185.761C97.8943 185.761 97.9029 185.762 97.9107 185.766C97.9188 185.769 97.926 185.773 97.9321 185.78C97.9384 185.785 97.9436 185.792 97.9471 185.801C97.9506 185.81 97.9524 185.818 97.9524 185.827C97.9524 185.834 97.9506 185.843 97.9471 185.852C97.9436 185.86 97.9384 185.867 97.9321 185.873C97.7289 186.128 97.598 186.434 97.5529 186.758C97.5077 187.082 97.5497 187.411 97.6749 187.714C97.6792 187.719 97.6824 187.726 97.6839 187.733C97.6855 187.74 97.6853 187.747 97.6836 187.754C97.6769 187.773 97.6656 187.789 97.6504 187.801Z" fill="white"/>
<path d="M98.0891 188.071C98.0628 188.081 98.0103 188.071 98.0033 188.032C97.871 187.707 97.8271 187.352 97.8756 187.003C97.9242 186.655 98.0635 186.326 98.2798 186.05C98.2856 186.044 98.2928 186.039 98.3005 186.036C98.3084 186.032 98.3168 186.03 98.3253 186.03C98.3337 186.03 98.3421 186.032 98.35 186.036C98.3579 186.039 98.3649 186.044 98.3708 186.05C98.377 186.055 98.3819 186.064 98.3852 186.071C98.3887 186.079 98.3903 186.088 98.3903 186.097C98.3903 186.104 98.3887 186.113 98.3852 186.121C98.3819 186.128 98.377 186.137 98.3708 186.142C98.1673 186.398 98.0361 186.704 97.9907 187.028C97.9456 187.352 97.9879 187.682 98.1136 187.983C98.1164 187.99 98.1178 187.997 98.1178 188.004C98.1178 188.01 98.1164 188.017 98.1136 188.024C98.1188 188.05 98.1031 188.073 98.0891 188.071Z" fill="white"/>
<path d="M98.5464 188.384C98.5184 188.384 98.4659 188.384 98.4589 188.346C98.3264 188.02 98.2823 187.665 98.3309 187.317C98.3794 186.968 98.5189 186.639 98.7354 186.363C98.7413 186.356 98.7483 186.352 98.7562 186.349C98.7641 186.345 98.7725 186.344 98.7811 186.344C98.7896 186.344 98.798 186.345 98.8059 186.349C98.814 186.351 98.8211 186.356 98.8273 186.361C98.8332 186.368 98.8381 186.375 98.8414 186.382C98.8448 186.391 98.8465 186.4 98.8467 186.408C98.8467 186.415 98.8451 186.424 98.842 186.433C98.8388 186.44 98.8341 186.447 98.8281 186.454C98.6246 186.709 98.4933 187.016 98.4482 187.339C98.4029 187.665 98.4452 187.994 98.5709 188.297C98.5737 188.304 98.5751 188.309 98.5751 188.316C98.5751 188.323 98.5737 188.33 98.5709 188.337C98.5702 188.346 98.5675 188.354 98.5633 188.363C98.5591 188.372 98.5534 188.379 98.5464 188.384Z" fill="white"/>
<path d="M101.15 190.547L100.713 190.486L101.463 185.103L101.901 185.164C101.931 185.168 101.961 185.178 101.987 185.194C102.014 185.21 102.037 185.231 102.056 185.255C102.074 185.28 102.088 185.308 102.095 185.337C102.103 185.367 102.105 185.399 102.1 185.428L101.416 190.328C101.409 190.393 101.378 190.451 101.328 190.493C101.278 190.533 101.214 190.552 101.15 190.547Z" fill="#5292B8"/>
<path opacity="0.3" d="M101.15 190.547L100.713 190.486L101.463 185.103L101.901 185.164C101.931 185.168 101.961 185.178 101.987 185.194C102.014 185.21 102.037 185.231 102.056 185.255C102.074 185.28 102.088 185.308 102.095 185.337C102.103 185.367 102.105 185.399 102.1 185.428L101.416 190.328C101.409 190.393 101.378 190.451 101.328 190.493C101.278 190.533 101.214 190.552 101.15 190.547Z" fill="black"/>
<path d="M75.0157 187.626L78.7677 187.04L78.0834 183.4L74.2684 184.289L75.0157 187.626Z" fill="#FC9D9D"/>
<path opacity="0.15" d="M77.7123 187.197L75.0155 187.626L74.6777 186.116L76.4977 185.799C76.5819 185.785 76.6594 185.745 76.7193 185.684C76.779 185.622 76.8178 185.544 76.8302 185.46L77.3132 183.577L77.7262 187.196L77.7123 187.197Z" fill="black"/>
<path d="M71.0098 184.9L74.2683 184.287C74.7423 184.2 75.2322 184.303 75.6305 184.574C76.0286 184.847 76.3026 185.265 76.3928 185.74L76.4085 185.817C76.4853 186.21 76.4225 186.616 76.2309 186.968C76.0391 187.32 75.7306 187.593 75.3585 187.742C74.9077 187.92 74.5113 188.214 74.2088 188.592L73.7048 189.217C73.2767 189.747 72.6747 190.109 72.0055 190.237L71.0098 184.9Z" fill="#5292B8"/>
<path d="M74.9004 187.371C74.8969 187.364 74.8951 187.357 74.8951 187.35C74.8951 187.343 74.8969 187.336 74.9004 187.329C75.0108 187.021 75.0365 186.688 74.9749 186.368C74.9133 186.046 74.7667 185.747 74.5504 185.502C74.5442 185.496 74.5393 185.489 74.536 185.481C74.5325 185.474 74.5309 185.465 74.5309 185.456C74.5309 185.447 74.5325 185.439 74.536 185.432C74.5393 185.423 74.5442 185.416 74.5504 185.411C74.5561 185.404 74.5633 185.398 74.5714 185.395C74.5794 185.391 74.588 185.39 74.5967 185.39C74.6053 185.39 74.6141 185.391 74.6219 185.395C74.63 185.398 74.6372 185.404 74.6431 185.411C74.8718 185.678 75.0262 186 75.0911 186.345C75.1559 186.692 75.1287 187.047 75.0124 187.379C75.0124 187.42 74.9564 187.43 74.9284 187.421C74.9137 187.407 74.9039 187.39 74.9004 187.371Z" fill="white"/>
<path d="M74.4802 187.661C74.4769 187.654 74.475 187.647 74.475 187.64C74.475 187.633 74.4769 187.626 74.4802 187.621C74.5906 187.313 74.6163 186.98 74.5548 186.658C74.4932 186.336 74.3467 186.037 74.1302 185.792C74.1239 185.787 74.119 185.78 74.1155 185.771C74.112 185.764 74.1101 185.755 74.1099 185.747C74.1096 185.738 74.111 185.729 74.1141 185.722C74.1171 185.713 74.1216 185.706 74.1276 185.699C74.1334 185.694 74.1404 185.689 74.1482 185.685C74.1559 185.682 74.1643 185.68 74.1729 185.68C74.1815 185.68 74.1899 185.682 74.1979 185.684C74.206 185.687 74.2132 185.692 74.2195 185.698C74.4484 185.964 74.6032 186.286 74.668 186.632C74.7329 186.977 74.7054 187.334 74.5887 187.665C74.5887 187.705 74.5327 187.715 74.5047 187.707C74.4767 187.698 74.4837 187.686 74.4802 187.661Z" fill="white"/>
<path d="M74.039 187.996C74.0338 187.983 74.0338 187.968 74.039 187.955C74.1493 187.647 74.1748 187.315 74.1134 186.993C74.0518 186.671 73.9053 186.372 73.689 186.127C73.6829 186.121 73.678 186.114 73.6747 186.106C73.6714 186.099 73.6696 186.09 73.6696 186.081C73.6696 186.072 73.6714 186.064 73.6747 186.057C73.678 186.048 73.6829 186.041 73.689 186.036C73.6948 186.029 73.7018 186.023 73.7095 186.02C73.7174 186.016 73.726 186.015 73.7345 186.015C73.7431 186.015 73.7515 186.016 73.7594 186.02C73.7673 186.023 73.7743 186.029 73.78 186.036C74.0095 186.302 74.1647 186.624 74.2298 186.97C74.2949 187.315 74.2678 187.672 74.151 188.003C74.151 188.043 74.0933 188.053 74.0653 188.045C74.0504 188.032 74.041 188.015 74.039 187.996Z" fill="white"/>
<path d="M71.2913 190.125L70.3761 185.259C70.3703 185.229 70.3705 185.197 70.3768 185.168C70.3831 185.136 70.3951 185.108 70.4126 185.082C70.43 185.057 70.4522 185.035 70.4781 185.019C70.504 185.001 70.533 184.989 70.5633 184.984L70.9973 184.903L72.0018 190.244L71.5678 190.325C71.5048 190.334 71.4408 190.318 71.3891 190.281C71.3375 190.244 71.3025 190.188 71.2913 190.125Z" fill="#5292B8"/>
<path opacity="0.3" d="M71.2913 190.125L70.3761 185.259C70.3703 185.229 70.3705 185.197 70.3768 185.168C70.3831 185.136 70.3951 185.108 70.4126 185.082C70.43 185.057 70.4522 185.035 70.4781 185.019C70.504 185.001 70.533 184.989 70.5633 184.984L70.9973 184.903L72.0018 190.244L71.5678 190.325C71.5048 190.334 71.4408 190.318 71.3891 190.281C71.3375 190.244 71.3025 190.188 71.2913 190.125Z" fill="black"/>
<path d="M88.6232 140.574L86.7857 140.672L86.5424 140.688L84.9324 140.786H84.9149L82.8499 140.9C82.7696 140.904 82.691 140.925 82.6188 140.96C82.5465 140.996 82.4819 141.045 82.4289 141.106C82.376 141.166 82.3356 141.237 82.3102 141.313C82.2849 141.39 82.2751 141.47 82.2812 141.551L82.3127 142.021C82.32 142.241 82.3713 142.457 82.4632 142.657C82.5551 142.857 82.6858 143.036 82.8478 143.185C83.0099 143.333 83.1999 143.448 83.407 143.522C83.6138 143.596 83.8334 143.629 84.0531 143.617C84.2727 143.605 84.4876 143.55 84.6855 143.454C84.8834 143.359 85.0604 143.224 85.2058 143.06C85.3512 142.895 85.4623 142.703 85.5325 142.494C85.6029 142.286 85.6309 142.066 85.6149 141.846L85.5817 141.376C85.575 141.243 85.5239 141.117 85.4364 141.017L86.0699 140.985C85.9968 141.095 85.9623 141.226 85.9719 141.358L86.0052 141.831C86.0365 142.262 86.236 142.665 86.5606 142.951C86.8854 143.238 87.3096 143.386 87.7422 143.363C88.1747 143.34 88.5808 143.148 88.8736 142.829C89.1662 142.51 89.322 142.088 89.3074 141.656L89.2742 141.183C89.2742 141.1 89.257 141.017 89.2236 140.94C89.1904 140.864 89.1417 140.795 89.0806 140.737C89.0197 140.68 88.9476 140.636 88.8689 140.608C88.7901 140.58 88.7067 140.569 88.6232 140.574ZM85.3384 141.372L85.3717 141.843C85.3934 142.214 85.2665 142.579 85.0192 142.857C84.772 143.134 84.4244 143.303 84.0531 143.324C83.6817 143.346 83.3172 143.219 83.0393 142.972C82.7616 142.724 82.5934 142.377 82.5717 142.006L82.5384 141.535C82.5344 141.438 82.5675 141.344 82.631 141.271C82.6945 141.198 82.7834 141.152 82.8797 141.143L84.9464 141.029H84.9622C85.0098 141.026 85.0576 141.032 85.1025 141.047C85.1477 141.063 85.1892 141.087 85.2243 141.119C85.2595 141.152 85.2879 141.191 85.3075 141.234C85.3271 141.277 85.3377 141.324 85.3384 141.372ZM89.0624 141.631C89.0731 141.815 89.0476 141.999 88.987 142.173C88.9266 142.347 88.8325 142.507 88.71 142.645C88.5875 142.782 88.4393 142.895 88.2734 142.975C88.1076 143.055 87.9277 143.102 87.7438 143.112C87.5601 143.123 87.3758 143.098 87.2018 143.037C87.0279 142.976 86.8676 142.882 86.73 142.76C86.5925 142.637 86.4805 142.489 86.4002 142.323C86.32 142.158 86.2731 141.978 86.2624 141.794L86.2292 141.323C86.2252 141.227 86.2584 141.132 86.3219 141.06C86.3855 140.987 86.4744 140.942 86.5704 140.933L86.8154 140.915L88.6529 140.819C88.7509 140.814 88.847 140.848 88.92 140.914C88.9931 140.979 89.0374 141.071 89.0432 141.169L89.0624 141.631Z" fill="#21252B"/>
<path d="M84.9974 144.608L87.0622 144.463C87.0744 144.462 87.0865 144.465 87.0977 144.469C87.1089 144.474 87.1189 144.482 87.1267 144.491C87.1346 144.5 87.1404 144.511 87.1435 144.523C87.1465 144.535 87.1469 144.547 87.1444 144.559C87.0804 144.791 86.9465 144.997 86.761 145.15C86.5755 145.304 86.3475 145.396 86.1076 145.415C85.8678 145.434 85.6281 145.379 85.4207 145.257C85.2133 145.135 85.0483 144.953 84.9484 144.734V144.725C84.94 144.715 84.9345 144.703 84.9326 144.69C84.9307 144.677 84.9323 144.664 84.9373 144.652C84.9424 144.64 84.9506 144.629 84.9611 144.622C84.9718 144.614 84.9842 144.609 84.9974 144.608Z" fill="white"/>
<g opacity="0.3">
<path opacity="0.3" d="M81.3208 142.275C81.2895 142.274 81.2595 142.262 81.2361 142.241C81.2126 142.22 81.1967 142.192 81.1913 142.161L81.158 141.901C81.1531 141.69 81.0725 141.488 80.9305 141.332C80.9041 141.309 80.8733 141.291 80.8399 141.28C80.8066 141.269 80.7713 141.264 80.7363 141.267C80.7039 141.273 80.6705 141.266 80.643 141.248C80.6157 141.229 80.5965 141.201 80.5893 141.169C80.5839 141.137 80.591 141.104 80.6092 141.076C80.6274 141.049 80.6553 141.03 80.6873 141.022C80.8248 141.007 80.9631 141.042 81.0775 141.12C81.1789 141.213 81.2601 141.326 81.3161 141.452C81.3721 141.578 81.4016 141.714 81.403 141.852L81.4345 142.112C81.4365 142.148 81.4263 142.184 81.4057 142.213C81.385 142.243 81.3551 142.265 81.3208 142.275Z" fill="black"/>
</g>
<g opacity="0.3">
<path opacity="0.3" d="M90.2669 141.615C90.2988 141.612 90.3282 141.597 90.3494 141.573C90.3705 141.549 90.3817 141.518 90.3807 141.486V141.225C90.3632 141.123 90.3672 141.018 90.3926 140.917C90.4178 140.816 90.4638 140.721 90.5277 140.639C90.551 140.609 90.5804 140.586 90.614 140.569C90.6476 140.552 90.6845 140.543 90.7219 140.543C90.7534 140.541 90.7835 140.529 90.8073 140.509C90.8311 140.488 90.8472 140.46 90.8532 140.429C90.852 140.397 90.8402 140.367 90.8194 140.343C90.7988 140.319 90.7706 140.303 90.7394 140.298C90.6733 140.3 90.6082 140.316 90.5482 140.344C90.488 140.372 90.4341 140.412 90.3894 140.46C90.2267 140.623 90.1619 140.884 90.1777 141.241V141.502C90.1374 141.575 90.1864 141.615 90.2669 141.615Z" fill="black"/>
</g>
<path opacity="0.15" d="M94.85 174.162L94.6855 174.276L105.381 167.676C105.922 167.308 106.297 166.744 106.427 166.104C106.558 165.464 106.434 164.798 106.081 164.248L105.544 163.373C105.544 163.373 106.925 165.736 103.6 167.825L94.2375 173.784L94.85 174.162Z" fill="black"/>
<path opacity="0.15" d="M68.5514 167.573C66.3009 166.486 66.8941 163.926 66.8941 163.926L66.6999 164.248C66.3464 164.798 66.2216 165.464 66.3525 166.104C66.4832 166.745 66.8591 167.309 67.3999 167.676L78.2761 174.162L78.0294 174.034L78.7749 173.509L68.5514 167.573Z" fill="black"/>
<path d="M67.762 173.26L76.631 174.263H96.2362L104.655 173.26L103.189 182.112H71.3355L68.07 173.512" fill="#5292B8"/>
<path opacity="0.3" d="M67.762 173.26L76.631 174.263H96.2362L104.655 173.26L103.189 182.112H71.3355L68.07 173.512" fill="black"/>
<path d="M86.2438 180.266L100.625 174.514C102.099 173.925 103.621 173.468 105.175 173.147C106.017 172.973 106.893 173.088 107.662 173.472C108.737 174.008 109.555 174.948 109.937 176.087L110.012 176.313C110.336 177.273 110.265 178.323 109.815 179.232C109.566 179.736 109.209 180.177 108.77 180.527C108.331 180.878 107.821 181.127 107.275 181.258L77.9786 188.228L76.7676 183.554L86.2438 180.266Z" fill="#5292B8"/>
<path opacity="0.2" d="M109.816 179.231C110.266 178.323 110.337 177.273 110.014 176.312L109.938 176.087C109.718 175.429 109.349 174.829 108.86 174.337C108.86 174.337 110.299 179.259 105.108 180.385L97.8633 182.161C96.7961 182.422 95.6828 182.43 94.6118 182.185L86.3973 180.311L89.1885 185.561L107.275 181.258C107.821 181.127 108.332 180.878 108.771 180.528C109.21 180.176 109.567 179.735 109.816 179.231Z" fill="black"/>
<path d="M86.3973 180.313L72.0106 174.562C70.5374 173.973 69.0147 173.516 67.4606 173.196C66.6188 173.021 65.7429 173.136 64.9738 173.519C63.8993 174.056 63.0814 174.996 62.6988 176.134L62.6236 176.36C62.3007 177.32 62.3724 178.37 62.8231 179.279C63.0737 179.781 63.4317 180.224 63.8722 180.574C64.3125 180.922 64.8242 181.17 65.3711 181.3L95.0371 188.27L95.8788 183.596L86.3973 180.313Z" fill="#5292B8"/>
<path opacity="0.2" d="M76.9335 184.324L84.1942 186.748L86.2085 186.265L76.881 184.051L76.9335 184.324Z" fill="black"/>
<path opacity="0.2" d="M95.2422 187.562L69.7307 180.784C69.1182 180.609 68.5057 180.476 67.8809 180.339C62.7482 179.209 62.8759 175.693 62.8759 175.693C62.8112 175.837 62.7517 175.984 62.7009 176.134L62.6257 176.36C62.3028 177.321 62.3745 178.371 62.8252 179.279C63.0756 179.781 63.4333 180.224 63.8734 180.572C64.3134 180.922 64.8249 181.171 65.3714 181.3L95.0374 188.27L95.2422 187.562Z" fill="black"/>
<path d="M96.0279 178.85H76.9424L76.0184 166.269C76.0145 166.202 76.0247 166.134 76.0478 166.071C76.0709 166.007 76.1068 165.949 76.1531 165.9C76.1995 165.851 76.2553 165.812 76.3173 165.785C76.3792 165.758 76.4461 165.744 76.5136 165.744H96.4549C96.5225 165.744 96.5893 165.758 96.6513 165.785C96.7132 165.812 96.7692 165.851 96.8156 165.9C96.8618 165.949 96.8977 166.007 96.9209 166.071C96.944 166.134 96.954 166.202 96.9502 166.269L96.0279 178.85Z" fill="#21252B"/>
<path opacity="0.3" d="M96.0279 178.85H76.9424L76.0184 166.269C76.0145 166.202 76.0247 166.134 76.0478 166.071C76.0709 166.007 76.1068 165.949 76.1531 165.9C76.1995 165.851 76.2553 165.812 76.3173 165.785C76.3792 165.758 76.4461 165.744 76.5136 165.744H96.4549C96.5225 165.744 96.5893 165.758 96.6513 165.785C96.7132 165.812 96.7692 165.851 96.8156 165.9C96.8618 165.949 96.8977 166.007 96.9209 166.071C96.944 166.134 96.954 166.202 96.9502 166.269L96.0279 178.85Z" fill="black"/>
<path d="M96.0279 179.212H76.9424L76.0184 166.631C76.0145 166.564 76.0247 166.497 76.0478 166.433C76.0709 166.369 76.1068 166.312 76.1531 166.262C76.1995 166.213 76.2553 166.174 76.3173 166.147C76.3792 166.12 76.4461 166.106 76.5136 166.106H96.4549C96.5225 166.106 96.5893 166.12 96.6513 166.147C96.7132 166.174 96.7692 166.213 96.8156 166.262C96.8618 166.312 96.8977 166.369 96.9209 166.433C96.944 166.497 96.954 166.564 96.9502 166.631L96.0279 179.212Z" fill="#21252B"/>
<path opacity="0.4" d="M76.9424 178.246H96.0331C96.0505 178.246 96.0671 178.253 96.0795 178.266C96.0919 178.278 96.0991 178.294 96.0996 178.311V179.146C96.0996 179.163 96.0927 179.181 96.0802 179.193C96.0676 179.205 96.0508 179.212 96.0331 179.212H77.0001C76.9833 179.212 76.9672 179.205 76.9548 179.195C76.9426 179.183 76.9349 179.169 76.9336 179.151L76.8724 178.316C76.8715 178.308 76.8729 178.297 76.8761 178.288C76.8792 178.28 76.8845 178.273 76.8911 178.266C76.8978 178.259 76.9058 178.253 76.9147 178.25C76.9235 178.246 76.9329 178.246 76.9424 178.246Z" fill="black"/>
<path opacity="0.4" d="M87.605 172.655C87.4575 172.656 87.3128 172.614 87.1883 172.534C87.0639 172.455 86.9647 172.342 86.9026 172.208C86.8404 172.074 86.8182 171.925 86.8382 171.779C86.8581 171.633 86.9195 171.495 87.0153 171.383C86.7421 171.269 86.4395 171.246 86.1522 171.318C85.865 171.389 85.6084 171.551 85.4203 171.78C85.2322 172.008 85.1226 172.291 85.1078 172.587C85.0929 172.882 85.1736 173.175 85.3379 173.421C85.5022 173.667 85.7413 173.854 86.02 173.954C86.2986 174.054 86.6019 174.061 86.8852 173.976C87.1686 173.89 87.4165 173.715 87.5929 173.477C87.7692 173.239 87.8642 172.951 87.864 172.655C87.8649 172.641 87.8649 172.626 87.864 172.611C87.7809 172.641 87.6932 172.656 87.605 172.655Z" fill="black"/>
<path d="M102.938 158.614L97.6561 162.01L98.2431 162.922L103.525 159.527L102.938 158.614Z" fill="white"/>
<path d="M69.0436 159.838L74.228 163.396L74.8429 162.5L69.6585 158.942L69.0436 159.838Z" fill="white"/>
<path d="M86.3029 151.9C85.7966 151.902 85.2924 151.833 84.8049 151.697C84.1147 151.51 83.4686 151.187 82.904 150.748C82.3396 150.309 81.868 149.761 81.5166 149.139L82.3724 148.932C82.3986 148.992 83.1161 150.332 85.0376 150.866C86.0638 151.139 87.1499 151.082 88.1421 150.703C88.9051 150.425 89.9709 150.003 90.2176 149.161L91.0594 149.287C90.7846 150.222 89.7976 151.018 88.4344 151.513C87.7517 151.765 87.0303 151.896 86.3029 151.9Z" fill="white"/>
<path opacity="0.3" d="M96.236 159.736L95.207 158.517L95.0372 165.735H96.285L96.236 159.736Z" fill="black"/>
<path d="M233.954 132.708L189.374 132.6C189.075 132.599 188.832 132.841 188.832 133.141L188.732 173.347C188.732 173.647 188.974 173.89 189.275 173.891L233.854 174C234.154 174 234.397 173.758 234.397 173.458L234.495 133.252C234.497 132.953 234.253 132.709 233.954 132.708Z" fill="white"/>
<g opacity="0.1">
<path opacity="0.1" d="M233.956 132.708L189.376 132.6C189.075 132.599 188.832 132.841 188.832 133.141L188.734 173.347C188.732 173.647 188.976 173.89 189.275 173.891L233.854 174C234.154 174 234.397 173.758 234.399 173.458L234.497 133.252C234.497 132.953 234.255 132.709 233.956 132.708Z" fill="black"/>
</g>
<path d="M232.974 132.709L188.396 132.601C188.095 132.6 187.852 132.842 187.852 133.142L187.754 173.348C187.752 173.647 187.996 173.891 188.295 173.892L232.874 174.001C233.174 174.001 233.417 173.759 233.419 173.459L233.517 133.253C233.517 132.954 233.275 132.71 232.974 132.709Z" fill="white"/>
<path d="M231.471 134.934H189.824V166.887H231.471V134.934Z" fill="#5292B8"/>
<path opacity="0.7" d="M231.471 134.934H189.824V166.887H231.471V134.934Z" fill="white"/>
<path d="M190.045 166.885L204.508 145.929L213.475 159.035L219.553 152.026L231.472 166.875L190.045 166.885Z" fill="#5292B8"/>
<path d="M216.178 143.078C216.178 144.683 214.965 145.985 213.467 145.985C211.969 145.985 210.754 144.685 210.754 143.08C210.754 141.475 211.967 140.175 213.465 140.175C214.963 140.175 216.178 141.474 216.178 143.078Z" fill="#5292B8"/>
<path opacity="0.1" d="M214.629 140.457C214.954 140.739 215.213 141.089 215.39 141.482C215.567 141.875 215.656 142.301 215.653 142.732C215.653 144.337 214.44 145.639 212.942 145.639C212.538 145.638 212.139 145.541 211.778 145.355C212.247 145.762 212.846 145.986 213.467 145.989C214.965 145.989 216.178 144.687 216.178 143.082C216.186 142.544 216.046 142.014 215.773 141.551C215.5 141.088 215.103 140.709 214.629 140.457Z" fill="black"/>
<path opacity="0.1" d="M219.632 151.991L227.087 166.892L231.396 166.859L219.632 151.991Z" fill="black"/>
<path opacity="0.1" d="M204.438 145.947L210.647 162.612L213.425 159.017L204.438 145.947Z" fill="black"/>
<path d="M113.542 72.5847H43.7588C43.0049 72.5847 42.3938 73.1958 42.3938 73.9497V122.99C42.3938 123.744 43.0049 124.355 43.7588 124.355H113.542C114.296 124.355 114.907 123.744 114.907 122.99V73.9497C114.907 73.1958 114.296 72.5847 113.542 72.5847Z" fill="#5292B8"/>
<path opacity="0.2" d="M113.542 72.5847H43.7588C43.0049 72.5847 42.3938 73.1958 42.3938 73.9497V122.99C42.3938 123.744 43.0049 124.355 43.7588 124.355H113.542C114.296 124.355 114.907 123.744 114.907 122.99V73.9497C114.907 73.1958 114.296 72.5847 113.542 72.5847Z" fill="white"/>
<path d="M112.56 72.6616H42.7772C42.0233 72.6616 41.4122 73.2727 41.4122 74.0266V123.067C41.4122 123.821 42.0233 124.432 42.7772 124.432H112.56C113.314 124.432 113.925 123.821 113.925 123.067V74.0266C113.925 73.2727 113.314 72.6616 112.56 72.6616Z" fill="#5292B8"/>
<path opacity="0.5" d="M112.56 72.6616H42.7772C42.0233 72.6616 41.4122 73.2727 41.4122 74.0266V123.067C41.4122 123.821 42.0233 124.432 42.7772 124.432H112.56C113.314 124.432 113.925 123.821 113.925 123.067V74.0266C113.925 73.2727 113.314 72.6616 112.56 72.6616Z" fill="white"/>
<path d="M111.8 118.872H43.5347V119.017H111.8V118.872Z" fill="white"/>
<path d="M110.255 120.927H110.122V121.592H110.255V120.927Z" fill="white"/>
<path d="M110.778 120.927H110.129V121.06H110.778V120.927Z" fill="white"/>
<path d="M111.888 120.932H111.223V121.065H111.888V120.932Z" fill="white"/>
<path d="M111.888 120.939H111.755V121.588H111.888V120.939Z" fill="white"/>
<path d="M111.888 121.972H111.755V122.637H111.888V121.972Z" fill="white"/>
<path d="M111.881 122.503H111.232V122.636H111.881V122.503Z" fill="white"/>
<path d="M110.787 122.498H110.122V122.631H110.787V122.498Z" fill="white"/>
<path d="M110.255 121.977H110.122V122.626H110.255V121.977Z" fill="white"/>
<path d="M102.471 121.531H47.4182C47.2799 121.531 47.1679 121.643 47.1679 121.781V121.783C47.1679 121.921 47.2799 122.033 47.4182 122.033H102.471C102.61 122.033 102.722 121.921 102.722 121.783V121.781C102.722 121.643 102.61 121.531 102.471 121.531Z" fill="white"/>
<path d="M77.1174 121.531H47.4182C47.2799 121.531 47.1679 121.643 47.1679 121.781V121.783C47.1679 121.921 47.2799 122.033 47.4182 122.033H77.1174C77.2557 122.033 77.3677 121.921 77.3677 121.783V121.781C77.3677 121.643 77.2557 121.531 77.1174 121.531Z" fill="#5292B8"/>
<path opacity="0.1" d="M77.1174 121.531H47.4182C47.2799 121.531 47.1679 121.643 47.1679 121.781V121.783C47.1679 121.921 47.2799 122.033 47.4182 122.033H77.1174C77.2557 122.033 77.3677 121.921 77.3677 121.783V121.781C77.3677 121.643 77.2557 121.531 77.1174 121.531Z" fill="black"/>
<path d="M105.163 121.819V121.947H104.682V121.819H105.163Z" fill="white"/>
<path d="M105.763 121.819V121.947H105.28V121.819H105.763Z" fill="white"/>
<path d="M105.819 122.489L106.363 121.074H106.496L105.95 122.489H105.819Z" fill="white"/>
<path d="M107.032 121.819V121.947H106.549V121.819H107.032Z" fill="white"/>
<path d="M107.625 121.819V121.947H107.144V121.819H107.625Z" fill="white"/>
<path d="M45.899 121.782L44.3748 120.902V122.661L45.899 121.782Z" fill="white"/>
<path d="M81.3696 102.248C83.5319 100.086 83.6278 96.6757 81.5836 94.6317C79.5396 92.5876 76.1295 92.6835 73.9672 94.8458C71.8049 97.0081 71.709 100.418 73.753 102.462C75.7972 104.506 79.2073 104.41 81.3696 102.248Z" fill="#5292B8"/>
<path d="M80.745 98.5477L75.775 95.6777V101.416L80.745 98.5477Z" fill="white"/>
<path d="M227.218 108.213H197.507C197.332 108.213 197.159 108.248 196.996 108.315C196.835 108.382 196.688 108.481 196.564 108.605C196.439 108.729 196.341 108.877 196.275 109.039C196.208 109.201 196.175 109.375 196.175 109.55V114.975C196.175 115.329 196.315 115.667 196.565 115.917C196.816 116.168 197.153 116.308 197.507 116.309H198.403L198.447 119.284L200.547 116.309H227.21C227.385 116.31 227.56 116.276 227.722 116.209C227.885 116.143 228.032 116.045 228.156 115.921C228.282 115.797 228.38 115.649 228.449 115.487C228.515 115.325 228.55 115.151 228.55 114.975V109.55C228.55 109.375 228.517 109.201 228.45 109.039C228.384 108.877 228.286 108.729 228.162 108.605C228.037 108.481 227.89 108.382 227.729 108.315C227.567 108.248 227.393 108.213 227.218 108.213Z" fill="#B2B6BB"/>
<path d="M225.608 110.968H199.115V111.613H225.608V110.968Z" fill="white"/>
<path d="M203.821 112.905H199.115V113.551H203.821V112.905Z" fill="white"/>
<path d="M216.372 112.905H204.853V113.551H216.372V112.905Z" fill="white"/>
<path d="M47.0015 133.46H72.6985C73.0037 133.461 73.2963 133.582 73.5123 133.798C73.728 134.014 73.8495 134.307 73.85 134.612V139.309C73.8495 139.614 73.728 139.907 73.5123 140.122C73.2963 140.338 73.0037 140.46 72.6985 140.46H71.925L71.8865 143.04L70.063 140.46H47.0015C46.6963 140.46 46.4037 140.338 46.1878 140.122C45.972 139.907 45.8505 139.614 45.85 139.309V134.612C45.8505 134.307 45.972 134.014 46.1878 133.798C46.4037 133.582 46.6963 133.461 47.0015 133.46Z" fill="#B2B6BB"/>
<path d="M48.3943 136.402H71.3071V135.844H48.3943V136.402Z" fill="white"/>
<path d="M67.2383 138.077H71.3071V137.519H67.2383V138.077Z" fill="white"/>
<path d="M56.3813 138.077H66.3441V137.519H56.3813V138.077Z" fill="white"/>
<path d="M174.262 105.579H152.231C151.639 105.579 151.072 105.814 150.654 106.232C150.235 106.65 150 107.217 150 107.809V129.85C150 130.441 150.235 131.009 150.654 131.427C151.072 131.845 151.639 132.08 152.231 132.08H174.26C174.852 132.08 175.42 131.844 175.838 131.426C176.256 131.008 176.491 130.44 176.491 129.848V107.811C176.491 107.219 176.256 106.652 175.838 106.233C175.42 105.815 174.853 105.58 174.262 105.579Z" fill="#5292B8"/>
<path opacity="0.2" d="M174.262 105.579H152.231C151.639 105.579 151.072 105.814 150.654 106.232C150.235 106.65 150 107.217 150 107.809V129.85C150 130.441 150.235 131.009 150.654 131.427C151.072 131.845 151.639 132.08 152.231 132.08H174.26C174.852 132.08 175.42 131.844 175.838 131.426C176.256 131.008 176.491 130.44 176.491 129.848V107.811C176.491 107.219 176.256 106.652 175.838 106.233C175.42 105.815 174.853 105.58 174.262 105.579Z" fill="black"/>
<path d="M173.269 105.579H151.24C150.649 105.579 150.081 105.814 149.663 106.233C149.244 106.651 149.009 107.219 149.009 107.811V129.84C149.009 130.431 149.244 130.999 149.663 131.417C150.081 131.836 150.649 132.071 151.24 132.071H173.269C173.859 132.071 174.425 131.837 174.843 131.421C175.261 131.005 175.497 130.44 175.501 129.85V107.811C175.501 107.219 175.266 106.651 174.847 106.233C174.429 105.814 173.861 105.579 173.269 105.579Z" fill="#5292B8"/>
<path d="M170.524 126.014C170.24 126.018 169.957 125.996 169.677 125.949L169.61 125.93C169.48 125.889 169.361 125.819 169.26 125.727C169.061 125.456 168.894 125.162 168.763 124.852C168.522 124.356 168.309 123.899 168.126 123.48L167.496 121.996L162.827 111.008L162.775 110.884H162.05L161.998 111.008C161.452 112.303 160.904 113.597 160.356 114.889L157.346 121.714L156.184 124.238C155.815 125.036 155.57 125.505 155.447 125.65C155.34 125.784 155.196 125.884 155.033 125.937C154.966 125.957 154.898 125.97 154.83 125.977C154.641 126 154.361 126.016 153.993 126.021L153.893 126.109V126.684L153.993 126.772C154.819 126.715 155.636 126.686 156.443 126.684C157.157 126.684 157.991 126.714 158.944 126.772L159.033 126.684V126.109L158.933 126.021C158.13 126.021 157.626 125.965 157.427 125.876C157.34 125.848 157.265 125.794 157.211 125.72C157.158 125.647 157.13 125.559 157.129 125.468C157.17 125.079 157.278 124.701 157.449 124.35L158.657 121.515H165.065L166.425 124.892C166.515 125.095 166.568 125.313 166.583 125.535C166.586 125.626 166.556 125.714 166.499 125.785C166.442 125.855 166.361 125.902 166.271 125.916C165.759 125.997 165.241 126.032 164.722 126.021L164.633 126.109V126.684L164.722 126.772C165.946 126.744 167.171 126.711 168.397 126.674C168.73 126.674 169.084 126.683 169.46 126.7C169.792 126.718 170.144 126.742 170.51 126.772L170.539 126.742L170.597 126.684V126.109L170.524 126.014ZM159.047 120.556L161.875 113.883L164.652 120.556H159.047Z" fill="white"/>
<path d="M171.547 111.825V109.949H169.676V110.761H154.834V109.949H152.964V111.825H153.774V125.839H152.964V127.708H154.834V126.896H169.676V127.708H171.547V125.825H170.735V111.825H171.547ZM154.834 126.649V125.839H154.022V111.825H154.834V111.015H169.676V111.825H170.486V125.839H169.676V126.649H154.834Z" fill="#5292B8"/>
<path opacity="0.2" d="M171.547 111.825V109.949H169.676V110.761H154.834V109.949H152.964V111.825H153.774V125.839H152.964V127.708H154.834V126.896H169.676V127.708H171.547V125.825H170.735V111.825H171.547ZM154.834 126.649V125.839H154.022V111.825H154.834V111.015H169.676V111.825H170.486V125.839H169.676V126.649H154.834Z" fill="black"/>
<path d="M140.221 139.475H118.19C117.598 139.475 117.031 139.71 116.613 140.128C116.194 140.546 115.959 141.113 115.959 141.705V163.737C115.959 164.329 116.194 164.896 116.613 165.314C117.031 165.732 117.598 165.967 118.19 165.967H140.219C140.513 165.967 140.804 165.909 141.075 165.796C141.346 165.683 141.592 165.518 141.8 165.31C142.007 165.102 142.171 164.855 142.283 164.583C142.395 164.311 142.451 164.02 142.45 163.727V141.698C142.448 141.108 142.212 140.543 141.794 140.126C141.376 139.71 140.811 139.476 140.221 139.475Z" fill="#5292B8"/>
<path opacity="0.2" d="M140.221 139.475H118.19C117.598 139.475 117.031 139.71 116.613 140.128C116.194 140.546 115.959 141.113 115.959 141.705V163.737C115.959 164.329 116.194 164.896 116.613 165.314C117.031 165.732 117.598 165.967 118.19 165.967H140.219C140.513 165.967 140.804 165.909 141.075 165.796C141.346 165.683 141.592 165.518 141.8 165.31C142.007 165.102 142.171 164.855 142.283 164.583C142.395 164.311 142.451 164.02 142.45 163.727V141.698C142.448 141.108 142.212 140.543 141.794 140.126C141.376 139.71 140.811 139.476 140.221 139.475Z" fill="black"/>
<path d="M139.228 139.475H117.199C116.61 139.477 116.046 139.712 115.629 140.128C115.213 140.544 114.977 141.109 114.975 141.698V163.727C114.975 164.318 115.21 164.886 115.628 165.304C116.047 165.723 116.614 165.958 117.206 165.958H139.228C139.82 165.958 140.387 165.723 140.805 165.305C141.224 164.887 141.459 164.32 141.46 163.728V141.698C141.457 141.107 141.221 140.542 140.803 140.126C140.385 139.709 139.819 139.475 139.228 139.475Z" fill="#5292B8"/>
<path d="M139.228 139.475H117.199C116.61 139.477 116.046 139.712 115.629 140.128C115.213 140.544 114.977 141.109 114.975 141.698V163.727C114.975 164.318 115.21 164.886 115.628 165.304C116.047 165.723 116.614 165.958 117.206 165.958H139.228C139.82 165.958 140.387 165.723 140.805 165.305C141.224 164.887 141.459 164.32 141.46 163.728V141.698C141.457 141.107 141.221 140.542 140.803 140.126C140.385 139.709 139.819 139.475 139.228 139.475Z" fill="#5292B8"/>
<path d="M133.275 148.325L133.306 145.787C133.309 145.746 133.303 145.705 133.287 145.666C133.272 145.628 133.247 145.594 133.216 145.567C133.185 145.539 133.148 145.52 133.108 145.509C133.069 145.498 133.027 145.497 132.986 145.505L125.227 146.741C125.135 146.758 125.053 146.806 124.992 146.876C124.932 146.946 124.897 147.035 124.894 147.128V156.676C124.438 156.317 123.874 156.122 123.293 156.123C122.038 156.123 121.018 156.973 121.018 158.023C121.018 159.073 122.035 159.924 123.293 159.924C124.551 159.924 125.568 159.073 125.568 158.023C125.568 157.937 125.568 157.92 125.568 157.78C125.571 157.737 125.571 157.694 125.568 157.65V151.55V150.715L132.608 149.541V155.556C132.156 155.196 131.595 155.001 131.017 155.003C129.763 155.003 128.751 155.853 128.751 156.903C128.751 157.953 129.771 158.802 131.026 158.802C132.281 158.802 133.301 157.96 133.301 156.91C133.301 156.824 133.301 156.789 133.301 156.653C133.303 156.612 133.303 156.571 133.301 156.53V150.409L133.275 148.325Z" fill="white"/>
</svg>
