<svg width="355" height="266" viewBox="0 0 355 266" fill="none" xmlns="http://www.w3.org/2000/svg">
<path d="M56.5373 234.191L45.5235 110.257C45.2425 107.101 46.2084 103.959 48.2158 101.501L99.0793 39.235C100.365 37.6705 102.018 36.4469 103.894 35.6735C105.769 34.8999 107.807 34.6004 109.826 34.8017L265.42 50.7395C267.574 50.959 269.632 51.7461 271.381 53.02C273.128 54.2939 274.503 56.0088 275.366 57.988L311.189 139.65C312.128 141.796 312.428 144.166 312.056 146.477L297.794 234.213L56.5373 234.191Z" fill="#F2F2F2"/>
<path d="M300.686 234.39H54.023C53.9996 234.39 53.9765 234.386 53.9549 234.377C53.9333 234.368 53.9137 234.355 53.897 234.339C53.8806 234.322 53.8674 234.302 53.8585 234.282C53.8496 234.26 53.845 234.237 53.845 234.213C53.845 234.191 53.8496 234.166 53.8585 234.144C53.8674 234.124 53.8806 234.104 53.897 234.089C53.9137 234.071 53.9333 234.058 53.9549 234.049C53.9765 234.04 53.9996 234.036 54.023 234.036H300.709C300.755 234.036 300.802 234.056 300.836 234.089C300.869 234.122 300.887 234.166 300.887 234.213C300.887 234.237 300.882 234.264 300.871 234.286C300.86 234.311 300.847 234.33 300.827 234.346C300.809 234.364 300.787 234.377 300.762 234.384C300.738 234.39 300.711 234.395 300.686 234.39Z" fill="#AFB3B8"/>
<path d="M154.415 168.688H66.7278V222.777H154.415V168.688Z" fill="#D7DADC"/>
<path d="M151.945 171.171H69.22V220.312H151.945V171.171Z" fill="#F2F2F2"/>
<path d="M151.812 171.171H69.22V220.312H151.812V171.171Z" fill="#F2F2F2"/>
<path d="M160.601 168.688H154.415V222.777H160.601V168.688Z" fill="#AFB3B8"/>
<path d="M151.945 194.424H69.22V197.062H151.945V194.424Z" fill="#D7DADC"/>
<path d="M91.492 172.966H86.3077V194.422H91.492V172.966Z" fill="#AFB3B8"/>
<path d="M105.354 172.966H91.4921V194.422H105.354V172.966Z" fill="#D7DADC"/>
<path d="M96.0978 175.427H93.183V194.426H96.0978V175.427Z" fill="#AFB3B8"/>
<path d="M103.908 175.427H96.0978V194.426H103.908V175.427Z" fill="#D7DADC"/>
<path d="M104.998 194.424H100.659L98.1672 176.513H102.506L104.998 194.424Z" fill="#AFB3B8"/>
<path d="M104.998 194.424H116.568L114.076 176.513H102.506L104.998 194.424Z" fill="#D7DADC"/>
<path d="M87.5984 220.315H83.2597L80.7675 202.404H85.1062L87.5984 220.315Z" fill="#AFB3B8"/>
<path d="M87.5984 220.315H99.1684L96.6762 202.404H85.1062L87.5984 220.315Z" fill="#D7DADC"/>
<path d="M135.035 214.751H108.447V220.317H135.035V214.751Z" fill="#D7DADC"/>
<path d="M127.203 205.906H108.447V210.406H127.203V205.906Z" fill="#D7DADC"/>
<path d="M131.631 210.406H108.447V214.746H131.631V210.406Z" fill="#D7DADC"/>
<path d="M130.385 177.045H126.18V194.428H130.385V177.045Z" fill="#AFB3B8"/>
<path d="M141.621 177.045H130.385V194.428H141.621V177.045Z" fill="#D7DADC"/>
<path d="M139.663 179.018H135.636V194.413H139.663V179.018Z" fill="#AFB3B8"/>
<path d="M146.561 179.018H139.664V194.413H146.561V179.018Z" fill="#D7DADC"/>
<path d="M127.203 209.652H108.447V210.402H127.203V209.652Z" fill="#AFB3B8"/>
<path d="M131.631 213.997H108.447V214.746H131.631V213.997Z" fill="#AFB3B8"/>
<path d="M135.035 219.561H108.447V220.31H135.035V219.561Z" fill="#AFB3B8"/>
<path d="M159.132 222.797L160.089 233.326C160.105 233.417 160.101 233.51 160.077 233.601C160.053 233.69 160.01 233.774 159.951 233.845C159.892 233.918 159.818 233.976 159.734 234.016C159.65 234.056 159.559 234.078 159.466 234.08C159.338 234.078 159.213 234.036 159.11 233.96C159.006 233.885 158.928 233.781 158.887 233.659L156.128 222.797H159.132Z" fill="#D7DADC"/>
<path d="M158.776 228.937L157.619 228.649L156.128 222.797H159.154L160.089 233.349C160.116 233.486 160.096 233.63 160.031 233.754C159.967 233.878 159.861 233.978 159.733 234.036L158.776 228.937Z" fill="#AFB3B8"/>
<path d="M148.318 222.797L149.275 233.326C149.295 233.417 149.295 233.51 149.274 233.599C149.253 233.69 149.212 233.774 149.155 233.845C149.097 233.918 149.024 233.976 148.941 234.016C148.858 234.058 148.767 234.078 148.674 234.08C148.543 234.08 148.415 234.038 148.308 233.963C148.201 233.887 148.119 233.781 148.074 233.659L145.315 222.797H148.318Z" fill="#D7DADC"/>
<path d="M147.317 223.95L145.582 223.617L145.292 222.775H148.296L149.253 233.326C149.28 233.464 149.26 233.608 149.196 233.732C149.131 233.856 149.026 233.956 148.897 234.014L147.317 223.95Z" fill="#AFB3B8"/>
<path d="M82.9257 222.797L81.9912 233.326C81.967 233.417 81.9641 233.513 81.9832 233.603C82.0021 233.694 82.0426 233.781 82.1009 233.854C82.1594 233.927 82.2342 233.987 82.3196 234.025C82.4049 234.064 82.4981 234.082 82.592 234.08C82.7204 234.078 82.8447 234.036 82.9482 233.96C83.0517 233.885 83.1293 233.781 83.1705 233.659L85.9517 222.797H82.9257Z" fill="#D7DADC"/>
<path d="M83.4598 228.405L82.4363 228.139L82.9258 222.797H85.9518L83.1705 233.659C83.1294 233.781 83.0517 233.885 82.948 233.96C82.8446 234.036 82.7202 234.078 82.592 234.08H82.5475L83.4598 228.405Z" fill="#AFB3B8"/>
<path d="M71.8452 222.797L70.8884 233.326C70.8686 233.417 70.8693 233.51 70.89 233.599C70.9109 233.69 70.9516 233.774 71.009 233.845C71.0667 233.918 71.1396 233.976 71.2226 234.016C71.3056 234.058 71.3969 234.078 71.4892 234.08C71.6182 234.08 71.7442 234.04 71.8483 233.965C71.9527 233.889 72.0294 233.781 72.0677 233.659L74.8489 222.797H71.8452Z" fill="#D7DADC"/>
<path d="M73.0022 223.706L71.6895 223.462L71.8452 222.797H74.8489L72.0677 233.659C72.0294 233.781 71.9527 233.889 71.8483 233.965C71.7442 234.04 71.6182 234.08 71.4892 234.08H71.4447L73.0022 223.706Z" fill="#AFB3B8"/>
<path d="M190.037 62.6652C190.038 59.8757 189.005 57.184 187.137 55.1061C185.269 53.0282 182.697 51.7102 179.914 51.4045V51.3158H178.645C175.714 51.4451 172.946 52.6959 170.917 54.8082C168.889 56.9204 167.757 59.731 167.757 62.6541C167.757 65.5772 168.889 68.3877 170.917 70.5C172.946 72.6122 175.714 73.8631 178.645 73.9923H179.914V73.9258C182.697 73.6201 185.269 72.3021 187.137 70.2242C189.005 68.1463 190.038 65.4546 190.037 62.6652Z" fill="#B0B4B9"/>
<path d="M179.913 74.0145C186.205 74.0145 191.306 68.9332 191.306 62.6652C191.306 56.3971 186.205 51.3158 179.913 51.3158C173.622 51.3158 168.521 56.3971 168.521 62.6652C168.521 68.9332 173.622 74.0145 179.913 74.0145Z" fill="#84888F"/>
<path d="M179.914 72.751C185.505 72.751 190.037 68.2354 190.037 62.6652C190.037 57.0949 185.505 52.5793 179.914 52.5793C174.322 52.5793 169.79 57.0949 169.79 62.6652C169.79 68.2354 174.322 72.751 179.914 72.751Z" fill="white"/>
<path d="M179.914 72.751C185.505 72.751 190.037 68.2354 190.037 62.6652C190.037 57.0949 185.505 52.5793 179.914 52.5793C174.322 52.5793 169.79 57.0949 169.79 62.6652C169.79 68.2354 174.322 72.751 179.914 72.751Z" fill="#84888F"/>
<path opacity="0.9" d="M179.914 72.751C185.505 72.751 190.037 68.2354 190.037 62.6652C190.037 57.0949 185.505 52.5793 179.914 52.5793C174.322 52.5793 169.79 57.0949 169.79 62.6652C169.79 68.2354 174.322 72.751 179.914 72.751Z" fill="white"/>
<path d="M179.913 52.5793H179.357C181.92 52.7489 184.323 53.883 186.078 55.7516C187.834 57.6203 188.81 60.0839 188.81 62.643C188.81 65.2021 187.834 67.6657 186.078 69.5344C184.323 71.403 181.92 72.5371 179.357 72.7067H179.913C182.598 72.7067 185.174 71.644 187.072 69.7525C188.971 67.861 190.037 65.2957 190.037 62.6208C190.037 59.946 188.971 57.3806 187.072 55.4892C185.174 53.5977 182.598 52.535 179.913 52.535V52.5793Z" fill="#B0B4B9"/>
<path d="M180.002 63.441L176.643 56.791C176.579 56.6673 176.567 56.5237 176.609 56.3911C176.651 56.2586 176.743 56.1475 176.865 56.0817C176.99 56.0187 177.134 56.0067 177.267 56.0482C177.4 56.0894 177.511 56.1812 177.577 56.3033L180.47 62.0445L184.297 60.1603C184.422 60.1111 184.561 60.1107 184.686 60.1592C184.812 60.2075 184.914 60.3013 184.973 60.4217C185.032 60.542 185.043 60.6801 185.004 60.8083C184.966 60.9366 184.88 61.0454 184.764 61.1135L180.002 63.441Z" fill="#4D61FC"/>
<path opacity="0.5" d="M188.569 67.8522C189.532 66.2841 190.04 64.481 190.037 62.643C190.04 61.3176 189.78 60.0047 189.272 58.7798C188.765 57.5548 188.019 56.4419 187.079 55.5047C186.138 54.5674 185.021 53.8246 183.791 53.3188C182.561 52.813 181.244 52.5543 179.913 52.5572H179.068L188.569 67.8522Z" fill="white"/>
<path opacity="0.5" d="M177.555 52.8451C177.065 52.9737 176.582 53.1291 176.109 53.3106L186.589 70.2238C186.995 69.8598 187.374 69.4672 187.723 69.049L177.555 52.8451Z" fill="white"/>
<path d="M272.496 97.4225H226.594V99.7566H272.496V97.4225Z" fill="#AFB3B8"/>
<path d="M283.599 97.4225H272.518V99.7566H283.599V97.4225Z" fill="#D7DADC"/>
<path d="M245.151 73.9702H240.522V97.4314H245.151V73.9702Z" fill="#AFB3B8"/>
<path d="M257.521 73.9702H245.15V97.4314H257.521V73.9702Z" fill="#D7DADC"/>
<path d="M249.267 76.1649H246.664V97.4338H249.267V76.1649Z" fill="#AFB3B8"/>
<path d="M256.231 76.1649H249.267V97.4338H256.231V76.1649Z" fill="#D7DADC"/>
<path d="M257.21 97.4447H253.339L251.114 77.14H254.985L257.21 97.4447Z" fill="#AFB3B8"/>
<path d="M257.21 97.4447H267.534L265.309 77.14H254.985L257.21 97.4447Z" fill="#D7DADC"/>
<path d="M102.372 93.7209H122.086V65.2456H102.372V93.7209Z" fill="#B0B4B9"/>
<path d="M101.282 93.7209H120.995V65.2456H101.282V93.7209Z" fill="white"/>
<path d="M103.752 90.5732H118.615V68.2514H103.752V90.5732Z" fill="#DBDBDB"/>
<path d="M108.691 80.8199C109.638 80.8199 110.405 80.0558 110.405 79.1131C110.405 78.1705 109.638 77.4062 108.691 77.4062C107.745 77.4062 106.978 78.1705 106.978 79.1131C106.978 80.0558 107.745 80.8199 108.691 80.8199Z" fill="#4D61FC"/>
<g opacity="0.2">
<path opacity="0.2" d="M108.691 86.4281H113.653V72.3922H108.691V86.4281Z" fill="black"/>
</g>
<path d="M92.56 92.8783H71.4447V122.205H92.56V92.8783Z" fill="white"/>
<path d="M93.4501 92.8783H92.5378V122.205H93.4501V92.8783Z" fill="#B0B4B9"/>
<path d="M89.9123 95.6935H74.0925V119.434H89.9123V95.6935Z" fill="#D8DBDD"/>
<path opacity="0.15" d="M273.92 196.264V190.39H257.944C257.617 190.242 257.326 190.026 257.09 189.757C256.854 189.488 256.678 189.172 256.576 188.83C256.471 188.488 256.445 188.127 256.491 187.773C256.54 187.419 256.663 187.079 256.854 186.777C259.012 183.319 259.524 179.04 255.497 176.669C252.226 174.762 247.754 176.004 245.952 179.306C244.461 182.033 245.685 184.427 247.086 186.865C247.26 187.169 247.367 187.505 247.402 187.852C247.438 188.2 247.4 188.551 247.291 188.882C247.182 189.214 247.004 189.52 246.77 189.779C246.534 190.039 246.25 190.247 245.929 190.39H230.154V205.951C230.248 206.334 230.432 206.69 230.69 206.989C230.951 207.287 231.278 207.52 231.645 207.667C232.012 207.815 232.41 207.873 232.806 207.836C233.2 207.8 233.581 207.67 233.914 207.458C237.408 205.308 241.702 204.82 244.06 208.81C245.974 212.069 244.572 216.458 241.235 218.253C238.498 219.738 236.317 218.541 233.825 217.189C232.201 216.325 230.51 216.99 230.154 218.719V233.991H241.235V234.036H265.02V233.991H273.92V218.453C273.942 218.408 273.92 196.264 273.92 196.264Z" fill="black"/>
<path d="M273.92 196.264V190.39H257.944C257.617 190.242 257.326 190.026 257.09 189.757C256.854 189.488 256.678 189.172 256.576 188.83C256.471 188.488 256.445 188.127 256.491 187.773C256.54 187.419 256.663 187.079 256.854 186.777C259.012 183.319 259.524 179.04 255.497 176.669C252.226 174.762 247.754 176.004 245.952 179.306C244.461 182.033 245.685 184.427 247.086 186.865C247.26 187.169 247.367 187.505 247.402 187.852C247.438 188.2 247.4 188.551 247.291 188.882C247.182 189.214 247.004 189.52 246.77 189.779C246.534 190.039 246.25 190.247 245.929 190.39H230.154V205.951C230.248 206.334 230.432 206.69 230.69 206.989C230.951 207.287 231.278 207.52 231.645 207.667C232.012 207.815 232.41 207.873 232.806 207.836C233.2 207.8 233.581 207.67 233.914 207.458C237.408 205.308 241.702 204.82 244.06 208.81C245.974 212.069 244.572 216.458 241.235 218.253C238.498 219.738 236.317 218.541 233.825 217.189C232.201 216.325 230.51 216.99 230.154 218.719V233.991H241.235V234.036H265.02V233.991H273.92V218.453C273.942 218.408 273.92 196.264 273.92 196.264Z" fill="#4D61FC"/>
<path d="M244.06 208.788C241.702 204.776 237.408 205.286 233.914 207.436C233.536 207.676 233.098 207.809 232.65 207.821C232.201 207.834 231.756 207.725 231.364 207.508C230.973 207.289 230.648 206.97 230.421 206.583C230.196 206.196 230.081 205.755 230.087 205.308V190.811H214.557C214.214 190.937 213.904 191.136 213.646 191.393C213.388 191.651 213.19 191.962 213.065 192.303C212.941 192.645 212.892 193.01 212.923 193.372C212.953 193.735 213.063 194.086 213.244 194.402C214.646 196.84 215.847 199.234 214.379 201.961C212.554 205.286 208.082 206.505 204.834 204.599C200.806 202.249 201.296 197.971 203.454 194.491C203.652 194.173 203.776 193.815 203.817 193.444C203.858 193.072 203.815 192.696 203.691 192.344C203.568 191.991 203.366 191.67 203.102 191.405C202.837 191.139 202.517 190.937 202.164 190.811H186.611V190.7H186.388V190.434H186.322V234.036H230.087V219.339C230.083 218.902 230.196 218.471 230.412 218.09C230.63 217.71 230.944 217.393 231.324 217.173C231.703 216.952 232.134 216.835 232.575 216.834C233.013 216.833 233.445 216.948 233.825 217.167C236.273 218.564 238.698 219.761 241.435 218.298C244.75 216.502 245.996 212.024 244.06 208.788Z" fill="#4D61FC"/>
<path d="M273.92 189.924L273.987 147.231H230.221V162.105C230.221 164.078 226.194 168.467 224.525 167.425C221.054 165.252 218.606 161.573 216.226 165.585C214.312 168.821 215.558 173.277 218.873 175.094C221.61 176.557 223.924 172.878 226.372 171.481C228.04 170.528 230.221 174.208 230.221 176.136V190.833H245.551C245.923 190.731 246.268 190.546 246.557 190.292C246.846 190.038 247.073 189.721 247.22 189.366C247.369 189.012 247.433 188.628 247.409 188.244C247.387 187.861 247.275 187.488 247.086 187.153C245.685 184.737 244.461 182.321 245.952 179.594C247.754 176.291 252.226 175.05 255.497 176.979C259.524 179.328 259.012 183.606 256.854 187.087C256.647 187.421 256.52 187.799 256.487 188.191C256.451 188.582 256.511 188.977 256.658 189.341C256.805 189.706 257.037 190.031 257.335 190.29C257.631 190.55 257.984 190.735 258.367 190.833H273.92V189.924Z" fill="#4D61FC"/>
<path opacity="0.15" d="M273.92 189.924V147.231H230.154V162.105C230.154 164.078 236.429 162.881 234.07 166.893C232.134 170.129 228.285 168.755 231.6 170.572C234.337 172.035 226.705 173.41 229.153 172.013C230.822 171.06 230.154 174.208 230.154 176.136V190.833H245.507C245.876 190.731 246.216 190.547 246.503 190.294C246.79 190.041 247.015 189.726 247.162 189.373C247.307 189.02 247.371 188.639 247.347 188.258C247.322 187.877 247.209 187.507 247.02 187.175C245.618 184.737 244.416 182.321 245.885 179.594C247.687 176.291 252.182 175.05 255.43 176.979C259.457 179.328 258.968 183.606 256.787 187.087C256.58 187.422 256.454 187.802 256.422 188.195C256.389 188.588 256.449 188.983 256.6 189.348C256.75 189.713 256.983 190.038 257.283 190.296C257.582 190.554 257.938 190.738 258.323 190.833H273.92V189.924Z" fill="black"/>
<path opacity="0.5" d="M273.92 196.264V190.39H257.944C257.617 190.242 257.326 190.026 257.09 189.757C256.854 189.488 256.678 189.172 256.576 188.83C256.471 188.488 256.445 188.127 256.491 187.773C256.54 187.419 256.663 187.079 256.854 186.777C259.012 183.319 259.524 179.04 255.497 176.669C252.226 174.762 247.754 176.004 245.952 179.306C244.461 182.033 245.685 184.427 247.086 186.865C247.26 187.169 247.367 187.505 247.402 187.852C247.438 188.2 247.4 188.551 247.291 188.882C247.182 189.214 247.004 189.52 246.77 189.779C246.534 190.039 246.25 190.247 245.929 190.39H230.154V205.951C230.248 206.334 230.432 206.69 230.69 206.989C230.951 207.287 231.278 207.52 231.645 207.667C232.012 207.815 232.41 207.873 232.806 207.836C233.2 207.8 233.581 207.67 233.914 207.458C237.408 205.308 241.702 204.82 244.06 208.81C245.974 212.069 244.572 216.458 241.235 218.253C238.498 219.738 236.317 218.541 233.825 217.189C232.201 216.325 230.51 216.99 230.154 218.719V233.991H241.235V234.036H265.02V233.991H273.92V196.264Z" fill="white"/>
<path d="M209.528 149.16C209.35 147.519 207.882 146.744 206.302 147.409C203.899 148.384 201.785 149.271 199.404 147.652C196.534 145.68 195.666 141.534 197.736 138.741C200.294 135.306 204.188 136.148 207.17 138.475C207.457 138.696 207.792 138.846 208.148 138.915C208.504 138.983 208.871 138.966 209.219 138.867C209.568 138.768 209.888 138.588 210.154 138.343C210.421 138.098 210.625 137.794 210.752 137.456L211.642 129.01L212.243 123.38V123.203L207.681 122.715L173.861 119.168L172.126 118.991V119.19L171.57 124.377L170.635 133.399L170.546 133.532L169.389 144.549C169.401 144.602 169.416 144.653 169.434 144.704L167.921 158.935H168.121V159.046L173.327 159.6L182.383 160.553C182.695 160.7 182.97 160.914 183.188 161.181C183.405 161.448 183.559 161.761 183.638 162.096C183.717 162.43 183.719 162.778 183.645 163.114C183.57 163.449 183.42 163.764 183.206 164.034C180.892 167.004 180.025 170.883 183.473 173.432C186.299 175.494 190.504 174.807 192.485 171.947C194.109 169.575 193.219 167.27 192.173 164.898C192.041 164.59 191.976 164.257 191.985 163.922C191.993 163.587 192.074 163.258 192.222 162.957C192.37 162.656 192.581 162.391 192.842 162.178C193.102 161.966 193.405 161.813 193.731 161.728L208.037 163.236L208.638 157.384L209.528 149.16Z" fill="#4D61FC"/>
<path opacity="0.5" d="M209.528 149.16C209.35 147.519 207.882 146.744 206.302 147.409C203.899 148.384 201.785 149.271 199.404 147.652C196.534 145.68 195.666 141.534 197.736 138.741C200.294 135.306 204.188 136.148 207.17 138.475C207.457 138.696 207.792 138.846 208.148 138.915C208.504 138.983 208.871 138.966 209.219 138.867C209.568 138.768 209.888 138.588 210.154 138.343C210.421 138.098 210.625 137.794 210.752 137.456L211.642 129.01L212.243 123.38V123.203L207.681 122.715L173.861 119.168L172.126 118.991V119.19L171.57 124.377L170.635 133.399L170.546 133.532L169.389 144.549C169.401 144.602 169.416 144.653 169.434 144.704L167.921 158.935H168.121V159.046L173.327 159.6L182.383 160.553C182.695 160.7 182.97 160.914 183.188 161.181C183.405 161.448 183.559 161.761 183.638 162.096C183.717 162.43 183.719 162.778 183.645 163.114C183.57 163.449 183.42 163.764 183.206 164.034C180.892 167.004 180.025 170.883 183.473 173.432C186.299 175.494 190.504 174.807 192.485 171.947C194.109 169.575 193.219 167.27 192.173 164.898C192.041 164.59 191.976 164.257 191.985 163.922C191.993 163.587 192.074 163.258 192.222 162.957C192.37 162.656 192.581 162.391 192.842 162.178C193.102 161.966 193.405 161.813 193.731 161.728L208.037 163.236L208.638 157.384L209.528 149.16Z" fill="white"/>
<path d="M275.455 147.564C275.615 147.564 275.744 147.435 275.744 147.276C275.744 147.116 275.615 146.987 275.455 146.987C275.295 146.987 275.166 147.116 275.166 147.276C275.166 147.435 275.295 147.564 275.455 147.564Z" fill="white"/>
<path d="M271.917 190.611V190.39H255.942C255.613 190.244 255.321 190.03 255.081 189.762C254.843 189.494 254.665 189.178 254.56 188.835C254.453 188.493 254.424 188.132 254.471 187.777C254.518 187.422 254.64 187.08 254.829 186.777C257.01 183.319 257.499 179.04 253.472 176.669C250.224 174.762 245.751 176.004 243.949 179.306C242.458 182.033 243.682 184.427 245.062 186.865C245.235 187.169 245.342 187.505 245.378 187.852C245.413 188.2 245.375 188.551 245.266 188.882C245.157 189.214 244.979 189.52 244.746 189.779C244.51 190.039 244.225 190.247 243.905 190.39H228.152V205.951C228.245 206.334 228.43 206.69 228.688 206.989C228.948 207.287 229.275 207.52 229.642 207.667C230.009 207.815 230.408 207.873 230.804 207.836C231.198 207.8 231.578 207.67 231.912 207.458C235.383 205.308 239.699 204.82 242.058 208.81C243.971 212.069 242.547 216.458 239.232 218.253C236.495 219.738 234.293 218.541 231.823 217.189C230.176 216.325 228.508 216.99 228.152 218.719V233.991H239.21V234.036H262.995V233.991H271.917V190.611Z" fill="#4D61FC"/>
<path d="M242.058 208.788C239.699 204.776 235.383 205.286 231.912 207.436C231.531 207.674 231.093 207.805 230.643 207.817C230.194 207.829 229.749 207.721 229.357 207.504C228.964 207.286 228.636 206.968 228.41 206.582C228.18 206.195 228.062 205.756 228.062 205.308V190.811H212.554C212.21 190.935 211.897 191.132 211.637 191.388C211.377 191.645 211.176 191.955 211.049 192.297C210.922 192.639 210.871 193.005 210.901 193.368C210.93 193.732 211.039 194.084 211.219 194.402C212.621 196.84 213.845 199.234 212.354 201.961C210.552 205.286 206.079 206.505 202.809 204.599C198.781 202.249 199.293 197.971 201.451 194.491C201.649 194.173 201.773 193.815 201.814 193.444C201.855 193.072 201.813 192.696 201.689 192.344C201.565 191.991 201.364 191.67 201.099 191.405C200.835 191.139 200.514 190.937 200.161 190.811H184.586V190.7H184.363V190.434H184.297V234.036H228.062V219.339C228.062 218.901 228.178 218.47 228.398 218.091C228.619 217.711 228.935 217.396 229.315 217.176C229.696 216.956 230.127 216.839 230.568 216.838C231.008 216.836 231.44 216.95 231.823 217.167C234.27 218.564 236.673 219.761 239.41 218.298C242.747 216.502 243.971 212.024 242.058 208.788Z" fill="#4D61FC"/>
<path d="M271.895 189.924V147.231H228.129V162.105C228.129 162.553 228.011 162.993 227.782 163.379C227.555 163.765 227.228 164.083 226.834 164.3C226.443 164.518 225.998 164.626 225.548 164.614C225.099 164.602 224.661 164.471 224.28 164.233C220.809 162.061 216.515 161.573 214.134 165.585C212.221 168.821 213.445 173.277 216.782 175.094C219.519 176.557 221.922 175.36 224.369 173.964C224.752 173.747 225.183 173.633 225.624 173.635C226.065 173.636 226.496 173.753 226.877 173.973C227.257 174.193 227.573 174.508 227.793 174.888C228.014 175.268 228.129 175.698 228.129 176.136V190.833H243.46C243.831 190.731 244.176 190.546 244.465 190.292C244.755 190.038 244.981 189.721 245.128 189.366C245.277 189.012 245.342 188.628 245.317 188.244C245.295 187.861 245.184 187.488 244.995 187.153C243.593 184.737 242.369 182.321 243.86 179.594C245.662 176.291 250.135 175.05 253.405 176.979C257.41 179.328 256.921 183.606 254.763 187.087C254.556 187.421 254.429 187.799 254.395 188.191C254.36 188.582 254.42 188.977 254.567 189.341C254.714 189.706 254.945 190.031 255.243 190.29C255.539 190.55 255.893 190.735 256.276 190.833H271.895V189.924Z" fill="#4D61FC"/>
<path d="M208.06 149.071C207.904 147.43 206.436 146.655 204.856 147.32C202.453 148.295 200.317 149.182 197.958 147.563C195.088 145.591 194.198 141.445 196.267 138.652C198.826 135.217 202.72 136.059 205.701 138.386C205.99 138.607 206.327 138.757 206.684 138.825C207.042 138.893 207.41 138.877 207.761 138.778C208.111 138.679 208.433 138.5 208.701 138.255C208.969 138.01 209.176 137.706 209.306 137.367L210.196 128.921L210.774 123.291V123.114L206.213 122.626L172.393 119.079L170.68 118.902V119.101L170.124 124.288L169.167 133.31L169.1 133.443L167.921 144.46L167.988 144.615L166.475 158.846H166.675V158.957L171.859 159.511L180.937 160.464C181.249 160.611 181.524 160.826 181.742 161.093C181.959 161.36 182.113 161.672 182.192 162.007C182.271 162.341 182.273 162.689 182.199 163.025C182.124 163.361 181.974 163.675 181.76 163.945C179.446 166.915 178.579 170.794 182.027 173.343C184.831 175.405 189.058 174.718 191.039 171.858C192.663 169.486 191.773 167.181 190.727 164.809C190.59 164.502 190.523 164.168 190.53 163.832C190.536 163.496 190.617 163.165 190.765 162.863C190.913 162.561 191.126 162.295 191.389 162.084C191.651 161.872 191.957 161.721 192.285 161.639L206.569 163.147L207.192 157.295L208.06 149.071Z" fill="#4D61FC"/>
<path opacity="0.7" d="M271.917 190.39H255.942C255.613 190.244 255.321 190.03 255.081 189.762C254.843 189.494 254.665 189.178 254.56 188.835C254.453 188.493 254.424 188.132 254.471 187.777C254.518 187.422 254.64 187.08 254.829 186.777C257.01 183.319 257.499 179.04 253.472 176.669C250.224 174.762 245.751 176.004 243.949 179.306C242.458 182.033 243.682 184.427 245.062 186.865C245.235 187.169 245.342 187.505 245.378 187.852C245.413 188.2 245.375 188.551 245.266 188.882C245.157 189.214 244.979 189.52 244.746 189.779C244.51 190.039 244.225 190.247 243.905 190.39H228.152V205.951C228.245 206.334 228.43 206.69 228.688 206.989C228.948 207.287 229.275 207.52 229.642 207.667C230.009 207.815 230.408 207.873 230.804 207.836C231.198 207.8 231.578 207.67 231.912 207.458C235.383 205.308 239.699 204.82 242.058 208.81C243.971 212.069 242.547 216.458 239.232 218.253C236.495 219.738 234.293 218.541 231.823 217.189C230.176 216.325 228.508 216.99 228.152 218.719V233.991H239.21V234.036H262.995V233.991H271.917V190.39Z" fill="white"/>
<path opacity="0.7" d="M208.06 149.071C207.904 147.43 206.436 146.655 204.856 147.32C202.453 148.295 200.317 149.182 197.958 147.563C195.088 145.591 194.198 141.445 196.267 138.652C198.826 135.217 202.72 136.059 205.701 138.386C205.99 138.607 206.327 138.757 206.684 138.825C207.042 138.893 207.41 138.877 207.761 138.778C208.111 138.679 208.433 138.5 208.701 138.255C208.969 138.01 209.176 137.706 209.306 137.367L210.196 128.921L210.774 123.291V123.114L206.213 122.626L172.393 119.079L170.68 118.902V119.101L170.124 124.288L169.167 133.31L169.1 133.443L167.921 144.46L167.988 144.615L166.475 158.846H166.675V158.957L171.859 159.511L180.937 160.464C181.249 160.611 181.524 160.826 181.742 161.093C181.959 161.36 182.113 161.672 182.192 162.007C182.271 162.341 182.273 162.689 182.199 163.025C182.124 163.361 181.974 163.675 181.76 163.945C179.446 166.915 178.579 170.794 182.027 173.343C184.831 175.405 189.058 174.718 191.039 171.858C192.663 169.486 191.773 167.181 190.727 164.809C190.59 164.502 190.523 164.168 190.53 163.832C190.536 163.496 190.617 163.165 190.765 162.863C190.913 162.561 191.126 162.295 191.389 162.084C191.651 161.872 191.957 161.721 192.285 161.639L206.569 163.147L207.192 157.295L208.06 149.071Z" fill="white"/>
<path d="M185.142 118.703L188.191 118.525C188.261 118.519 188.332 118.532 188.395 118.563C188.459 118.594 188.512 118.643 188.549 118.703C188.586 118.763 188.605 118.832 188.605 118.902C188.604 118.973 188.584 119.042 188.547 119.102C188.407 119.337 188.197 119.523 187.946 119.633L185.142 118.703Z" fill="#F39494"/>
<path d="M183.117 118.148C183.117 118.148 186.054 117.771 186.21 117.794C186.366 117.816 186.855 118.326 186.299 118.636L184.853 118.725L183.117 118.148Z" fill="#F39494"/>
<path opacity="0.15" d="M185.854 118.658C185.988 118.725 188.435 119.279 188.435 119.279L188.057 119.633L184.942 118.747L185.854 118.658Z" fill="black"/>
<path opacity="0.15" d="M183.607 118.104L185.854 118.658L185.498 118.702L183.162 118.148L183.607 118.104Z" fill="black"/>
<path d="M190.994 120.986C191.483 120.963 191.417 120.276 190.927 120.121C188.747 119.412 183.095 118.126 182.806 118.082C182.517 118.037 176.999 117.505 171.28 117.195L171.147 122.87C172.743 122.798 174.341 122.843 175.931 123.003C176.62 123.092 178.2 123.446 179.046 123.978C179.891 124.51 181.404 125.109 182.272 125.242C182.362 125.249 182.452 125.225 182.526 125.172C182.599 125.119 182.651 125.042 182.672 124.954C182.717 124.621 182.739 124.133 182.294 123.934C181.849 123.734 179.847 122.515 180.114 121.895C180.381 121.274 182.316 120.853 182.65 120.941C182.984 121.03 185.721 121.606 185.765 121.761C185.81 121.917 188.079 124.444 188.791 124.266C188.871 124.248 188.946 124.21 189.008 124.157C189.071 124.103 189.119 124.035 189.15 123.959C189.18 123.883 189.192 123.801 189.184 123.719C189.176 123.637 189.148 123.559 189.103 123.49C188.591 122.759 187.679 121.274 187.234 120.675C188.591 120.786 190.46 121.008 190.994 120.986Z" fill="#F39494"/>
<path opacity="0.15" d="M187.212 120.675C187.058 120.498 186.858 120.367 186.633 120.298L184.208 119.545L186.722 120.099C186.966 120.164 187.179 120.313 187.323 120.52L187.412 120.675H187.212Z" fill="black"/>
<path opacity="0.15" d="M188.836 123.69C188.19 123.845 186.321 121.806 185.899 121.296C185.833 121.218 185.749 121.157 185.654 121.119L182.695 120.343C182.361 120.276 180.425 120.697 180.136 121.318C180.12 121.391 180.12 121.466 180.136 121.538C180.151 121.611 180.181 121.679 180.225 121.739C180.714 121.207 182.339 120.853 182.65 120.919C182.962 120.986 185.721 121.606 185.765 121.761C185.81 121.917 188.079 124.444 188.791 124.266C188.868 124.247 188.939 124.209 188.999 124.157C189.059 124.105 189.106 124.04 189.136 123.967C189.166 123.894 189.179 123.815 189.173 123.736C189.167 123.657 189.143 123.581 189.103 123.513C189.039 123.603 188.944 123.666 188.836 123.69Z" fill="black"/>
<path opacity="0.15" d="M182.316 124.665C181.449 124.532 179.824 123.867 179.09 123.402C178.356 122.936 177.444 122.227 176.576 121.961C175.263 121.664 173.916 121.545 172.571 121.606L171.147 122.87C172.743 122.798 174.341 122.843 175.931 123.003C176.62 123.092 178.2 123.446 179.046 123.978C179.891 124.51 181.404 125.109 182.294 125.242C182.382 125.249 182.469 125.223 182.539 125.17C182.609 125.117 182.656 125.04 182.672 124.954C182.706 124.785 182.706 124.612 182.672 124.444C182.652 124.518 182.603 124.582 182.537 124.623C182.472 124.664 182.393 124.679 182.316 124.665Z" fill="black"/>
<path d="M174.996 117.218L158.865 113.494L151.745 120.809L173.995 123.136L174.996 117.218Z" fill="#4D61FC"/>
<path d="M174.996 117.218L158.865 113.494L151.745 120.809L173.995 123.136L174.996 117.218Z" fill="#4D61FC"/>
<path d="M158.865 113.494L156.417 94.8735C155.75 91.3269 153.302 90.6619 151.322 89.7974L148.919 88.9107L151.745 120.809L158.865 113.494Z" fill="#4D61FC"/>
<path opacity="0.15" d="M154.593 117.949L154.549 96.7577C154.348 95.6937 154.348 94.0756 152.613 93.1446L149.186 91.7924L151.745 120.875L172.66 122.87L172.927 121.341L155.639 118.88C155.508 118.889 155.378 118.872 155.254 118.83C155.13 118.787 155.016 118.721 154.919 118.634C154.821 118.548 154.742 118.442 154.686 118.324C154.63 118.207 154.599 118.079 154.593 117.949Z" fill="black"/>
<path d="M174.996 117.218L173.995 123.136L172.571 123.225L173.55 116.597L174.996 117.218Z" fill="#21252B"/>
<path d="M126.536 137.389L122.597 100.415C122.286 96.6026 125.401 92.3687 129.05 91.1052L138.239 87.9132L145.315 88.6226L148.719 88.9329C148.786 89.0216 156.017 95.2282 155.972 95.0952L155.75 138.054L126.536 137.389Z" fill="#4D61FC"/>
<path opacity="0.15" d="M142.155 91.4599L143.735 100.615L143.179 91.4377L142.155 91.4599Z" fill="black"/>
<path d="M152.502 96.2701L152.769 96.0041C152.785 95.9828 152.792 95.9564 152.791 95.9298C152.789 95.9032 152.777 95.8782 152.758 95.8593C152.739 95.8405 152.714 95.829 152.687 95.827C152.661 95.8252 152.634 95.8329 152.613 95.8489L152.324 96.1149L152.057 95.8489C152.047 95.8363 152.035 95.8256 152.021 95.8181C152.007 95.8106 151.991 95.8061 151.975 95.8048C151.959 95.8037 151.943 95.8061 151.929 95.8117C151.914 95.8172 151.9 95.8259 151.889 95.8372C151.878 95.8482 151.869 95.8618 151.863 95.8766C151.858 95.8915 151.855 95.9074 151.856 95.9234C151.858 95.9391 151.862 95.9546 151.87 95.9684C151.877 95.9823 151.888 95.9945 151.901 96.0041L152.168 96.2701L151.901 96.5361C151.888 96.5456 151.877 96.5578 151.87 96.5717C151.862 96.5857 151.858 96.601 151.856 96.617C151.855 96.6327 151.858 96.6486 151.863 96.6635C151.869 96.6784 151.878 96.6919 151.889 96.7032C151.9 96.7143 151.914 96.7231 151.929 96.7287C151.943 96.7342 151.959 96.7364 151.975 96.7353C151.991 96.7342 152.007 96.7296 152.021 96.722C152.035 96.7145 152.047 96.7038 152.057 96.6912L152.324 96.4252L152.613 96.6912C152.622 96.7038 152.635 96.7145 152.649 96.722C152.663 96.7296 152.678 96.7342 152.694 96.7353C152.71 96.7364 152.726 96.7342 152.741 96.7287C152.756 96.7231 152.769 96.7143 152.781 96.7032C152.792 96.6919 152.8 96.6784 152.806 96.6635C152.811 96.6486 152.814 96.6327 152.813 96.617C152.812 96.601 152.807 96.5857 152.799 96.5717C152.792 96.5578 152.781 96.5456 152.769 96.5361L152.502 96.2701Z" fill="white"/>
<path d="M145.426 103.984L145.782 103.851C145.812 103.839 145.835 103.816 145.848 103.787C145.86 103.758 145.86 103.725 145.849 103.696C145.837 103.667 145.814 103.643 145.785 103.63C145.755 103.618 145.723 103.618 145.693 103.629L145.359 103.785L145.203 103.43C145.202 103.415 145.197 103.401 145.188 103.389C145.179 103.377 145.168 103.367 145.155 103.36C145.142 103.354 145.127 103.351 145.112 103.351C145.097 103.352 145.083 103.356 145.07 103.363C145.055 103.368 145.04 103.376 145.028 103.387C145.017 103.398 145.007 103.411 145 103.426C144.994 103.44 144.991 103.456 144.992 103.472C144.992 103.488 144.996 103.504 145.003 103.519L145.137 103.851L144.781 104.006C144.736 104.028 144.692 104.095 144.714 104.139C144.736 104.184 144.803 104.228 144.87 104.206L145.226 104.073L145.359 104.427C145.373 104.455 145.397 104.476 145.425 104.488C145.454 104.501 145.485 104.503 145.515 104.494C145.542 104.48 145.564 104.457 145.576 104.428C145.588 104.4 145.59 104.368 145.582 104.339L145.426 103.984Z" fill="white"/>
<path d="M131.609 93.7652L131.942 93.6322C132.009 93.5879 132.031 93.5436 132.009 93.4771C132.008 93.4624 132.002 93.4482 131.994 93.4363C131.985 93.4241 131.974 93.4143 131.961 93.4077C131.947 93.401 131.933 93.3979 131.918 93.3984C131.903 93.3988 131.889 93.403 131.876 93.4106L131.52 93.5657L131.364 93.2111C131.364 93.1935 131.36 93.1763 131.352 93.1605C131.344 93.145 131.332 93.1315 131.318 93.1211C131.303 93.1109 131.287 93.1042 131.27 93.1015C131.252 93.0989 131.234 93.1004 131.217 93.106C131.201 93.1115 131.186 93.1208 131.173 93.1335C131.161 93.1459 131.152 93.1612 131.146 93.178C131.141 93.1949 131.14 93.2126 131.143 93.2299C131.146 93.2472 131.153 93.2636 131.164 93.2776L131.297 93.6322L130.941 93.7874C130.92 93.8011 130.903 93.8218 130.895 93.8459C130.887 93.8703 130.888 93.8965 130.897 93.9204C130.898 93.935 130.904 93.9492 130.912 93.9612C130.921 93.9734 130.932 93.9831 130.945 93.9898C130.958 93.9964 130.973 93.9995 130.988 93.9991C131.003 93.9986 131.017 93.9944 131.03 93.9869L131.386 93.8539L131.52 94.2086C131.537 94.2318 131.562 94.2489 131.59 94.2569C131.618 94.2649 131.648 94.2635 131.675 94.2529C131.69 94.2514 131.704 94.246 131.716 94.2374C131.729 94.229 131.738 94.2177 131.745 94.2044C131.752 94.1913 131.755 94.1767 131.754 94.1618C131.754 94.1469 131.75 94.1325 131.742 94.1199L131.609 93.7652Z" fill="white"/>
<path d="M154.637 104.937L154.993 104.804C155.017 104.787 155.034 104.762 155.042 104.734C155.05 104.706 155.049 104.676 155.038 104.649C155.016 104.605 154.949 104.56 154.904 104.583L154.548 104.738L154.415 104.383C154.401 104.356 154.378 104.334 154.349 104.322C154.321 104.31 154.289 104.308 154.259 104.317C154.244 104.321 154.23 104.329 154.218 104.34C154.206 104.351 154.196 104.364 154.19 104.379C154.184 104.393 154.18 104.409 154.181 104.426C154.181 104.442 154.185 104.457 154.192 104.472L154.326 104.826L153.992 104.959C153.977 104.964 153.963 104.972 153.951 104.983C153.939 104.994 153.929 105.007 153.923 105.022C153.917 105.036 153.913 105.052 153.914 105.068C153.914 105.084 153.918 105.1 153.925 105.115C153.948 105.159 154.014 105.203 154.059 105.159L154.415 105.026L154.571 105.381C154.572 105.395 154.578 105.409 154.586 105.421C154.595 105.434 154.606 105.443 154.619 105.45C154.633 105.457 154.647 105.46 154.662 105.459C154.677 105.459 154.691 105.455 154.704 105.447C154.72 105.442 154.734 105.434 154.746 105.424C154.758 105.413 154.767 105.4 154.774 105.385C154.78 105.37 154.783 105.354 154.782 105.338C154.782 105.322 154.778 105.306 154.771 105.292L154.637 104.937Z" fill="white"/>
<path d="M143.246 113.427L143.602 113.272C143.646 113.25 143.691 113.183 143.668 113.139C143.664 113.124 143.656 113.109 143.645 113.097C143.634 113.086 143.621 113.076 143.606 113.07C143.591 113.064 143.575 113.06 143.559 113.061C143.543 113.061 143.527 113.065 143.513 113.072L143.157 113.205L143.023 112.851C143.018 112.835 143.01 112.821 142.999 112.809C142.989 112.798 142.975 112.788 142.961 112.782C142.946 112.775 142.93 112.772 142.914 112.773C142.898 112.773 142.882 112.777 142.867 112.784C142.84 112.798 142.818 112.822 142.806 112.85C142.794 112.878 142.792 112.91 142.801 112.939L142.956 113.294L142.6 113.427C142.582 113.441 142.568 113.461 142.561 113.483C142.554 113.505 142.554 113.529 142.562 113.551C142.569 113.573 142.583 113.592 142.602 113.606C142.621 113.619 142.644 113.627 142.667 113.627L143.023 113.494L143.179 113.848C143.181 113.863 143.186 113.877 143.194 113.889C143.203 113.901 143.214 113.911 143.228 113.918C143.241 113.924 143.256 113.927 143.27 113.927C143.285 113.926 143.3 113.922 143.312 113.915C143.328 113.91 143.342 113.902 143.354 113.891C143.366 113.881 143.375 113.867 143.382 113.852C143.388 113.838 143.391 113.822 143.391 113.806C143.39 113.79 143.386 113.774 143.379 113.76L143.246 113.427Z" fill="white"/>
<path d="M141.888 108.617L142.244 108.462C142.259 108.46 142.273 108.455 142.285 108.446C142.297 108.438 142.307 108.426 142.314 108.413C142.32 108.4 142.324 108.385 142.323 108.371C142.323 108.356 142.318 108.341 142.311 108.329C142.306 108.313 142.298 108.299 142.287 108.287C142.277 108.275 142.263 108.266 142.249 108.26C142.234 108.253 142.218 108.25 142.202 108.251C142.185 108.251 142.17 108.255 142.155 108.262L141.799 108.395L141.666 108.041C141.648 108.017 141.624 108 141.595 107.992C141.567 107.984 141.537 107.986 141.51 107.996C141.465 108.018 141.421 108.085 141.465 108.129L141.599 108.484L141.243 108.639C141.228 108.641 141.214 108.646 141.202 108.654C141.19 108.663 141.18 108.674 141.173 108.687C141.167 108.701 141.163 108.715 141.164 108.73C141.165 108.745 141.169 108.759 141.176 108.772C141.181 108.787 141.189 108.801 141.2 108.813C141.211 108.825 141.224 108.835 141.239 108.841C141.254 108.847 141.27 108.851 141.286 108.85C141.302 108.85 141.317 108.846 141.332 108.839L141.688 108.706L141.821 109.038C141.826 109.053 141.834 109.067 141.845 109.079C141.856 109.091 141.869 109.101 141.884 109.107C141.899 109.113 141.915 109.117 141.931 109.116C141.947 109.115 141.963 109.112 141.977 109.105C142.022 109.082 142.066 109.016 142.044 108.972L141.888 108.617Z" fill="white"/>
<path d="M148.675 112.54L149.031 112.407C149.044 112.401 149.056 112.391 149.066 112.379C149.075 112.367 149.082 112.354 149.087 112.339C149.091 112.325 149.092 112.31 149.09 112.295C149.088 112.28 149.083 112.265 149.075 112.252C149.074 112.238 149.068 112.223 149.06 112.211C149.051 112.199 149.04 112.189 149.027 112.183C149.013 112.176 148.999 112.173 148.984 112.174C148.969 112.174 148.954 112.178 148.942 112.186L148.586 112.341L148.452 111.986C148.446 111.972 148.438 111.958 148.427 111.947C148.416 111.936 148.402 111.927 148.388 111.921C148.374 111.915 148.358 111.911 148.342 111.911C148.327 111.911 148.311 111.914 148.296 111.92C148.282 111.925 148.268 111.934 148.257 111.945C148.246 111.956 148.237 111.969 148.231 111.984C148.225 111.998 148.221 112.013 148.221 112.029C148.221 112.045 148.224 112.06 148.23 112.075L148.385 112.407L148.029 112.563C148.014 112.567 148 112.575 147.988 112.586C147.976 112.597 147.966 112.61 147.96 112.625C147.954 112.639 147.951 112.655 147.951 112.671C147.951 112.688 147.955 112.703 147.963 112.718C147.976 112.739 147.997 112.755 148.022 112.764C148.046 112.772 148.072 112.771 148.096 112.762L148.452 112.629L148.608 112.984C148.63 113.028 148.697 113.072 148.741 113.05C148.757 113.045 148.771 113.037 148.783 113.027C148.795 113.016 148.805 113.003 148.811 112.988C148.817 112.973 148.82 112.957 148.82 112.941C148.819 112.925 148.815 112.909 148.808 112.895L148.675 112.54Z" fill="white"/>
<path d="M136.459 102.565L136.815 102.432C136.845 102.421 136.868 102.398 136.881 102.369C136.893 102.34 136.894 102.306 136.882 102.277C136.87 102.248 136.847 102.224 136.818 102.212C136.789 102.199 136.756 102.199 136.726 102.211L136.37 102.366L136.237 102.011C136.232 101.996 136.224 101.982 136.213 101.97C136.202 101.958 136.189 101.949 136.174 101.942C136.16 101.936 136.144 101.933 136.127 101.933C136.111 101.934 136.095 101.938 136.081 101.945C136.058 101.962 136.041 101.987 136.033 102.015C136.025 102.043 136.026 102.073 136.037 102.1L136.17 102.432L135.814 102.588C135.787 102.602 135.765 102.625 135.753 102.653C135.741 102.682 135.739 102.713 135.747 102.743C135.765 102.766 135.79 102.783 135.818 102.791C135.846 102.799 135.876 102.798 135.903 102.787L136.259 102.654L136.393 103.009C136.404 103.038 136.427 103.062 136.457 103.074C136.486 103.087 136.519 103.087 136.548 103.075C136.578 103.063 136.601 103.04 136.614 103.011C136.626 102.982 136.627 102.949 136.615 102.92L136.459 102.565Z" fill="white"/>
<path d="M126.625 114.491L126.981 114.336C126.995 114.334 127.01 114.329 127.022 114.32C127.034 114.312 127.044 114.301 127.05 114.287C127.057 114.274 127.06 114.26 127.06 114.245C127.059 114.23 127.055 114.216 127.047 114.203C127.043 114.188 127.034 114.173 127.024 114.161C127.013 114.149 127 114.14 126.985 114.134C126.97 114.128 126.954 114.124 126.938 114.125C126.922 114.125 126.906 114.129 126.892 114.136L126.558 114.269L126.402 113.937C126.402 113.919 126.398 113.902 126.39 113.886C126.382 113.871 126.37 113.857 126.356 113.847C126.342 113.837 126.325 113.83 126.308 113.827C126.29 113.825 126.272 113.826 126.256 113.832C126.239 113.837 126.224 113.847 126.211 113.859C126.199 113.872 126.19 113.887 126.185 113.904C126.179 113.92 126.178 113.938 126.181 113.956C126.184 113.973 126.191 113.989 126.202 114.003L126.335 114.358L125.979 114.513C125.935 114.535 125.89 114.602 125.913 114.646C125.935 114.691 126.002 114.735 126.068 114.713L126.424 114.58L126.558 114.934C126.575 114.958 126.6 114.975 126.628 114.983C126.656 114.991 126.687 114.989 126.714 114.979C126.728 114.977 126.743 114.972 126.755 114.963C126.767 114.955 126.777 114.943 126.783 114.93C126.79 114.917 126.793 114.902 126.793 114.888C126.792 114.873 126.788 114.858 126.78 114.846L126.625 114.491Z" fill="white"/>
<path d="M127.381 120.698L127.737 120.565C127.753 120.56 127.767 120.552 127.779 120.541C127.791 120.53 127.8 120.517 127.807 120.502C127.813 120.488 127.816 120.472 127.816 120.456C127.815 120.44 127.811 120.424 127.804 120.41C127.79 120.382 127.767 120.361 127.738 120.348C127.71 120.336 127.678 120.334 127.648 120.343L127.315 120.498L127.159 120.144C127.157 120.129 127.152 120.115 127.144 120.103C127.135 120.091 127.123 120.081 127.11 120.074C127.097 120.068 127.082 120.064 127.067 120.065C127.053 120.065 127.038 120.07 127.025 120.077C127.01 120.082 126.996 120.09 126.984 120.101C126.972 120.111 126.962 120.125 126.956 120.139C126.95 120.154 126.947 120.17 126.947 120.186C126.947 120.202 126.951 120.218 126.959 120.232L127.092 120.587L126.736 120.72C126.709 120.734 126.687 120.757 126.675 120.786C126.663 120.814 126.661 120.845 126.669 120.875C126.714 120.919 126.758 120.964 126.825 120.942L127.181 120.786L127.315 121.141C127.326 121.17 127.35 121.194 127.379 121.206C127.408 121.219 127.441 121.219 127.47 121.208C127.5 121.196 127.524 121.173 127.536 121.144C127.548 121.114 127.549 121.082 127.537 121.052L127.381 120.698Z" fill="white"/>
<path d="M128.694 130.54L129.05 130.407C129.077 130.393 129.099 130.369 129.111 130.341C129.124 130.313 129.126 130.281 129.117 130.252C129.112 130.236 129.104 130.222 129.093 130.21C129.083 130.198 129.069 130.189 129.054 130.182C129.04 130.176 129.024 130.173 129.007 130.174C128.991 130.174 128.976 130.178 128.961 130.185L128.605 130.318L128.472 129.963C128.454 129.94 128.429 129.923 128.401 129.915C128.373 129.907 128.343 129.908 128.316 129.919C128.29 129.929 128.269 129.948 128.257 129.973C128.244 129.997 128.242 130.026 128.249 130.052L128.405 130.407L128.049 130.54C128.033 130.544 128.019 130.553 128.007 130.563C127.995 130.574 127.986 130.587 127.979 130.602C127.973 130.617 127.97 130.633 127.971 130.649C127.971 130.665 127.975 130.68 127.982 130.695C128.004 130.739 128.071 130.784 128.116 130.761L128.472 130.628L128.627 130.983C128.642 131.005 128.664 131.021 128.689 131.028C128.714 131.035 128.741 131.033 128.765 131.023C128.789 131.012 128.808 130.993 128.82 130.97C128.831 130.946 128.834 130.92 128.828 130.894L128.694 130.54Z" fill="white"/>
<path d="M133.099 128.766L133.455 128.633C133.471 128.629 133.485 128.621 133.497 128.61C133.509 128.599 133.518 128.586 133.525 128.571C133.531 128.556 133.534 128.541 133.534 128.524C133.533 128.508 133.529 128.493 133.522 128.478C133.515 128.465 133.506 128.453 133.494 128.443C133.482 128.434 133.469 128.427 133.454 128.423C133.439 128.418 133.424 128.417 133.409 128.419C133.394 128.421 133.38 128.426 133.366 128.434L133.01 128.567L132.877 128.212C132.872 128.197 132.864 128.183 132.853 128.171C132.842 128.159 132.829 128.149 132.814 128.143C132.8 128.137 132.784 128.134 132.767 128.134C132.751 128.135 132.736 128.139 132.721 128.146C132.698 128.163 132.681 128.188 132.673 128.216C132.664 128.244 132.666 128.274 132.677 128.301L132.81 128.656L132.454 128.789C132.425 128.8 132.401 128.823 132.389 128.852C132.376 128.881 132.376 128.914 132.387 128.944C132.399 128.973 132.422 128.997 132.452 129.009C132.481 129.022 132.514 129.022 132.543 129.01L132.899 128.855L133.033 129.21C133.039 129.224 133.047 129.237 133.058 129.249C133.069 129.26 133.082 129.269 133.097 129.275C133.111 129.281 133.127 129.285 133.142 129.285C133.158 129.285 133.174 129.282 133.188 129.276C133.203 129.27 133.216 129.262 133.228 129.251C133.239 129.24 133.248 129.227 133.254 129.212C133.26 129.198 133.264 129.182 133.264 129.167C133.264 129.151 133.261 129.136 133.255 129.121L133.099 128.766Z" fill="white"/>
<path d="M138.974 127.813L139.33 127.68C139.357 127.666 139.379 127.643 139.391 127.615C139.403 127.586 139.405 127.555 139.396 127.525C139.392 127.51 139.384 127.496 139.373 127.484C139.362 127.472 139.349 127.462 139.334 127.456C139.319 127.45 139.303 127.447 139.287 127.447C139.271 127.447 139.255 127.451 139.241 127.459L138.885 127.614L138.751 127.259C138.739 127.23 138.716 127.206 138.687 127.194C138.658 127.181 138.625 127.181 138.595 127.193C138.566 127.204 138.542 127.227 138.53 127.256C138.517 127.285 138.517 127.318 138.529 127.348L138.684 127.68L138.328 127.835C138.314 127.837 138.3 127.842 138.287 127.851C138.275 127.859 138.265 127.871 138.259 127.884C138.252 127.897 138.249 127.912 138.249 127.926C138.25 127.941 138.254 127.956 138.262 127.968C138.266 127.984 138.274 127.998 138.285 128.01C138.296 128.022 138.309 128.031 138.324 128.038C138.339 128.044 138.355 128.047 138.371 128.046C138.387 128.046 138.403 128.042 138.417 128.035L138.773 127.902L138.907 128.257C138.921 128.284 138.944 128.306 138.973 128.318C139.001 128.33 139.033 128.332 139.063 128.323C139.084 128.304 139.099 128.279 139.107 128.252C139.115 128.224 139.115 128.195 139.107 128.168L138.974 127.813Z" fill="white"/>
<path d="M136.037 133.599L136.392 133.466C136.422 133.454 136.446 133.431 136.458 133.402C136.471 133.373 136.471 133.34 136.459 133.311C136.447 133.281 136.425 133.258 136.395 133.245C136.366 133.233 136.333 133.232 136.303 133.244L135.948 133.399L135.814 133.045C135.809 133.029 135.801 133.015 135.79 133.003C135.78 132.991 135.766 132.982 135.751 132.975C135.737 132.969 135.721 132.966 135.705 132.967C135.689 132.967 135.673 132.971 135.658 132.978C135.631 132.992 135.609 133.015 135.597 133.044C135.585 133.072 135.583 133.104 135.592 133.133L135.747 133.466L135.391 133.621C135.377 133.622 135.363 133.628 135.35 133.636C135.338 133.645 135.328 133.656 135.322 133.669C135.315 133.683 135.312 133.697 135.312 133.712C135.313 133.727 135.317 133.741 135.325 133.754C135.329 133.769 135.337 133.783 135.348 133.795C135.359 133.807 135.372 133.817 135.387 133.823C135.402 133.829 135.418 133.832 135.434 133.832C135.45 133.831 135.466 133.827 135.48 133.82L135.836 133.687L135.97 134.042C135.984 134.069 136.007 134.091 136.036 134.103C136.064 134.115 136.096 134.117 136.126 134.109C136.17 134.064 136.215 133.998 136.17 133.953L136.037 133.599Z" fill="white"/>
<path d="M142.378 133.022L142.734 132.889C142.761 132.875 142.783 132.852 142.795 132.824C142.807 132.795 142.809 132.764 142.801 132.734C142.796 132.719 142.788 132.705 142.777 132.693C142.766 132.681 142.753 132.671 142.738 132.665C142.723 132.659 142.707 132.656 142.691 132.656C142.675 132.657 142.659 132.661 142.645 132.668L142.289 132.801L142.155 132.446C142.138 132.423 142.113 132.406 142.085 132.398C142.057 132.39 142.027 132.391 142 132.402C141.974 132.412 141.953 132.431 141.941 132.455C141.928 132.48 141.926 132.508 141.933 132.535L142.089 132.889L141.733 133.022C141.717 133.027 141.703 133.035 141.691 133.046C141.679 133.057 141.67 133.07 141.663 133.085C141.657 133.099 141.654 133.115 141.654 133.131C141.655 133.147 141.659 133.163 141.666 133.178C141.688 133.222 141.755 133.266 141.799 133.244L142.155 133.111L142.289 133.466C142.306 133.489 142.331 133.506 142.359 133.514C142.387 133.522 142.417 133.521 142.445 133.51C142.459 133.509 142.474 133.503 142.486 133.495C142.498 133.486 142.508 133.475 142.514 133.462C142.521 133.448 142.524 133.434 142.524 133.419C142.523 133.404 142.519 133.39 142.511 133.377L142.378 133.022Z" fill="white"/>
<path d="M148.897 133.687L149.253 133.532C149.275 133.519 149.291 133.498 149.299 133.474C149.307 133.449 149.307 133.423 149.297 133.399C149.296 133.385 149.291 133.371 149.282 133.358C149.273 133.346 149.262 133.336 149.249 133.33C149.236 133.323 149.221 133.32 149.206 133.321C149.191 133.321 149.177 133.325 149.164 133.333L148.808 133.466L148.652 133.111C148.638 133.09 148.618 133.073 148.593 133.065C148.569 133.057 148.543 133.058 148.519 133.067C148.504 133.069 148.49 133.074 148.478 133.082C148.465 133.091 148.456 133.102 148.449 133.115C148.442 133.128 148.439 133.143 148.44 133.158C148.44 133.173 148.444 133.187 148.452 133.2L148.585 133.554L148.252 133.71C148.233 133.724 148.219 133.743 148.212 133.765C148.205 133.787 148.206 133.811 148.213 133.833C148.22 133.855 148.235 133.874 148.253 133.888C148.272 133.902 148.295 133.909 148.318 133.909L148.674 133.776L148.83 134.109C148.844 134.127 148.864 134.141 148.886 134.148C148.908 134.155 148.932 134.155 148.954 134.147C148.977 134.14 148.996 134.126 149.01 134.107C149.023 134.088 149.03 134.065 149.03 134.042L148.897 133.687Z" fill="white"/>
<path d="M154.237 119.7L154.593 119.545C154.637 119.523 154.682 119.456 154.637 119.412C154.636 119.397 154.631 119.383 154.622 119.371C154.614 119.359 154.602 119.349 154.589 119.343C154.576 119.336 154.561 119.333 154.546 119.333C154.531 119.334 154.517 119.338 154.504 119.346L154.148 119.479L154.014 119.124C153.997 119.1 153.972 119.083 153.944 119.075C153.916 119.067 153.886 119.069 153.859 119.08C153.844 119.081 153.83 119.086 153.818 119.095C153.806 119.103 153.796 119.115 153.789 119.128C153.783 119.141 153.779 119.156 153.78 119.17C153.78 119.185 153.785 119.2 153.792 119.213L153.948 119.567L153.592 119.722C153.574 119.722 153.557 119.726 153.541 119.734C153.525 119.743 153.512 119.754 153.502 119.768C153.491 119.782 153.484 119.799 153.482 119.816C153.479 119.834 153.481 119.852 153.486 119.868C153.492 119.885 153.501 119.9 153.514 119.912C153.526 119.925 153.542 119.934 153.558 119.939C153.575 119.944 153.593 119.945 153.611 119.942C153.628 119.939 153.644 119.932 153.658 119.922L154.014 119.789L154.17 120.121C154.17 120.139 154.174 120.156 154.182 120.172C154.19 120.187 154.202 120.201 154.216 120.211C154.231 120.221 154.247 120.228 154.265 120.231C154.282 120.234 154.3 120.232 154.317 120.226C154.333 120.221 154.349 120.211 154.361 120.199C154.373 120.186 154.382 120.171 154.388 120.154C154.393 120.138 154.394 120.12 154.391 120.103C154.388 120.085 154.381 120.069 154.37 120.055L154.237 119.7Z" fill="white"/>
<path d="M147.696 117.351L148.052 117.218C148.066 117.212 148.08 117.203 148.091 117.192C148.102 117.181 148.111 117.168 148.117 117.154C148.123 117.139 148.127 117.124 148.127 117.108C148.127 117.093 148.124 117.077 148.118 117.062C148.113 117.048 148.104 117.035 148.093 117.023C148.082 117.012 148.069 117.003 148.054 116.997C148.04 116.991 148.024 116.987 148.009 116.987C147.993 116.987 147.977 116.99 147.963 116.996L147.607 117.151L147.473 116.796C147.461 116.767 147.438 116.743 147.409 116.731C147.38 116.719 147.347 116.718 147.317 116.73C147.288 116.742 147.264 116.765 147.252 116.794C147.239 116.823 147.239 116.856 147.251 116.885L147.406 117.24L147.05 117.373C147.035 117.377 147.021 117.386 147.009 117.396C146.997 117.407 146.987 117.42 146.981 117.435C146.975 117.45 146.972 117.466 146.972 117.482C146.972 117.498 146.976 117.514 146.984 117.528C146.998 117.555 147.021 117.577 147.049 117.589C147.078 117.601 147.11 117.603 147.139 117.594L147.473 117.439L147.629 117.794C147.633 117.809 147.642 117.823 147.652 117.835C147.663 117.847 147.676 117.857 147.691 117.863C147.706 117.869 147.722 117.872 147.738 117.872C147.754 117.872 147.77 117.868 147.785 117.86C147.808 117.843 147.825 117.818 147.833 117.79C147.841 117.762 147.84 117.732 147.829 117.705L147.696 117.351Z" fill="white"/>
<path d="M152.835 122.183L153.191 122.028C153.236 122.006 153.28 121.939 153.258 121.895C153.253 121.879 153.245 121.865 153.234 121.853C153.224 121.841 153.21 121.832 153.196 121.826C153.181 121.819 153.165 121.816 153.149 121.817C153.133 121.817 153.117 121.821 153.102 121.828L152.746 121.961L152.613 121.607C152.595 121.583 152.571 121.566 152.543 121.558C152.514 121.55 152.484 121.552 152.457 121.562C152.413 121.584 152.368 121.651 152.39 121.695L152.546 122.05L152.19 122.205C152.175 122.207 152.161 122.212 152.149 122.22C152.137 122.229 152.127 122.24 152.12 122.253C152.114 122.267 152.111 122.281 152.111 122.296C152.112 122.311 152.116 122.325 152.123 122.338C152.128 122.353 152.136 122.368 152.147 122.379C152.158 122.391 152.171 122.401 152.186 122.407C152.201 122.413 152.217 122.417 152.233 122.416C152.249 122.416 152.265 122.412 152.279 122.405L152.635 122.272L152.769 122.604C152.773 122.619 152.781 122.634 152.792 122.645C152.803 122.657 152.816 122.667 152.831 122.673C152.846 122.679 152.862 122.683 152.878 122.682C152.894 122.682 152.91 122.678 152.924 122.671C152.946 122.657 152.962 122.636 152.97 122.612C152.978 122.588 152.978 122.561 152.969 122.538L152.835 122.183Z" fill="white"/>
<path d="M139.485 112.651L139.841 112.518C139.857 112.513 139.871 112.505 139.883 112.495C139.895 112.484 139.904 112.471 139.911 112.456C139.917 112.441 139.92 112.425 139.92 112.409C139.919 112.393 139.915 112.377 139.908 112.363C139.894 112.336 139.871 112.314 139.842 112.302C139.814 112.29 139.782 112.288 139.752 112.297L139.396 112.452L139.263 112.097C139.258 112.082 139.25 112.068 139.239 112.056C139.229 112.044 139.215 112.034 139.2 112.028C139.186 112.022 139.17 112.019 139.154 112.019C139.137 112.019 139.122 112.023 139.107 112.031C139.08 112.045 139.058 112.068 139.046 112.096C139.034 112.125 139.032 112.156 139.04 112.186L139.196 112.54L138.84 112.673C138.825 112.678 138.81 112.686 138.798 112.697C138.787 112.708 138.777 112.721 138.771 112.735C138.764 112.75 138.761 112.766 138.762 112.782C138.762 112.798 138.766 112.814 138.773 112.829C138.788 112.856 138.811 112.877 138.839 112.89C138.868 112.902 138.899 112.904 138.929 112.895L139.285 112.74L139.419 113.095C139.423 113.11 139.431 113.124 139.442 113.136C139.453 113.148 139.466 113.157 139.481 113.164C139.496 113.17 139.512 113.173 139.528 113.173C139.544 113.172 139.56 113.168 139.574 113.161C139.588 113.154 139.6 113.144 139.609 113.133C139.619 113.121 139.626 113.108 139.63 113.093C139.634 113.078 139.636 113.063 139.634 113.048C139.632 113.033 139.627 113.019 139.619 113.006L139.485 112.651Z" fill="white"/>
<path d="M146.939 97.8661L147.317 97.7109C147.349 97.7007 147.375 97.679 147.392 97.6504C147.408 97.6218 147.413 97.5879 147.406 97.5557C147.388 97.5265 147.361 97.5043 147.329 97.4923C147.297 97.4801 147.261 97.479 147.228 97.4892L146.85 97.6444L146.694 97.2454C146.68 97.2179 146.657 97.1964 146.628 97.1842C146.6 97.1722 146.568 97.1703 146.538 97.1789C146.509 97.1969 146.487 97.2241 146.475 97.2563C146.463 97.2882 146.462 97.3234 146.472 97.3562L146.627 97.7331L146.227 97.8882C146.2 97.9024 146.178 97.9255 146.166 97.9538C146.154 97.9822 146.152 98.0137 146.16 98.0434C146.168 98.0594 146.178 98.074 146.191 98.086C146.204 98.0982 146.219 98.1075 146.235 98.1137C146.252 98.1199 146.269 98.1228 146.287 98.1221C146.305 98.1214 146.322 98.1172 146.338 98.1099L146.716 97.9547L146.872 98.3537C146.886 98.381 146.91 98.4025 146.938 98.4147C146.967 98.4269 146.998 98.4287 147.028 98.4202C147.044 98.4129 147.059 98.4027 147.071 98.3899C147.083 98.377 147.093 98.3619 147.099 98.3455C147.105 98.3289 147.108 98.3114 147.107 98.2937C147.106 98.2761 147.102 98.2589 147.095 98.2429L146.939 97.8661Z" fill="white"/>
<path opacity="0.15" d="M153.97 136.104L156.195 121.474L155.75 136.104H153.97Z" fill="black"/>
<path d="M161.735 125.375L165.429 125.441C165.617 125.443 165.801 125.496 165.962 125.593C166.122 125.691 166.253 125.83 166.341 125.995L166.764 126.727L165.051 127.148L161.735 125.375Z" fill="#F39494"/>
<path d="M171.748 129.919L166.764 126.594C166.332 126.325 165.858 126.13 165.362 126.018C165.362 126.018 160.445 125.109 160.378 125.064L153.236 121.828L153.636 129.054L156.907 130.207L167.943 133.909C168.047 133.956 168.165 133.961 168.272 133.924C168.38 133.887 168.469 133.81 168.522 133.709C168.549 133.661 168.568 133.608 168.575 133.553C168.582 133.498 168.578 133.442 168.564 133.389C168.549 133.335 168.524 133.285 168.49 133.241C168.457 133.197 168.414 133.16 168.366 133.133L164.606 131.049L168.967 133.443C169.024 133.478 169.089 133.5 169.156 133.509C169.222 133.518 169.291 133.512 169.355 133.494C169.42 133.475 169.48 133.443 169.532 133.4C169.584 133.357 169.626 133.304 169.656 133.244C169.711 133.142 169.734 133.027 169.722 132.912C169.71 132.798 169.664 132.689 169.59 132.601L169.968 132.889C170.076 132.965 170.209 132.998 170.341 132.982C170.473 132.965 170.593 132.901 170.68 132.8C170.726 132.75 170.762 132.691 170.785 132.626C170.808 132.562 170.817 132.493 170.813 132.425C170.809 132.357 170.791 132.29 170.761 132.229C170.73 132.168 170.687 132.113 170.635 132.069L166.319 128.145L171.236 130.783C171.293 130.814 171.356 130.834 171.42 130.841C171.484 130.847 171.55 130.841 171.612 130.823C171.674 130.804 171.732 130.773 171.782 130.732C171.832 130.691 171.873 130.641 171.904 130.584C171.97 130.475 171.991 130.344 171.962 130.22C171.933 130.095 171.856 129.987 171.748 129.919Z" fill="#F39494"/>
<g opacity="0.15">
<path opacity="0.15" d="M169.211 132.49C169.245 132.497 169.279 132.494 169.31 132.483C169.342 132.471 169.369 132.45 169.389 132.424C169.415 132.385 169.425 132.338 169.417 132.293C169.409 132.247 169.383 132.207 169.345 132.18L165.496 129.475C165.407 129.431 165.295 129.431 165.251 129.52C165.225 129.558 165.215 129.605 165.223 129.651C165.232 129.696 165.258 129.737 165.295 129.764L169.167 132.468L169.211 132.49Z" fill="black"/>
</g>
<g opacity="0.15">
<path opacity="0.15" d="M168.054 133.044C168.093 133.054 168.133 133.05 168.17 133.034C168.206 133.018 168.236 132.99 168.255 132.956C168.267 132.935 168.274 132.913 168.277 132.889C168.28 132.866 168.279 132.842 168.272 132.82C168.266 132.797 168.256 132.776 168.241 132.757C168.226 132.739 168.208 132.723 168.188 132.712L164.45 130.628C164.407 130.609 164.36 130.606 164.316 130.618C164.271 130.63 164.232 130.657 164.205 130.695C164.193 130.715 164.185 130.737 164.182 130.761C164.179 130.784 164.181 130.808 164.187 130.831C164.193 130.853 164.204 130.874 164.219 130.893C164.233 130.911 164.251 130.927 164.272 130.939L168.01 133L168.054 133.044Z" fill="black"/>
</g>
<path opacity="0.15" d="M168.299 133.421L158.175 129.719L153.748 128.788V129.232L157.085 130.34L167.721 133.909C167.943 134.02 168.41 133.82 168.299 133.421Z" fill="black"/>
<path opacity="0.15" d="M132.699 118.547L122.775 100.504L122.597 100.415C122.597 100.615 122.82 100.903 122.909 101.08C123.71 102.986 128.405 113.981 131.075 118.835C132.209 120.897 133.055 122.072 134.434 123.025C135.186 123.549 136.01 123.96 136.882 124.244L155.972 130.783V129.897L136.659 122.404C135.763 122.078 134.946 121.565 134.263 120.9C133.58 120.235 133.047 119.433 132.699 118.547Z" fill="black"/>
<path d="M140.842 114.979L133.522 101.147L122.597 100.415L133.255 119.478C133.989 121.207 136.504 122.072 138.261 122.715L155.327 129.742L155.55 122.737L140.842 114.979Z" fill="#4D61FC"/>
<path opacity="0.15" d="M141.91 114.956L133.745 101.368L140.753 115.045L155.772 122.958L141.91 114.956Z" fill="black"/>
<path d="M156.484 123.158L155.305 129.919L153.547 129.276L154.927 122.293L156.484 123.158Z" fill="#21252B"/>
<path d="M136.637 78.7582L135.858 73.7485C135.391 71.155 138.083 69.7807 139.708 69.7807H145.337C147.072 69.7807 149.119 71.1328 148.252 74.0588L147.74 78.4922L136.637 78.7582Z" fill="#1A1A1A"/>
<path opacity="0.2" d="M149.832 90.5065C149.298 91.1715 147.918 92.8783 147.073 93.765C146.65 94.2083 145.893 94.1861 145.382 93.6985L143.935 92.3242C143.312 91.7257 142.311 91.7922 141.955 92.4793L140.909 94.3856C140.62 94.962 139.819 95.1615 139.129 94.8068L133.567 91.5927C133.235 91.3954 132.941 91.14 132.699 90.839C132.61 91.3932 132.966 91.9695 133.567 92.2577L139.129 95.4496C139.819 95.7821 140.62 95.5826 140.932 95.0063L141.955 93.0778C142.333 92.3906 143.335 92.3242 143.958 92.9227L145.404 94.297C145.893 94.7625 146.672 94.7846 147.095 94.3413C147.918 93.4325 149.387 91.637 149.943 90.972C150.076 90.7725 150.188 90.4178 150.032 90.2183L149.832 90.5065Z" fill="#231F20"/>
<path d="M136.281 87.0485L134.19 87.8243C133.945 87.913 133.055 88.2233 132.988 88.7553L132.832 89.7971C132.743 90.3513 132.699 91.2823 132.699 91.2823L139.129 95.0285C139.819 95.361 140.62 95.1615 140.931 94.5851L141.955 92.6788C142.311 91.9916 143.334 91.9251 143.957 92.5236L145.381 93.898C145.893 94.3856 146.65 94.4078 147.072 93.9645C147.918 93.0556 150.076 90.2848 150.076 90.2848C150.076 90.2848 148.563 87.913 147.762 87.4696L144.603 86.6051C142.022 85.8736 139.107 86.0066 136.281 87.0485Z" fill="#21252B"/>
<path d="M146.605 76.5637C146.605 76.5637 137.438 70.8225 137.127 77.8272L136.993 79.667L136.348 88.8218C136.348 89.1543 138.795 90.7947 138.795 90.7947C139.449 91.1739 140.172 91.4189 140.922 91.5149C141.671 91.6106 142.433 91.5559 143.161 91.3533C143.89 91.1507 144.569 90.8046 145.161 90.3356C145.753 89.8663 146.244 89.2838 146.605 88.6223C146.648 88.5623 146.678 88.4944 146.694 88.4228L146.049 83.3023C146.178 82.7648 146.246 82.2146 146.249 81.662C146.338 78.9798 146.605 76.5637 146.605 76.5637Z" fill="#FC9D9D"/>
<path d="M147.629 71.5764C147.629 71.5764 150.855 85.1867 143.891 86.0955C137.816 86.8935 137.149 77.4949 137.149 77.4949L137.394 71.399L147.629 71.5764Z" fill="#FC9D9D"/>
<path opacity="0.15" d="M136.926 80.066C136.926 80.066 137.527 80.1103 137.839 79.8443L136.86 81.3517L136.926 80.066Z" fill="black"/>
<path d="M137.282 76.4307C137.282 76.4307 136.837 75.145 135.502 75.7435C134.167 76.342 134.256 79.8887 136.86 80.066C138.217 80.1768 137.95 79.401 137.727 78.3592L137.282 76.4307Z" fill="#FC9D9D"/>
<path opacity="0.3" d="M135.391 76.6967C135.494 76.6164 135.612 76.5573 135.738 76.5231C135.864 76.4888 135.996 76.4799 136.126 76.4972C136.37 76.5732 136.582 76.7295 136.726 76.9405C136.878 77.2455 136.968 77.5767 136.993 77.9158L137.038 78.2262C137.038 78.337 136.993 78.4035 136.904 78.4035C136.815 78.4035 136.726 78.3592 136.726 78.2705L136.682 77.9602C136.665 77.6855 136.581 77.4193 136.437 77.1843C136.304 77.007 136.192 76.874 136.081 76.874C135.992 76.8501 135.897 76.8496 135.808 76.8731C135.718 76.8964 135.636 76.9425 135.569 77.007C135.48 77.0292 135.391 77.0292 135.347 76.9405C135.302 76.8518 135.347 76.7188 135.391 76.6967Z" fill="black"/>
<path opacity="0.15" d="M146.516 87.1815L146.294 84.987C145.693 85.5855 144.024 86.45 142.133 86.0288C141.187 85.7746 140.337 85.2506 139.685 84.5215C139.656 84.5013 139.621 84.4907 139.585 84.4907C139.55 84.4907 139.515 84.5013 139.485 84.5215C139.463 84.5459 139.451 84.5774 139.451 84.6102C139.451 84.6428 139.463 84.6745 139.485 84.6988C140.326 85.6438 141.478 86.2572 142.734 86.4278C143.282 86.7987 143.899 87.0563 144.548 87.1857C145.198 87.3152 145.867 87.3138 146.516 87.1815Z" fill="black"/>
<g opacity="0.3">
<path opacity="0.3" d="M144.38 83.3467L143.512 83.4353C143.468 83.4271 143.428 83.4059 143.396 83.3742C143.364 83.3425 143.343 83.3021 143.334 83.258C143.338 83.2101 143.358 83.1647 143.39 83.1285C143.422 83.0926 143.465 83.068 143.512 83.0585L144.336 82.992C144.36 82.9882 144.385 82.9902 144.408 82.9978C144.431 83.0053 144.453 83.0184 144.47 83.0357C144.487 83.053 144.5 83.074 144.508 83.0973C144.515 83.1206 144.517 83.1452 144.514 83.1693C144.558 83.1915 144.469 83.3023 144.38 83.3467Z" fill="black"/>
</g>
<g opacity="0.3">
<path opacity="0.3" d="M144.669 82.5265C143.134 82.7481 142.444 81.9501 142.222 81.529C142.202 81.4926 142.196 81.4507 142.204 81.4102C142.212 81.3698 142.234 81.3333 142.266 81.3073C142.307 81.2896 142.352 81.2843 142.396 81.2923C142.439 81.3002 142.479 81.3208 142.511 81.3517C142.734 81.7728 143.49 82.6151 145.315 82.0166C145.336 82.0056 145.36 81.9991 145.384 81.9976C145.409 81.996 145.433 81.9996 145.456 82.008C145.479 82.0162 145.5 82.0293 145.518 82.0459C145.536 82.0628 145.55 82.0829 145.559 82.1053C145.604 82.2161 145.559 82.2826 145.47 82.3491C145.381 82.4156 144.936 82.46 144.669 82.5265Z" fill="black"/>
</g>
<path d="M142.222 78.4924C142.529 78.4924 142.778 78.2441 142.778 77.9382C142.778 77.6321 142.529 77.384 142.222 77.384C141.915 77.384 141.666 77.6321 141.666 77.9382C141.666 78.2441 141.915 78.4924 142.222 78.4924Z" fill="#21252B"/>
<path d="M142.445 77.8944C142.519 77.8944 142.579 77.8348 142.579 77.761C142.579 77.6875 142.519 77.6277 142.445 77.6277C142.371 77.6277 142.311 77.6875 142.311 77.761C142.311 77.8348 142.371 77.8944 142.445 77.8944Z" fill="white"/>
<path d="M146.516 78.7582C146.823 78.7582 147.072 78.5101 147.072 78.204C147.072 77.8979 146.823 77.6498 146.516 77.6498C146.209 77.6498 145.96 77.8979 145.96 78.204C145.96 78.5101 146.209 78.7582 146.516 78.7582Z" fill="#21252B"/>
<path d="M146.761 78.1609C146.835 78.1609 146.896 78.1011 146.896 78.0272C146.896 77.9534 146.835 77.8934 146.761 77.8934C146.688 77.8934 146.627 77.9534 146.627 78.0272C146.627 78.1011 146.688 78.1609 146.761 78.1609Z" fill="white"/>
<g opacity="0.3">
<path opacity="0.3" d="M145.114 81.1302L144.38 81.1967C144.269 81.1967 144.202 81.1302 144.202 81.0637C144.202 80.9972 144.247 80.8864 144.336 80.8864L145.07 80.8199C145.114 80.817 145.157 80.8055 145.196 80.7862C145.235 80.7669 145.271 80.7399 145.3 80.7068C145.329 80.674 145.351 80.6357 145.365 80.5942C145.379 80.5526 145.385 80.5089 145.381 80.4652C145.37 80.375 145.325 80.2925 145.254 80.2349C145.184 80.1771 145.094 80.1485 145.003 80.1549C144.914 80.1549 144.825 80.1106 144.825 80.0219C144.825 79.9332 144.87 79.8445 144.959 79.8445C145.135 79.8317 145.309 79.8867 145.445 79.9979C145.582 80.1092 145.671 80.2686 145.693 80.4431C145.702 80.5262 145.694 80.6106 145.67 80.6907C145.645 80.7709 145.605 80.8454 145.551 80.9097C145.497 80.974 145.43 81.0265 145.355 81.0644C145.28 81.1023 145.198 81.1247 145.114 81.1302Z" fill="black"/>
</g>
<path d="M148.563 67.5197C146.583 66.1232 142.645 67.0985 140.509 68.0738C140.553 67.4532 140.153 67.5197 140.153 67.5197C136.392 68.5172 137.371 71.4875 137.371 71.4875H137.416C137.015 72.3298 136.504 74.1475 136.993 77.4282C136.993 77.4282 138.35 74.7017 138.373 72.5737C140.041 73.3273 144.847 74.3913 147.851 73.3938C148.14 75.1893 148.341 77.4282 148.341 77.4282C148.6 75.8792 148.592 74.2976 148.318 72.751C148.504 72.6218 148.676 72.4732 148.83 72.3077C148.83 72.3077 151.389 69.5147 148.563 67.5197Z" fill="#1A1A1A"/>
<path opacity="0.19" d="M149.542 78.0489C149.542 78.5146 149.403 78.9699 149.143 79.3567C148.883 79.7435 148.513 80.0447 148.081 80.2218C147.649 80.399 147.173 80.4442 146.715 80.3517C146.257 80.2593 145.837 80.0332 145.508 79.7025C145.179 79.3715 144.956 78.9508 144.868 78.4935C144.779 78.0364 144.829 77.5632 145.011 77.1343C145.193 76.7053 145.499 76.34 145.89 76.0844C146.281 75.8289 146.739 75.695 147.206 75.6992C147.828 75.7052 148.422 75.9552 148.859 76.3952C149.297 76.8352 149.542 77.4295 149.542 78.0489Z" fill="white"/>
<path opacity="0.19" d="M143.779 78.0489C143.779 78.5146 143.641 78.9699 143.38 79.3567C143.12 79.7435 142.751 80.0447 142.318 80.2218C141.886 80.399 141.411 80.4442 140.953 80.3517C140.495 80.2593 140.074 80.0332 139.746 79.7025C139.416 79.3715 139.194 78.9508 139.105 78.4935C139.017 78.0364 139.067 77.5632 139.248 77.1343C139.43 76.7053 139.736 76.34 140.127 76.0844C140.518 75.8289 140.976 75.695 141.443 75.6992C142.065 75.7052 142.659 75.9552 143.097 76.3952C143.534 76.8352 143.78 77.4295 143.779 78.0489Z" fill="white"/>
<path d="M143.779 78.0489C143.779 78.5146 143.641 78.9699 143.38 79.3567C143.12 79.7435 142.751 80.0447 142.318 80.2218C141.886 80.399 141.411 80.4442 140.953 80.3517C140.495 80.2593 140.074 80.0332 139.746 79.7025C139.416 79.3715 139.194 78.9508 139.105 78.4935C139.017 78.0364 139.067 77.5632 139.248 77.1343C139.43 76.7053 139.736 76.34 140.127 76.0844C140.518 75.8289 140.976 75.695 141.443 75.6992C142.065 75.7052 142.659 75.9552 143.097 76.3952C143.534 76.8352 143.78 77.4295 143.779 78.0489Z" stroke="#1A1A1A" stroke-width="0.428208" stroke-linecap="round" stroke-linejoin="round"/>
<path d="M149.542 78.0489C149.542 78.5146 149.403 78.9699 149.143 79.3567C148.883 79.7435 148.513 80.0447 148.081 80.2218C147.649 80.399 147.173 80.4442 146.715 80.3517C146.257 80.2593 145.837 80.0332 145.508 79.7025C145.179 79.3715 144.956 78.9508 144.868 78.4935C144.779 78.0364 144.829 77.5632 145.011 77.1343C145.193 76.7053 145.499 76.34 145.89 76.0844C146.281 75.8289 146.739 75.695 147.206 75.6992C147.828 75.7052 148.422 75.9552 148.859 76.3952C149.297 76.8352 149.542 77.4295 149.542 78.0489Z" stroke="#1A1A1A" stroke-width="0.428208" stroke-linecap="round" stroke-linejoin="round"/>
<path d="M143.78 78.0488C143.78 78.0488 144.336 77.539 144.848 78.0488" stroke="#1A1A1A" stroke-width="0.428208" stroke-linecap="round" stroke-linejoin="round"/>
<path d="M139.085 78.0491L137.038 77.2732" stroke="#1A1A1A" stroke-width="0.428208" stroke-miterlimit="10"/>
<path d="M150.543 218.741H157.975L158.153 222.975C158.177 223.524 158.325 224.061 158.587 224.544C158.849 225.027 159.218 225.446 159.666 225.767L165.117 229.647L151.5 229.314L150.543 218.741Z" fill="#FB9C9C"/>
<path opacity="0.15" d="M153.481 227.563L151.523 228.361L158.643 224.992C158.252 223.981 158.071 222.904 158.108 221.822H150.833V222.775L155.283 222.997C155.75 223.041 155.906 223.773 155.861 224.26V224.349C155.799 225.052 155.544 225.723 155.124 226.288C154.704 226.856 154.136 227.297 153.481 227.563Z" fill="black"/>
<path d="M126.958 218.719L134.212 218.696L133.077 229.026H126.958V218.719Z" fill="#FB9C9C"/>
<path opacity="0.15" d="M133.055 228.982L133.878 221.8L126.981 221.755L127.092 222.642L131.497 223.329C131.699 223.349 131.885 223.442 132.024 223.589C132.163 223.735 132.244 223.925 132.254 224.127L132.41 227.319L133.055 228.982Z" fill="black"/>
<path d="M126.536 137.3L155.772 137.766L158.531 221.8H150.543L143.179 152.884C143.157 152.67 143.055 152.472 142.895 152.329C142.735 152.185 142.526 152.107 142.311 152.108C142.092 152.101 141.878 152.177 141.713 152.321C141.547 152.465 141.443 152.666 141.421 152.884L134.501 221.8H126.536V137.3Z" fill="#3F4249"/>
<path d="M126.358 220.071H134.968L134.813 221.8H126.313L126.358 220.071Z" fill="#3F4249"/>
<path opacity="0.15" d="M131.72 220.071H134.969L134.813 221.8L131.475 221.755L131.72 220.071Z" fill="black"/>
<path d="M150.165 220.071H158.687L158.776 221.8H150.343L150.165 220.071Z" fill="#3F4249"/>
<path opacity="0.15" d="M158.687 220.071L157.664 220.049L157.753 221.8H158.776L158.687 220.071Z" fill="black"/>
<path opacity="0.2" d="M131.72 220.071L137.46 155.787C137.727 153.682 139.596 152.108 141.799 152.108H142.378C142.156 152.107 141.942 152.188 141.778 152.335C141.613 152.483 141.51 152.686 141.488 152.906L134.635 220.071H131.72Z" fill="black"/>
<path d="M153.748 139.318L157.886 220.049H158.687L155.839 139.318H153.748Z" fill="#32353A"/>
<path d="M126.313 232.817H133.745C133.91 232.817 134.072 232.766 134.208 232.67C134.343 232.575 134.446 232.44 134.501 232.285C134.52 232.431 134.528 232.579 134.523 232.728V232.972C134.52 233.071 134.498 233.169 134.457 233.258C134.417 233.348 134.359 233.431 134.286 233.497C134.214 233.566 134.129 233.619 134.036 233.654C133.943 233.69 133.844 233.705 133.745 233.703H126.313C126.214 233.705 126.115 233.69 126.022 233.654C125.929 233.619 125.844 233.566 125.772 233.497C125.699 233.431 125.641 233.348 125.6 233.258C125.56 233.169 125.537 233.071 125.534 232.972V232.883C125.531 232.69 125.538 232.497 125.557 232.307C125.61 232.462 125.712 232.597 125.849 232.688C125.985 232.781 126.148 232.825 126.313 232.817Z" fill="black"/>
<path d="M127.403 224.969L127.581 224.792C128.29 224.132 129.228 223.77 130.198 223.781C131.169 223.795 132.096 224.18 132.788 224.859L132.877 224.969C133.221 225.311 133.421 225.772 133.433 226.255V227.031C133.422 227.474 133.489 227.918 133.633 228.339L134.279 230.445C134.439 230.946 134.522 231.469 134.523 231.996V232.262C134.512 232.464 134.422 232.655 134.272 232.79C134.123 232.927 133.925 233 133.722 232.994H126.313C126.212 233 126.111 232.985 126.015 232.952C125.92 232.918 125.832 232.865 125.757 232.797C125.683 232.728 125.622 232.646 125.58 232.555C125.538 232.462 125.515 232.364 125.512 232.262V232.151C125.518 231.533 125.623 230.919 125.824 230.334L126.58 228.294C126.737 227.822 126.82 227.328 126.825 226.831V226.233C126.847 225.754 127.054 225.3 127.403 224.969Z" fill="#3F4249"/>
<path opacity="0.4" d="M132.232 226.654C132.392 226.654 132.521 226.526 132.521 226.366C132.521 226.206 132.392 226.078 132.232 226.078C132.072 226.078 131.943 226.206 131.943 226.366C131.943 226.526 132.072 226.654 132.232 226.654Z" fill="#231F20"/>
<path opacity="0.4" d="M132.098 227.762C132.258 227.762 132.388 227.634 132.388 227.474C132.388 227.315 132.258 227.186 132.098 227.186C131.939 227.186 131.809 227.315 131.809 227.474C131.809 227.634 131.939 227.762 132.098 227.762Z" fill="#231F20"/>
<path opacity="0.4" d="M132.009 228.583C132.169 228.583 132.298 228.454 132.298 228.295C132.298 228.135 132.169 228.006 132.009 228.006C131.849 228.006 131.72 228.135 131.72 228.295C131.72 228.454 131.849 228.583 132.009 228.583Z" fill="#231F20"/>
<path opacity="0.4" d="M132.143 229.89C132.303 229.89 132.432 229.762 132.432 229.602C132.432 229.443 132.303 229.314 132.143 229.314C131.983 229.314 131.854 229.443 131.854 229.602C131.854 229.762 131.983 229.89 132.143 229.89Z" fill="#231F20"/>
<path opacity="0.4" d="M132.143 231.021C132.303 231.021 132.432 230.892 132.432 230.733C132.432 230.573 132.303 230.445 132.143 230.445C131.983 230.445 131.854 230.573 131.854 230.733C131.854 230.892 131.983 231.021 132.143 231.021Z" fill="#231F20"/>
<path opacity="0.4" d="M128.65 231.265C128.809 231.265 128.939 231.136 128.939 230.977C128.939 230.817 128.809 230.688 128.65 230.688C128.49 230.688 128.36 230.817 128.36 230.977C128.36 231.136 128.49 231.265 128.65 231.265Z" fill="#231F20"/>
<path opacity="0.4" d="M128.605 230.201C128.765 230.201 128.894 230.072 128.894 229.913C128.894 229.753 128.765 229.625 128.605 229.625C128.445 229.625 128.316 229.753 128.316 229.913C128.316 230.072 128.445 230.201 128.605 230.201Z" fill="#231F20"/>
<path opacity="0.4" d="M128.56 228.804C128.72 228.804 128.85 228.676 128.85 228.516C128.85 228.357 128.72 228.228 128.56 228.228C128.401 228.228 128.271 228.357 128.271 228.516C128.271 228.676 128.401 228.804 128.56 228.804Z" fill="#231F20"/>
<path opacity="0.4" d="M128.65 227.474C128.809 227.474 128.939 227.346 128.939 227.186C128.939 227.027 128.809 226.898 128.65 226.898C128.49 226.898 128.36 227.027 128.36 227.186C128.36 227.346 128.49 227.474 128.65 227.474Z" fill="#231F20"/>
<path opacity="0.4" d="M128.694 226.432C128.854 226.432 128.983 226.304 128.983 226.144C128.983 225.985 128.854 225.856 128.694 225.856C128.534 225.856 128.405 225.985 128.405 226.144C128.405 226.304 128.534 226.432 128.694 226.432Z" fill="#231F20"/>
<path d="M132.143 226.299C132.143 226.299 130.875 224.969 128.694 226.078" stroke="white" stroke-miterlimit="10" stroke-linecap="round"/>
<path d="M132.098 227.408C132.098 227.408 130.83 226.056 128.649 227.186" stroke="white" stroke-miterlimit="10" stroke-linecap="round"/>
<path d="M132.009 228.25C131.676 228.006 130.029 227.474 128.561 228.494" stroke="white" stroke-miterlimit="10" stroke-linecap="round"/>
<path d="M132.031 229.58C132.031 229.58 130.607 228.428 128.605 229.824" stroke="white" stroke-miterlimit="10" stroke-linecap="round"/>
<path d="M132.143 230.688C132.143 230.688 130.719 229.514 128.716 230.932" stroke="white" stroke-miterlimit="10" stroke-linecap="round"/>
<path d="M150.655 232.883L170.546 232.927C170.586 232.834 170.616 232.739 170.635 232.639C170.68 232.874 170.687 233.111 170.658 233.349C170.652 233.526 170.581 233.694 170.458 233.821C170.334 233.949 170.167 234.025 169.99 234.036L151.3 233.991C151.119 233.985 150.947 233.912 150.819 233.783C150.69 233.657 150.616 233.484 150.61 233.304L150.655 232.883Z" fill="black"/>
<path d="M169.456 230.644C165.918 229.07 163.026 227.763 160.378 225.391C159.777 224.859 159.31 224.46 158.531 224.393L155.527 226.233C155.349 226.353 155.138 226.415 154.923 226.41C154.708 226.406 154.5 226.337 154.326 226.211L151.122 224.526C150.588 224.482 150.143 225.169 150.187 225.723L150.655 232.883L170.546 232.927C170.969 232.063 170.079 230.91 169.456 230.644Z" fill="#3F4249"/>
<path opacity="0.4" d="M165.985 230.999C166.194 230.999 166.363 230.839 166.363 230.644C166.363 230.449 166.194 230.29 165.985 230.29C165.776 230.29 165.607 230.449 165.607 230.644C165.607 230.839 165.776 230.999 165.985 230.999Z" fill="#231F20"/>
<path opacity="0.4" d="M163.805 230.4C164.013 230.4 164.183 230.241 164.183 230.046C164.183 229.851 164.013 229.691 163.805 229.691C163.596 229.691 163.426 229.851 163.426 230.046C163.426 230.241 163.596 230.4 163.805 230.4Z" fill="#231F20"/>
<path opacity="0.4" d="M161.98 229.159C162.189 229.159 162.358 228.999 162.358 228.804C162.358 228.609 162.189 228.45 161.98 228.45C161.771 228.45 161.602 228.609 161.602 228.804C161.602 228.999 161.771 229.159 161.98 229.159Z" fill="#231F20"/>
<path opacity="0.4" d="M160.244 227.873C160.453 227.873 160.623 227.714 160.623 227.519C160.623 227.324 160.453 227.164 160.244 227.164C160.036 227.164 159.866 227.324 159.866 227.519C159.866 227.714 160.036 227.873 160.244 227.873Z" fill="#231F20"/>
<path opacity="0.4" d="M158.687 226.322C158.896 226.322 159.065 226.162 159.065 225.967C159.065 225.772 158.896 225.612 158.687 225.612C158.478 225.612 158.309 225.772 158.309 225.967C158.309 226.162 158.478 226.322 158.687 226.322Z" fill="#231F20"/>
<path d="M166.675 229.802L166.43 230.467C166.413 230.511 166.387 230.551 166.354 230.584C166.321 230.618 166.282 230.646 166.238 230.664C166.195 230.682 166.148 230.693 166.101 230.693C166.054 230.693 166.007 230.684 165.963 230.666C165.918 230.649 165.878 230.624 165.845 230.591C165.811 230.558 165.785 230.518 165.768 230.473C165.752 230.429 165.744 230.383 165.747 230.336C165.75 230.287 165.763 230.243 165.785 230.201L166.141 229.558L166.675 229.802Z" fill="white"/>
<path d="M164.739 228.893L164.272 229.891C164.251 229.933 164.221 229.973 164.184 230.004C164.148 230.035 164.106 230.057 164.06 230.072C164.014 230.086 163.966 230.092 163.919 230.088C163.871 230.083 163.824 230.068 163.782 230.046C163.742 230.026 163.706 229.997 163.677 229.961C163.648 229.926 163.627 229.886 163.615 229.842C163.602 229.797 163.599 229.753 163.605 229.707C163.61 229.662 163.626 229.62 163.649 229.58L164.16 228.627L164.739 228.893Z" fill="white"/>
<path d="M163.115 227.873L162.492 228.716C162.461 228.756 162.423 228.789 162.38 228.813C162.336 228.838 162.288 228.853 162.239 228.86C162.189 228.866 162.139 228.862 162.09 228.849C162.042 228.835 161.997 228.813 161.958 228.782H161.936C161.882 228.722 161.849 228.647 161.841 228.567C161.833 228.487 161.85 228.408 161.891 228.339L162.492 227.541L163.115 227.873Z" fill="white"/>
<path d="M161.513 226.809L160.712 227.563C160.65 227.623 160.566 227.658 160.478 227.658C160.391 227.658 160.307 227.623 160.245 227.563C160.209 227.53 160.18 227.49 160.161 227.446C160.143 227.399 160.134 227.352 160.136 227.304C160.138 227.255 160.151 227.206 160.174 227.164C160.196 227.12 160.228 227.082 160.267 227.053L161.068 226.455L161.513 226.809Z" fill="white"/>
<path d="M159.955 225.413C159.955 225.435 159.488 225.79 159.177 226.034C159.107 226.084 159.021 226.107 158.935 226.098C158.849 226.091 158.769 226.051 158.709 225.989C158.682 225.951 158.662 225.907 158.653 225.861C158.643 225.814 158.643 225.765 158.654 225.721C158.665 225.674 158.685 225.63 158.714 225.592C158.742 225.555 158.779 225.524 158.821 225.502L159.755 225.058L159.955 225.413Z" fill="white"/>
<path d="M126.425 135.993H155.817L155.839 139.318H126.558L126.536 137.389L126.425 135.993Z" fill="#21252B"/>
<path d="M126.313 135.993H155.817L155.839 139.318H126.469L126.424 137.389L126.313 135.993Z" fill="#1A1A1A"/>
<path d="M146.627 135.993H140.397V139.309H146.627V135.993Z" fill="#61656D"/>
<path d="M146.271 135.993H140.709V139.309H146.271V135.993Z" fill="#DADDDF"/>
</svg>
