<svg width="40" height="40" viewBox="0 0 40 40" fill="none" xmlns="http://www.w3.org/2000/svg">
<path d="M34.9999 25V30H39.9999V33.3333H34.9999V38.3333H31.6666V33.3333H26.6666V30H31.6666V25H34.9999ZM35.0133 5C35.9266 5 36.6666 5.74167 36.6666 6.655V22.2367C35.596 21.8585 34.4687 21.6657 33.3333 21.6667V8.33333H6.66659L6.66825 31.6667L22.1549 16.1783C22.4415 15.8908 22.8233 15.7179 23.2284 15.6921C23.6336 15.6663 24.0342 15.7894 24.3549 16.0383L24.5099 16.18L30.4199 22.0967C29.1277 22.4904 27.9285 23.1418 26.8948 24.0116C25.8611 24.8814 25.0143 25.9514 24.4053 27.1573C23.7964 28.3632 23.438 29.68 23.3517 31.0281C23.2654 32.3763 23.453 33.728 23.9033 35.0017L4.98659 35C4.54794 34.9996 4.12741 34.825 3.8174 34.5147C3.50739 34.2043 3.33325 33.7836 3.33325 33.345V6.655C3.3363 6.2173 3.51142 5.79836 3.82077 5.4887C4.13013 5.17903 4.54889 5.00349 4.98659 5H35.0133ZM13.3333 11.6667C14.2173 11.6667 15.0652 12.0179 15.6903 12.643C16.3154 13.2681 16.6666 14.1159 16.6666 15C16.6666 15.8841 16.3154 16.7319 15.6903 17.357C15.0652 17.9821 14.2173 18.3333 13.3333 18.3333C12.4492 18.3333 11.6014 17.9821 10.9762 17.357C10.3511 16.7319 9.99992 15.8841 9.99992 15C9.99992 14.1159 10.3511 13.2681 10.9762 12.643C11.6014 12.0179 12.4492 11.6667 13.3333 11.6667Z" fill="white"/>
</svg>
