<svg width="28" height="28" viewBox="0 0 28 28" fill="none" xmlns="http://www.w3.org/2000/svg">
<path d="M7.10618 16.6199H5.54688C5.24484 16.6199 5 16.375 5 16.073V12.9105C5 12.6085 5.24484 12.3636 5.54688 12.3636H7.10618C7.40822 12.3636 7.65305 12.6085 7.65305 12.9105V16.073C7.65305 16.375 7.40822 16.6199 7.10618 16.6199ZM6.09375 15.5261H6.5593V13.4574H6.09375V15.5261Z" fill="black"/>
<path d="M21.9443 19.1916C21.6423 19.1916 21.3975 18.9467 21.3975 18.6447V9.54712C21.3975 9.24513 21.6423 9.00024 21.9443 9.00024C22.2464 9.00024 22.4912 9.24513 22.4912 9.54712V18.6447C22.4912 18.9467 22.2464 19.1916 21.9443 19.1916Z" fill="black"/>
<path d="M20.3298 19.1916C20.2931 19.1916 20.2561 19.1879 20.2195 19.1803L8.46112 16.7577C8.20699 16.7054 8.02466 16.4816 8.02466 16.2221V12.5618C8.02466 12.3121 8.19381 12.094 8.43569 12.032L20.194 9.01715C20.3577 8.97515 20.5316 9.01125 20.6651 9.11483C20.7986 9.2184 20.8768 9.37793 20.8768 9.54686V18.6446C20.8768 18.809 20.8028 18.9647 20.6754 19.0686C20.5769 19.1489 20.4546 19.1916 20.3298 19.1916ZM9.11841 15.7765L19.783 17.9737V10.2517L9.11841 12.9862V15.7765Z" fill="black"/>
<path d="M13.1943 19.3879H10.9341C10.2707 19.3879 9.73096 18.8482 9.73096 18.1848V16.5738C9.73096 16.4094 9.80489 16.2537 9.93237 16.1498C10.0598 16.046 10.2273 16.0049 10.3882 16.0382L13.9609 16.7742C14.2151 16.8265 14.3974 17.0503 14.3974 17.3098V18.1848C14.3974 18.8482 13.8577 19.3879 13.1943 19.3879ZM10.8247 17.2448V18.1848C10.8247 18.2451 10.8738 18.2941 10.9341 18.2941H13.1943C13.2546 18.2941 13.3037 18.2451 13.3037 18.1848V17.7554L10.8247 17.2448Z" fill="black"/>
</svg>
