<svg width="28" height="28" viewBox="0 0 28 28" fill="none" xmlns="http://www.w3.org/2000/svg">
<path d="M6.22182 20.364C5.8313 20.7545 5.83128 21.3876 6.22182 21.7782C6.61235 22.1687 7.24551 22.1687 7.63603 21.7782L21.7782 7.63605C22.1687 7.24551 22.1687 6.61237 21.7782 6.22183C21.3876 5.8313 20.7545 5.8313 20.364 6.22183L6.22182 20.364Z" fill="#222222"/>
<path d="M21.7782 20.364C22.1687 20.7545 22.1687 21.3876 21.7782 21.7782C21.3876 22.1687 20.7545 22.1687 20.364 21.7782L6.22183 7.63605C5.8313 7.24551 5.8313 6.61237 6.22183 6.22183C6.61237 5.8313 7.24551 5.8313 7.63605 6.22183L21.7782 20.364Z" fill="#222222"/>
</svg>
