<svg width="28" height="28" viewBox="0 0 28 28" fill="none" xmlns="http://www.w3.org/2000/svg">
<path fill-rule="evenodd" clip-rule="evenodd" d="M15.6188 4.65349L22.2873 10.1091L22.3216 10.1469C22.4255 10.261 22.5845 10.4429 22.7191 10.6599C22.8476 10.8669 23 11.1783 23 11.5431V20.6137C23 21.3778 22.3816 22 21.6154 22H17.2955C16.7219 22 16.257 21.535 16.257 20.9615V17.7035C16.257 16.4579 15.2502 15.4511 14.0116 15.4511C12.7732 15.4511 11.7663 16.4579 11.7663 17.7035V20.9615C11.7663 21.535 11.3014 22 10.7278 22H6.38462C5.61836 22 5 21.3778 5 20.6137V11.4371C5 10.9855 5.2513 10.6212 5.39452 10.4404C5.47803 10.335 5.55989 10.249 5.62052 10.1895C5.65125 10.1593 5.67761 10.1349 5.69743 10.117C5.70737 10.108 5.71574 10.1006 5.72228 10.095L5.73074 10.0877L5.73389 10.085L5.73577 10.0834C5.73577 10.0834 5.73631 10.0829 6.18212 10.6126L5.73631 10.0829L5.74321 10.0771L12.3584 4.65504C13.2698 3.78225 14.7066 3.78157 15.6188 4.65349ZM6.62863 11.1418L6.62471 11.1452C6.61774 11.1515 6.60583 11.1625 6.59064 11.1774C6.55943 11.2081 6.51884 11.251 6.4799 11.3001C6.43976 11.3508 6.41092 11.3962 6.39413 11.4315C6.38919 11.4419 6.38626 11.4494 6.38462 11.4541V20.6137L6.38466 20.6148L6.3851 20.6154H10.3817V17.7035C10.3817 15.6964 12.0053 14.0665 14.0116 14.0665C16.018 14.0665 17.6416 15.6964 17.6416 17.7035V20.6154H21.6149L21.6153 20.6148L21.6154 20.6137V11.5431C21.6154 11.5454 21.6159 11.5456 21.6154 11.5431C21.613 11.5331 21.6007 11.4835 21.5426 11.3898C21.4844 11.2962 21.408 11.2026 21.3302 11.115L14.6951 5.68677L14.6725 5.66458C14.2927 5.29104 13.6851 5.29133 13.3056 5.66524L13.283 5.68746L6.62863 11.1418Z" fill="black"/>
</svg>
