<svg width="28" height="28" viewBox="0 0 28 28" fill="none" xmlns="http://www.w3.org/2000/svg">
<path d="M16.3926 6H6.60739C5.72118 6 5 6.70847 5 7.57928V13.9755C5 14.8463 5.72118 15.5547 6.60739 15.5547H7.29417C7.48664 15.5547 7.64349 15.7086 7.64349 15.8979V16.8999C7.64349 17.3293 7.88921 17.7101 8.28481 17.8934C8.4392 17.965 8.6026 18 8.76437 18C9.01746 18 9.26685 17.9143 9.47244 17.7479L12.014 15.6923C12.0287 15.6803 12.043 15.6676 12.057 15.6543C12.1229 15.5901 12.2101 15.5547 12.3031 15.5547H16.3926C17.2788 15.5547 18 14.8463 18 13.9755V7.57928C18 6.70847 17.2788 6 16.3926 6ZM16.7419 13.9755C16.7419 14.1647 16.5851 14.3188 16.3926 14.3188H12.3031C11.8874 14.3188 11.4951 14.4731 11.1949 14.7539L8.90155 16.6088V15.8979C8.90155 15.0273 8.18038 14.3188 7.29416 14.3188H6.60739C6.41491 14.3188 6.25806 14.1647 6.25806 13.9755V7.57928C6.25806 7.38999 6.41491 7.23591 6.60739 7.23591H16.3926C16.5851 7.23591 16.7419 7.38999 16.7419 7.57928V13.9755H16.7419Z" fill="black"/>
<path d="M16.7419 13.9755C16.7419 14.1647 16.5851 14.3188 16.3926 14.3188H12.3031C11.8874 14.3188 11.4951 14.4731 11.1949 14.7539L8.90155 16.6088V15.8979C8.90155 15.0273 8.18037 14.3188 7.29416 14.3188H6.60738C6.41491 14.3188 6.25806 14.1647 6.25806 13.9754V7.57928C6.25806 7.38999 6.4149 7.2359 6.60738 7.2359H16.3926C16.5851 7.2359 16.7419 7.38999 16.7419 7.57928L16.7419 13.9755Z" fill="white"/>
<path d="M11.2581 16.9755C11.2581 17.1647 11.4149 17.3188 11.6074 17.3188H15.6969C16.1126 17.3188 16.5049 17.4731 16.8051 17.7539L19.0984 19.6088V18.8979C19.0984 18.0273 19.8196 17.3188 20.7058 17.3188H21.3926C21.5851 17.3188 21.7419 17.1647 21.7419 16.9754V10.5793C21.7419 10.39 21.5851 10.2359 21.3926 10.2359H11.6074C11.4149 10.2359 11.2581 10.39 11.2581 10.5793L11.2581 16.9755Z" fill="white"/>
<path d="M11.6074 10H21.3926C22.2788 10 23 10.7085 23 11.5793V17.9755C23 18.8463 22.2788 19.5547 21.3926 19.5547H20.7058C20.5134 19.5547 20.3565 19.7086 20.3565 19.8979V20.8999C20.3565 21.3293 20.1108 21.7101 19.7152 21.8934C19.5608 21.965 19.3974 22 19.2356 22C18.9825 22 18.7331 21.9143 18.5276 21.7479L15.986 19.6923C15.9713 19.6803 15.957 19.6676 15.943 19.6543C15.8771 19.5901 15.7899 19.5547 15.6969 19.5547H11.6074C10.7212 19.5547 10 18.8463 10 17.9755V11.5793C10 10.7085 10.7212 10 11.6074 10ZM11.2581 17.9755C11.2581 18.1647 11.4149 18.3188 11.6074 18.3188H15.6969C16.1126 18.3188 16.5049 18.4731 16.8051 18.7539L19.0984 20.6088V19.8979C19.0984 19.0273 19.8196 18.3188 20.7058 18.3188H21.3926C21.5851 18.3188 21.7419 18.1647 21.7419 17.9755V11.5793C21.7419 11.39 21.5851 11.2359 21.3926 11.2359H11.6074C11.4149 11.2359 11.2581 11.39 11.2581 11.5793V17.9755H11.2581Z" fill="black"/>
<path d="M14 13.5H20" stroke="black" stroke-linecap="round" stroke-linejoin="round"/>
<path d="M17 16L20 16" stroke="black" stroke-linecap="round" stroke-linejoin="round"/>
</svg>
