<svg width="28" height="28" viewBox="0 0 28 28" fill="none" xmlns="http://www.w3.org/2000/svg">
<path d="M19.8625 24.5H6.32187C5.90625 24.5 5.57812 24.1719 5.57812 23.7562V13.0375C5.57812 12.6219 5.90625 12.2937 6.32187 12.2937H21.6562C22.0719 12.2937 22.4 12.6219 22.4 13.0375V24.5" stroke="#222222" stroke-width="1.5" stroke-miterlimit="10" stroke-linecap="round" stroke-linejoin="round"/>
<path d="M19.6 12.2719V9.1C19.6 6.01562 17.1063 3.5 14 3.5C10.8938 3.5 8.40002 6.01562 8.40002 9.1V12.2719" stroke="#222222" stroke-width="1.5" stroke-miterlimit="10" stroke-linecap="round" stroke-linejoin="round"/>
<path d="M13.7812 20.7375C14.929 20.7375 15.8594 19.8071 15.8594 18.6594C15.8594 17.5117 14.929 16.5813 13.7812 16.5813C12.6335 16.5813 11.7031 17.5117 11.7031 18.6594C11.7031 19.8071 12.6335 20.7375 13.7812 20.7375Z" stroke="#222222" stroke-width="1.5" stroke-miterlimit="10" stroke-linecap="round" stroke-linejoin="round"/>
</svg>
