<svg width="28" height="28" viewBox="0 0 28 28" fill="none" xmlns="http://www.w3.org/2000/svg">
<path d="M18.6291 17.1773C18.5613 17.1208 18.4809 17.0761 18.3924 17.0457C18.304 17.0152 18.2093 16.9997 18.1138 17C18.0182 17.0003 17.9237 17.0164 17.8355 17.0473C17.7473 17.0782 17.6673 17.1235 17.6 17.1804C17.5327 17.2372 17.4793 17.3047 17.4431 17.3789C17.4068 17.4531 17.3883 17.5325 17.3887 17.6127C17.389 17.6929 17.4082 17.7722 17.4451 17.8462C17.4819 17.9201 17.5358 17.9873 17.6036 18.0438C18.219 18.5546 18.7075 19.1628 19.0408 19.8332C19.3741 20.5035 19.5457 21.2227 19.5454 21.949C19.5454 22.6935 16.9927 23.7796 13 23.7796C9.0073 23.7796 6.45458 22.6935 6.45458 21.949C6.45343 21.2275 6.62176 20.5128 6.94996 19.8459C7.27815 19.1789 7.75977 18.5728 8.3673 18.0621C8.50276 17.9478 8.57879 17.7931 8.57879 17.6319C8.57879 17.4707 8.50276 17.316 8.3673 17.2017C8.23104 17.0881 8.04671 17.0243 7.85458 17.0243C7.66244 17.0243 7.47812 17.0881 7.34185 17.2017C6.59648 17.8236 6.00566 18.5635 5.60367 19.3784C5.20168 20.1933 4.9965 21.0671 5.00005 21.949C5.00005 23.9322 9.12366 25 13 25C16.8764 25 21 23.9322 21 21.949C21.0028 21.0613 20.7945 20.1821 20.3874 19.3628C19.9803 18.5434 19.3825 17.8005 18.6291 17.1773Z" fill="black"/>
<path d="M13 17C13.9889 17 14.9556 16.7068 15.7778 16.1573C16.6001 15.6079 17.241 14.827 17.6194 13.9134C17.9978 12.9998 18.0968 11.9945 17.9039 11.0245C17.711 10.0546 17.2348 9.16373 16.5355 8.46447C15.8363 7.76521 14.9454 7.289 13.9755 7.09608C13.0055 6.90315 12.0002 7.00217 11.0866 7.3806C10.173 7.75904 9.39206 8.3999 8.84265 9.22215C8.29324 10.0444 8 11.0111 8 12C8 13.3261 8.52678 14.5979 9.46447 15.5355C10.4021 16.4732 11.6739 17 13 17ZM13 8.42857C13.7064 8.42857 14.3969 8.63803 14.9842 9.03047C15.5715 9.4229 16.0293 9.98068 16.2996 10.6333C16.5699 11.2859 16.6406 12.004 16.5028 12.6968C16.365 13.3895 16.0249 14.0259 15.5254 14.5254C15.0259 15.0249 14.3895 15.365 13.6968 15.5028C13.004 15.6406 12.2859 15.5699 11.6333 15.2996C10.9807 15.0293 10.4229 14.5715 10.0305 13.9842C9.63803 13.3969 9.42857 12.7064 9.42857 12C9.42857 11.0528 9.80485 10.1444 10.4746 9.47462C11.1444 8.80485 12.0528 8.42857 13 8.42857Z" fill="black"/>
<path d="M20.0625 1.5625C20.0625 1.25184 19.8107 1 19.5 1C19.1893 1 18.9375 1.25184 18.9375 1.5625V3.9375H16.5625C16.2518 3.9375 16 4.18934 16 4.5C16 4.81066 16.2518 5.0625 16.5625 5.0625H18.9375V7.4375C18.9375 7.74816 19.1893 8 19.5 8C19.8107 8 20.0625 7.74816 20.0625 7.4375V5.0625H22.4375C22.7482 5.0625 23 4.81066 23 4.5C23 4.18934 22.7482 3.9375 22.4375 3.9375H20.0625V1.5625Z" fill="black"/>
</svg>
