<svg width="28" height="28" viewBox="0 0 28 28" fill="none" xmlns="http://www.w3.org/2000/svg">
<path fill-rule="evenodd" clip-rule="evenodd" d="M22.6087 18.7391H5.3913C5.17491 18.7391 5 18.5642 5 18.3478V7.3913C5 7.1753 5.17491 7 5.3913 7H22.6087C22.8251 7 23 7.1753 23 7.3913V18.3478C23 18.5642 22.8251 18.7391 22.6087 18.7391ZM21.8863 8.02341H6.02341V17.61H21.8863V8.02341ZM12.8261 10.5217C12.9098 10.5217 12.9826 10.5538 13.0464 10.5984L16.0872 12.5049C16.2383 12.5585 16.3478 12.6997 16.3478 12.8696C16.3478 12.9967 16.2833 13.1047 16.1893 13.176L13.0691 15.125C13.0018 15.1798 12.9192 15.2174 12.8261 15.2174C12.6097 15.2174 12.4348 15.0425 12.4348 14.8261V10.913C12.4348 10.697 12.6097 10.5217 12.8261 10.5217ZM10.4783 19.7926H17.5217C17.7381 19.7926 18 20.0636 18 20.28C18 20.4964 17.7381 20.78 17.5217 20.78H10.4783C10.2619 20.78 10 20.4964 10 20.28C10 20.0636 10.2619 19.7926 10.4783 19.7926Z" fill="black"/>
</svg>
