<svg width="28" height="28" viewBox="0 0 28 28" fill="none" xmlns="http://www.w3.org/2000/svg">
<path d="M24.4625 24.5H10.9219C10.5062 24.5 10.1781 24.1719 10.1781 23.7562V13.0375C10.1781 12.6219 10.5062 12.2937 10.9219 12.2937H26.2562C26.6718 12.2937 27 12.6219 27 13.0375V24.5" stroke="#222222" stroke-width="1.5" stroke-miterlimit="10" stroke-linecap="round" stroke-linejoin="round"/>
<path d="M13.2 12.2719V9.1C13.2 6.01562 10.7063 3.5 7.6 3.5C4.49375 3.5 2 6.01562 2 9.1V12.2719" stroke="#222222" stroke-width="1.5" stroke-miterlimit="10" stroke-linecap="round" stroke-linejoin="round"/>
<path d="M18.3812 20.7375C19.5289 20.7375 20.4594 19.8071 20.4594 18.6594C20.4594 17.5117 19.5289 16.5813 18.3812 16.5813C17.2335 16.5813 16.3031 17.5117 16.3031 18.6594C16.3031 19.8071 17.2335 20.7375 18.3812 20.7375Z" stroke="#222222" stroke-width="1.5" stroke-miterlimit="10" stroke-linecap="round" stroke-linejoin="round"/>
</svg>
