<svg width="28" height="28" viewBox="0 0 28 28" fill="none" xmlns="http://www.w3.org/2000/svg">
<path d="M14.6291 18.1773C14.5613 18.1208 14.4809 18.0761 14.3924 18.0457C14.304 18.0152 14.2093 17.9997 14.1138 18C14.0182 18.0003 13.9237 18.0164 13.8355 18.0473C13.7473 18.0783 13.6673 18.1235 13.6 18.1804C13.5327 18.2373 13.4793 18.3047 13.4431 18.3789C13.4068 18.4531 13.3883 18.5325 13.3887 18.6127C13.389 18.6929 13.4082 18.7722 13.4451 18.8462C13.4819 18.9201 13.5358 18.9873 13.6036 19.0438C14.219 19.5546 14.7075 20.1629 15.0408 20.8332C15.3741 21.5035 15.5457 22.2227 15.5454 22.949C15.5454 23.6935 12.9927 24.7796 9.00001 24.7796C5.0073 24.7796 2.45458 23.6935 2.45458 22.949C2.45343 22.2275 2.62176 21.5128 2.94996 20.8459C3.27815 20.1789 3.75977 19.5728 4.3673 19.0621C4.50276 18.9478 4.57879 18.7931 4.57879 18.6319C4.57879 18.4707 4.50276 18.316 4.3673 18.2017C4.23104 18.0881 4.04671 18.0243 3.85458 18.0243C3.66244 18.0243 3.47812 18.0881 3.34185 18.2017C2.59648 18.8236 2.00566 19.5635 1.60367 20.3784C1.20168 21.1933 0.996504 22.0671 1.00005 22.949C1.00005 24.9322 5.12366 26 9.00001 26C12.8764 26 17 24.9322 17 22.949C17.0028 22.0614 16.7945 21.1821 16.3874 20.3628C15.9803 19.5435 15.3825 18.8005 14.6291 18.1773Z" fill="black"/>
<path d="M9 18C9.9889 18 10.9556 17.7068 11.7778 17.1574C12.6001 16.608 13.241 15.8271 13.6194 14.9134C13.9978 13.9998 14.0968 12.9945 13.9039 12.0246C13.711 11.0547 13.2348 10.1637 12.5355 9.46448C11.8363 8.76522 10.9454 8.28901 9.97545 8.09609C9.00555 7.90316 8.00021 8.00218 7.08658 8.38062C6.17295 8.75905 5.39206 9.39992 4.84265 10.2222C4.29324 11.0444 4 12.0111 4 13C4 14.3261 4.52678 15.5979 5.46447 16.5355C6.40215 17.4732 7.67392 18 9 18ZM9 9.42858C9.70636 9.42858 10.3969 9.63805 10.9842 10.0305C11.5715 10.4229 12.0293 10.9807 12.2996 11.6333C12.5699 12.2859 12.6406 13.004 12.5028 13.6968C12.365 14.3896 12.0249 15.0259 11.5254 15.5254C11.0259 16.0249 10.3895 16.365 9.69675 16.5028C9.00396 16.6406 8.28587 16.5699 7.63327 16.2996C6.98068 16.0293 6.4229 15.5715 6.03047 14.9842C5.63803 14.3969 5.42857 13.7064 5.42857 13C5.42857 12.0528 5.80485 11.1444 6.47462 10.4746C7.14439 9.80486 8.0528 9.42858 9 9.42858Z" fill="black"/>
<path d="M24.629 12.1773C24.5612 12.1208 24.4808 12.0761 24.3923 12.0457C24.3039 12.0152 24.2092 11.9997 24.1137 12C24.0181 12.0003 23.9236 12.0164 23.8354 12.0473C23.7473 12.0783 23.6672 12.1235 23.5999 12.1804C23.5326 12.2373 23.4792 12.3047 23.443 12.3789C23.4067 12.4531 23.3882 12.5325 23.3886 12.6127C23.3889 12.6929 23.4081 12.7722 23.445 12.8462C23.4818 12.9201 23.5357 12.9873 23.6035 13.0438C24.2189 13.5546 24.7074 14.1629 25.0407 14.8332C25.374 15.5035 25.5456 16.2227 25.5453 16.949C25.5453 17.6935 22.9926 18.7796 18.9999 18.7796C18.6397 18.7796 18.2913 18.7708 17.9554 18.7542C17 18.7069 16.0002 18.4585 16 19C15.9998 19.5 16.7886 19.9129 17.8718 19.9702C18.2475 19.99 18.6249 20 18.9999 20C22.8763 20 26.9999 18.9322 26.9999 16.949C27.0027 16.0614 26.7944 15.1821 26.3873 14.3628C25.9802 13.5435 25.3824 12.8005 24.629 12.1773Z" fill="black"/>
<path d="M19 12C19.9889 12 20.9556 11.7068 21.7778 11.1574C22.6001 10.608 23.241 9.82706 23.6194 8.91343C23.9978 7.9998 24.0968 6.99446 23.9039 6.02456C23.711 5.05466 23.2348 4.16374 22.5355 3.46448C21.8363 2.76522 20.9454 2.28901 19.9755 2.09609C19.0055 1.90316 18.0002 2.00218 17.0866 2.38061C16.173 2.75905 15.3921 3.39992 14.8427 4.22216C14.2932 5.04441 14 6.01111 14 7.00001C14 8.32609 14.5268 9.59786 15.4645 10.5355C16.4021 11.4732 17.6739 12 19 12ZM19 3.42858C19.7064 3.42858 20.3969 3.63804 20.9842 4.03048C21.5715 4.42291 22.0293 4.98069 22.2996 5.63329C22.5699 6.28588 22.6406 7.00397 22.5028 7.69676C22.365 8.38955 22.0249 9.02592 21.5254 9.52539C21.0259 10.0249 20.3895 10.365 19.6968 10.5028C19.004 10.6406 18.2859 10.5699 17.6333 10.2996C16.9807 10.0293 16.4229 9.57151 16.0305 8.98419C15.638 8.39687 15.4286 7.70637 15.4286 7.00001C15.4286 6.05281 15.8048 5.1444 16.4746 4.47463C17.1444 3.80486 18.0528 3.42858 19 3.42858Z" fill="black"/>
</svg>
