<svg width="28" height="28" viewBox="0 0 28 28" fill="none" xmlns="http://www.w3.org/2000/svg">
<path d="M22.4422 9.56685C22.0786 9.34598 21.6374 9.33306 21.2615 9.53042L18.4842 10.9862V10.8045C18.4842 9.80944 17.6748 9 16.6797 9H6.78193C5.78686 9 4.97742 9.80944 4.97742 10.8045V17.1955C4.97742 18.1906 5.78686 19 6.78193 19H16.6797C17.6748 19 18.4842 18.1906 18.4842 17.1955V17.0138L21.2615 18.4696C21.4383 18.5624 21.6292 18.6082 21.8201 18.6082C22.0351 18.6082 22.2495 18.5495 22.4422 18.4332C22.8058 18.2135 23.0225 17.8287 23.0225 17.404V10.596C23.0225 10.1713 22.8058 9.78654 22.4422 9.56685ZM17.2812 17.1955C17.2812 17.5274 17.0116 17.797 16.6797 17.797H6.78193C6.45004 17.797 6.18042 17.5274 6.18042 17.1955V10.8045C6.18042 10.4726 6.45004 10.203 6.78193 10.203H16.6797C17.0116 10.203 17.2812 10.4726 17.2812 10.8045V11.9805V16.0195V17.1955ZM21.8195 17.404L18.4842 15.6559V12.3441L21.8195 10.596L21.8225 17.4052L21.8195 17.404Z" fill="#222222"/>
<path d="M12.4821 11.4821C12.4821 11.2159 12.2663 11 12 11C11.7337 11 11.5179 11.2159 11.5179 11.4821V13.5179H9.48214C9.21586 13.5179 9 13.7337 9 14C9 14.2663 9.21586 14.4821 9.48214 14.4821H11.5179V16.5179C11.5179 16.7841 11.7337 17 12 17C12.2663 17 12.4821 16.7841 12.4821 16.5179V14.4821H14.5179C14.7841 14.4821 15 14.2663 15 14C15 13.7337 14.7841 13.5179 14.5179 13.5179H12.4821V11.4821Z" fill="black"/>
</svg>
