<svg width="24" height="14" viewBox="0 0 24 14" fill="none" xmlns="http://www.w3.org/2000/svg">
<path d="M22.8542 1.30024C22.3867 1.01627 21.8195 0.99966 21.3362 1.25342L17.7654 3.12508V2.89153C17.7654 1.61215 16.7247 0.571442 15.4454 0.571442H2.71962C1.44025 0.571442 0.399536 1.61215 0.399536 2.89153V11.1085C0.399536 12.3879 1.44025 13.4286 2.71962 13.4286H15.4454C16.7247 13.4286 17.7654 12.3879 17.7654 11.1085V10.8749L21.3362 12.7466C21.5635 12.8659 21.809 12.9248 22.0544 12.9248C22.3308 12.9248 22.6065 12.8493 22.8542 12.6998C23.3217 12.4173 23.6004 11.9226 23.6004 11.3766V2.62342C23.6004 2.07739 23.3217 1.58271 22.8542 1.30024ZM16.2187 11.1085C16.2187 11.5352 15.8721 11.8819 15.4454 11.8819H2.71962C2.29291 11.8819 1.94626 11.5352 1.94626 11.1085V2.89153C1.94626 2.46482 2.29291 2.11817 2.71962 2.11817H15.4454C15.8721 2.11817 16.2187 2.46482 16.2187 2.89153V4.40351V9.59651V11.1085ZM22.0537 11.3766L17.7654 9.12902V4.871L22.0537 2.62342L22.0574 11.3781L22.0537 11.3766Z" fill="#777777"/>
<path d="M10.7024 7.5173L8.20472 9.48355C7.89333 9.72666 7.5 9.43663 7.5 8.96746V5.03498C7.5 4.56154 7.89661 4.27151 8.20472 4.51889L10.7024 6.48513C11.004 6.71972 11.004 7.28272 10.7024 7.5173Z" fill="#777777"/>
</svg>
