<svg width="24" height="18" viewBox="0 0 24 18" fill="none" xmlns="http://www.w3.org/2000/svg">
<path fill-rule="evenodd" clip-rule="evenodd" d="M23.0683 15.0932H0.931694C0.653477 15.0932 0.428589 14.8683 0.428589 14.5901V0.503106C0.428589 0.225391 0.653477 0 0.931694 0H23.0683C23.3466 0 23.5714 0.225391 23.5714 0.503106V14.5901C23.5714 14.8683 23.3466 15.0932 23.0683 15.0932ZM22.1395 1.31581H1.7444V13.6414H22.1395V1.31581ZM10.4907 4.52795C10.5984 4.52795 10.6919 4.5692 10.7739 4.62656L14.6836 7.07769C14.8778 7.14662 15.0187 7.32824 15.0187 7.54658C15.0187 7.71009 14.9356 7.84895 14.8149 7.94052L10.8031 10.4465C10.7166 10.5169 10.6104 10.5652 10.4907 10.5652C10.2125 10.5652 9.98759 10.3403 9.98759 10.0621V5.03106C9.98759 4.75334 10.2125 4.52795 10.4907 4.52795ZM7.47207 16.4477H16.528C16.8062 16.4477 17.1429 16.7961 17.1429 17.0743C17.1429 17.3525 16.8062 17.7171 16.528 17.7171H7.47207C7.19385 17.7171 6.85716 17.3525 6.85716 17.0743C6.85716 16.7961 7.19385 16.4477 7.47207 16.4477Z" fill="#cccccc"/>
</svg>
