<svg width="45" height="52" viewBox="0 0 45 52" fill="none" xmlns="http://www.w3.org/2000/svg">
<path d="M3.71594 0.849491L43.9966 24.3478C44.2853 24.5168 44.5247 24.7584 44.6911 25.0486C44.8574 25.3388 44.945 25.6674 44.945 26.0019C44.945 26.3364 44.8574 26.6651 44.6911 26.9552C44.5247 27.2454 44.2853 27.487 43.9966 27.656L3.71594 51.1543C3.42409 51.3246 3.09242 51.4148 2.75452 51.4156C2.41662 51.4164 2.08452 51.3279 1.79186 51.159C1.49921 50.9901 1.2564 50.7468 1.08806 50.4538C0.919716 50.1608 0.831816 49.8286 0.83327 49.4907V2.50549C0.83317 2.16825 0.922056 1.83695 1.09095 1.54504C1.25985 1.25314 1.50277 1.01096 1.7952 0.842971C2.08763 0.674981 2.4192 0.587123 2.75644 0.588268C3.09369 0.589413 3.42466 0.67952 3.71594 0.849491Z" fill="white"/>
</svg>
