<svg width="18" height="20" viewBox="0 0 18 20" fill="none" xmlns="http://www.w3.org/2000/svg">
<path d="M2.05059 1H16.0007C16.1865 1 16.3647 1.0738 16.4961 1.20517C16.6274 1.33654 16.7012 1.51471 16.7012 1.7005V16.6101C16.7012 17.1843 16.4731 17.7349 16.0671 18.1409C15.6611 18.5469 15.1105 18.775 14.5363 18.775H3.51501C2.94084 18.775 2.39019 18.5469 1.98419 18.1409C1.57819 17.7349 1.3501 17.1843 1.3501 16.6101V1.7005C1.3501 1.51471 1.4239 1.33654 1.55527 1.20517C1.68664 1.0738 1.86481 1 2.05059 1V1Z" stroke="#777777" stroke-width="1.5" stroke-miterlimit="10"/>
<path d="M6.19785 6.20304C7.05828 6.20304 7.7558 5.50552 7.7558 4.64508C7.7558 3.78465 7.05828 3.08713 6.19785 3.08713C5.33741 3.08713 4.63989 3.78465 4.63989 4.64508C4.63989 5.50552 5.33741 6.20304 6.19785 6.20304Z" stroke="#777777" stroke-width="1.5" stroke-miterlimit="10"/>
<path d="M11.8536 6.20304C12.714 6.20304 13.4116 5.50552 13.4116 4.64508C13.4116 3.78465 12.714 3.08713 11.8536 3.08713C10.9932 3.08713 10.2957 3.78465 10.2957 4.64508C10.2957 5.50552 10.9932 6.20304 11.8536 6.20304Z" stroke="#777777" stroke-width="1.5" stroke-miterlimit="10"/>
<path d="M6.19775 5.8663V6.71829C6.19775 8.03283 7.1467 9.09812 8.31702 9.09812H9.73417C10.9045 9.09812 11.8534 8.03283 11.8534 6.71829V5.8663" stroke="#777777" stroke-width="1.5" stroke-miterlimit="10"/>
</svg>
